G04 #@! TF.GenerationSoftware,KiCad,Pcbnew,(5.1.5)-3*
G04 #@! TF.CreationDate,2020-06-28T21:32:05-07:00*
G04 #@! TF.ProjectId,LED_MATRIX,4c45445f-4d41-4545-9249-582e6b696361,V01*
G04 #@! TF.SameCoordinates,Original*
G04 #@! TF.FileFunction,Copper,L1,Top*
G04 #@! TF.FilePolarity,Positive*
%FSLAX46Y46*%
G04 Gerber Fmt 4.6, Leading zero omitted, Abs format (unit mm)*
G04 Created by KiCad (PCBNEW (5.1.5)-3) date 2020-06-28 21:32:05*
%MOMM*%
%LPD*%
G04 APERTURE LIST*
%ADD10C,3.800000*%
%ADD11C,1.600000*%
%ADD12O,1.600000X1.600000*%
%ADD13C,2.000000*%
%ADD14R,1.000000X1.500000*%
%ADD15O,1.000000X1.500000*%
%ADD16C,1.700000*%
%ADD17R,1.600000X1.600000*%
%ADD18R,2.000000X2.000000*%
%ADD19R,1.200000X1.200000*%
%ADD20C,1.200000*%
%ADD21R,2.400000X2.400000*%
%ADD22C,2.400000*%
%ADD23C,0.685800*%
%ADD24C,0.254000*%
%ADD25C,0.355600*%
G04 APERTURE END LIST*
D10*
X56388000Y-103632000D03*
X56388000Y-92202000D03*
X56388000Y-60452000D03*
D11*
X118364000Y-87630000D03*
D12*
X125984000Y-87630000D03*
D13*
X61454000Y-79502000D03*
X61468000Y-85852000D03*
D14*
X67564000Y-80518000D03*
D15*
X70104000Y-80518000D03*
X68834000Y-80518000D03*
D13*
X106426000Y-77724000D03*
X101854000Y-77724000D03*
D16*
X106934000Y-61214000D03*
X113434000Y-61214000D03*
X106934000Y-65714000D03*
X113434000Y-65714000D03*
X98044000Y-61214000D03*
X104544000Y-61214000D03*
X98044000Y-65714000D03*
X104544000Y-65714000D03*
D17*
X95250000Y-102362000D03*
D12*
X80010000Y-69342000D03*
X95250000Y-99822000D03*
X80010000Y-71882000D03*
X95250000Y-97282000D03*
X80010000Y-74422000D03*
X95250000Y-94742000D03*
X80010000Y-76962000D03*
X95250000Y-92202000D03*
X80010000Y-79502000D03*
X95250000Y-89662000D03*
X80010000Y-82042000D03*
X95250000Y-87122000D03*
X80010000Y-84582000D03*
X95250000Y-84582000D03*
X80010000Y-87122000D03*
X95250000Y-82042000D03*
X80010000Y-89662000D03*
X95250000Y-79502000D03*
X80010000Y-92202000D03*
X95250000Y-76962000D03*
X80010000Y-94742000D03*
X95250000Y-74422000D03*
X80010000Y-97282000D03*
X95250000Y-71882000D03*
X80010000Y-99822000D03*
X95250000Y-69342000D03*
X80010000Y-102362000D03*
X95250000Y-66802000D03*
X80010000Y-66802000D03*
D11*
X99648000Y-82550000D03*
X104648000Y-82550000D03*
X65706000Y-62230000D03*
X60706000Y-62230000D03*
X60706000Y-66294000D03*
X65706000Y-66294000D03*
X60706000Y-70358000D03*
X65706000Y-70358000D03*
X65786000Y-74422000D03*
X60786000Y-74422000D03*
D18*
X66294000Y-88646000D03*
D13*
X71294000Y-88646000D03*
D19*
X75184000Y-84836000D03*
D20*
X77184000Y-84836000D03*
X77184000Y-80010000D03*
D19*
X75184000Y-80010000D03*
D13*
X128778000Y-63246000D03*
X128778000Y-67818000D03*
X128778000Y-73660000D03*
X128778000Y-79756000D03*
X128778000Y-86106000D03*
X128778000Y-92202000D03*
X128778000Y-98044000D03*
X128778000Y-104394000D03*
X98552000Y-71628000D03*
X101854000Y-71628000D03*
X105156000Y-71628000D03*
X108458000Y-71628000D03*
X111760000Y-71628000D03*
X115062000Y-71628000D03*
X115316000Y-77216000D03*
X112014000Y-77216000D03*
D21*
X70104000Y-65532000D03*
D22*
X75104000Y-65532000D03*
D11*
X118364000Y-60198000D03*
D12*
X125984000Y-60198000D03*
X125984000Y-63246000D03*
D11*
X118364000Y-63246000D03*
X118364000Y-66294000D03*
D12*
X125984000Y-66294000D03*
D11*
X118364000Y-69342000D03*
D12*
X125984000Y-69342000D03*
X125984000Y-72390000D03*
D11*
X118364000Y-72390000D03*
X118364000Y-75438000D03*
D12*
X125984000Y-75438000D03*
X125984000Y-78486000D03*
D11*
X118364000Y-78486000D03*
X118364000Y-81534000D03*
D12*
X125984000Y-81534000D03*
X125984000Y-84582000D03*
D11*
X118364000Y-84582000D03*
X118364000Y-90678000D03*
D12*
X125984000Y-90678000D03*
X125984000Y-93726000D03*
D11*
X118364000Y-93726000D03*
D12*
X125984000Y-96774000D03*
D11*
X118364000Y-96774000D03*
D12*
X125984000Y-99822000D03*
D11*
X118364000Y-99822000D03*
X118364000Y-102870000D03*
D12*
X125984000Y-102870000D03*
D11*
X118364000Y-105918000D03*
D12*
X125984000Y-105918000D03*
D17*
X105664000Y-103886000D03*
D11*
X105664000Y-101346000D03*
X105664000Y-98806000D03*
X105664000Y-96266000D03*
X105664000Y-93726000D03*
X105664000Y-91186000D03*
X105664000Y-88646000D03*
X98044000Y-88646000D03*
X98044000Y-91186000D03*
X98044000Y-93726000D03*
X98044000Y-96266000D03*
X98044000Y-98806000D03*
X98044000Y-101346000D03*
X98044000Y-103886000D03*
X105664000Y-86106000D03*
X98044000Y-86106000D03*
D18*
X69850000Y-74676000D03*
D13*
X72390000Y-74676000D03*
X74930000Y-74676000D03*
D23*
X100447999Y-92573999D03*
D24*
X100829001Y-81983119D02*
X100829001Y-88400999D01*
X100472999Y-81627117D02*
X100829001Y-81983119D01*
X100472999Y-77061119D02*
X100472999Y-81627117D01*
X98843999Y-90386001D02*
X98044000Y-91186000D01*
X101191119Y-76342999D02*
X100472999Y-77061119D01*
X100829001Y-88400999D02*
X98843999Y-90386001D01*
X105044999Y-76342999D02*
X101191119Y-76342999D01*
X106426000Y-77724000D02*
X105044999Y-76342999D01*
X96266000Y-98806000D02*
X98044000Y-98806000D01*
X95250000Y-99822000D02*
X96266000Y-98806000D01*
X96774000Y-93726000D02*
X98044000Y-93726000D01*
X95250000Y-92202000D02*
X96774000Y-93726000D01*
X101854000Y-89916000D02*
X98044000Y-93726000D01*
X101854000Y-77724000D02*
X101854000Y-89916000D01*
X96049999Y-88862001D02*
X95250000Y-89662000D01*
X98610881Y-87464999D02*
X97447001Y-87464999D01*
X97447001Y-87464999D02*
X96049999Y-88862001D01*
X99225001Y-86850879D02*
X98610881Y-87464999D01*
X99225001Y-85539119D02*
X99225001Y-86850879D01*
X98466999Y-84781117D02*
X99225001Y-85539119D01*
X98552000Y-81898118D02*
X98466999Y-81983119D01*
X98466999Y-81983119D02*
X98466999Y-84781117D01*
X98552000Y-71628000D02*
X98552000Y-81898118D01*
X96049999Y-86322001D02*
X95250000Y-87122000D01*
X97170999Y-70965119D02*
X97170999Y-72290881D01*
X97889119Y-73009001D02*
X98044000Y-73009001D01*
X98044000Y-73009001D02*
X98044000Y-81687684D01*
X97889119Y-70246999D02*
X97170999Y-70965119D01*
X97447001Y-84924999D02*
X96049999Y-86322001D01*
X97170999Y-72290881D02*
X97889119Y-73009001D01*
X97958989Y-84921011D02*
X97955001Y-84924999D01*
X101854000Y-71628000D02*
X100472999Y-70246999D01*
X98044000Y-81687684D02*
X97958989Y-81772695D01*
X97958989Y-81772695D02*
X97958989Y-84921011D01*
X100472999Y-70246999D02*
X97889119Y-70246999D01*
X97955001Y-84924999D02*
X97447001Y-84924999D01*
X96662989Y-70754695D02*
X96662989Y-72532989D01*
X97678694Y-69738990D02*
X96662989Y-70754695D01*
X105156000Y-71628000D02*
X103266990Y-69738990D01*
X103266990Y-69738990D02*
X97678694Y-69738990D01*
X96662989Y-72532989D02*
X97536000Y-73406000D01*
X97536000Y-81477250D02*
X97536000Y-73406000D01*
X96049999Y-82963251D02*
X97536000Y-81477250D01*
X96049999Y-83782001D02*
X96049999Y-82963251D01*
X95250000Y-84582000D02*
X96049999Y-83782001D01*
X94450001Y-81242001D02*
X95250000Y-82042000D01*
X94068999Y-80860999D02*
X94450001Y-81242001D01*
X94068999Y-71315119D02*
X94068999Y-80860999D01*
X94683119Y-70700999D02*
X94068999Y-71315119D01*
X97108902Y-69230980D02*
X95638883Y-70700999D01*
X95638883Y-70700999D02*
X94683119Y-70700999D01*
X106060980Y-69230980D02*
X97108902Y-69230980D01*
X108458000Y-71628000D02*
X106060980Y-69230980D01*
X95597001Y-68160999D02*
X90081001Y-68160999D01*
X98044000Y-65714000D02*
X95597001Y-68160999D01*
X90081001Y-68160999D02*
X86614000Y-71628000D01*
X113434000Y-65714000D02*
X106752000Y-65714000D01*
X106934000Y-65714000D02*
X104544000Y-65714000D01*
X104544000Y-65714000D02*
X98044000Y-65714000D01*
X86614000Y-88138000D02*
X80010000Y-94742000D01*
X86614000Y-71628000D02*
X86614000Y-88138000D01*
X95250000Y-66802000D02*
X93218000Y-64770000D01*
X93218000Y-64770000D02*
X93218000Y-61214000D01*
X93218000Y-61214000D02*
X98044000Y-61214000D01*
X98044000Y-61214000D02*
X104544000Y-61214000D01*
X105702999Y-59982999D02*
X106084001Y-60364001D01*
X87960371Y-59982999D02*
X105702999Y-59982999D01*
X81141370Y-66802000D02*
X87960371Y-59982999D01*
X106084001Y-60364001D02*
X106934000Y-61214000D01*
X80010000Y-66802000D02*
X81141370Y-66802000D01*
X108136081Y-61214000D02*
X113434000Y-61214000D01*
X106934000Y-61214000D02*
X108136081Y-61214000D01*
D25*
X67564000Y-76200000D02*
X65786000Y-74422000D01*
X74930000Y-74676000D02*
X73406000Y-76200000D01*
X73406000Y-76200000D02*
X67564000Y-76200000D01*
X65786000Y-88138000D02*
X66294000Y-88646000D01*
X74228400Y-84836000D02*
X75184000Y-84836000D01*
X68748400Y-84836000D02*
X74228400Y-84836000D01*
X66294000Y-87290400D02*
X68748400Y-84836000D01*
X66294000Y-88646000D02*
X66294000Y-87290400D01*
X75184000Y-83880400D02*
X75184000Y-80010000D01*
X75184000Y-84836000D02*
X75184000Y-83880400D01*
X65786000Y-74422000D02*
X65786000Y-79502000D01*
X61454000Y-79502000D02*
X65786000Y-79502000D01*
X65786000Y-79502000D02*
X65786000Y-88138000D01*
D24*
X125984000Y-63246000D02*
X125984000Y-62114630D01*
X127508000Y-61976000D02*
X128778000Y-63246000D01*
X125984000Y-61976000D02*
X127508000Y-61976000D01*
X125984000Y-61976000D02*
X125984000Y-60198000D01*
X125984000Y-62114630D02*
X125984000Y-61976000D01*
X125984000Y-67818000D02*
X128778000Y-67818000D01*
X125984000Y-67818000D02*
X125984000Y-66294000D01*
X125984000Y-69342000D02*
X125984000Y-67818000D01*
X125984000Y-75438000D02*
X125984000Y-74306630D01*
X126238000Y-73660000D02*
X128778000Y-73660000D01*
X125984000Y-73914000D02*
X126238000Y-73660000D01*
X125984000Y-73914000D02*
X125984000Y-72390000D01*
X125984000Y-74306630D02*
X125984000Y-73914000D01*
X125984000Y-81534000D02*
X125984000Y-80402630D01*
X126238000Y-79756000D02*
X128778000Y-79756000D01*
X125984000Y-80010000D02*
X126238000Y-79756000D01*
X125984000Y-80010000D02*
X125984000Y-78486000D01*
X125984000Y-80402630D02*
X125984000Y-80010000D01*
X125984000Y-86106000D02*
X128778000Y-86106000D01*
X125984000Y-86106000D02*
X125984000Y-84582000D01*
X125984000Y-87630000D02*
X125984000Y-86106000D01*
X125984000Y-93726000D02*
X125984000Y-92594630D01*
X125984000Y-92202000D02*
X128778000Y-92202000D01*
X125984000Y-92202000D02*
X125984000Y-90678000D01*
X125984000Y-92594630D02*
X125984000Y-92202000D01*
X125984000Y-98298000D02*
X126238000Y-98044000D01*
X125984000Y-98298000D02*
X125984000Y-96774000D01*
X126238000Y-98044000D02*
X128778000Y-98044000D01*
X125984000Y-99822000D02*
X125984000Y-98298000D01*
X125984000Y-105918000D02*
X125984000Y-104786630D01*
X125984000Y-104394000D02*
X128778000Y-104394000D01*
X125984000Y-104394000D02*
X125984000Y-102870000D01*
X125984000Y-104786630D02*
X125984000Y-104394000D01*
X76584001Y-85435999D02*
X77184000Y-84836000D01*
X74373999Y-87646001D02*
X76584001Y-85435999D01*
X72293999Y-87646001D02*
X74373999Y-87646001D01*
X71294000Y-88646000D02*
X72293999Y-87646001D01*
X76584001Y-80609999D02*
X77184000Y-80010000D01*
X76584001Y-84236001D02*
X76584001Y-80609999D01*
X77184000Y-84836000D02*
X76584001Y-84236001D01*
X73389999Y-73676001D02*
X72390000Y-74676000D01*
X75592881Y-73294999D02*
X73771001Y-73294999D01*
X73771001Y-73294999D02*
X73389999Y-73676001D01*
X77184000Y-74886118D02*
X75592881Y-73294999D01*
X77184000Y-80010000D02*
X77184000Y-74886118D01*
X70104000Y-72390000D02*
X72390000Y-74676000D01*
X70104000Y-65532000D02*
X70104000Y-72390000D01*
X100447999Y-92573999D02*
X103632000Y-89389998D01*
X103632000Y-88138000D02*
X105664000Y-86106000D01*
X103632000Y-89389998D02*
X103632000Y-88138000D01*
D25*
X73904001Y-64332001D02*
X72206001Y-64332001D01*
X75104000Y-65532000D02*
X73904001Y-64332001D01*
X72206001Y-64332001D02*
X70104000Y-62230000D01*
X65706000Y-62230000D02*
X65706000Y-66294000D01*
X65706000Y-66294000D02*
X65706000Y-70358000D01*
X67564000Y-62230000D02*
X67564000Y-72390000D01*
X67564000Y-62230000D02*
X65706000Y-62230000D01*
X70104000Y-62230000D02*
X67564000Y-62230000D01*
X67564000Y-72390000D02*
X69850000Y-74676000D01*
X75104000Y-65532000D02*
X77898000Y-68326000D01*
X77898000Y-68326000D02*
X78232000Y-68326000D01*
X78232000Y-100584000D02*
X80010000Y-102362000D01*
X78232000Y-68326000D02*
X78232000Y-100584000D01*
D24*
X117564001Y-64045999D02*
X118364000Y-63246000D01*
X113680999Y-67929001D02*
X117564001Y-64045999D01*
X113680999Y-71750883D02*
X113680999Y-67929001D01*
X110632999Y-74798883D02*
X113680999Y-71750883D01*
X110632999Y-83677001D02*
X110632999Y-74798883D01*
X105664000Y-88646000D02*
X110632999Y-83677001D01*
X118364000Y-62114630D02*
X118364000Y-60198000D01*
X118364000Y-63246000D02*
X118364000Y-62114630D01*
X113934999Y-74902371D02*
X118364000Y-70473370D01*
X118364000Y-70473370D02*
X118364000Y-69342000D01*
X113934999Y-82915001D02*
X113934999Y-74902371D01*
X105664000Y-91186000D02*
X113934999Y-82915001D01*
X118364000Y-68210630D02*
X118364000Y-66294000D01*
X118364000Y-69342000D02*
X118364000Y-68210630D01*
X117182999Y-76619001D02*
X117564001Y-76237999D01*
X117182999Y-81996567D02*
X117182999Y-76619001D01*
X117564001Y-76237999D02*
X118364000Y-75438000D01*
X106463999Y-92715567D02*
X117182999Y-81996567D01*
X106463999Y-92926001D02*
X106463999Y-92715567D01*
X105664000Y-93726000D02*
X106463999Y-92926001D01*
X118364000Y-75438000D02*
X118364000Y-72390000D01*
X117564001Y-82333999D02*
X118364000Y-81534000D01*
X117182999Y-82715001D02*
X117564001Y-82333999D01*
X117182999Y-84747001D02*
X117182999Y-82715001D01*
X105664000Y-96266000D02*
X117182999Y-84747001D01*
X118364000Y-80402630D02*
X118364000Y-78486000D01*
X118364000Y-81534000D02*
X118364000Y-80402630D01*
X107188000Y-98806000D02*
X118364000Y-87630000D01*
X105664000Y-98806000D02*
X107188000Y-98806000D01*
X118364000Y-86498630D02*
X118364000Y-84582000D01*
X118364000Y-87630000D02*
X118364000Y-86498630D01*
X110744000Y-101346000D02*
X118364000Y-93726000D01*
X105664000Y-101346000D02*
X110744000Y-101346000D01*
X118364000Y-93726000D02*
X118364000Y-90678000D01*
X114300000Y-103886000D02*
X118364000Y-99822000D01*
X105664000Y-103886000D02*
X114300000Y-103886000D01*
X118364000Y-98690630D02*
X118364000Y-96774000D01*
X118364000Y-99822000D02*
X118364000Y-98690630D01*
X118110000Y-106172000D02*
X118364000Y-105918000D01*
X98044000Y-101346000D02*
X102870000Y-106172000D01*
X102870000Y-106172000D02*
X118110000Y-106172000D01*
X118364000Y-105918000D02*
X118364000Y-102870000D01*
G36*
X132702300Y-107556300D02*
G01*
X53987700Y-107556300D01*
X53987700Y-104461439D01*
X54141512Y-104832773D01*
X54418937Y-105247968D01*
X54772032Y-105601063D01*
X55187227Y-105878488D01*
X55648568Y-106069582D01*
X56138324Y-106167000D01*
X56637676Y-106167000D01*
X57127432Y-106069582D01*
X57588773Y-105878488D01*
X58003968Y-105601063D01*
X58357063Y-105247968D01*
X58634488Y-104832773D01*
X58825582Y-104371432D01*
X58923000Y-103881676D01*
X58923000Y-103382324D01*
X58825582Y-102892568D01*
X58634488Y-102431227D01*
X58357063Y-102016032D01*
X58003968Y-101662937D01*
X57588773Y-101385512D01*
X57127432Y-101194418D01*
X56637676Y-101097000D01*
X56138324Y-101097000D01*
X55648568Y-101194418D01*
X55187227Y-101385512D01*
X54772032Y-101662937D01*
X54418937Y-102016032D01*
X54141512Y-102431227D01*
X53987700Y-102802561D01*
X53987700Y-93031439D01*
X54141512Y-93402773D01*
X54418937Y-93817968D01*
X54772032Y-94171063D01*
X55187227Y-94448488D01*
X55648568Y-94639582D01*
X56138324Y-94737000D01*
X56637676Y-94737000D01*
X57127432Y-94639582D01*
X57588773Y-94448488D01*
X58003968Y-94171063D01*
X58357063Y-93817968D01*
X58634488Y-93402773D01*
X58825582Y-92941432D01*
X58923000Y-92451676D01*
X58923000Y-91952324D01*
X58825582Y-91462568D01*
X58634488Y-91001227D01*
X58357063Y-90586032D01*
X58003968Y-90232937D01*
X57588773Y-89955512D01*
X57127432Y-89764418D01*
X56637676Y-89667000D01*
X56138324Y-89667000D01*
X55648568Y-89764418D01*
X55187227Y-89955512D01*
X54772032Y-90232937D01*
X54418937Y-90586032D01*
X54141512Y-91001227D01*
X53987700Y-91372561D01*
X53987700Y-86987413D01*
X60512192Y-86987413D01*
X60607956Y-87251814D01*
X60897571Y-87392704D01*
X61209108Y-87474384D01*
X61530595Y-87493718D01*
X61849675Y-87449961D01*
X62154088Y-87344795D01*
X62328044Y-87251814D01*
X62423808Y-86987413D01*
X61468000Y-86031605D01*
X60512192Y-86987413D01*
X53987700Y-86987413D01*
X53987700Y-85914595D01*
X59826282Y-85914595D01*
X59870039Y-86233675D01*
X59975205Y-86538088D01*
X60068186Y-86712044D01*
X60332587Y-86807808D01*
X61288395Y-85852000D01*
X61647605Y-85852000D01*
X62603413Y-86807808D01*
X62867814Y-86712044D01*
X63008704Y-86422429D01*
X63090384Y-86110892D01*
X63109718Y-85789405D01*
X63065961Y-85470325D01*
X62960795Y-85165912D01*
X62867814Y-84991956D01*
X62603413Y-84896192D01*
X61647605Y-85852000D01*
X61288395Y-85852000D01*
X60332587Y-84896192D01*
X60068186Y-84991956D01*
X59927296Y-85281571D01*
X59845616Y-85593108D01*
X59826282Y-85914595D01*
X53987700Y-85914595D01*
X53987700Y-84716587D01*
X60512192Y-84716587D01*
X61468000Y-85672395D01*
X62423808Y-84716587D01*
X62328044Y-84452186D01*
X62038429Y-84311296D01*
X61726892Y-84229616D01*
X61405405Y-84210282D01*
X61086325Y-84254039D01*
X60781912Y-84359205D01*
X60607956Y-84452186D01*
X60512192Y-84716587D01*
X53987700Y-84716587D01*
X53987700Y-79340967D01*
X59819000Y-79340967D01*
X59819000Y-79663033D01*
X59881832Y-79978912D01*
X60005082Y-80276463D01*
X60184013Y-80544252D01*
X60411748Y-80771987D01*
X60679537Y-80950918D01*
X60977088Y-81074168D01*
X61292967Y-81137000D01*
X61615033Y-81137000D01*
X61930912Y-81074168D01*
X62228463Y-80950918D01*
X62496252Y-80771987D01*
X62723987Y-80544252D01*
X62877302Y-80314800D01*
X64973200Y-80314800D01*
X64973201Y-87097452D01*
X64939506Y-87115463D01*
X64842815Y-87194815D01*
X64763463Y-87291506D01*
X64704498Y-87401820D01*
X64668188Y-87521518D01*
X64655928Y-87646000D01*
X64655928Y-89646000D01*
X64668188Y-89770482D01*
X64704498Y-89890180D01*
X64763463Y-90000494D01*
X64842815Y-90097185D01*
X64939506Y-90176537D01*
X65049820Y-90235502D01*
X65169518Y-90271812D01*
X65294000Y-90284072D01*
X67294000Y-90284072D01*
X67418482Y-90271812D01*
X67538180Y-90235502D01*
X67648494Y-90176537D01*
X67745185Y-90097185D01*
X67824537Y-90000494D01*
X67883502Y-89890180D01*
X67916496Y-89781413D01*
X70338192Y-89781413D01*
X70433956Y-90045814D01*
X70723571Y-90186704D01*
X71035108Y-90268384D01*
X71356595Y-90287718D01*
X71675675Y-90243961D01*
X71980088Y-90138795D01*
X72154044Y-90045814D01*
X72249808Y-89781413D01*
X71294000Y-88825605D01*
X70338192Y-89781413D01*
X67916496Y-89781413D01*
X67919812Y-89770482D01*
X67932072Y-89646000D01*
X67932072Y-88708595D01*
X69652282Y-88708595D01*
X69696039Y-89027675D01*
X69801205Y-89332088D01*
X69894186Y-89506044D01*
X70158587Y-89601808D01*
X71114395Y-88646000D01*
X71473605Y-88646000D01*
X72429413Y-89601808D01*
X72693814Y-89506044D01*
X72834704Y-89216429D01*
X72916384Y-88904892D01*
X72935718Y-88583405D01*
X72891961Y-88264325D01*
X72786795Y-87959912D01*
X72693814Y-87785956D01*
X72429413Y-87690192D01*
X71473605Y-88646000D01*
X71114395Y-88646000D01*
X70158587Y-87690192D01*
X69894186Y-87785956D01*
X69753296Y-88075571D01*
X69671616Y-88387108D01*
X69652282Y-88708595D01*
X67932072Y-88708595D01*
X67932072Y-87646000D01*
X67919812Y-87521518D01*
X67916497Y-87510587D01*
X70338192Y-87510587D01*
X71294000Y-88466395D01*
X72249808Y-87510587D01*
X72154044Y-87246186D01*
X71864429Y-87105296D01*
X71552892Y-87023616D01*
X71231405Y-87004282D01*
X70912325Y-87048039D01*
X70607912Y-87153205D01*
X70433956Y-87246186D01*
X70338192Y-87510587D01*
X67916497Y-87510587D01*
X67883502Y-87401820D01*
X67824537Y-87291506D01*
X67745185Y-87194815D01*
X67648494Y-87115463D01*
X67628889Y-87104984D01*
X69085073Y-85648800D01*
X73984979Y-85648800D01*
X73994498Y-85680180D01*
X74053463Y-85790494D01*
X74132815Y-85887185D01*
X74229506Y-85966537D01*
X74339820Y-86025502D01*
X74459518Y-86061812D01*
X74584000Y-86074072D01*
X75784000Y-86074072D01*
X75908482Y-86061812D01*
X76028180Y-86025502D01*
X76138494Y-85966537D01*
X76235185Y-85887185D01*
X76314537Y-85790494D01*
X76338858Y-85744994D01*
X76396736Y-85802872D01*
X76513842Y-85685766D01*
X76561148Y-85909348D01*
X76782516Y-86010237D01*
X77019313Y-86066000D01*
X77262438Y-86074495D01*
X77419201Y-86048968D01*
X77419201Y-100544070D01*
X77415268Y-100584000D01*
X77430962Y-100743336D01*
X77477438Y-100896549D01*
X77549551Y-101031463D01*
X77552913Y-101037752D01*
X77654484Y-101161517D01*
X77685495Y-101186967D01*
X78598923Y-102100396D01*
X78575000Y-102220665D01*
X78575000Y-102503335D01*
X78630147Y-102780574D01*
X78738320Y-103041727D01*
X78895363Y-103276759D01*
X79095241Y-103476637D01*
X79246760Y-103577879D01*
X79037869Y-103717455D01*
X78825455Y-103929869D01*
X78658562Y-104179642D01*
X78543605Y-104457174D01*
X78485000Y-104751801D01*
X78485000Y-105052199D01*
X78543605Y-105346826D01*
X78658562Y-105624358D01*
X78825455Y-105874131D01*
X79037869Y-106086545D01*
X79287642Y-106253438D01*
X79565174Y-106368395D01*
X79859801Y-106427000D01*
X80160199Y-106427000D01*
X80454826Y-106368395D01*
X80732358Y-106253438D01*
X80982131Y-106086545D01*
X81194545Y-105874131D01*
X81361438Y-105624358D01*
X81476395Y-105346826D01*
X81535000Y-105052199D01*
X81535000Y-104751801D01*
X81476395Y-104457174D01*
X81361438Y-104179642D01*
X81194545Y-103929869D01*
X80982131Y-103717455D01*
X80773240Y-103577879D01*
X80924759Y-103476637D01*
X81124637Y-103276759D01*
X81281680Y-103041727D01*
X81389853Y-102780574D01*
X81445000Y-102503335D01*
X81445000Y-102220665D01*
X81389853Y-101943426D01*
X81281680Y-101682273D01*
X81124637Y-101447241D01*
X80924759Y-101247363D01*
X80689727Y-101090320D01*
X80679135Y-101085933D01*
X80865131Y-100974385D01*
X81073519Y-100785414D01*
X81241037Y-100559420D01*
X81361246Y-100305087D01*
X81401904Y-100171039D01*
X81279915Y-99949000D01*
X80137000Y-99949000D01*
X80137000Y-99969000D01*
X79883000Y-99969000D01*
X79883000Y-99949000D01*
X79863000Y-99949000D01*
X79863000Y-99695000D01*
X79883000Y-99695000D01*
X79883000Y-99675000D01*
X80137000Y-99675000D01*
X80137000Y-99695000D01*
X81279915Y-99695000D01*
X81401904Y-99472961D01*
X81361246Y-99338913D01*
X81241037Y-99084580D01*
X81073519Y-98858586D01*
X80865131Y-98669615D01*
X80679135Y-98558067D01*
X80689727Y-98553680D01*
X80924759Y-98396637D01*
X81124637Y-98196759D01*
X81281680Y-97961727D01*
X81389853Y-97700574D01*
X81445000Y-97423335D01*
X81445000Y-97140665D01*
X81389853Y-96863426D01*
X81281680Y-96602273D01*
X81124637Y-96367241D01*
X80924759Y-96167363D01*
X80692241Y-96012000D01*
X80924759Y-95856637D01*
X81124637Y-95656759D01*
X81281680Y-95421727D01*
X81389853Y-95160574D01*
X81445000Y-94883335D01*
X81445000Y-94600665D01*
X81409157Y-94420473D01*
X87126352Y-88703279D01*
X87155422Y-88679422D01*
X87250645Y-88563392D01*
X87321402Y-88431015D01*
X87364974Y-88287378D01*
X87376000Y-88175426D01*
X87376000Y-88175424D01*
X87379686Y-88138001D01*
X87376000Y-88100578D01*
X87376000Y-71943630D01*
X90396632Y-68922999D01*
X93870324Y-68922999D01*
X93870147Y-68923426D01*
X93815000Y-69200665D01*
X93815000Y-69483335D01*
X93870147Y-69760574D01*
X93978320Y-70021727D01*
X94101063Y-70205425D01*
X93556652Y-70749836D01*
X93527577Y-70773697D01*
X93493073Y-70815741D01*
X93432354Y-70889727D01*
X93407879Y-70935517D01*
X93361597Y-71022105D01*
X93318025Y-71165742D01*
X93307485Y-71272759D01*
X93303313Y-71315119D01*
X93306999Y-71352542D01*
X93307000Y-80823566D01*
X93303313Y-80860999D01*
X93318026Y-81010377D01*
X93361598Y-81154014D01*
X93432354Y-81286391D01*
X93503720Y-81373350D01*
X93527578Y-81402421D01*
X93556648Y-81426278D01*
X93850843Y-81720473D01*
X93815000Y-81900665D01*
X93815000Y-82183335D01*
X93870147Y-82460574D01*
X93978320Y-82721727D01*
X94135363Y-82956759D01*
X94335241Y-83156637D01*
X94567759Y-83312000D01*
X94335241Y-83467363D01*
X94135363Y-83667241D01*
X93978320Y-83902273D01*
X93870147Y-84163426D01*
X93815000Y-84440665D01*
X93815000Y-84723335D01*
X93870147Y-85000574D01*
X93978320Y-85261727D01*
X94135363Y-85496759D01*
X94335241Y-85696637D01*
X94567759Y-85852000D01*
X94335241Y-86007363D01*
X94135363Y-86207241D01*
X93978320Y-86442273D01*
X93870147Y-86703426D01*
X93815000Y-86980665D01*
X93815000Y-87263335D01*
X93870147Y-87540574D01*
X93978320Y-87801727D01*
X94135363Y-88036759D01*
X94335241Y-88236637D01*
X94567759Y-88392000D01*
X94335241Y-88547363D01*
X94135363Y-88747241D01*
X93978320Y-88982273D01*
X93870147Y-89243426D01*
X93815000Y-89520665D01*
X93815000Y-89803335D01*
X93870147Y-90080574D01*
X93978320Y-90341727D01*
X94135363Y-90576759D01*
X94335241Y-90776637D01*
X94567759Y-90932000D01*
X94335241Y-91087363D01*
X94135363Y-91287241D01*
X93978320Y-91522273D01*
X93870147Y-91783426D01*
X93815000Y-92060665D01*
X93815000Y-92343335D01*
X93870147Y-92620574D01*
X93978320Y-92881727D01*
X94135363Y-93116759D01*
X94335241Y-93316637D01*
X94567759Y-93472000D01*
X94335241Y-93627363D01*
X94135363Y-93827241D01*
X93978320Y-94062273D01*
X93870147Y-94323426D01*
X93815000Y-94600665D01*
X93815000Y-94883335D01*
X93870147Y-95160574D01*
X93978320Y-95421727D01*
X94135363Y-95656759D01*
X94335241Y-95856637D01*
X94567759Y-96012000D01*
X94335241Y-96167363D01*
X94135363Y-96367241D01*
X93978320Y-96602273D01*
X93870147Y-96863426D01*
X93815000Y-97140665D01*
X93815000Y-97423335D01*
X93870147Y-97700574D01*
X93978320Y-97961727D01*
X94135363Y-98196759D01*
X94335241Y-98396637D01*
X94567759Y-98552000D01*
X94335241Y-98707363D01*
X94135363Y-98907241D01*
X93978320Y-99142273D01*
X93870147Y-99403426D01*
X93815000Y-99680665D01*
X93815000Y-99963335D01*
X93870147Y-100240574D01*
X93978320Y-100501727D01*
X94135363Y-100736759D01*
X94333961Y-100935357D01*
X94325518Y-100936188D01*
X94205820Y-100972498D01*
X94095506Y-101031463D01*
X93998815Y-101110815D01*
X93919463Y-101207506D01*
X93860498Y-101317820D01*
X93824188Y-101437518D01*
X93811928Y-101562000D01*
X93811928Y-103162000D01*
X93824188Y-103286482D01*
X93860498Y-103406180D01*
X93919463Y-103516494D01*
X93998815Y-103613185D01*
X94095506Y-103692537D01*
X94205820Y-103751502D01*
X94234977Y-103760347D01*
X94065455Y-103929869D01*
X93898562Y-104179642D01*
X93783605Y-104457174D01*
X93725000Y-104751801D01*
X93725000Y-105052199D01*
X93783605Y-105346826D01*
X93898562Y-105624358D01*
X94065455Y-105874131D01*
X94277869Y-106086545D01*
X94527642Y-106253438D01*
X94805174Y-106368395D01*
X95099801Y-106427000D01*
X95400199Y-106427000D01*
X95694826Y-106368395D01*
X95972358Y-106253438D01*
X96222131Y-106086545D01*
X96434545Y-105874131D01*
X96601438Y-105624358D01*
X96716395Y-105346826D01*
X96775000Y-105052199D01*
X96775000Y-104751801D01*
X96716395Y-104457174D01*
X96601438Y-104179642D01*
X96434545Y-103929869D01*
X96265023Y-103760347D01*
X96294180Y-103751502D01*
X96404494Y-103692537D01*
X96501185Y-103613185D01*
X96580537Y-103516494D01*
X96639502Y-103406180D01*
X96675812Y-103286482D01*
X96688072Y-103162000D01*
X96688072Y-101822334D01*
X96772320Y-102025727D01*
X96929363Y-102260759D01*
X97129241Y-102460637D01*
X97361759Y-102616000D01*
X97129241Y-102771363D01*
X96929363Y-102971241D01*
X96772320Y-103206273D01*
X96664147Y-103467426D01*
X96609000Y-103744665D01*
X96609000Y-104027335D01*
X96664147Y-104304574D01*
X96772320Y-104565727D01*
X96929363Y-104800759D01*
X97129241Y-105000637D01*
X97364273Y-105157680D01*
X97625426Y-105265853D01*
X97902665Y-105321000D01*
X98185335Y-105321000D01*
X98462574Y-105265853D01*
X98723727Y-105157680D01*
X98958759Y-105000637D01*
X99158637Y-104800759D01*
X99315680Y-104565727D01*
X99423853Y-104304574D01*
X99479000Y-104027335D01*
X99479000Y-103858630D01*
X102304716Y-106684346D01*
X102328578Y-106713422D01*
X102402219Y-106773857D01*
X102444607Y-106808645D01*
X102489722Y-106832759D01*
X102576985Y-106879402D01*
X102720622Y-106922974D01*
X102832574Y-106934000D01*
X102832577Y-106934000D01*
X102870000Y-106937686D01*
X102907423Y-106934000D01*
X117350604Y-106934000D01*
X117449241Y-107032637D01*
X117684273Y-107189680D01*
X117945426Y-107297853D01*
X118222665Y-107353000D01*
X118505335Y-107353000D01*
X118782574Y-107297853D01*
X119043727Y-107189680D01*
X119278759Y-107032637D01*
X119478637Y-106832759D01*
X119635680Y-106597727D01*
X119743853Y-106336574D01*
X119799000Y-106059335D01*
X119799000Y-105776665D01*
X119743853Y-105499426D01*
X119635680Y-105238273D01*
X119478637Y-105003241D01*
X119278759Y-104803363D01*
X119126000Y-104701293D01*
X119126000Y-104086707D01*
X119278759Y-103984637D01*
X119478637Y-103784759D01*
X119635680Y-103549727D01*
X119743853Y-103288574D01*
X119799000Y-103011335D01*
X119799000Y-102728665D01*
X124549000Y-102728665D01*
X124549000Y-103011335D01*
X124604147Y-103288574D01*
X124712320Y-103549727D01*
X124869363Y-103784759D01*
X125069241Y-103984637D01*
X125222000Y-104086707D01*
X125222000Y-104356574D01*
X125218314Y-104394000D01*
X125222000Y-104431425D01*
X125222000Y-104701293D01*
X125069241Y-104803363D01*
X124869363Y-105003241D01*
X124712320Y-105238273D01*
X124604147Y-105499426D01*
X124549000Y-105776665D01*
X124549000Y-106059335D01*
X124604147Y-106336574D01*
X124712320Y-106597727D01*
X124869363Y-106832759D01*
X125069241Y-107032637D01*
X125304273Y-107189680D01*
X125565426Y-107297853D01*
X125842665Y-107353000D01*
X126125335Y-107353000D01*
X126402574Y-107297853D01*
X126663727Y-107189680D01*
X126898759Y-107032637D01*
X127098637Y-106832759D01*
X127255680Y-106597727D01*
X127363853Y-106336574D01*
X127419000Y-106059335D01*
X127419000Y-105776665D01*
X127363853Y-105499426D01*
X127255680Y-105238273D01*
X127200707Y-105156000D01*
X127323920Y-105156000D01*
X127329082Y-105168463D01*
X127508013Y-105436252D01*
X127735748Y-105663987D01*
X128003537Y-105842918D01*
X128301088Y-105966168D01*
X128616967Y-106029000D01*
X128939033Y-106029000D01*
X129254912Y-105966168D01*
X129552463Y-105842918D01*
X129820252Y-105663987D01*
X130047987Y-105436252D01*
X130226918Y-105168463D01*
X130350168Y-104870912D01*
X130413000Y-104555033D01*
X130413000Y-104232967D01*
X130350168Y-103917088D01*
X130226918Y-103619537D01*
X130047987Y-103351748D01*
X129820252Y-103124013D01*
X129552463Y-102945082D01*
X129254912Y-102821832D01*
X128939033Y-102759000D01*
X128616967Y-102759000D01*
X128301088Y-102821832D01*
X128003537Y-102945082D01*
X127735748Y-103124013D01*
X127508013Y-103351748D01*
X127329082Y-103619537D01*
X127323920Y-103632000D01*
X127200707Y-103632000D01*
X127255680Y-103549727D01*
X127363853Y-103288574D01*
X127419000Y-103011335D01*
X127419000Y-102728665D01*
X127363853Y-102451426D01*
X127255680Y-102190273D01*
X127098637Y-101955241D01*
X126898759Y-101755363D01*
X126663727Y-101598320D01*
X126402574Y-101490147D01*
X126125335Y-101435000D01*
X125842665Y-101435000D01*
X125565426Y-101490147D01*
X125304273Y-101598320D01*
X125069241Y-101755363D01*
X124869363Y-101955241D01*
X124712320Y-102190273D01*
X124604147Y-102451426D01*
X124549000Y-102728665D01*
X119799000Y-102728665D01*
X119743853Y-102451426D01*
X119635680Y-102190273D01*
X119478637Y-101955241D01*
X119278759Y-101755363D01*
X119043727Y-101598320D01*
X118782574Y-101490147D01*
X118505335Y-101435000D01*
X118222665Y-101435000D01*
X117945426Y-101490147D01*
X117684273Y-101598320D01*
X117627127Y-101636504D01*
X118042474Y-101221157D01*
X118222665Y-101257000D01*
X118505335Y-101257000D01*
X118782574Y-101201853D01*
X119043727Y-101093680D01*
X119278759Y-100936637D01*
X119478637Y-100736759D01*
X119635680Y-100501727D01*
X119743853Y-100240574D01*
X119799000Y-99963335D01*
X119799000Y-99680665D01*
X119743853Y-99403426D01*
X119635680Y-99142273D01*
X119478637Y-98907241D01*
X119278759Y-98707363D01*
X119126000Y-98605293D01*
X119126000Y-97990707D01*
X119278759Y-97888637D01*
X119478637Y-97688759D01*
X119635680Y-97453727D01*
X119743853Y-97192574D01*
X119799000Y-96915335D01*
X119799000Y-96632665D01*
X124549000Y-96632665D01*
X124549000Y-96915335D01*
X124604147Y-97192574D01*
X124712320Y-97453727D01*
X124869363Y-97688759D01*
X125069241Y-97888637D01*
X125222000Y-97990707D01*
X125222000Y-98260574D01*
X125218314Y-98298000D01*
X125222000Y-98335423D01*
X125222000Y-98335425D01*
X125222001Y-98335435D01*
X125222001Y-98605292D01*
X125069241Y-98707363D01*
X124869363Y-98907241D01*
X124712320Y-99142273D01*
X124604147Y-99403426D01*
X124549000Y-99680665D01*
X124549000Y-99963335D01*
X124604147Y-100240574D01*
X124712320Y-100501727D01*
X124869363Y-100736759D01*
X125069241Y-100936637D01*
X125304273Y-101093680D01*
X125565426Y-101201853D01*
X125842665Y-101257000D01*
X126125335Y-101257000D01*
X126402574Y-101201853D01*
X126663727Y-101093680D01*
X126898759Y-100936637D01*
X127098637Y-100736759D01*
X127255680Y-100501727D01*
X127363853Y-100240574D01*
X127419000Y-99963335D01*
X127419000Y-99680665D01*
X127363853Y-99403426D01*
X127255680Y-99142273D01*
X127098637Y-98907241D01*
X126997396Y-98806000D01*
X127323920Y-98806000D01*
X127329082Y-98818463D01*
X127508013Y-99086252D01*
X127735748Y-99313987D01*
X128003537Y-99492918D01*
X128301088Y-99616168D01*
X128616967Y-99679000D01*
X128939033Y-99679000D01*
X129254912Y-99616168D01*
X129552463Y-99492918D01*
X129820252Y-99313987D01*
X130047987Y-99086252D01*
X130226918Y-98818463D01*
X130350168Y-98520912D01*
X130413000Y-98205033D01*
X130413000Y-97882967D01*
X130350168Y-97567088D01*
X130226918Y-97269537D01*
X130047987Y-97001748D01*
X129820252Y-96774013D01*
X129552463Y-96595082D01*
X129254912Y-96471832D01*
X128939033Y-96409000D01*
X128616967Y-96409000D01*
X128301088Y-96471832D01*
X128003537Y-96595082D01*
X127735748Y-96774013D01*
X127508013Y-97001748D01*
X127336691Y-97258150D01*
X127363853Y-97192574D01*
X127419000Y-96915335D01*
X127419000Y-96632665D01*
X127363853Y-96355426D01*
X127255680Y-96094273D01*
X127098637Y-95859241D01*
X126898759Y-95659363D01*
X126663727Y-95502320D01*
X126402574Y-95394147D01*
X126125335Y-95339000D01*
X125842665Y-95339000D01*
X125565426Y-95394147D01*
X125304273Y-95502320D01*
X125069241Y-95659363D01*
X124869363Y-95859241D01*
X124712320Y-96094273D01*
X124604147Y-96355426D01*
X124549000Y-96632665D01*
X119799000Y-96632665D01*
X119743853Y-96355426D01*
X119635680Y-96094273D01*
X119478637Y-95859241D01*
X119278759Y-95659363D01*
X119043727Y-95502320D01*
X118782574Y-95394147D01*
X118505335Y-95339000D01*
X118222665Y-95339000D01*
X117945426Y-95394147D01*
X117684273Y-95502320D01*
X117627128Y-95540503D01*
X118042474Y-95125157D01*
X118222665Y-95161000D01*
X118505335Y-95161000D01*
X118782574Y-95105853D01*
X119043727Y-94997680D01*
X119278759Y-94840637D01*
X119478637Y-94640759D01*
X119635680Y-94405727D01*
X119743853Y-94144574D01*
X119799000Y-93867335D01*
X119799000Y-93584665D01*
X119743853Y-93307426D01*
X119635680Y-93046273D01*
X119478637Y-92811241D01*
X119278759Y-92611363D01*
X119126000Y-92509293D01*
X119126000Y-91894707D01*
X119278759Y-91792637D01*
X119478637Y-91592759D01*
X119635680Y-91357727D01*
X119743853Y-91096574D01*
X119799000Y-90819335D01*
X119799000Y-90536665D01*
X124549000Y-90536665D01*
X124549000Y-90819335D01*
X124604147Y-91096574D01*
X124712320Y-91357727D01*
X124869363Y-91592759D01*
X125069241Y-91792637D01*
X125222000Y-91894707D01*
X125222000Y-92164574D01*
X125218314Y-92202000D01*
X125222000Y-92239425D01*
X125222000Y-92509293D01*
X125069241Y-92611363D01*
X124869363Y-92811241D01*
X124712320Y-93046273D01*
X124604147Y-93307426D01*
X124549000Y-93584665D01*
X124549000Y-93867335D01*
X124604147Y-94144574D01*
X124712320Y-94405727D01*
X124869363Y-94640759D01*
X125069241Y-94840637D01*
X125304273Y-94997680D01*
X125565426Y-95105853D01*
X125842665Y-95161000D01*
X126125335Y-95161000D01*
X126402574Y-95105853D01*
X126663727Y-94997680D01*
X126898759Y-94840637D01*
X127098637Y-94640759D01*
X127255680Y-94405727D01*
X127363853Y-94144574D01*
X127419000Y-93867335D01*
X127419000Y-93584665D01*
X127363853Y-93307426D01*
X127255680Y-93046273D01*
X127200707Y-92964000D01*
X127323920Y-92964000D01*
X127329082Y-92976463D01*
X127508013Y-93244252D01*
X127735748Y-93471987D01*
X128003537Y-93650918D01*
X128301088Y-93774168D01*
X128616967Y-93837000D01*
X128939033Y-93837000D01*
X129254912Y-93774168D01*
X129552463Y-93650918D01*
X129820252Y-93471987D01*
X130047987Y-93244252D01*
X130226918Y-92976463D01*
X130350168Y-92678912D01*
X130413000Y-92363033D01*
X130413000Y-92040967D01*
X130350168Y-91725088D01*
X130226918Y-91427537D01*
X130047987Y-91159748D01*
X129820252Y-90932013D01*
X129552463Y-90753082D01*
X129254912Y-90629832D01*
X128939033Y-90567000D01*
X128616967Y-90567000D01*
X128301088Y-90629832D01*
X128003537Y-90753082D01*
X127735748Y-90932013D01*
X127508013Y-91159748D01*
X127329082Y-91427537D01*
X127323920Y-91440000D01*
X127200707Y-91440000D01*
X127255680Y-91357727D01*
X127363853Y-91096574D01*
X127419000Y-90819335D01*
X127419000Y-90536665D01*
X127363853Y-90259426D01*
X127255680Y-89998273D01*
X127098637Y-89763241D01*
X126898759Y-89563363D01*
X126663727Y-89406320D01*
X126402574Y-89298147D01*
X126125335Y-89243000D01*
X125842665Y-89243000D01*
X125565426Y-89298147D01*
X125304273Y-89406320D01*
X125069241Y-89563363D01*
X124869363Y-89763241D01*
X124712320Y-89998273D01*
X124604147Y-90259426D01*
X124549000Y-90536665D01*
X119799000Y-90536665D01*
X119743853Y-90259426D01*
X119635680Y-89998273D01*
X119478637Y-89763241D01*
X119278759Y-89563363D01*
X119043727Y-89406320D01*
X118782574Y-89298147D01*
X118505335Y-89243000D01*
X118222665Y-89243000D01*
X117945426Y-89298147D01*
X117684273Y-89406320D01*
X117627128Y-89444503D01*
X118042474Y-89029157D01*
X118222665Y-89065000D01*
X118505335Y-89065000D01*
X118782574Y-89009853D01*
X119043727Y-88901680D01*
X119278759Y-88744637D01*
X119478637Y-88544759D01*
X119635680Y-88309727D01*
X119743853Y-88048574D01*
X119799000Y-87771335D01*
X119799000Y-87488665D01*
X119743853Y-87211426D01*
X119635680Y-86950273D01*
X119478637Y-86715241D01*
X119278759Y-86515363D01*
X119126000Y-86413293D01*
X119126000Y-85798707D01*
X119278759Y-85696637D01*
X119478637Y-85496759D01*
X119635680Y-85261727D01*
X119743853Y-85000574D01*
X119799000Y-84723335D01*
X119799000Y-84440665D01*
X124549000Y-84440665D01*
X124549000Y-84723335D01*
X124604147Y-85000574D01*
X124712320Y-85261727D01*
X124869363Y-85496759D01*
X125069241Y-85696637D01*
X125222000Y-85798707D01*
X125222000Y-86068574D01*
X125218314Y-86106000D01*
X125222001Y-86143435D01*
X125222001Y-86413292D01*
X125069241Y-86515363D01*
X124869363Y-86715241D01*
X124712320Y-86950273D01*
X124604147Y-87211426D01*
X124549000Y-87488665D01*
X124549000Y-87771335D01*
X124604147Y-88048574D01*
X124712320Y-88309727D01*
X124869363Y-88544759D01*
X125069241Y-88744637D01*
X125304273Y-88901680D01*
X125565426Y-89009853D01*
X125842665Y-89065000D01*
X126125335Y-89065000D01*
X126402574Y-89009853D01*
X126663727Y-88901680D01*
X126898759Y-88744637D01*
X127098637Y-88544759D01*
X127255680Y-88309727D01*
X127363853Y-88048574D01*
X127419000Y-87771335D01*
X127419000Y-87488665D01*
X127363853Y-87211426D01*
X127255680Y-86950273D01*
X127200707Y-86868000D01*
X127323920Y-86868000D01*
X127329082Y-86880463D01*
X127508013Y-87148252D01*
X127735748Y-87375987D01*
X128003537Y-87554918D01*
X128301088Y-87678168D01*
X128616967Y-87741000D01*
X128939033Y-87741000D01*
X129254912Y-87678168D01*
X129552463Y-87554918D01*
X129820252Y-87375987D01*
X130047987Y-87148252D01*
X130226918Y-86880463D01*
X130350168Y-86582912D01*
X130413000Y-86267033D01*
X130413000Y-85944967D01*
X130350168Y-85629088D01*
X130226918Y-85331537D01*
X130047987Y-85063748D01*
X129820252Y-84836013D01*
X129552463Y-84657082D01*
X129254912Y-84533832D01*
X128939033Y-84471000D01*
X128616967Y-84471000D01*
X128301088Y-84533832D01*
X128003537Y-84657082D01*
X127735748Y-84836013D01*
X127508013Y-85063748D01*
X127329082Y-85331537D01*
X127323920Y-85344000D01*
X127200707Y-85344000D01*
X127255680Y-85261727D01*
X127363853Y-85000574D01*
X127419000Y-84723335D01*
X127419000Y-84440665D01*
X127363853Y-84163426D01*
X127255680Y-83902273D01*
X127098637Y-83667241D01*
X126898759Y-83467363D01*
X126663727Y-83310320D01*
X126402574Y-83202147D01*
X126125335Y-83147000D01*
X125842665Y-83147000D01*
X125565426Y-83202147D01*
X125304273Y-83310320D01*
X125069241Y-83467363D01*
X124869363Y-83667241D01*
X124712320Y-83902273D01*
X124604147Y-84163426D01*
X124549000Y-84440665D01*
X119799000Y-84440665D01*
X119743853Y-84163426D01*
X119635680Y-83902273D01*
X119478637Y-83667241D01*
X119278759Y-83467363D01*
X119043727Y-83310320D01*
X118782574Y-83202147D01*
X118505335Y-83147000D01*
X118222665Y-83147000D01*
X117945426Y-83202147D01*
X117944999Y-83202324D01*
X117944999Y-83030631D01*
X118042473Y-82933157D01*
X118222665Y-82969000D01*
X118505335Y-82969000D01*
X118782574Y-82913853D01*
X119043727Y-82805680D01*
X119278759Y-82648637D01*
X119478637Y-82448759D01*
X119635680Y-82213727D01*
X119743853Y-81952574D01*
X119799000Y-81675335D01*
X119799000Y-81392665D01*
X119743853Y-81115426D01*
X119635680Y-80854273D01*
X119478637Y-80619241D01*
X119278759Y-80419363D01*
X119126000Y-80317293D01*
X119126000Y-79702707D01*
X119278759Y-79600637D01*
X119478637Y-79400759D01*
X119635680Y-79165727D01*
X119743853Y-78904574D01*
X119799000Y-78627335D01*
X119799000Y-78344665D01*
X124549000Y-78344665D01*
X124549000Y-78627335D01*
X124604147Y-78904574D01*
X124712320Y-79165727D01*
X124869363Y-79400759D01*
X125069241Y-79600637D01*
X125222000Y-79702707D01*
X125222000Y-79972574D01*
X125218314Y-80010000D01*
X125222000Y-80047423D01*
X125222000Y-80317293D01*
X125069241Y-80419363D01*
X124869363Y-80619241D01*
X124712320Y-80854273D01*
X124604147Y-81115426D01*
X124549000Y-81392665D01*
X124549000Y-81675335D01*
X124604147Y-81952574D01*
X124712320Y-82213727D01*
X124869363Y-82448759D01*
X125069241Y-82648637D01*
X125304273Y-82805680D01*
X125565426Y-82913853D01*
X125842665Y-82969000D01*
X126125335Y-82969000D01*
X126402574Y-82913853D01*
X126663727Y-82805680D01*
X126898759Y-82648637D01*
X127098637Y-82448759D01*
X127255680Y-82213727D01*
X127363853Y-81952574D01*
X127419000Y-81675335D01*
X127419000Y-81392665D01*
X127363853Y-81115426D01*
X127255680Y-80854273D01*
X127098637Y-80619241D01*
X126997396Y-80518000D01*
X127323920Y-80518000D01*
X127329082Y-80530463D01*
X127508013Y-80798252D01*
X127735748Y-81025987D01*
X128003537Y-81204918D01*
X128301088Y-81328168D01*
X128616967Y-81391000D01*
X128939033Y-81391000D01*
X129254912Y-81328168D01*
X129552463Y-81204918D01*
X129820252Y-81025987D01*
X130047987Y-80798252D01*
X130226918Y-80530463D01*
X130350168Y-80232912D01*
X130413000Y-79917033D01*
X130413000Y-79594967D01*
X130350168Y-79279088D01*
X130226918Y-78981537D01*
X130047987Y-78713748D01*
X129820252Y-78486013D01*
X129552463Y-78307082D01*
X129254912Y-78183832D01*
X128939033Y-78121000D01*
X128616967Y-78121000D01*
X128301088Y-78183832D01*
X128003537Y-78307082D01*
X127735748Y-78486013D01*
X127508013Y-78713748D01*
X127336691Y-78970150D01*
X127363853Y-78904574D01*
X127419000Y-78627335D01*
X127419000Y-78344665D01*
X127363853Y-78067426D01*
X127255680Y-77806273D01*
X127098637Y-77571241D01*
X126898759Y-77371363D01*
X126663727Y-77214320D01*
X126402574Y-77106147D01*
X126125335Y-77051000D01*
X125842665Y-77051000D01*
X125565426Y-77106147D01*
X125304273Y-77214320D01*
X125069241Y-77371363D01*
X124869363Y-77571241D01*
X124712320Y-77806273D01*
X124604147Y-78067426D01*
X124549000Y-78344665D01*
X119799000Y-78344665D01*
X119743853Y-78067426D01*
X119635680Y-77806273D01*
X119478637Y-77571241D01*
X119278759Y-77371363D01*
X119043727Y-77214320D01*
X118782574Y-77106147D01*
X118505335Y-77051000D01*
X118222665Y-77051000D01*
X117945426Y-77106147D01*
X117944999Y-77106324D01*
X117944999Y-76934631D01*
X118042473Y-76837157D01*
X118222665Y-76873000D01*
X118505335Y-76873000D01*
X118782574Y-76817853D01*
X119043727Y-76709680D01*
X119278759Y-76552637D01*
X119478637Y-76352759D01*
X119635680Y-76117727D01*
X119743853Y-75856574D01*
X119799000Y-75579335D01*
X119799000Y-75296665D01*
X119743853Y-75019426D01*
X119635680Y-74758273D01*
X119478637Y-74523241D01*
X119278759Y-74323363D01*
X119126000Y-74221293D01*
X119126000Y-73606707D01*
X119278759Y-73504637D01*
X119478637Y-73304759D01*
X119635680Y-73069727D01*
X119743853Y-72808574D01*
X119799000Y-72531335D01*
X119799000Y-72248665D01*
X124549000Y-72248665D01*
X124549000Y-72531335D01*
X124604147Y-72808574D01*
X124712320Y-73069727D01*
X124869363Y-73304759D01*
X125069241Y-73504637D01*
X125222000Y-73606707D01*
X125222000Y-73876574D01*
X125218314Y-73914000D01*
X125222000Y-73951423D01*
X125222000Y-74221293D01*
X125069241Y-74323363D01*
X124869363Y-74523241D01*
X124712320Y-74758273D01*
X124604147Y-75019426D01*
X124549000Y-75296665D01*
X124549000Y-75579335D01*
X124604147Y-75856574D01*
X124712320Y-76117727D01*
X124869363Y-76352759D01*
X125069241Y-76552637D01*
X125304273Y-76709680D01*
X125565426Y-76817853D01*
X125842665Y-76873000D01*
X126125335Y-76873000D01*
X126402574Y-76817853D01*
X126663727Y-76709680D01*
X126898759Y-76552637D01*
X127098637Y-76352759D01*
X127255680Y-76117727D01*
X127363853Y-75856574D01*
X127419000Y-75579335D01*
X127419000Y-75296665D01*
X127363853Y-75019426D01*
X127255680Y-74758273D01*
X127098637Y-74523241D01*
X126997396Y-74422000D01*
X127323920Y-74422000D01*
X127329082Y-74434463D01*
X127508013Y-74702252D01*
X127735748Y-74929987D01*
X128003537Y-75108918D01*
X128301088Y-75232168D01*
X128616967Y-75295000D01*
X128939033Y-75295000D01*
X129254912Y-75232168D01*
X129552463Y-75108918D01*
X129820252Y-74929987D01*
X130047987Y-74702252D01*
X130226918Y-74434463D01*
X130350168Y-74136912D01*
X130413000Y-73821033D01*
X130413000Y-73498967D01*
X130350168Y-73183088D01*
X130226918Y-72885537D01*
X130047987Y-72617748D01*
X129820252Y-72390013D01*
X129552463Y-72211082D01*
X129254912Y-72087832D01*
X128939033Y-72025000D01*
X128616967Y-72025000D01*
X128301088Y-72087832D01*
X128003537Y-72211082D01*
X127735748Y-72390013D01*
X127508013Y-72617748D01*
X127336691Y-72874150D01*
X127363853Y-72808574D01*
X127419000Y-72531335D01*
X127419000Y-72248665D01*
X127363853Y-71971426D01*
X127255680Y-71710273D01*
X127098637Y-71475241D01*
X126898759Y-71275363D01*
X126663727Y-71118320D01*
X126402574Y-71010147D01*
X126125335Y-70955000D01*
X125842665Y-70955000D01*
X125565426Y-71010147D01*
X125304273Y-71118320D01*
X125069241Y-71275363D01*
X124869363Y-71475241D01*
X124712320Y-71710273D01*
X124604147Y-71971426D01*
X124549000Y-72248665D01*
X119799000Y-72248665D01*
X119743853Y-71971426D01*
X119635680Y-71710273D01*
X119478637Y-71475241D01*
X119278759Y-71275363D01*
X119043727Y-71118320D01*
X118869039Y-71045962D01*
X118876353Y-71038648D01*
X118905422Y-71014792D01*
X119000645Y-70898762D01*
X119071402Y-70766385D01*
X119114974Y-70622748D01*
X119120949Y-70562082D01*
X119278759Y-70456637D01*
X119478637Y-70256759D01*
X119635680Y-70021727D01*
X119743853Y-69760574D01*
X119799000Y-69483335D01*
X119799000Y-69200665D01*
X119743853Y-68923426D01*
X119635680Y-68662273D01*
X119478637Y-68427241D01*
X119278759Y-68227363D01*
X119126000Y-68125293D01*
X119126000Y-67510707D01*
X119278759Y-67408637D01*
X119478637Y-67208759D01*
X119635680Y-66973727D01*
X119743853Y-66712574D01*
X119799000Y-66435335D01*
X119799000Y-66152665D01*
X124549000Y-66152665D01*
X124549000Y-66435335D01*
X124604147Y-66712574D01*
X124712320Y-66973727D01*
X124869363Y-67208759D01*
X125069241Y-67408637D01*
X125222000Y-67510707D01*
X125222000Y-67780574D01*
X125218314Y-67818000D01*
X125222001Y-67855435D01*
X125222001Y-68125292D01*
X125069241Y-68227363D01*
X124869363Y-68427241D01*
X124712320Y-68662273D01*
X124604147Y-68923426D01*
X124549000Y-69200665D01*
X124549000Y-69483335D01*
X124604147Y-69760574D01*
X124712320Y-70021727D01*
X124869363Y-70256759D01*
X125069241Y-70456637D01*
X125304273Y-70613680D01*
X125565426Y-70721853D01*
X125842665Y-70777000D01*
X126125335Y-70777000D01*
X126402574Y-70721853D01*
X126663727Y-70613680D01*
X126898759Y-70456637D01*
X127098637Y-70256759D01*
X127255680Y-70021727D01*
X127363853Y-69760574D01*
X127419000Y-69483335D01*
X127419000Y-69200665D01*
X127363853Y-68923426D01*
X127255680Y-68662273D01*
X127200707Y-68580000D01*
X127323920Y-68580000D01*
X127329082Y-68592463D01*
X127508013Y-68860252D01*
X127735748Y-69087987D01*
X128003537Y-69266918D01*
X128301088Y-69390168D01*
X128616967Y-69453000D01*
X128939033Y-69453000D01*
X129254912Y-69390168D01*
X129552463Y-69266918D01*
X129820252Y-69087987D01*
X130047987Y-68860252D01*
X130226918Y-68592463D01*
X130350168Y-68294912D01*
X130413000Y-67979033D01*
X130413000Y-67656967D01*
X130350168Y-67341088D01*
X130226918Y-67043537D01*
X130047987Y-66775748D01*
X129820252Y-66548013D01*
X129552463Y-66369082D01*
X129254912Y-66245832D01*
X128939033Y-66183000D01*
X128616967Y-66183000D01*
X128301088Y-66245832D01*
X128003537Y-66369082D01*
X127735748Y-66548013D01*
X127508013Y-66775748D01*
X127329082Y-67043537D01*
X127323920Y-67056000D01*
X127200707Y-67056000D01*
X127255680Y-66973727D01*
X127363853Y-66712574D01*
X127419000Y-66435335D01*
X127419000Y-66152665D01*
X127363853Y-65875426D01*
X127255680Y-65614273D01*
X127098637Y-65379241D01*
X126898759Y-65179363D01*
X126663727Y-65022320D01*
X126402574Y-64914147D01*
X126125335Y-64859000D01*
X125842665Y-64859000D01*
X125565426Y-64914147D01*
X125304273Y-65022320D01*
X125069241Y-65179363D01*
X124869363Y-65379241D01*
X124712320Y-65614273D01*
X124604147Y-65875426D01*
X124549000Y-66152665D01*
X119799000Y-66152665D01*
X119743853Y-65875426D01*
X119635680Y-65614273D01*
X119478637Y-65379241D01*
X119278759Y-65179363D01*
X119043727Y-65022320D01*
X118782574Y-64914147D01*
X118505335Y-64859000D01*
X118222665Y-64859000D01*
X117945426Y-64914147D01*
X117684273Y-65022320D01*
X117627128Y-65060503D01*
X118042474Y-64645157D01*
X118222665Y-64681000D01*
X118505335Y-64681000D01*
X118782574Y-64625853D01*
X119043727Y-64517680D01*
X119278759Y-64360637D01*
X119478637Y-64160759D01*
X119635680Y-63925727D01*
X119743853Y-63664574D01*
X119799000Y-63387335D01*
X119799000Y-63104665D01*
X119743853Y-62827426D01*
X119635680Y-62566273D01*
X119478637Y-62331241D01*
X119278759Y-62131363D01*
X119126000Y-62029293D01*
X119126000Y-61414707D01*
X119278759Y-61312637D01*
X119478637Y-61112759D01*
X119635680Y-60877727D01*
X119743853Y-60616574D01*
X119799000Y-60339335D01*
X119799000Y-60056665D01*
X124549000Y-60056665D01*
X124549000Y-60339335D01*
X124604147Y-60616574D01*
X124712320Y-60877727D01*
X124869363Y-61112759D01*
X125069241Y-61312637D01*
X125222000Y-61414707D01*
X125222000Y-61938574D01*
X125218314Y-61976000D01*
X125222000Y-62013425D01*
X125222000Y-62029293D01*
X125069241Y-62131363D01*
X124869363Y-62331241D01*
X124712320Y-62566273D01*
X124604147Y-62827426D01*
X124549000Y-63104665D01*
X124549000Y-63387335D01*
X124604147Y-63664574D01*
X124712320Y-63925727D01*
X124869363Y-64160759D01*
X125069241Y-64360637D01*
X125304273Y-64517680D01*
X125565426Y-64625853D01*
X125842665Y-64681000D01*
X126125335Y-64681000D01*
X126402574Y-64625853D01*
X126663727Y-64517680D01*
X126898759Y-64360637D01*
X127098637Y-64160759D01*
X127255680Y-63925727D01*
X127272760Y-63884491D01*
X127329082Y-64020463D01*
X127508013Y-64288252D01*
X127735748Y-64515987D01*
X128003537Y-64694918D01*
X128301088Y-64818168D01*
X128616967Y-64881000D01*
X128939033Y-64881000D01*
X129254912Y-64818168D01*
X129552463Y-64694918D01*
X129820252Y-64515987D01*
X130047987Y-64288252D01*
X130226918Y-64020463D01*
X130350168Y-63722912D01*
X130413000Y-63407033D01*
X130413000Y-63084967D01*
X130350168Y-62769088D01*
X130226918Y-62471537D01*
X130047987Y-62203748D01*
X129820252Y-61976013D01*
X129552463Y-61797082D01*
X129254912Y-61673832D01*
X128939033Y-61611000D01*
X128616967Y-61611000D01*
X128301088Y-61673832D01*
X128288625Y-61678994D01*
X128073284Y-61463654D01*
X128049422Y-61434578D01*
X127933392Y-61339355D01*
X127801015Y-61268598D01*
X127657378Y-61225026D01*
X127545426Y-61214000D01*
X127545423Y-61214000D01*
X127508000Y-61210314D01*
X127470577Y-61214000D01*
X126997396Y-61214000D01*
X127098637Y-61112759D01*
X127255680Y-60877727D01*
X127363853Y-60616574D01*
X127419000Y-60339335D01*
X127419000Y-60056665D01*
X127363853Y-59779426D01*
X127255680Y-59518273D01*
X127098637Y-59283241D01*
X126898759Y-59083363D01*
X126663727Y-58926320D01*
X126402574Y-58818147D01*
X126125335Y-58763000D01*
X125842665Y-58763000D01*
X125565426Y-58818147D01*
X125304273Y-58926320D01*
X125069241Y-59083363D01*
X124869363Y-59283241D01*
X124712320Y-59518273D01*
X124604147Y-59779426D01*
X124549000Y-60056665D01*
X119799000Y-60056665D01*
X119743853Y-59779426D01*
X119635680Y-59518273D01*
X119478637Y-59283241D01*
X119278759Y-59083363D01*
X119043727Y-58926320D01*
X118782574Y-58818147D01*
X118505335Y-58763000D01*
X118222665Y-58763000D01*
X117945426Y-58818147D01*
X117684273Y-58926320D01*
X117449241Y-59083363D01*
X117249363Y-59283241D01*
X117092320Y-59518273D01*
X116984147Y-59779426D01*
X116929000Y-60056665D01*
X116929000Y-60339335D01*
X116984147Y-60616574D01*
X117092320Y-60877727D01*
X117249363Y-61112759D01*
X117449241Y-61312637D01*
X117602000Y-61414707D01*
X117602000Y-62029293D01*
X117449241Y-62131363D01*
X117249363Y-62331241D01*
X117092320Y-62566273D01*
X116984147Y-62827426D01*
X116929000Y-63104665D01*
X116929000Y-63387335D01*
X116964843Y-63567526D01*
X114919000Y-65613370D01*
X114919000Y-65567740D01*
X114861932Y-65280842D01*
X114749990Y-65010589D01*
X114587475Y-64767368D01*
X114380632Y-64560525D01*
X114137411Y-64398010D01*
X113867158Y-64286068D01*
X113580260Y-64229000D01*
X113287740Y-64229000D01*
X113000842Y-64286068D01*
X112730589Y-64398010D01*
X112487368Y-64560525D01*
X112280525Y-64767368D01*
X112157158Y-64952000D01*
X108210842Y-64952000D01*
X108087475Y-64767368D01*
X107880632Y-64560525D01*
X107637411Y-64398010D01*
X107367158Y-64286068D01*
X107080260Y-64229000D01*
X106787740Y-64229000D01*
X106500842Y-64286068D01*
X106230589Y-64398010D01*
X105987368Y-64560525D01*
X105780525Y-64767368D01*
X105739000Y-64829515D01*
X105697475Y-64767368D01*
X105490632Y-64560525D01*
X105247411Y-64398010D01*
X104977158Y-64286068D01*
X104690260Y-64229000D01*
X104397740Y-64229000D01*
X104110842Y-64286068D01*
X103840589Y-64398010D01*
X103597368Y-64560525D01*
X103390525Y-64767368D01*
X103267158Y-64952000D01*
X99320842Y-64952000D01*
X99197475Y-64767368D01*
X98990632Y-64560525D01*
X98747411Y-64398010D01*
X98477158Y-64286068D01*
X98190260Y-64229000D01*
X97897740Y-64229000D01*
X97610842Y-64286068D01*
X97340589Y-64398010D01*
X97097368Y-64560525D01*
X96890525Y-64767368D01*
X96728010Y-65010589D01*
X96616068Y-65280842D01*
X96559000Y-65567740D01*
X96559000Y-65860260D01*
X96602321Y-66078048D01*
X96532346Y-66148023D01*
X96521680Y-66122273D01*
X96364637Y-65887241D01*
X96164759Y-65687363D01*
X96013240Y-65586121D01*
X96222131Y-65446545D01*
X96434545Y-65234131D01*
X96601438Y-64984358D01*
X96716395Y-64706826D01*
X96775000Y-64412199D01*
X96775000Y-64111801D01*
X96716395Y-63817174D01*
X96601438Y-63539642D01*
X96434545Y-63289869D01*
X96222131Y-63077455D01*
X95972358Y-62910562D01*
X95694826Y-62795605D01*
X95400199Y-62737000D01*
X95099801Y-62737000D01*
X94805174Y-62795605D01*
X94527642Y-62910562D01*
X94277869Y-63077455D01*
X94065455Y-63289869D01*
X93980000Y-63417761D01*
X93980000Y-61976000D01*
X96767158Y-61976000D01*
X96890525Y-62160632D01*
X97097368Y-62367475D01*
X97340589Y-62529990D01*
X97610842Y-62641932D01*
X97897740Y-62699000D01*
X98190260Y-62699000D01*
X98477158Y-62641932D01*
X98747411Y-62529990D01*
X98990632Y-62367475D01*
X99197475Y-62160632D01*
X99320842Y-61976000D01*
X103267158Y-61976000D01*
X103390525Y-62160632D01*
X103597368Y-62367475D01*
X103840589Y-62529990D01*
X104110842Y-62641932D01*
X104397740Y-62699000D01*
X104690260Y-62699000D01*
X104977158Y-62641932D01*
X105247411Y-62529990D01*
X105490632Y-62367475D01*
X105697475Y-62160632D01*
X105739000Y-62098485D01*
X105780525Y-62160632D01*
X105987368Y-62367475D01*
X106230589Y-62529990D01*
X106500842Y-62641932D01*
X106787740Y-62699000D01*
X107080260Y-62699000D01*
X107367158Y-62641932D01*
X107637411Y-62529990D01*
X107880632Y-62367475D01*
X108087475Y-62160632D01*
X108210842Y-61976000D01*
X112157158Y-61976000D01*
X112280525Y-62160632D01*
X112487368Y-62367475D01*
X112730589Y-62529990D01*
X113000842Y-62641932D01*
X113287740Y-62699000D01*
X113580260Y-62699000D01*
X113867158Y-62641932D01*
X114137411Y-62529990D01*
X114380632Y-62367475D01*
X114587475Y-62160632D01*
X114749990Y-61917411D01*
X114861932Y-61647158D01*
X114919000Y-61360260D01*
X114919000Y-61067740D01*
X114861932Y-60780842D01*
X114749990Y-60510589D01*
X114587475Y-60267368D01*
X114380632Y-60060525D01*
X114137411Y-59898010D01*
X113867158Y-59786068D01*
X113580260Y-59729000D01*
X113287740Y-59729000D01*
X113000842Y-59786068D01*
X112730589Y-59898010D01*
X112487368Y-60060525D01*
X112280525Y-60267368D01*
X112157158Y-60452000D01*
X108210842Y-60452000D01*
X108087475Y-60267368D01*
X107880632Y-60060525D01*
X107637411Y-59898010D01*
X107367158Y-59786068D01*
X107080260Y-59729000D01*
X106787740Y-59729000D01*
X106569951Y-59772321D01*
X106268283Y-59470653D01*
X106244421Y-59441577D01*
X106128391Y-59346354D01*
X105996014Y-59275597D01*
X105852377Y-59232025D01*
X105740425Y-59220999D01*
X105740422Y-59220999D01*
X105702999Y-59217313D01*
X105665576Y-59220999D01*
X87997794Y-59220999D01*
X87960371Y-59217313D01*
X87922948Y-59220999D01*
X87922945Y-59220999D01*
X87810993Y-59232025D01*
X87667356Y-59275597D01*
X87605735Y-59308534D01*
X87534978Y-59346354D01*
X87492590Y-59381142D01*
X87418949Y-59441577D01*
X87395087Y-59470653D01*
X81051568Y-65814172D01*
X80924759Y-65687363D01*
X80773240Y-65586121D01*
X80982131Y-65446545D01*
X81194545Y-65234131D01*
X81361438Y-64984358D01*
X81476395Y-64706826D01*
X81535000Y-64412199D01*
X81535000Y-64111801D01*
X81476395Y-63817174D01*
X81361438Y-63539642D01*
X81194545Y-63289869D01*
X80982131Y-63077455D01*
X80732358Y-62910562D01*
X80454826Y-62795605D01*
X80160199Y-62737000D01*
X79859801Y-62737000D01*
X79565174Y-62795605D01*
X79287642Y-62910562D01*
X79037869Y-63077455D01*
X78825455Y-63289869D01*
X78658562Y-63539642D01*
X78543605Y-63817174D01*
X78485000Y-64111801D01*
X78485000Y-64412199D01*
X78543605Y-64706826D01*
X78658562Y-64984358D01*
X78825455Y-65234131D01*
X79037869Y-65446545D01*
X79246760Y-65586121D01*
X79095241Y-65687363D01*
X78895363Y-65887241D01*
X78738320Y-66122273D01*
X78630147Y-66383426D01*
X78575000Y-66660665D01*
X78575000Y-66943335D01*
X78630147Y-67220574D01*
X78738320Y-67481727D01*
X78895363Y-67716759D01*
X79095241Y-67916637D01*
X79327759Y-68072000D01*
X79095241Y-68227363D01*
X79044058Y-68278546D01*
X79033039Y-68166663D01*
X78986562Y-68013450D01*
X78911088Y-67872248D01*
X78809517Y-67748483D01*
X78685752Y-67646912D01*
X78544550Y-67571438D01*
X78391337Y-67524961D01*
X78271923Y-67513200D01*
X78232000Y-67509268D01*
X78230854Y-67509381D01*
X76845121Y-66123649D01*
X76868482Y-66067250D01*
X76939000Y-65712732D01*
X76939000Y-65351268D01*
X76868482Y-64996750D01*
X76730156Y-64662801D01*
X76529338Y-64362256D01*
X76273744Y-64106662D01*
X75973199Y-63905844D01*
X75639250Y-63767518D01*
X75284732Y-63697000D01*
X74923268Y-63697000D01*
X74568750Y-63767518D01*
X74512351Y-63790879D01*
X74506972Y-63785500D01*
X74481518Y-63754484D01*
X74357753Y-63652913D01*
X74216551Y-63577439D01*
X74063338Y-63530962D01*
X73943924Y-63519201D01*
X73943921Y-63519201D01*
X73904001Y-63515269D01*
X73864081Y-63519201D01*
X72542673Y-63519201D01*
X70706972Y-61683500D01*
X70681517Y-61652483D01*
X70557752Y-61550912D01*
X70416550Y-61475438D01*
X70263337Y-61428961D01*
X70143923Y-61417200D01*
X70143920Y-61417200D01*
X70104000Y-61413268D01*
X70064080Y-61417200D01*
X67603923Y-61417200D01*
X67564000Y-61413268D01*
X67524077Y-61417200D01*
X66888764Y-61417200D01*
X66820637Y-61315241D01*
X66620759Y-61115363D01*
X66385727Y-60958320D01*
X66124574Y-60850147D01*
X65847335Y-60795000D01*
X65564665Y-60795000D01*
X65287426Y-60850147D01*
X65026273Y-60958320D01*
X64791241Y-61115363D01*
X64591363Y-61315241D01*
X64434320Y-61550273D01*
X64326147Y-61811426D01*
X64271000Y-62088665D01*
X64271000Y-62371335D01*
X64326147Y-62648574D01*
X64434320Y-62909727D01*
X64591363Y-63144759D01*
X64791241Y-63344637D01*
X64893200Y-63412764D01*
X64893201Y-65111236D01*
X64791241Y-65179363D01*
X64591363Y-65379241D01*
X64434320Y-65614273D01*
X64326147Y-65875426D01*
X64271000Y-66152665D01*
X64271000Y-66435335D01*
X64326147Y-66712574D01*
X64434320Y-66973727D01*
X64591363Y-67208759D01*
X64791241Y-67408637D01*
X64893200Y-67476764D01*
X64893201Y-69175236D01*
X64791241Y-69243363D01*
X64591363Y-69443241D01*
X64434320Y-69678273D01*
X64326147Y-69939426D01*
X64271000Y-70216665D01*
X64271000Y-70499335D01*
X64326147Y-70776574D01*
X64434320Y-71037727D01*
X64591363Y-71272759D01*
X64791241Y-71472637D01*
X65026273Y-71629680D01*
X65287426Y-71737853D01*
X65564665Y-71793000D01*
X65847335Y-71793000D01*
X66124574Y-71737853D01*
X66385727Y-71629680D01*
X66620759Y-71472637D01*
X66751201Y-71342195D01*
X66751201Y-72350070D01*
X66747268Y-72390000D01*
X66759735Y-72516569D01*
X66762962Y-72549337D01*
X66777060Y-72595813D01*
X66809438Y-72702549D01*
X66878793Y-72832303D01*
X66884913Y-72843752D01*
X66986484Y-72967517D01*
X67017495Y-72992967D01*
X68211928Y-74187401D01*
X68211928Y-75387200D01*
X67900673Y-75387200D01*
X67197077Y-74683604D01*
X67221000Y-74563335D01*
X67221000Y-74280665D01*
X67165853Y-74003426D01*
X67057680Y-73742273D01*
X66900637Y-73507241D01*
X66700759Y-73307363D01*
X66465727Y-73150320D01*
X66204574Y-73042147D01*
X65927335Y-72987000D01*
X65644665Y-72987000D01*
X65367426Y-73042147D01*
X65106273Y-73150320D01*
X64871241Y-73307363D01*
X64671363Y-73507241D01*
X64514320Y-73742273D01*
X64406147Y-74003426D01*
X64351000Y-74280665D01*
X64351000Y-74563335D01*
X64406147Y-74840574D01*
X64514320Y-75101727D01*
X64671363Y-75336759D01*
X64871241Y-75536637D01*
X64973200Y-75604764D01*
X64973201Y-78689200D01*
X62877302Y-78689200D01*
X62723987Y-78459748D01*
X62496252Y-78232013D01*
X62228463Y-78053082D01*
X61930912Y-77929832D01*
X61615033Y-77867000D01*
X61292967Y-77867000D01*
X60977088Y-77929832D01*
X60679537Y-78053082D01*
X60411748Y-78232013D01*
X60184013Y-78459748D01*
X60005082Y-78727537D01*
X59881832Y-79025088D01*
X59819000Y-79340967D01*
X53987700Y-79340967D01*
X53987700Y-75414702D01*
X59972903Y-75414702D01*
X60044486Y-75658671D01*
X60299996Y-75779571D01*
X60574184Y-75848300D01*
X60856512Y-75862217D01*
X61136130Y-75820787D01*
X61402292Y-75725603D01*
X61527514Y-75658671D01*
X61599097Y-75414702D01*
X60786000Y-74601605D01*
X59972903Y-75414702D01*
X53987700Y-75414702D01*
X53987700Y-74492512D01*
X59345783Y-74492512D01*
X59387213Y-74772130D01*
X59482397Y-75038292D01*
X59549329Y-75163514D01*
X59793298Y-75235097D01*
X60606395Y-74422000D01*
X60965605Y-74422000D01*
X61778702Y-75235097D01*
X62022671Y-75163514D01*
X62143571Y-74908004D01*
X62212300Y-74633816D01*
X62226217Y-74351488D01*
X62184787Y-74071870D01*
X62089603Y-73805708D01*
X62022671Y-73680486D01*
X61778702Y-73608903D01*
X60965605Y-74422000D01*
X60606395Y-74422000D01*
X59793298Y-73608903D01*
X59549329Y-73680486D01*
X59428429Y-73935996D01*
X59359700Y-74210184D01*
X59345783Y-74492512D01*
X53987700Y-74492512D01*
X53987700Y-73429298D01*
X59972903Y-73429298D01*
X60786000Y-74242395D01*
X61599097Y-73429298D01*
X61527514Y-73185329D01*
X61272004Y-73064429D01*
X60997816Y-72995700D01*
X60715488Y-72981783D01*
X60435870Y-73023213D01*
X60169708Y-73118397D01*
X60044486Y-73185329D01*
X59972903Y-73429298D01*
X53987700Y-73429298D01*
X53987700Y-71350702D01*
X59892903Y-71350702D01*
X59964486Y-71594671D01*
X60219996Y-71715571D01*
X60494184Y-71784300D01*
X60776512Y-71798217D01*
X61056130Y-71756787D01*
X61322292Y-71661603D01*
X61447514Y-71594671D01*
X61519097Y-71350702D01*
X60706000Y-70537605D01*
X59892903Y-71350702D01*
X53987700Y-71350702D01*
X53987700Y-70428512D01*
X59265783Y-70428512D01*
X59307213Y-70708130D01*
X59402397Y-70974292D01*
X59469329Y-71099514D01*
X59713298Y-71171097D01*
X60526395Y-70358000D01*
X60885605Y-70358000D01*
X61698702Y-71171097D01*
X61942671Y-71099514D01*
X62063571Y-70844004D01*
X62132300Y-70569816D01*
X62146217Y-70287488D01*
X62104787Y-70007870D01*
X62009603Y-69741708D01*
X61942671Y-69616486D01*
X61698702Y-69544903D01*
X60885605Y-70358000D01*
X60526395Y-70358000D01*
X59713298Y-69544903D01*
X59469329Y-69616486D01*
X59348429Y-69871996D01*
X59279700Y-70146184D01*
X59265783Y-70428512D01*
X53987700Y-70428512D01*
X53987700Y-69365298D01*
X59892903Y-69365298D01*
X60706000Y-70178395D01*
X61519097Y-69365298D01*
X61447514Y-69121329D01*
X61192004Y-69000429D01*
X60917816Y-68931700D01*
X60635488Y-68917783D01*
X60355870Y-68959213D01*
X60089708Y-69054397D01*
X59964486Y-69121329D01*
X59892903Y-69365298D01*
X53987700Y-69365298D01*
X53987700Y-67286702D01*
X59892903Y-67286702D01*
X59964486Y-67530671D01*
X60219996Y-67651571D01*
X60494184Y-67720300D01*
X60776512Y-67734217D01*
X61056130Y-67692787D01*
X61322292Y-67597603D01*
X61447514Y-67530671D01*
X61519097Y-67286702D01*
X60706000Y-66473605D01*
X59892903Y-67286702D01*
X53987700Y-67286702D01*
X53987700Y-66364512D01*
X59265783Y-66364512D01*
X59307213Y-66644130D01*
X59402397Y-66910292D01*
X59469329Y-67035514D01*
X59713298Y-67107097D01*
X60526395Y-66294000D01*
X60885605Y-66294000D01*
X61698702Y-67107097D01*
X61942671Y-67035514D01*
X62063571Y-66780004D01*
X62132300Y-66505816D01*
X62146217Y-66223488D01*
X62104787Y-65943870D01*
X62009603Y-65677708D01*
X61942671Y-65552486D01*
X61698702Y-65480903D01*
X60885605Y-66294000D01*
X60526395Y-66294000D01*
X59713298Y-65480903D01*
X59469329Y-65552486D01*
X59348429Y-65807996D01*
X59279700Y-66082184D01*
X59265783Y-66364512D01*
X53987700Y-66364512D01*
X53987700Y-65301298D01*
X59892903Y-65301298D01*
X60706000Y-66114395D01*
X61519097Y-65301298D01*
X61447514Y-65057329D01*
X61192004Y-64936429D01*
X60917816Y-64867700D01*
X60635488Y-64853783D01*
X60355870Y-64895213D01*
X60089708Y-64990397D01*
X59964486Y-65057329D01*
X59892903Y-65301298D01*
X53987700Y-65301298D01*
X53987700Y-63222702D01*
X59892903Y-63222702D01*
X59964486Y-63466671D01*
X60219996Y-63587571D01*
X60494184Y-63656300D01*
X60776512Y-63670217D01*
X61056130Y-63628787D01*
X61322292Y-63533603D01*
X61447514Y-63466671D01*
X61519097Y-63222702D01*
X60706000Y-62409605D01*
X59892903Y-63222702D01*
X53987700Y-63222702D01*
X53987700Y-61281439D01*
X54141512Y-61652773D01*
X54418937Y-62067968D01*
X54772032Y-62421063D01*
X55187227Y-62698488D01*
X55648568Y-62889582D01*
X56138324Y-62987000D01*
X56637676Y-62987000D01*
X57127432Y-62889582D01*
X57588773Y-62698488D01*
X58003968Y-62421063D01*
X58124519Y-62300512D01*
X59265783Y-62300512D01*
X59307213Y-62580130D01*
X59402397Y-62846292D01*
X59469329Y-62971514D01*
X59713298Y-63043097D01*
X60526395Y-62230000D01*
X60885605Y-62230000D01*
X61698702Y-63043097D01*
X61942671Y-62971514D01*
X62063571Y-62716004D01*
X62132300Y-62441816D01*
X62146217Y-62159488D01*
X62104787Y-61879870D01*
X62009603Y-61613708D01*
X61942671Y-61488486D01*
X61698702Y-61416903D01*
X60885605Y-62230000D01*
X60526395Y-62230000D01*
X59713298Y-61416903D01*
X59469329Y-61488486D01*
X59348429Y-61743996D01*
X59279700Y-62018184D01*
X59265783Y-62300512D01*
X58124519Y-62300512D01*
X58357063Y-62067968D01*
X58634488Y-61652773D01*
X58806583Y-61237298D01*
X59892903Y-61237298D01*
X60706000Y-62050395D01*
X61519097Y-61237298D01*
X61447514Y-60993329D01*
X61192004Y-60872429D01*
X60917816Y-60803700D01*
X60635488Y-60789783D01*
X60355870Y-60831213D01*
X60089708Y-60926397D01*
X59964486Y-60993329D01*
X59892903Y-61237298D01*
X58806583Y-61237298D01*
X58825582Y-61191432D01*
X58923000Y-60701676D01*
X58923000Y-60202324D01*
X58825582Y-59712568D01*
X58634488Y-59251227D01*
X58357063Y-58836032D01*
X58003968Y-58482937D01*
X57588773Y-58205512D01*
X57217439Y-58051700D01*
X132702301Y-58051700D01*
X132702300Y-107556300D01*
G37*
X132702300Y-107556300D02*
X53987700Y-107556300D01*
X53987700Y-104461439D01*
X54141512Y-104832773D01*
X54418937Y-105247968D01*
X54772032Y-105601063D01*
X55187227Y-105878488D01*
X55648568Y-106069582D01*
X56138324Y-106167000D01*
X56637676Y-106167000D01*
X57127432Y-106069582D01*
X57588773Y-105878488D01*
X58003968Y-105601063D01*
X58357063Y-105247968D01*
X58634488Y-104832773D01*
X58825582Y-104371432D01*
X58923000Y-103881676D01*
X58923000Y-103382324D01*
X58825582Y-102892568D01*
X58634488Y-102431227D01*
X58357063Y-102016032D01*
X58003968Y-101662937D01*
X57588773Y-101385512D01*
X57127432Y-101194418D01*
X56637676Y-101097000D01*
X56138324Y-101097000D01*
X55648568Y-101194418D01*
X55187227Y-101385512D01*
X54772032Y-101662937D01*
X54418937Y-102016032D01*
X54141512Y-102431227D01*
X53987700Y-102802561D01*
X53987700Y-93031439D01*
X54141512Y-93402773D01*
X54418937Y-93817968D01*
X54772032Y-94171063D01*
X55187227Y-94448488D01*
X55648568Y-94639582D01*
X56138324Y-94737000D01*
X56637676Y-94737000D01*
X57127432Y-94639582D01*
X57588773Y-94448488D01*
X58003968Y-94171063D01*
X58357063Y-93817968D01*
X58634488Y-93402773D01*
X58825582Y-92941432D01*
X58923000Y-92451676D01*
X58923000Y-91952324D01*
X58825582Y-91462568D01*
X58634488Y-91001227D01*
X58357063Y-90586032D01*
X58003968Y-90232937D01*
X57588773Y-89955512D01*
X57127432Y-89764418D01*
X56637676Y-89667000D01*
X56138324Y-89667000D01*
X55648568Y-89764418D01*
X55187227Y-89955512D01*
X54772032Y-90232937D01*
X54418937Y-90586032D01*
X54141512Y-91001227D01*
X53987700Y-91372561D01*
X53987700Y-86987413D01*
X60512192Y-86987413D01*
X60607956Y-87251814D01*
X60897571Y-87392704D01*
X61209108Y-87474384D01*
X61530595Y-87493718D01*
X61849675Y-87449961D01*
X62154088Y-87344795D01*
X62328044Y-87251814D01*
X62423808Y-86987413D01*
X61468000Y-86031605D01*
X60512192Y-86987413D01*
X53987700Y-86987413D01*
X53987700Y-85914595D01*
X59826282Y-85914595D01*
X59870039Y-86233675D01*
X59975205Y-86538088D01*
X60068186Y-86712044D01*
X60332587Y-86807808D01*
X61288395Y-85852000D01*
X61647605Y-85852000D01*
X62603413Y-86807808D01*
X62867814Y-86712044D01*
X63008704Y-86422429D01*
X63090384Y-86110892D01*
X63109718Y-85789405D01*
X63065961Y-85470325D01*
X62960795Y-85165912D01*
X62867814Y-84991956D01*
X62603413Y-84896192D01*
X61647605Y-85852000D01*
X61288395Y-85852000D01*
X60332587Y-84896192D01*
X60068186Y-84991956D01*
X59927296Y-85281571D01*
X59845616Y-85593108D01*
X59826282Y-85914595D01*
X53987700Y-85914595D01*
X53987700Y-84716587D01*
X60512192Y-84716587D01*
X61468000Y-85672395D01*
X62423808Y-84716587D01*
X62328044Y-84452186D01*
X62038429Y-84311296D01*
X61726892Y-84229616D01*
X61405405Y-84210282D01*
X61086325Y-84254039D01*
X60781912Y-84359205D01*
X60607956Y-84452186D01*
X60512192Y-84716587D01*
X53987700Y-84716587D01*
X53987700Y-79340967D01*
X59819000Y-79340967D01*
X59819000Y-79663033D01*
X59881832Y-79978912D01*
X60005082Y-80276463D01*
X60184013Y-80544252D01*
X60411748Y-80771987D01*
X60679537Y-80950918D01*
X60977088Y-81074168D01*
X61292967Y-81137000D01*
X61615033Y-81137000D01*
X61930912Y-81074168D01*
X62228463Y-80950918D01*
X62496252Y-80771987D01*
X62723987Y-80544252D01*
X62877302Y-80314800D01*
X64973200Y-80314800D01*
X64973201Y-87097452D01*
X64939506Y-87115463D01*
X64842815Y-87194815D01*
X64763463Y-87291506D01*
X64704498Y-87401820D01*
X64668188Y-87521518D01*
X64655928Y-87646000D01*
X64655928Y-89646000D01*
X64668188Y-89770482D01*
X64704498Y-89890180D01*
X64763463Y-90000494D01*
X64842815Y-90097185D01*
X64939506Y-90176537D01*
X65049820Y-90235502D01*
X65169518Y-90271812D01*
X65294000Y-90284072D01*
X67294000Y-90284072D01*
X67418482Y-90271812D01*
X67538180Y-90235502D01*
X67648494Y-90176537D01*
X67745185Y-90097185D01*
X67824537Y-90000494D01*
X67883502Y-89890180D01*
X67916496Y-89781413D01*
X70338192Y-89781413D01*
X70433956Y-90045814D01*
X70723571Y-90186704D01*
X71035108Y-90268384D01*
X71356595Y-90287718D01*
X71675675Y-90243961D01*
X71980088Y-90138795D01*
X72154044Y-90045814D01*
X72249808Y-89781413D01*
X71294000Y-88825605D01*
X70338192Y-89781413D01*
X67916496Y-89781413D01*
X67919812Y-89770482D01*
X67932072Y-89646000D01*
X67932072Y-88708595D01*
X69652282Y-88708595D01*
X69696039Y-89027675D01*
X69801205Y-89332088D01*
X69894186Y-89506044D01*
X70158587Y-89601808D01*
X71114395Y-88646000D01*
X71473605Y-88646000D01*
X72429413Y-89601808D01*
X72693814Y-89506044D01*
X72834704Y-89216429D01*
X72916384Y-88904892D01*
X72935718Y-88583405D01*
X72891961Y-88264325D01*
X72786795Y-87959912D01*
X72693814Y-87785956D01*
X72429413Y-87690192D01*
X71473605Y-88646000D01*
X71114395Y-88646000D01*
X70158587Y-87690192D01*
X69894186Y-87785956D01*
X69753296Y-88075571D01*
X69671616Y-88387108D01*
X69652282Y-88708595D01*
X67932072Y-88708595D01*
X67932072Y-87646000D01*
X67919812Y-87521518D01*
X67916497Y-87510587D01*
X70338192Y-87510587D01*
X71294000Y-88466395D01*
X72249808Y-87510587D01*
X72154044Y-87246186D01*
X71864429Y-87105296D01*
X71552892Y-87023616D01*
X71231405Y-87004282D01*
X70912325Y-87048039D01*
X70607912Y-87153205D01*
X70433956Y-87246186D01*
X70338192Y-87510587D01*
X67916497Y-87510587D01*
X67883502Y-87401820D01*
X67824537Y-87291506D01*
X67745185Y-87194815D01*
X67648494Y-87115463D01*
X67628889Y-87104984D01*
X69085073Y-85648800D01*
X73984979Y-85648800D01*
X73994498Y-85680180D01*
X74053463Y-85790494D01*
X74132815Y-85887185D01*
X74229506Y-85966537D01*
X74339820Y-86025502D01*
X74459518Y-86061812D01*
X74584000Y-86074072D01*
X75784000Y-86074072D01*
X75908482Y-86061812D01*
X76028180Y-86025502D01*
X76138494Y-85966537D01*
X76235185Y-85887185D01*
X76314537Y-85790494D01*
X76338858Y-85744994D01*
X76396736Y-85802872D01*
X76513842Y-85685766D01*
X76561148Y-85909348D01*
X76782516Y-86010237D01*
X77019313Y-86066000D01*
X77262438Y-86074495D01*
X77419201Y-86048968D01*
X77419201Y-100544070D01*
X77415268Y-100584000D01*
X77430962Y-100743336D01*
X77477438Y-100896549D01*
X77549551Y-101031463D01*
X77552913Y-101037752D01*
X77654484Y-101161517D01*
X77685495Y-101186967D01*
X78598923Y-102100396D01*
X78575000Y-102220665D01*
X78575000Y-102503335D01*
X78630147Y-102780574D01*
X78738320Y-103041727D01*
X78895363Y-103276759D01*
X79095241Y-103476637D01*
X79246760Y-103577879D01*
X79037869Y-103717455D01*
X78825455Y-103929869D01*
X78658562Y-104179642D01*
X78543605Y-104457174D01*
X78485000Y-104751801D01*
X78485000Y-105052199D01*
X78543605Y-105346826D01*
X78658562Y-105624358D01*
X78825455Y-105874131D01*
X79037869Y-106086545D01*
X79287642Y-106253438D01*
X79565174Y-106368395D01*
X79859801Y-106427000D01*
X80160199Y-106427000D01*
X80454826Y-106368395D01*
X80732358Y-106253438D01*
X80982131Y-106086545D01*
X81194545Y-105874131D01*
X81361438Y-105624358D01*
X81476395Y-105346826D01*
X81535000Y-105052199D01*
X81535000Y-104751801D01*
X81476395Y-104457174D01*
X81361438Y-104179642D01*
X81194545Y-103929869D01*
X80982131Y-103717455D01*
X80773240Y-103577879D01*
X80924759Y-103476637D01*
X81124637Y-103276759D01*
X81281680Y-103041727D01*
X81389853Y-102780574D01*
X81445000Y-102503335D01*
X81445000Y-102220665D01*
X81389853Y-101943426D01*
X81281680Y-101682273D01*
X81124637Y-101447241D01*
X80924759Y-101247363D01*
X80689727Y-101090320D01*
X80679135Y-101085933D01*
X80865131Y-100974385D01*
X81073519Y-100785414D01*
X81241037Y-100559420D01*
X81361246Y-100305087D01*
X81401904Y-100171039D01*
X81279915Y-99949000D01*
X80137000Y-99949000D01*
X80137000Y-99969000D01*
X79883000Y-99969000D01*
X79883000Y-99949000D01*
X79863000Y-99949000D01*
X79863000Y-99695000D01*
X79883000Y-99695000D01*
X79883000Y-99675000D01*
X80137000Y-99675000D01*
X80137000Y-99695000D01*
X81279915Y-99695000D01*
X81401904Y-99472961D01*
X81361246Y-99338913D01*
X81241037Y-99084580D01*
X81073519Y-98858586D01*
X80865131Y-98669615D01*
X80679135Y-98558067D01*
X80689727Y-98553680D01*
X80924759Y-98396637D01*
X81124637Y-98196759D01*
X81281680Y-97961727D01*
X81389853Y-97700574D01*
X81445000Y-97423335D01*
X81445000Y-97140665D01*
X81389853Y-96863426D01*
X81281680Y-96602273D01*
X81124637Y-96367241D01*
X80924759Y-96167363D01*
X80692241Y-96012000D01*
X80924759Y-95856637D01*
X81124637Y-95656759D01*
X81281680Y-95421727D01*
X81389853Y-95160574D01*
X81445000Y-94883335D01*
X81445000Y-94600665D01*
X81409157Y-94420473D01*
X87126352Y-88703279D01*
X87155422Y-88679422D01*
X87250645Y-88563392D01*
X87321402Y-88431015D01*
X87364974Y-88287378D01*
X87376000Y-88175426D01*
X87376000Y-88175424D01*
X87379686Y-88138001D01*
X87376000Y-88100578D01*
X87376000Y-71943630D01*
X90396632Y-68922999D01*
X93870324Y-68922999D01*
X93870147Y-68923426D01*
X93815000Y-69200665D01*
X93815000Y-69483335D01*
X93870147Y-69760574D01*
X93978320Y-70021727D01*
X94101063Y-70205425D01*
X93556652Y-70749836D01*
X93527577Y-70773697D01*
X93493073Y-70815741D01*
X93432354Y-70889727D01*
X93407879Y-70935517D01*
X93361597Y-71022105D01*
X93318025Y-71165742D01*
X93307485Y-71272759D01*
X93303313Y-71315119D01*
X93306999Y-71352542D01*
X93307000Y-80823566D01*
X93303313Y-80860999D01*
X93318026Y-81010377D01*
X93361598Y-81154014D01*
X93432354Y-81286391D01*
X93503720Y-81373350D01*
X93527578Y-81402421D01*
X93556648Y-81426278D01*
X93850843Y-81720473D01*
X93815000Y-81900665D01*
X93815000Y-82183335D01*
X93870147Y-82460574D01*
X93978320Y-82721727D01*
X94135363Y-82956759D01*
X94335241Y-83156637D01*
X94567759Y-83312000D01*
X94335241Y-83467363D01*
X94135363Y-83667241D01*
X93978320Y-83902273D01*
X93870147Y-84163426D01*
X93815000Y-84440665D01*
X93815000Y-84723335D01*
X93870147Y-85000574D01*
X93978320Y-85261727D01*
X94135363Y-85496759D01*
X94335241Y-85696637D01*
X94567759Y-85852000D01*
X94335241Y-86007363D01*
X94135363Y-86207241D01*
X93978320Y-86442273D01*
X93870147Y-86703426D01*
X93815000Y-86980665D01*
X93815000Y-87263335D01*
X93870147Y-87540574D01*
X93978320Y-87801727D01*
X94135363Y-88036759D01*
X94335241Y-88236637D01*
X94567759Y-88392000D01*
X94335241Y-88547363D01*
X94135363Y-88747241D01*
X93978320Y-88982273D01*
X93870147Y-89243426D01*
X93815000Y-89520665D01*
X93815000Y-89803335D01*
X93870147Y-90080574D01*
X93978320Y-90341727D01*
X94135363Y-90576759D01*
X94335241Y-90776637D01*
X94567759Y-90932000D01*
X94335241Y-91087363D01*
X94135363Y-91287241D01*
X93978320Y-91522273D01*
X93870147Y-91783426D01*
X93815000Y-92060665D01*
X93815000Y-92343335D01*
X93870147Y-92620574D01*
X93978320Y-92881727D01*
X94135363Y-93116759D01*
X94335241Y-93316637D01*
X94567759Y-93472000D01*
X94335241Y-93627363D01*
X94135363Y-93827241D01*
X93978320Y-94062273D01*
X93870147Y-94323426D01*
X93815000Y-94600665D01*
X93815000Y-94883335D01*
X93870147Y-95160574D01*
X93978320Y-95421727D01*
X94135363Y-95656759D01*
X94335241Y-95856637D01*
X94567759Y-96012000D01*
X94335241Y-96167363D01*
X94135363Y-96367241D01*
X93978320Y-96602273D01*
X93870147Y-96863426D01*
X93815000Y-97140665D01*
X93815000Y-97423335D01*
X93870147Y-97700574D01*
X93978320Y-97961727D01*
X94135363Y-98196759D01*
X94335241Y-98396637D01*
X94567759Y-98552000D01*
X94335241Y-98707363D01*
X94135363Y-98907241D01*
X93978320Y-99142273D01*
X93870147Y-99403426D01*
X93815000Y-99680665D01*
X93815000Y-99963335D01*
X93870147Y-100240574D01*
X93978320Y-100501727D01*
X94135363Y-100736759D01*
X94333961Y-100935357D01*
X94325518Y-100936188D01*
X94205820Y-100972498D01*
X94095506Y-101031463D01*
X93998815Y-101110815D01*
X93919463Y-101207506D01*
X93860498Y-101317820D01*
X93824188Y-101437518D01*
X93811928Y-101562000D01*
X93811928Y-103162000D01*
X93824188Y-103286482D01*
X93860498Y-103406180D01*
X93919463Y-103516494D01*
X93998815Y-103613185D01*
X94095506Y-103692537D01*
X94205820Y-103751502D01*
X94234977Y-103760347D01*
X94065455Y-103929869D01*
X93898562Y-104179642D01*
X93783605Y-104457174D01*
X93725000Y-104751801D01*
X93725000Y-105052199D01*
X93783605Y-105346826D01*
X93898562Y-105624358D01*
X94065455Y-105874131D01*
X94277869Y-106086545D01*
X94527642Y-106253438D01*
X94805174Y-106368395D01*
X95099801Y-106427000D01*
X95400199Y-106427000D01*
X95694826Y-106368395D01*
X95972358Y-106253438D01*
X96222131Y-106086545D01*
X96434545Y-105874131D01*
X96601438Y-105624358D01*
X96716395Y-105346826D01*
X96775000Y-105052199D01*
X96775000Y-104751801D01*
X96716395Y-104457174D01*
X96601438Y-104179642D01*
X96434545Y-103929869D01*
X96265023Y-103760347D01*
X96294180Y-103751502D01*
X96404494Y-103692537D01*
X96501185Y-103613185D01*
X96580537Y-103516494D01*
X96639502Y-103406180D01*
X96675812Y-103286482D01*
X96688072Y-103162000D01*
X96688072Y-101822334D01*
X96772320Y-102025727D01*
X96929363Y-102260759D01*
X97129241Y-102460637D01*
X97361759Y-102616000D01*
X97129241Y-102771363D01*
X96929363Y-102971241D01*
X96772320Y-103206273D01*
X96664147Y-103467426D01*
X96609000Y-103744665D01*
X96609000Y-104027335D01*
X96664147Y-104304574D01*
X96772320Y-104565727D01*
X96929363Y-104800759D01*
X97129241Y-105000637D01*
X97364273Y-105157680D01*
X97625426Y-105265853D01*
X97902665Y-105321000D01*
X98185335Y-105321000D01*
X98462574Y-105265853D01*
X98723727Y-105157680D01*
X98958759Y-105000637D01*
X99158637Y-104800759D01*
X99315680Y-104565727D01*
X99423853Y-104304574D01*
X99479000Y-104027335D01*
X99479000Y-103858630D01*
X102304716Y-106684346D01*
X102328578Y-106713422D01*
X102402219Y-106773857D01*
X102444607Y-106808645D01*
X102489722Y-106832759D01*
X102576985Y-106879402D01*
X102720622Y-106922974D01*
X102832574Y-106934000D01*
X102832577Y-106934000D01*
X102870000Y-106937686D01*
X102907423Y-106934000D01*
X117350604Y-106934000D01*
X117449241Y-107032637D01*
X117684273Y-107189680D01*
X117945426Y-107297853D01*
X118222665Y-107353000D01*
X118505335Y-107353000D01*
X118782574Y-107297853D01*
X119043727Y-107189680D01*
X119278759Y-107032637D01*
X119478637Y-106832759D01*
X119635680Y-106597727D01*
X119743853Y-106336574D01*
X119799000Y-106059335D01*
X119799000Y-105776665D01*
X119743853Y-105499426D01*
X119635680Y-105238273D01*
X119478637Y-105003241D01*
X119278759Y-104803363D01*
X119126000Y-104701293D01*
X119126000Y-104086707D01*
X119278759Y-103984637D01*
X119478637Y-103784759D01*
X119635680Y-103549727D01*
X119743853Y-103288574D01*
X119799000Y-103011335D01*
X119799000Y-102728665D01*
X124549000Y-102728665D01*
X124549000Y-103011335D01*
X124604147Y-103288574D01*
X124712320Y-103549727D01*
X124869363Y-103784759D01*
X125069241Y-103984637D01*
X125222000Y-104086707D01*
X125222000Y-104356574D01*
X125218314Y-104394000D01*
X125222000Y-104431425D01*
X125222000Y-104701293D01*
X125069241Y-104803363D01*
X124869363Y-105003241D01*
X124712320Y-105238273D01*
X124604147Y-105499426D01*
X124549000Y-105776665D01*
X124549000Y-106059335D01*
X124604147Y-106336574D01*
X124712320Y-106597727D01*
X124869363Y-106832759D01*
X125069241Y-107032637D01*
X125304273Y-107189680D01*
X125565426Y-107297853D01*
X125842665Y-107353000D01*
X126125335Y-107353000D01*
X126402574Y-107297853D01*
X126663727Y-107189680D01*
X126898759Y-107032637D01*
X127098637Y-106832759D01*
X127255680Y-106597727D01*
X127363853Y-106336574D01*
X127419000Y-106059335D01*
X127419000Y-105776665D01*
X127363853Y-105499426D01*
X127255680Y-105238273D01*
X127200707Y-105156000D01*
X127323920Y-105156000D01*
X127329082Y-105168463D01*
X127508013Y-105436252D01*
X127735748Y-105663987D01*
X128003537Y-105842918D01*
X128301088Y-105966168D01*
X128616967Y-106029000D01*
X128939033Y-106029000D01*
X129254912Y-105966168D01*
X129552463Y-105842918D01*
X129820252Y-105663987D01*
X130047987Y-105436252D01*
X130226918Y-105168463D01*
X130350168Y-104870912D01*
X130413000Y-104555033D01*
X130413000Y-104232967D01*
X130350168Y-103917088D01*
X130226918Y-103619537D01*
X130047987Y-103351748D01*
X129820252Y-103124013D01*
X129552463Y-102945082D01*
X129254912Y-102821832D01*
X128939033Y-102759000D01*
X128616967Y-102759000D01*
X128301088Y-102821832D01*
X128003537Y-102945082D01*
X127735748Y-103124013D01*
X127508013Y-103351748D01*
X127329082Y-103619537D01*
X127323920Y-103632000D01*
X127200707Y-103632000D01*
X127255680Y-103549727D01*
X127363853Y-103288574D01*
X127419000Y-103011335D01*
X127419000Y-102728665D01*
X127363853Y-102451426D01*
X127255680Y-102190273D01*
X127098637Y-101955241D01*
X126898759Y-101755363D01*
X126663727Y-101598320D01*
X126402574Y-101490147D01*
X126125335Y-101435000D01*
X125842665Y-101435000D01*
X125565426Y-101490147D01*
X125304273Y-101598320D01*
X125069241Y-101755363D01*
X124869363Y-101955241D01*
X124712320Y-102190273D01*
X124604147Y-102451426D01*
X124549000Y-102728665D01*
X119799000Y-102728665D01*
X119743853Y-102451426D01*
X119635680Y-102190273D01*
X119478637Y-101955241D01*
X119278759Y-101755363D01*
X119043727Y-101598320D01*
X118782574Y-101490147D01*
X118505335Y-101435000D01*
X118222665Y-101435000D01*
X117945426Y-101490147D01*
X117684273Y-101598320D01*
X117627127Y-101636504D01*
X118042474Y-101221157D01*
X118222665Y-101257000D01*
X118505335Y-101257000D01*
X118782574Y-101201853D01*
X119043727Y-101093680D01*
X119278759Y-100936637D01*
X119478637Y-100736759D01*
X119635680Y-100501727D01*
X119743853Y-100240574D01*
X119799000Y-99963335D01*
X119799000Y-99680665D01*
X119743853Y-99403426D01*
X119635680Y-99142273D01*
X119478637Y-98907241D01*
X119278759Y-98707363D01*
X119126000Y-98605293D01*
X119126000Y-97990707D01*
X119278759Y-97888637D01*
X119478637Y-97688759D01*
X119635680Y-97453727D01*
X119743853Y-97192574D01*
X119799000Y-96915335D01*
X119799000Y-96632665D01*
X124549000Y-96632665D01*
X124549000Y-96915335D01*
X124604147Y-97192574D01*
X124712320Y-97453727D01*
X124869363Y-97688759D01*
X125069241Y-97888637D01*
X125222000Y-97990707D01*
X125222000Y-98260574D01*
X125218314Y-98298000D01*
X125222000Y-98335423D01*
X125222000Y-98335425D01*
X125222001Y-98335435D01*
X125222001Y-98605292D01*
X125069241Y-98707363D01*
X124869363Y-98907241D01*
X124712320Y-99142273D01*
X124604147Y-99403426D01*
X124549000Y-99680665D01*
X124549000Y-99963335D01*
X124604147Y-100240574D01*
X124712320Y-100501727D01*
X124869363Y-100736759D01*
X125069241Y-100936637D01*
X125304273Y-101093680D01*
X125565426Y-101201853D01*
X125842665Y-101257000D01*
X126125335Y-101257000D01*
X126402574Y-101201853D01*
X126663727Y-101093680D01*
X126898759Y-100936637D01*
X127098637Y-100736759D01*
X127255680Y-100501727D01*
X127363853Y-100240574D01*
X127419000Y-99963335D01*
X127419000Y-99680665D01*
X127363853Y-99403426D01*
X127255680Y-99142273D01*
X127098637Y-98907241D01*
X126997396Y-98806000D01*
X127323920Y-98806000D01*
X127329082Y-98818463D01*
X127508013Y-99086252D01*
X127735748Y-99313987D01*
X128003537Y-99492918D01*
X128301088Y-99616168D01*
X128616967Y-99679000D01*
X128939033Y-99679000D01*
X129254912Y-99616168D01*
X129552463Y-99492918D01*
X129820252Y-99313987D01*
X130047987Y-99086252D01*
X130226918Y-98818463D01*
X130350168Y-98520912D01*
X130413000Y-98205033D01*
X130413000Y-97882967D01*
X130350168Y-97567088D01*
X130226918Y-97269537D01*
X130047987Y-97001748D01*
X129820252Y-96774013D01*
X129552463Y-96595082D01*
X129254912Y-96471832D01*
X128939033Y-96409000D01*
X128616967Y-96409000D01*
X128301088Y-96471832D01*
X128003537Y-96595082D01*
X127735748Y-96774013D01*
X127508013Y-97001748D01*
X127336691Y-97258150D01*
X127363853Y-97192574D01*
X127419000Y-96915335D01*
X127419000Y-96632665D01*
X127363853Y-96355426D01*
X127255680Y-96094273D01*
X127098637Y-95859241D01*
X126898759Y-95659363D01*
X126663727Y-95502320D01*
X126402574Y-95394147D01*
X126125335Y-95339000D01*
X125842665Y-95339000D01*
X125565426Y-95394147D01*
X125304273Y-95502320D01*
X125069241Y-95659363D01*
X124869363Y-95859241D01*
X124712320Y-96094273D01*
X124604147Y-96355426D01*
X124549000Y-96632665D01*
X119799000Y-96632665D01*
X119743853Y-96355426D01*
X119635680Y-96094273D01*
X119478637Y-95859241D01*
X119278759Y-95659363D01*
X119043727Y-95502320D01*
X118782574Y-95394147D01*
X118505335Y-95339000D01*
X118222665Y-95339000D01*
X117945426Y-95394147D01*
X117684273Y-95502320D01*
X117627128Y-95540503D01*
X118042474Y-95125157D01*
X118222665Y-95161000D01*
X118505335Y-95161000D01*
X118782574Y-95105853D01*
X119043727Y-94997680D01*
X119278759Y-94840637D01*
X119478637Y-94640759D01*
X119635680Y-94405727D01*
X119743853Y-94144574D01*
X119799000Y-93867335D01*
X119799000Y-93584665D01*
X119743853Y-93307426D01*
X119635680Y-93046273D01*
X119478637Y-92811241D01*
X119278759Y-92611363D01*
X119126000Y-92509293D01*
X119126000Y-91894707D01*
X119278759Y-91792637D01*
X119478637Y-91592759D01*
X119635680Y-91357727D01*
X119743853Y-91096574D01*
X119799000Y-90819335D01*
X119799000Y-90536665D01*
X124549000Y-90536665D01*
X124549000Y-90819335D01*
X124604147Y-91096574D01*
X124712320Y-91357727D01*
X124869363Y-91592759D01*
X125069241Y-91792637D01*
X125222000Y-91894707D01*
X125222000Y-92164574D01*
X125218314Y-92202000D01*
X125222000Y-92239425D01*
X125222000Y-92509293D01*
X125069241Y-92611363D01*
X124869363Y-92811241D01*
X124712320Y-93046273D01*
X124604147Y-93307426D01*
X124549000Y-93584665D01*
X124549000Y-93867335D01*
X124604147Y-94144574D01*
X124712320Y-94405727D01*
X124869363Y-94640759D01*
X125069241Y-94840637D01*
X125304273Y-94997680D01*
X125565426Y-95105853D01*
X125842665Y-95161000D01*
X126125335Y-95161000D01*
X126402574Y-95105853D01*
X126663727Y-94997680D01*
X126898759Y-94840637D01*
X127098637Y-94640759D01*
X127255680Y-94405727D01*
X127363853Y-94144574D01*
X127419000Y-93867335D01*
X127419000Y-93584665D01*
X127363853Y-93307426D01*
X127255680Y-93046273D01*
X127200707Y-92964000D01*
X127323920Y-92964000D01*
X127329082Y-92976463D01*
X127508013Y-93244252D01*
X127735748Y-93471987D01*
X128003537Y-93650918D01*
X128301088Y-93774168D01*
X128616967Y-93837000D01*
X128939033Y-93837000D01*
X129254912Y-93774168D01*
X129552463Y-93650918D01*
X129820252Y-93471987D01*
X130047987Y-93244252D01*
X130226918Y-92976463D01*
X130350168Y-92678912D01*
X130413000Y-92363033D01*
X130413000Y-92040967D01*
X130350168Y-91725088D01*
X130226918Y-91427537D01*
X130047987Y-91159748D01*
X129820252Y-90932013D01*
X129552463Y-90753082D01*
X129254912Y-90629832D01*
X128939033Y-90567000D01*
X128616967Y-90567000D01*
X128301088Y-90629832D01*
X128003537Y-90753082D01*
X127735748Y-90932013D01*
X127508013Y-91159748D01*
X127329082Y-91427537D01*
X127323920Y-91440000D01*
X127200707Y-91440000D01*
X127255680Y-91357727D01*
X127363853Y-91096574D01*
X127419000Y-90819335D01*
X127419000Y-90536665D01*
X127363853Y-90259426D01*
X127255680Y-89998273D01*
X127098637Y-89763241D01*
X126898759Y-89563363D01*
X126663727Y-89406320D01*
X126402574Y-89298147D01*
X126125335Y-89243000D01*
X125842665Y-89243000D01*
X125565426Y-89298147D01*
X125304273Y-89406320D01*
X125069241Y-89563363D01*
X124869363Y-89763241D01*
X124712320Y-89998273D01*
X124604147Y-90259426D01*
X124549000Y-90536665D01*
X119799000Y-90536665D01*
X119743853Y-90259426D01*
X119635680Y-89998273D01*
X119478637Y-89763241D01*
X119278759Y-89563363D01*
X119043727Y-89406320D01*
X118782574Y-89298147D01*
X118505335Y-89243000D01*
X118222665Y-89243000D01*
X117945426Y-89298147D01*
X117684273Y-89406320D01*
X117627128Y-89444503D01*
X118042474Y-89029157D01*
X118222665Y-89065000D01*
X118505335Y-89065000D01*
X118782574Y-89009853D01*
X119043727Y-88901680D01*
X119278759Y-88744637D01*
X119478637Y-88544759D01*
X119635680Y-88309727D01*
X119743853Y-88048574D01*
X119799000Y-87771335D01*
X119799000Y-87488665D01*
X119743853Y-87211426D01*
X119635680Y-86950273D01*
X119478637Y-86715241D01*
X119278759Y-86515363D01*
X119126000Y-86413293D01*
X119126000Y-85798707D01*
X119278759Y-85696637D01*
X119478637Y-85496759D01*
X119635680Y-85261727D01*
X119743853Y-85000574D01*
X119799000Y-84723335D01*
X119799000Y-84440665D01*
X124549000Y-84440665D01*
X124549000Y-84723335D01*
X124604147Y-85000574D01*
X124712320Y-85261727D01*
X124869363Y-85496759D01*
X125069241Y-85696637D01*
X125222000Y-85798707D01*
X125222000Y-86068574D01*
X125218314Y-86106000D01*
X125222001Y-86143435D01*
X125222001Y-86413292D01*
X125069241Y-86515363D01*
X124869363Y-86715241D01*
X124712320Y-86950273D01*
X124604147Y-87211426D01*
X124549000Y-87488665D01*
X124549000Y-87771335D01*
X124604147Y-88048574D01*
X124712320Y-88309727D01*
X124869363Y-88544759D01*
X125069241Y-88744637D01*
X125304273Y-88901680D01*
X125565426Y-89009853D01*
X125842665Y-89065000D01*
X126125335Y-89065000D01*
X126402574Y-89009853D01*
X126663727Y-88901680D01*
X126898759Y-88744637D01*
X127098637Y-88544759D01*
X127255680Y-88309727D01*
X127363853Y-88048574D01*
X127419000Y-87771335D01*
X127419000Y-87488665D01*
X127363853Y-87211426D01*
X127255680Y-86950273D01*
X127200707Y-86868000D01*
X127323920Y-86868000D01*
X127329082Y-86880463D01*
X127508013Y-87148252D01*
X127735748Y-87375987D01*
X128003537Y-87554918D01*
X128301088Y-87678168D01*
X128616967Y-87741000D01*
X128939033Y-87741000D01*
X129254912Y-87678168D01*
X129552463Y-87554918D01*
X129820252Y-87375987D01*
X130047987Y-87148252D01*
X130226918Y-86880463D01*
X130350168Y-86582912D01*
X130413000Y-86267033D01*
X130413000Y-85944967D01*
X130350168Y-85629088D01*
X130226918Y-85331537D01*
X130047987Y-85063748D01*
X129820252Y-84836013D01*
X129552463Y-84657082D01*
X129254912Y-84533832D01*
X128939033Y-84471000D01*
X128616967Y-84471000D01*
X128301088Y-84533832D01*
X128003537Y-84657082D01*
X127735748Y-84836013D01*
X127508013Y-85063748D01*
X127329082Y-85331537D01*
X127323920Y-85344000D01*
X127200707Y-85344000D01*
X127255680Y-85261727D01*
X127363853Y-85000574D01*
X127419000Y-84723335D01*
X127419000Y-84440665D01*
X127363853Y-84163426D01*
X127255680Y-83902273D01*
X127098637Y-83667241D01*
X126898759Y-83467363D01*
X126663727Y-83310320D01*
X126402574Y-83202147D01*
X126125335Y-83147000D01*
X125842665Y-83147000D01*
X125565426Y-83202147D01*
X125304273Y-83310320D01*
X125069241Y-83467363D01*
X124869363Y-83667241D01*
X124712320Y-83902273D01*
X124604147Y-84163426D01*
X124549000Y-84440665D01*
X119799000Y-84440665D01*
X119743853Y-84163426D01*
X119635680Y-83902273D01*
X119478637Y-83667241D01*
X119278759Y-83467363D01*
X119043727Y-83310320D01*
X118782574Y-83202147D01*
X118505335Y-83147000D01*
X118222665Y-83147000D01*
X117945426Y-83202147D01*
X117944999Y-83202324D01*
X117944999Y-83030631D01*
X118042473Y-82933157D01*
X118222665Y-82969000D01*
X118505335Y-82969000D01*
X118782574Y-82913853D01*
X119043727Y-82805680D01*
X119278759Y-82648637D01*
X119478637Y-82448759D01*
X119635680Y-82213727D01*
X119743853Y-81952574D01*
X119799000Y-81675335D01*
X119799000Y-81392665D01*
X119743853Y-81115426D01*
X119635680Y-80854273D01*
X119478637Y-80619241D01*
X119278759Y-80419363D01*
X119126000Y-80317293D01*
X119126000Y-79702707D01*
X119278759Y-79600637D01*
X119478637Y-79400759D01*
X119635680Y-79165727D01*
X119743853Y-78904574D01*
X119799000Y-78627335D01*
X119799000Y-78344665D01*
X124549000Y-78344665D01*
X124549000Y-78627335D01*
X124604147Y-78904574D01*
X124712320Y-79165727D01*
X124869363Y-79400759D01*
X125069241Y-79600637D01*
X125222000Y-79702707D01*
X125222000Y-79972574D01*
X125218314Y-80010000D01*
X125222000Y-80047423D01*
X125222000Y-80317293D01*
X125069241Y-80419363D01*
X124869363Y-80619241D01*
X124712320Y-80854273D01*
X124604147Y-81115426D01*
X124549000Y-81392665D01*
X124549000Y-81675335D01*
X124604147Y-81952574D01*
X124712320Y-82213727D01*
X124869363Y-82448759D01*
X125069241Y-82648637D01*
X125304273Y-82805680D01*
X125565426Y-82913853D01*
X125842665Y-82969000D01*
X126125335Y-82969000D01*
X126402574Y-82913853D01*
X126663727Y-82805680D01*
X126898759Y-82648637D01*
X127098637Y-82448759D01*
X127255680Y-82213727D01*
X127363853Y-81952574D01*
X127419000Y-81675335D01*
X127419000Y-81392665D01*
X127363853Y-81115426D01*
X127255680Y-80854273D01*
X127098637Y-80619241D01*
X126997396Y-80518000D01*
X127323920Y-80518000D01*
X127329082Y-80530463D01*
X127508013Y-80798252D01*
X127735748Y-81025987D01*
X128003537Y-81204918D01*
X128301088Y-81328168D01*
X128616967Y-81391000D01*
X128939033Y-81391000D01*
X129254912Y-81328168D01*
X129552463Y-81204918D01*
X129820252Y-81025987D01*
X130047987Y-80798252D01*
X130226918Y-80530463D01*
X130350168Y-80232912D01*
X130413000Y-79917033D01*
X130413000Y-79594967D01*
X130350168Y-79279088D01*
X130226918Y-78981537D01*
X130047987Y-78713748D01*
X129820252Y-78486013D01*
X129552463Y-78307082D01*
X129254912Y-78183832D01*
X128939033Y-78121000D01*
X128616967Y-78121000D01*
X128301088Y-78183832D01*
X128003537Y-78307082D01*
X127735748Y-78486013D01*
X127508013Y-78713748D01*
X127336691Y-78970150D01*
X127363853Y-78904574D01*
X127419000Y-78627335D01*
X127419000Y-78344665D01*
X127363853Y-78067426D01*
X127255680Y-77806273D01*
X127098637Y-77571241D01*
X126898759Y-77371363D01*
X126663727Y-77214320D01*
X126402574Y-77106147D01*
X126125335Y-77051000D01*
X125842665Y-77051000D01*
X125565426Y-77106147D01*
X125304273Y-77214320D01*
X125069241Y-77371363D01*
X124869363Y-77571241D01*
X124712320Y-77806273D01*
X124604147Y-78067426D01*
X124549000Y-78344665D01*
X119799000Y-78344665D01*
X119743853Y-78067426D01*
X119635680Y-77806273D01*
X119478637Y-77571241D01*
X119278759Y-77371363D01*
X119043727Y-77214320D01*
X118782574Y-77106147D01*
X118505335Y-77051000D01*
X118222665Y-77051000D01*
X117945426Y-77106147D01*
X117944999Y-77106324D01*
X117944999Y-76934631D01*
X118042473Y-76837157D01*
X118222665Y-76873000D01*
X118505335Y-76873000D01*
X118782574Y-76817853D01*
X119043727Y-76709680D01*
X119278759Y-76552637D01*
X119478637Y-76352759D01*
X119635680Y-76117727D01*
X119743853Y-75856574D01*
X119799000Y-75579335D01*
X119799000Y-75296665D01*
X119743853Y-75019426D01*
X119635680Y-74758273D01*
X119478637Y-74523241D01*
X119278759Y-74323363D01*
X119126000Y-74221293D01*
X119126000Y-73606707D01*
X119278759Y-73504637D01*
X119478637Y-73304759D01*
X119635680Y-73069727D01*
X119743853Y-72808574D01*
X119799000Y-72531335D01*
X119799000Y-72248665D01*
X124549000Y-72248665D01*
X124549000Y-72531335D01*
X124604147Y-72808574D01*
X124712320Y-73069727D01*
X124869363Y-73304759D01*
X125069241Y-73504637D01*
X125222000Y-73606707D01*
X125222000Y-73876574D01*
X125218314Y-73914000D01*
X125222000Y-73951423D01*
X125222000Y-74221293D01*
X125069241Y-74323363D01*
X124869363Y-74523241D01*
X124712320Y-74758273D01*
X124604147Y-75019426D01*
X124549000Y-75296665D01*
X124549000Y-75579335D01*
X124604147Y-75856574D01*
X124712320Y-76117727D01*
X124869363Y-76352759D01*
X125069241Y-76552637D01*
X125304273Y-76709680D01*
X125565426Y-76817853D01*
X125842665Y-76873000D01*
X126125335Y-76873000D01*
X126402574Y-76817853D01*
X126663727Y-76709680D01*
X126898759Y-76552637D01*
X127098637Y-76352759D01*
X127255680Y-76117727D01*
X127363853Y-75856574D01*
X127419000Y-75579335D01*
X127419000Y-75296665D01*
X127363853Y-75019426D01*
X127255680Y-74758273D01*
X127098637Y-74523241D01*
X126997396Y-74422000D01*
X127323920Y-74422000D01*
X127329082Y-74434463D01*
X127508013Y-74702252D01*
X127735748Y-74929987D01*
X128003537Y-75108918D01*
X128301088Y-75232168D01*
X128616967Y-75295000D01*
X128939033Y-75295000D01*
X129254912Y-75232168D01*
X129552463Y-75108918D01*
X129820252Y-74929987D01*
X130047987Y-74702252D01*
X130226918Y-74434463D01*
X130350168Y-74136912D01*
X130413000Y-73821033D01*
X130413000Y-73498967D01*
X130350168Y-73183088D01*
X130226918Y-72885537D01*
X130047987Y-72617748D01*
X129820252Y-72390013D01*
X129552463Y-72211082D01*
X129254912Y-72087832D01*
X128939033Y-72025000D01*
X128616967Y-72025000D01*
X128301088Y-72087832D01*
X128003537Y-72211082D01*
X127735748Y-72390013D01*
X127508013Y-72617748D01*
X127336691Y-72874150D01*
X127363853Y-72808574D01*
X127419000Y-72531335D01*
X127419000Y-72248665D01*
X127363853Y-71971426D01*
X127255680Y-71710273D01*
X127098637Y-71475241D01*
X126898759Y-71275363D01*
X126663727Y-71118320D01*
X126402574Y-71010147D01*
X126125335Y-70955000D01*
X125842665Y-70955000D01*
X125565426Y-71010147D01*
X125304273Y-71118320D01*
X125069241Y-71275363D01*
X124869363Y-71475241D01*
X124712320Y-71710273D01*
X124604147Y-71971426D01*
X124549000Y-72248665D01*
X119799000Y-72248665D01*
X119743853Y-71971426D01*
X119635680Y-71710273D01*
X119478637Y-71475241D01*
X119278759Y-71275363D01*
X119043727Y-71118320D01*
X118869039Y-71045962D01*
X118876353Y-71038648D01*
X118905422Y-71014792D01*
X119000645Y-70898762D01*
X119071402Y-70766385D01*
X119114974Y-70622748D01*
X119120949Y-70562082D01*
X119278759Y-70456637D01*
X119478637Y-70256759D01*
X119635680Y-70021727D01*
X119743853Y-69760574D01*
X119799000Y-69483335D01*
X119799000Y-69200665D01*
X119743853Y-68923426D01*
X119635680Y-68662273D01*
X119478637Y-68427241D01*
X119278759Y-68227363D01*
X119126000Y-68125293D01*
X119126000Y-67510707D01*
X119278759Y-67408637D01*
X119478637Y-67208759D01*
X119635680Y-66973727D01*
X119743853Y-66712574D01*
X119799000Y-66435335D01*
X119799000Y-66152665D01*
X124549000Y-66152665D01*
X124549000Y-66435335D01*
X124604147Y-66712574D01*
X124712320Y-66973727D01*
X124869363Y-67208759D01*
X125069241Y-67408637D01*
X125222000Y-67510707D01*
X125222000Y-67780574D01*
X125218314Y-67818000D01*
X125222001Y-67855435D01*
X125222001Y-68125292D01*
X125069241Y-68227363D01*
X124869363Y-68427241D01*
X124712320Y-68662273D01*
X124604147Y-68923426D01*
X124549000Y-69200665D01*
X124549000Y-69483335D01*
X124604147Y-69760574D01*
X124712320Y-70021727D01*
X124869363Y-70256759D01*
X125069241Y-70456637D01*
X125304273Y-70613680D01*
X125565426Y-70721853D01*
X125842665Y-70777000D01*
X126125335Y-70777000D01*
X126402574Y-70721853D01*
X126663727Y-70613680D01*
X126898759Y-70456637D01*
X127098637Y-70256759D01*
X127255680Y-70021727D01*
X127363853Y-69760574D01*
X127419000Y-69483335D01*
X127419000Y-69200665D01*
X127363853Y-68923426D01*
X127255680Y-68662273D01*
X127200707Y-68580000D01*
X127323920Y-68580000D01*
X127329082Y-68592463D01*
X127508013Y-68860252D01*
X127735748Y-69087987D01*
X128003537Y-69266918D01*
X128301088Y-69390168D01*
X128616967Y-69453000D01*
X128939033Y-69453000D01*
X129254912Y-69390168D01*
X129552463Y-69266918D01*
X129820252Y-69087987D01*
X130047987Y-68860252D01*
X130226918Y-68592463D01*
X130350168Y-68294912D01*
X130413000Y-67979033D01*
X130413000Y-67656967D01*
X130350168Y-67341088D01*
X130226918Y-67043537D01*
X130047987Y-66775748D01*
X129820252Y-66548013D01*
X129552463Y-66369082D01*
X129254912Y-66245832D01*
X128939033Y-66183000D01*
X128616967Y-66183000D01*
X128301088Y-66245832D01*
X128003537Y-66369082D01*
X127735748Y-66548013D01*
X127508013Y-66775748D01*
X127329082Y-67043537D01*
X127323920Y-67056000D01*
X127200707Y-67056000D01*
X127255680Y-66973727D01*
X127363853Y-66712574D01*
X127419000Y-66435335D01*
X127419000Y-66152665D01*
X127363853Y-65875426D01*
X127255680Y-65614273D01*
X127098637Y-65379241D01*
X126898759Y-65179363D01*
X126663727Y-65022320D01*
X126402574Y-64914147D01*
X126125335Y-64859000D01*
X125842665Y-64859000D01*
X125565426Y-64914147D01*
X125304273Y-65022320D01*
X125069241Y-65179363D01*
X124869363Y-65379241D01*
X124712320Y-65614273D01*
X124604147Y-65875426D01*
X124549000Y-66152665D01*
X119799000Y-66152665D01*
X119743853Y-65875426D01*
X119635680Y-65614273D01*
X119478637Y-65379241D01*
X119278759Y-65179363D01*
X119043727Y-65022320D01*
X118782574Y-64914147D01*
X118505335Y-64859000D01*
X118222665Y-64859000D01*
X117945426Y-64914147D01*
X117684273Y-65022320D01*
X117627128Y-65060503D01*
X118042474Y-64645157D01*
X118222665Y-64681000D01*
X118505335Y-64681000D01*
X118782574Y-64625853D01*
X119043727Y-64517680D01*
X119278759Y-64360637D01*
X119478637Y-64160759D01*
X119635680Y-63925727D01*
X119743853Y-63664574D01*
X119799000Y-63387335D01*
X119799000Y-63104665D01*
X119743853Y-62827426D01*
X119635680Y-62566273D01*
X119478637Y-62331241D01*
X119278759Y-62131363D01*
X119126000Y-62029293D01*
X119126000Y-61414707D01*
X119278759Y-61312637D01*
X119478637Y-61112759D01*
X119635680Y-60877727D01*
X119743853Y-60616574D01*
X119799000Y-60339335D01*
X119799000Y-60056665D01*
X124549000Y-60056665D01*
X124549000Y-60339335D01*
X124604147Y-60616574D01*
X124712320Y-60877727D01*
X124869363Y-61112759D01*
X125069241Y-61312637D01*
X125222000Y-61414707D01*
X125222000Y-61938574D01*
X125218314Y-61976000D01*
X125222000Y-62013425D01*
X125222000Y-62029293D01*
X125069241Y-62131363D01*
X124869363Y-62331241D01*
X124712320Y-62566273D01*
X124604147Y-62827426D01*
X124549000Y-63104665D01*
X124549000Y-63387335D01*
X124604147Y-63664574D01*
X124712320Y-63925727D01*
X124869363Y-64160759D01*
X125069241Y-64360637D01*
X125304273Y-64517680D01*
X125565426Y-64625853D01*
X125842665Y-64681000D01*
X126125335Y-64681000D01*
X126402574Y-64625853D01*
X126663727Y-64517680D01*
X126898759Y-64360637D01*
X127098637Y-64160759D01*
X127255680Y-63925727D01*
X127272760Y-63884491D01*
X127329082Y-64020463D01*
X127508013Y-64288252D01*
X127735748Y-64515987D01*
X128003537Y-64694918D01*
X128301088Y-64818168D01*
X128616967Y-64881000D01*
X128939033Y-64881000D01*
X129254912Y-64818168D01*
X129552463Y-64694918D01*
X129820252Y-64515987D01*
X130047987Y-64288252D01*
X130226918Y-64020463D01*
X130350168Y-63722912D01*
X130413000Y-63407033D01*
X130413000Y-63084967D01*
X130350168Y-62769088D01*
X130226918Y-62471537D01*
X130047987Y-62203748D01*
X129820252Y-61976013D01*
X129552463Y-61797082D01*
X129254912Y-61673832D01*
X128939033Y-61611000D01*
X128616967Y-61611000D01*
X128301088Y-61673832D01*
X128288625Y-61678994D01*
X128073284Y-61463654D01*
X128049422Y-61434578D01*
X127933392Y-61339355D01*
X127801015Y-61268598D01*
X127657378Y-61225026D01*
X127545426Y-61214000D01*
X127545423Y-61214000D01*
X127508000Y-61210314D01*
X127470577Y-61214000D01*
X126997396Y-61214000D01*
X127098637Y-61112759D01*
X127255680Y-60877727D01*
X127363853Y-60616574D01*
X127419000Y-60339335D01*
X127419000Y-60056665D01*
X127363853Y-59779426D01*
X127255680Y-59518273D01*
X127098637Y-59283241D01*
X126898759Y-59083363D01*
X126663727Y-58926320D01*
X126402574Y-58818147D01*
X126125335Y-58763000D01*
X125842665Y-58763000D01*
X125565426Y-58818147D01*
X125304273Y-58926320D01*
X125069241Y-59083363D01*
X124869363Y-59283241D01*
X124712320Y-59518273D01*
X124604147Y-59779426D01*
X124549000Y-60056665D01*
X119799000Y-60056665D01*
X119743853Y-59779426D01*
X119635680Y-59518273D01*
X119478637Y-59283241D01*
X119278759Y-59083363D01*
X119043727Y-58926320D01*
X118782574Y-58818147D01*
X118505335Y-58763000D01*
X118222665Y-58763000D01*
X117945426Y-58818147D01*
X117684273Y-58926320D01*
X117449241Y-59083363D01*
X117249363Y-59283241D01*
X117092320Y-59518273D01*
X116984147Y-59779426D01*
X116929000Y-60056665D01*
X116929000Y-60339335D01*
X116984147Y-60616574D01*
X117092320Y-60877727D01*
X117249363Y-61112759D01*
X117449241Y-61312637D01*
X117602000Y-61414707D01*
X117602000Y-62029293D01*
X117449241Y-62131363D01*
X117249363Y-62331241D01*
X117092320Y-62566273D01*
X116984147Y-62827426D01*
X116929000Y-63104665D01*
X116929000Y-63387335D01*
X116964843Y-63567526D01*
X114919000Y-65613370D01*
X114919000Y-65567740D01*
X114861932Y-65280842D01*
X114749990Y-65010589D01*
X114587475Y-64767368D01*
X114380632Y-64560525D01*
X114137411Y-64398010D01*
X113867158Y-64286068D01*
X113580260Y-64229000D01*
X113287740Y-64229000D01*
X113000842Y-64286068D01*
X112730589Y-64398010D01*
X112487368Y-64560525D01*
X112280525Y-64767368D01*
X112157158Y-64952000D01*
X108210842Y-64952000D01*
X108087475Y-64767368D01*
X107880632Y-64560525D01*
X107637411Y-64398010D01*
X107367158Y-64286068D01*
X107080260Y-64229000D01*
X106787740Y-64229000D01*
X106500842Y-64286068D01*
X106230589Y-64398010D01*
X105987368Y-64560525D01*
X105780525Y-64767368D01*
X105739000Y-64829515D01*
X105697475Y-64767368D01*
X105490632Y-64560525D01*
X105247411Y-64398010D01*
X104977158Y-64286068D01*
X104690260Y-64229000D01*
X104397740Y-64229000D01*
X104110842Y-64286068D01*
X103840589Y-64398010D01*
X103597368Y-64560525D01*
X103390525Y-64767368D01*
X103267158Y-64952000D01*
X99320842Y-64952000D01*
X99197475Y-64767368D01*
X98990632Y-64560525D01*
X98747411Y-64398010D01*
X98477158Y-64286068D01*
X98190260Y-64229000D01*
X97897740Y-64229000D01*
X97610842Y-64286068D01*
X97340589Y-64398010D01*
X97097368Y-64560525D01*
X96890525Y-64767368D01*
X96728010Y-65010589D01*
X96616068Y-65280842D01*
X96559000Y-65567740D01*
X96559000Y-65860260D01*
X96602321Y-66078048D01*
X96532346Y-66148023D01*
X96521680Y-66122273D01*
X96364637Y-65887241D01*
X96164759Y-65687363D01*
X96013240Y-65586121D01*
X96222131Y-65446545D01*
X96434545Y-65234131D01*
X96601438Y-64984358D01*
X96716395Y-64706826D01*
X96775000Y-64412199D01*
X96775000Y-64111801D01*
X96716395Y-63817174D01*
X96601438Y-63539642D01*
X96434545Y-63289869D01*
X96222131Y-63077455D01*
X95972358Y-62910562D01*
X95694826Y-62795605D01*
X95400199Y-62737000D01*
X95099801Y-62737000D01*
X94805174Y-62795605D01*
X94527642Y-62910562D01*
X94277869Y-63077455D01*
X94065455Y-63289869D01*
X93980000Y-63417761D01*
X93980000Y-61976000D01*
X96767158Y-61976000D01*
X96890525Y-62160632D01*
X97097368Y-62367475D01*
X97340589Y-62529990D01*
X97610842Y-62641932D01*
X97897740Y-62699000D01*
X98190260Y-62699000D01*
X98477158Y-62641932D01*
X98747411Y-62529990D01*
X98990632Y-62367475D01*
X99197475Y-62160632D01*
X99320842Y-61976000D01*
X103267158Y-61976000D01*
X103390525Y-62160632D01*
X103597368Y-62367475D01*
X103840589Y-62529990D01*
X104110842Y-62641932D01*
X104397740Y-62699000D01*
X104690260Y-62699000D01*
X104977158Y-62641932D01*
X105247411Y-62529990D01*
X105490632Y-62367475D01*
X105697475Y-62160632D01*
X105739000Y-62098485D01*
X105780525Y-62160632D01*
X105987368Y-62367475D01*
X106230589Y-62529990D01*
X106500842Y-62641932D01*
X106787740Y-62699000D01*
X107080260Y-62699000D01*
X107367158Y-62641932D01*
X107637411Y-62529990D01*
X107880632Y-62367475D01*
X108087475Y-62160632D01*
X108210842Y-61976000D01*
X112157158Y-61976000D01*
X112280525Y-62160632D01*
X112487368Y-62367475D01*
X112730589Y-62529990D01*
X113000842Y-62641932D01*
X113287740Y-62699000D01*
X113580260Y-62699000D01*
X113867158Y-62641932D01*
X114137411Y-62529990D01*
X114380632Y-62367475D01*
X114587475Y-62160632D01*
X114749990Y-61917411D01*
X114861932Y-61647158D01*
X114919000Y-61360260D01*
X114919000Y-61067740D01*
X114861932Y-60780842D01*
X114749990Y-60510589D01*
X114587475Y-60267368D01*
X114380632Y-60060525D01*
X114137411Y-59898010D01*
X113867158Y-59786068D01*
X113580260Y-59729000D01*
X113287740Y-59729000D01*
X113000842Y-59786068D01*
X112730589Y-59898010D01*
X112487368Y-60060525D01*
X112280525Y-60267368D01*
X112157158Y-60452000D01*
X108210842Y-60452000D01*
X108087475Y-60267368D01*
X107880632Y-60060525D01*
X107637411Y-59898010D01*
X107367158Y-59786068D01*
X107080260Y-59729000D01*
X106787740Y-59729000D01*
X106569951Y-59772321D01*
X106268283Y-59470653D01*
X106244421Y-59441577D01*
X106128391Y-59346354D01*
X105996014Y-59275597D01*
X105852377Y-59232025D01*
X105740425Y-59220999D01*
X105740422Y-59220999D01*
X105702999Y-59217313D01*
X105665576Y-59220999D01*
X87997794Y-59220999D01*
X87960371Y-59217313D01*
X87922948Y-59220999D01*
X87922945Y-59220999D01*
X87810993Y-59232025D01*
X87667356Y-59275597D01*
X87605735Y-59308534D01*
X87534978Y-59346354D01*
X87492590Y-59381142D01*
X87418949Y-59441577D01*
X87395087Y-59470653D01*
X81051568Y-65814172D01*
X80924759Y-65687363D01*
X80773240Y-65586121D01*
X80982131Y-65446545D01*
X81194545Y-65234131D01*
X81361438Y-64984358D01*
X81476395Y-64706826D01*
X81535000Y-64412199D01*
X81535000Y-64111801D01*
X81476395Y-63817174D01*
X81361438Y-63539642D01*
X81194545Y-63289869D01*
X80982131Y-63077455D01*
X80732358Y-62910562D01*
X80454826Y-62795605D01*
X80160199Y-62737000D01*
X79859801Y-62737000D01*
X79565174Y-62795605D01*
X79287642Y-62910562D01*
X79037869Y-63077455D01*
X78825455Y-63289869D01*
X78658562Y-63539642D01*
X78543605Y-63817174D01*
X78485000Y-64111801D01*
X78485000Y-64412199D01*
X78543605Y-64706826D01*
X78658562Y-64984358D01*
X78825455Y-65234131D01*
X79037869Y-65446545D01*
X79246760Y-65586121D01*
X79095241Y-65687363D01*
X78895363Y-65887241D01*
X78738320Y-66122273D01*
X78630147Y-66383426D01*
X78575000Y-66660665D01*
X78575000Y-66943335D01*
X78630147Y-67220574D01*
X78738320Y-67481727D01*
X78895363Y-67716759D01*
X79095241Y-67916637D01*
X79327759Y-68072000D01*
X79095241Y-68227363D01*
X79044058Y-68278546D01*
X79033039Y-68166663D01*
X78986562Y-68013450D01*
X78911088Y-67872248D01*
X78809517Y-67748483D01*
X78685752Y-67646912D01*
X78544550Y-67571438D01*
X78391337Y-67524961D01*
X78271923Y-67513200D01*
X78232000Y-67509268D01*
X78230854Y-67509381D01*
X76845121Y-66123649D01*
X76868482Y-66067250D01*
X76939000Y-65712732D01*
X76939000Y-65351268D01*
X76868482Y-64996750D01*
X76730156Y-64662801D01*
X76529338Y-64362256D01*
X76273744Y-64106662D01*
X75973199Y-63905844D01*
X75639250Y-63767518D01*
X75284732Y-63697000D01*
X74923268Y-63697000D01*
X74568750Y-63767518D01*
X74512351Y-63790879D01*
X74506972Y-63785500D01*
X74481518Y-63754484D01*
X74357753Y-63652913D01*
X74216551Y-63577439D01*
X74063338Y-63530962D01*
X73943924Y-63519201D01*
X73943921Y-63519201D01*
X73904001Y-63515269D01*
X73864081Y-63519201D01*
X72542673Y-63519201D01*
X70706972Y-61683500D01*
X70681517Y-61652483D01*
X70557752Y-61550912D01*
X70416550Y-61475438D01*
X70263337Y-61428961D01*
X70143923Y-61417200D01*
X70143920Y-61417200D01*
X70104000Y-61413268D01*
X70064080Y-61417200D01*
X67603923Y-61417200D01*
X67564000Y-61413268D01*
X67524077Y-61417200D01*
X66888764Y-61417200D01*
X66820637Y-61315241D01*
X66620759Y-61115363D01*
X66385727Y-60958320D01*
X66124574Y-60850147D01*
X65847335Y-60795000D01*
X65564665Y-60795000D01*
X65287426Y-60850147D01*
X65026273Y-60958320D01*
X64791241Y-61115363D01*
X64591363Y-61315241D01*
X64434320Y-61550273D01*
X64326147Y-61811426D01*
X64271000Y-62088665D01*
X64271000Y-62371335D01*
X64326147Y-62648574D01*
X64434320Y-62909727D01*
X64591363Y-63144759D01*
X64791241Y-63344637D01*
X64893200Y-63412764D01*
X64893201Y-65111236D01*
X64791241Y-65179363D01*
X64591363Y-65379241D01*
X64434320Y-65614273D01*
X64326147Y-65875426D01*
X64271000Y-66152665D01*
X64271000Y-66435335D01*
X64326147Y-66712574D01*
X64434320Y-66973727D01*
X64591363Y-67208759D01*
X64791241Y-67408637D01*
X64893200Y-67476764D01*
X64893201Y-69175236D01*
X64791241Y-69243363D01*
X64591363Y-69443241D01*
X64434320Y-69678273D01*
X64326147Y-69939426D01*
X64271000Y-70216665D01*
X64271000Y-70499335D01*
X64326147Y-70776574D01*
X64434320Y-71037727D01*
X64591363Y-71272759D01*
X64791241Y-71472637D01*
X65026273Y-71629680D01*
X65287426Y-71737853D01*
X65564665Y-71793000D01*
X65847335Y-71793000D01*
X66124574Y-71737853D01*
X66385727Y-71629680D01*
X66620759Y-71472637D01*
X66751201Y-71342195D01*
X66751201Y-72350070D01*
X66747268Y-72390000D01*
X66759735Y-72516569D01*
X66762962Y-72549337D01*
X66777060Y-72595813D01*
X66809438Y-72702549D01*
X66878793Y-72832303D01*
X66884913Y-72843752D01*
X66986484Y-72967517D01*
X67017495Y-72992967D01*
X68211928Y-74187401D01*
X68211928Y-75387200D01*
X67900673Y-75387200D01*
X67197077Y-74683604D01*
X67221000Y-74563335D01*
X67221000Y-74280665D01*
X67165853Y-74003426D01*
X67057680Y-73742273D01*
X66900637Y-73507241D01*
X66700759Y-73307363D01*
X66465727Y-73150320D01*
X66204574Y-73042147D01*
X65927335Y-72987000D01*
X65644665Y-72987000D01*
X65367426Y-73042147D01*
X65106273Y-73150320D01*
X64871241Y-73307363D01*
X64671363Y-73507241D01*
X64514320Y-73742273D01*
X64406147Y-74003426D01*
X64351000Y-74280665D01*
X64351000Y-74563335D01*
X64406147Y-74840574D01*
X64514320Y-75101727D01*
X64671363Y-75336759D01*
X64871241Y-75536637D01*
X64973200Y-75604764D01*
X64973201Y-78689200D01*
X62877302Y-78689200D01*
X62723987Y-78459748D01*
X62496252Y-78232013D01*
X62228463Y-78053082D01*
X61930912Y-77929832D01*
X61615033Y-77867000D01*
X61292967Y-77867000D01*
X60977088Y-77929832D01*
X60679537Y-78053082D01*
X60411748Y-78232013D01*
X60184013Y-78459748D01*
X60005082Y-78727537D01*
X59881832Y-79025088D01*
X59819000Y-79340967D01*
X53987700Y-79340967D01*
X53987700Y-75414702D01*
X59972903Y-75414702D01*
X60044486Y-75658671D01*
X60299996Y-75779571D01*
X60574184Y-75848300D01*
X60856512Y-75862217D01*
X61136130Y-75820787D01*
X61402292Y-75725603D01*
X61527514Y-75658671D01*
X61599097Y-75414702D01*
X60786000Y-74601605D01*
X59972903Y-75414702D01*
X53987700Y-75414702D01*
X53987700Y-74492512D01*
X59345783Y-74492512D01*
X59387213Y-74772130D01*
X59482397Y-75038292D01*
X59549329Y-75163514D01*
X59793298Y-75235097D01*
X60606395Y-74422000D01*
X60965605Y-74422000D01*
X61778702Y-75235097D01*
X62022671Y-75163514D01*
X62143571Y-74908004D01*
X62212300Y-74633816D01*
X62226217Y-74351488D01*
X62184787Y-74071870D01*
X62089603Y-73805708D01*
X62022671Y-73680486D01*
X61778702Y-73608903D01*
X60965605Y-74422000D01*
X60606395Y-74422000D01*
X59793298Y-73608903D01*
X59549329Y-73680486D01*
X59428429Y-73935996D01*
X59359700Y-74210184D01*
X59345783Y-74492512D01*
X53987700Y-74492512D01*
X53987700Y-73429298D01*
X59972903Y-73429298D01*
X60786000Y-74242395D01*
X61599097Y-73429298D01*
X61527514Y-73185329D01*
X61272004Y-73064429D01*
X60997816Y-72995700D01*
X60715488Y-72981783D01*
X60435870Y-73023213D01*
X60169708Y-73118397D01*
X60044486Y-73185329D01*
X59972903Y-73429298D01*
X53987700Y-73429298D01*
X53987700Y-71350702D01*
X59892903Y-71350702D01*
X59964486Y-71594671D01*
X60219996Y-71715571D01*
X60494184Y-71784300D01*
X60776512Y-71798217D01*
X61056130Y-71756787D01*
X61322292Y-71661603D01*
X61447514Y-71594671D01*
X61519097Y-71350702D01*
X60706000Y-70537605D01*
X59892903Y-71350702D01*
X53987700Y-71350702D01*
X53987700Y-70428512D01*
X59265783Y-70428512D01*
X59307213Y-70708130D01*
X59402397Y-70974292D01*
X59469329Y-71099514D01*
X59713298Y-71171097D01*
X60526395Y-70358000D01*
X60885605Y-70358000D01*
X61698702Y-71171097D01*
X61942671Y-71099514D01*
X62063571Y-70844004D01*
X62132300Y-70569816D01*
X62146217Y-70287488D01*
X62104787Y-70007870D01*
X62009603Y-69741708D01*
X61942671Y-69616486D01*
X61698702Y-69544903D01*
X60885605Y-70358000D01*
X60526395Y-70358000D01*
X59713298Y-69544903D01*
X59469329Y-69616486D01*
X59348429Y-69871996D01*
X59279700Y-70146184D01*
X59265783Y-70428512D01*
X53987700Y-70428512D01*
X53987700Y-69365298D01*
X59892903Y-69365298D01*
X60706000Y-70178395D01*
X61519097Y-69365298D01*
X61447514Y-69121329D01*
X61192004Y-69000429D01*
X60917816Y-68931700D01*
X60635488Y-68917783D01*
X60355870Y-68959213D01*
X60089708Y-69054397D01*
X59964486Y-69121329D01*
X59892903Y-69365298D01*
X53987700Y-69365298D01*
X53987700Y-67286702D01*
X59892903Y-67286702D01*
X59964486Y-67530671D01*
X60219996Y-67651571D01*
X60494184Y-67720300D01*
X60776512Y-67734217D01*
X61056130Y-67692787D01*
X61322292Y-67597603D01*
X61447514Y-67530671D01*
X61519097Y-67286702D01*
X60706000Y-66473605D01*
X59892903Y-67286702D01*
X53987700Y-67286702D01*
X53987700Y-66364512D01*
X59265783Y-66364512D01*
X59307213Y-66644130D01*
X59402397Y-66910292D01*
X59469329Y-67035514D01*
X59713298Y-67107097D01*
X60526395Y-66294000D01*
X60885605Y-66294000D01*
X61698702Y-67107097D01*
X61942671Y-67035514D01*
X62063571Y-66780004D01*
X62132300Y-66505816D01*
X62146217Y-66223488D01*
X62104787Y-65943870D01*
X62009603Y-65677708D01*
X61942671Y-65552486D01*
X61698702Y-65480903D01*
X60885605Y-66294000D01*
X60526395Y-66294000D01*
X59713298Y-65480903D01*
X59469329Y-65552486D01*
X59348429Y-65807996D01*
X59279700Y-66082184D01*
X59265783Y-66364512D01*
X53987700Y-66364512D01*
X53987700Y-65301298D01*
X59892903Y-65301298D01*
X60706000Y-66114395D01*
X61519097Y-65301298D01*
X61447514Y-65057329D01*
X61192004Y-64936429D01*
X60917816Y-64867700D01*
X60635488Y-64853783D01*
X60355870Y-64895213D01*
X60089708Y-64990397D01*
X59964486Y-65057329D01*
X59892903Y-65301298D01*
X53987700Y-65301298D01*
X53987700Y-63222702D01*
X59892903Y-63222702D01*
X59964486Y-63466671D01*
X60219996Y-63587571D01*
X60494184Y-63656300D01*
X60776512Y-63670217D01*
X61056130Y-63628787D01*
X61322292Y-63533603D01*
X61447514Y-63466671D01*
X61519097Y-63222702D01*
X60706000Y-62409605D01*
X59892903Y-63222702D01*
X53987700Y-63222702D01*
X53987700Y-61281439D01*
X54141512Y-61652773D01*
X54418937Y-62067968D01*
X54772032Y-62421063D01*
X55187227Y-62698488D01*
X55648568Y-62889582D01*
X56138324Y-62987000D01*
X56637676Y-62987000D01*
X57127432Y-62889582D01*
X57588773Y-62698488D01*
X58003968Y-62421063D01*
X58124519Y-62300512D01*
X59265783Y-62300512D01*
X59307213Y-62580130D01*
X59402397Y-62846292D01*
X59469329Y-62971514D01*
X59713298Y-63043097D01*
X60526395Y-62230000D01*
X60885605Y-62230000D01*
X61698702Y-63043097D01*
X61942671Y-62971514D01*
X62063571Y-62716004D01*
X62132300Y-62441816D01*
X62146217Y-62159488D01*
X62104787Y-61879870D01*
X62009603Y-61613708D01*
X61942671Y-61488486D01*
X61698702Y-61416903D01*
X60885605Y-62230000D01*
X60526395Y-62230000D01*
X59713298Y-61416903D01*
X59469329Y-61488486D01*
X59348429Y-61743996D01*
X59279700Y-62018184D01*
X59265783Y-62300512D01*
X58124519Y-62300512D01*
X58357063Y-62067968D01*
X58634488Y-61652773D01*
X58806583Y-61237298D01*
X59892903Y-61237298D01*
X60706000Y-62050395D01*
X61519097Y-61237298D01*
X61447514Y-60993329D01*
X61192004Y-60872429D01*
X60917816Y-60803700D01*
X60635488Y-60789783D01*
X60355870Y-60831213D01*
X60089708Y-60926397D01*
X59964486Y-60993329D01*
X59892903Y-61237298D01*
X58806583Y-61237298D01*
X58825582Y-61191432D01*
X58923000Y-60701676D01*
X58923000Y-60202324D01*
X58825582Y-59712568D01*
X58634488Y-59251227D01*
X58357063Y-58836032D01*
X58003968Y-58482937D01*
X57588773Y-58205512D01*
X57217439Y-58051700D01*
X132702301Y-58051700D01*
X132702300Y-107556300D01*
G36*
X103390525Y-66660632D02*
G01*
X103597368Y-66867475D01*
X103840589Y-67029990D01*
X104110842Y-67141932D01*
X104397740Y-67199000D01*
X104690260Y-67199000D01*
X104977158Y-67141932D01*
X105247411Y-67029990D01*
X105490632Y-66867475D01*
X105697475Y-66660632D01*
X105739000Y-66598485D01*
X105780525Y-66660632D01*
X105987368Y-66867475D01*
X106230589Y-67029990D01*
X106500842Y-67141932D01*
X106787740Y-67199000D01*
X107080260Y-67199000D01*
X107367158Y-67141932D01*
X107637411Y-67029990D01*
X107880632Y-66867475D01*
X108087475Y-66660632D01*
X108210842Y-66476000D01*
X112157158Y-66476000D01*
X112280525Y-66660632D01*
X112487368Y-66867475D01*
X112730589Y-67029990D01*
X113000842Y-67141932D01*
X113287740Y-67199000D01*
X113333370Y-67199000D01*
X113168648Y-67363722D01*
X113139578Y-67387579D01*
X113115721Y-67416649D01*
X113115720Y-67416650D01*
X113044354Y-67503609D01*
X112973598Y-67635986D01*
X112930026Y-67779623D01*
X112915313Y-67929001D01*
X112919000Y-67966434D01*
X112918999Y-70474760D01*
X112802252Y-70358013D01*
X112534463Y-70179082D01*
X112236912Y-70055832D01*
X111921033Y-69993000D01*
X111598967Y-69993000D01*
X111283088Y-70055832D01*
X110985537Y-70179082D01*
X110717748Y-70358013D01*
X110490013Y-70585748D01*
X110311082Y-70853537D01*
X110187832Y-71151088D01*
X110125000Y-71466967D01*
X110125000Y-71789033D01*
X110187832Y-72104912D01*
X110311082Y-72402463D01*
X110490013Y-72670252D01*
X110717748Y-72897987D01*
X110985537Y-73076918D01*
X111191868Y-73162383D01*
X110120648Y-74233604D01*
X110091578Y-74257461D01*
X110067721Y-74286531D01*
X110067720Y-74286532D01*
X109996354Y-74373491D01*
X109925598Y-74505868D01*
X109882026Y-74649505D01*
X109867313Y-74798883D01*
X109871000Y-74836316D01*
X109870999Y-83361370D01*
X107099412Y-86132957D01*
X107104217Y-86035488D01*
X107062787Y-85755870D01*
X106967603Y-85489708D01*
X106900671Y-85364486D01*
X106656702Y-85292903D01*
X105843605Y-86106000D01*
X105857748Y-86120143D01*
X105678143Y-86299748D01*
X105664000Y-86285605D01*
X104850903Y-87098702D01*
X104922486Y-87342671D01*
X104986992Y-87373194D01*
X104984273Y-87374320D01*
X104749241Y-87531363D01*
X104549363Y-87731241D01*
X104392320Y-87966273D01*
X104284147Y-88227426D01*
X104229000Y-88504665D01*
X104229000Y-88787335D01*
X104284147Y-89064574D01*
X104392320Y-89325727D01*
X104549363Y-89560759D01*
X104749241Y-89760637D01*
X104981759Y-89916000D01*
X104749241Y-90071363D01*
X104549363Y-90271241D01*
X104392320Y-90506273D01*
X104284147Y-90767426D01*
X104229000Y-91044665D01*
X104229000Y-91327335D01*
X104284147Y-91604574D01*
X104392320Y-91865727D01*
X104549363Y-92100759D01*
X104749241Y-92300637D01*
X104981759Y-92456000D01*
X104749241Y-92611363D01*
X104549363Y-92811241D01*
X104392320Y-93046273D01*
X104284147Y-93307426D01*
X104229000Y-93584665D01*
X104229000Y-93867335D01*
X104284147Y-94144574D01*
X104392320Y-94405727D01*
X104549363Y-94640759D01*
X104749241Y-94840637D01*
X104981759Y-94996000D01*
X104749241Y-95151363D01*
X104549363Y-95351241D01*
X104392320Y-95586273D01*
X104284147Y-95847426D01*
X104229000Y-96124665D01*
X104229000Y-96407335D01*
X104284147Y-96684574D01*
X104392320Y-96945727D01*
X104549363Y-97180759D01*
X104749241Y-97380637D01*
X104981759Y-97536000D01*
X104749241Y-97691363D01*
X104549363Y-97891241D01*
X104392320Y-98126273D01*
X104284147Y-98387426D01*
X104229000Y-98664665D01*
X104229000Y-98947335D01*
X104284147Y-99224574D01*
X104392320Y-99485727D01*
X104549363Y-99720759D01*
X104749241Y-99920637D01*
X104981759Y-100076000D01*
X104749241Y-100231363D01*
X104549363Y-100431241D01*
X104392320Y-100666273D01*
X104284147Y-100927426D01*
X104229000Y-101204665D01*
X104229000Y-101487335D01*
X104284147Y-101764574D01*
X104392320Y-102025727D01*
X104549363Y-102260759D01*
X104747961Y-102459357D01*
X104739518Y-102460188D01*
X104619820Y-102496498D01*
X104509506Y-102555463D01*
X104412815Y-102634815D01*
X104333463Y-102731506D01*
X104274498Y-102841820D01*
X104238188Y-102961518D01*
X104225928Y-103086000D01*
X104225928Y-104686000D01*
X104238188Y-104810482D01*
X104274498Y-104930180D01*
X104333463Y-105040494D01*
X104412815Y-105137185D01*
X104509506Y-105216537D01*
X104619820Y-105275502D01*
X104739518Y-105311812D01*
X104864000Y-105324072D01*
X106464000Y-105324072D01*
X106588482Y-105311812D01*
X106708180Y-105275502D01*
X106818494Y-105216537D01*
X106915185Y-105137185D01*
X106994537Y-105040494D01*
X107053502Y-104930180D01*
X107089812Y-104810482D01*
X107102072Y-104686000D01*
X107102072Y-104648000D01*
X114262577Y-104648000D01*
X114300000Y-104651686D01*
X114337423Y-104648000D01*
X114337426Y-104648000D01*
X114449378Y-104636974D01*
X114593015Y-104593402D01*
X114725392Y-104522645D01*
X114841422Y-104427422D01*
X114865284Y-104398346D01*
X117130504Y-102133127D01*
X117092320Y-102190273D01*
X116984147Y-102451426D01*
X116929000Y-102728665D01*
X116929000Y-103011335D01*
X116984147Y-103288574D01*
X117092320Y-103549727D01*
X117249363Y-103784759D01*
X117449241Y-103984637D01*
X117602001Y-104086707D01*
X117602000Y-104701293D01*
X117449241Y-104803363D01*
X117249363Y-105003241D01*
X117092320Y-105238273D01*
X117021188Y-105410000D01*
X103185630Y-105410000D01*
X99443157Y-101667527D01*
X99479000Y-101487335D01*
X99479000Y-101204665D01*
X99423853Y-100927426D01*
X99315680Y-100666273D01*
X99158637Y-100431241D01*
X98958759Y-100231363D01*
X98726241Y-100076000D01*
X98958759Y-99920637D01*
X99158637Y-99720759D01*
X99315680Y-99485727D01*
X99423853Y-99224574D01*
X99479000Y-98947335D01*
X99479000Y-98664665D01*
X99423853Y-98387426D01*
X99315680Y-98126273D01*
X99158637Y-97891241D01*
X98958759Y-97691363D01*
X98724872Y-97535085D01*
X98785514Y-97502671D01*
X98857097Y-97258702D01*
X98044000Y-96445605D01*
X97230903Y-97258702D01*
X97302486Y-97502671D01*
X97366992Y-97533194D01*
X97364273Y-97534320D01*
X97129241Y-97691363D01*
X96929363Y-97891241D01*
X96827293Y-98044000D01*
X96466707Y-98044000D01*
X96521680Y-97961727D01*
X96629853Y-97700574D01*
X96685000Y-97423335D01*
X96685000Y-97140665D01*
X96629853Y-96863426D01*
X96521680Y-96602273D01*
X96364637Y-96367241D01*
X96333908Y-96336512D01*
X96603783Y-96336512D01*
X96645213Y-96616130D01*
X96740397Y-96882292D01*
X96807329Y-97007514D01*
X97051298Y-97079097D01*
X97864395Y-96266000D01*
X98223605Y-96266000D01*
X99036702Y-97079097D01*
X99280671Y-97007514D01*
X99401571Y-96752004D01*
X99470300Y-96477816D01*
X99484217Y-96195488D01*
X99442787Y-95915870D01*
X99347603Y-95649708D01*
X99280671Y-95524486D01*
X99036702Y-95452903D01*
X98223605Y-96266000D01*
X97864395Y-96266000D01*
X97051298Y-95452903D01*
X96807329Y-95524486D01*
X96686429Y-95779996D01*
X96617700Y-96054184D01*
X96603783Y-96336512D01*
X96333908Y-96336512D01*
X96164759Y-96167363D01*
X95932241Y-96012000D01*
X96164759Y-95856637D01*
X96364637Y-95656759D01*
X96521680Y-95421727D01*
X96629853Y-95160574D01*
X96685000Y-94883335D01*
X96685000Y-94600665D01*
X96661111Y-94480568D01*
X96736574Y-94488000D01*
X96736576Y-94488000D01*
X96773999Y-94491686D01*
X96811422Y-94488000D01*
X96827293Y-94488000D01*
X96929363Y-94640759D01*
X97129241Y-94840637D01*
X97363128Y-94996915D01*
X97302486Y-95029329D01*
X97230903Y-95273298D01*
X98044000Y-96086395D01*
X98857097Y-95273298D01*
X98785514Y-95029329D01*
X98721008Y-94998806D01*
X98723727Y-94997680D01*
X98958759Y-94840637D01*
X99158637Y-94640759D01*
X99315680Y-94405727D01*
X99423853Y-94144574D01*
X99479000Y-93867335D01*
X99479000Y-93584665D01*
X99443157Y-93404473D01*
X102366346Y-90481284D01*
X102395422Y-90457422D01*
X102467659Y-90369401D01*
X102490645Y-90341393D01*
X102548615Y-90232937D01*
X102561402Y-90209015D01*
X102604974Y-90065378D01*
X102616000Y-89953426D01*
X102616000Y-89953423D01*
X102619686Y-89916000D01*
X102616000Y-89878577D01*
X102616000Y-86176512D01*
X104223783Y-86176512D01*
X104265213Y-86456130D01*
X104360397Y-86722292D01*
X104427329Y-86847514D01*
X104671298Y-86919097D01*
X105484395Y-86106000D01*
X104671298Y-85292903D01*
X104427329Y-85364486D01*
X104306429Y-85619996D01*
X104237700Y-85894184D01*
X104223783Y-86176512D01*
X102616000Y-86176512D01*
X102616000Y-85113298D01*
X104850903Y-85113298D01*
X105664000Y-85926395D01*
X106477097Y-85113298D01*
X106405514Y-84869329D01*
X106150004Y-84748429D01*
X105875816Y-84679700D01*
X105593488Y-84665783D01*
X105313870Y-84707213D01*
X105047708Y-84802397D01*
X104922486Y-84869329D01*
X104850903Y-85113298D01*
X102616000Y-85113298D01*
X102616000Y-82408665D01*
X103213000Y-82408665D01*
X103213000Y-82691335D01*
X103268147Y-82968574D01*
X103376320Y-83229727D01*
X103533363Y-83464759D01*
X103733241Y-83664637D01*
X103968273Y-83821680D01*
X104229426Y-83929853D01*
X104506665Y-83985000D01*
X104789335Y-83985000D01*
X105066574Y-83929853D01*
X105327727Y-83821680D01*
X105562759Y-83664637D01*
X105762637Y-83464759D01*
X105919680Y-83229727D01*
X106027853Y-82968574D01*
X106083000Y-82691335D01*
X106083000Y-82408665D01*
X106027853Y-82131426D01*
X105919680Y-81870273D01*
X105762637Y-81635241D01*
X105562759Y-81435363D01*
X105327727Y-81278320D01*
X105066574Y-81170147D01*
X104789335Y-81115000D01*
X104506665Y-81115000D01*
X104229426Y-81170147D01*
X103968273Y-81278320D01*
X103733241Y-81435363D01*
X103533363Y-81635241D01*
X103376320Y-81870273D01*
X103268147Y-82131426D01*
X103213000Y-82408665D01*
X102616000Y-82408665D01*
X102616000Y-79178080D01*
X102628463Y-79172918D01*
X102896252Y-78993987D01*
X103123987Y-78766252D01*
X103302918Y-78498463D01*
X103426168Y-78200912D01*
X103489000Y-77885033D01*
X103489000Y-77562967D01*
X103426168Y-77247088D01*
X103367313Y-77104999D01*
X104729369Y-77104999D01*
X104858994Y-77234625D01*
X104853832Y-77247088D01*
X104791000Y-77562967D01*
X104791000Y-77885033D01*
X104853832Y-78200912D01*
X104977082Y-78498463D01*
X105156013Y-78766252D01*
X105383748Y-78993987D01*
X105651537Y-79172918D01*
X105949088Y-79296168D01*
X106264967Y-79359000D01*
X106587033Y-79359000D01*
X106902912Y-79296168D01*
X107200463Y-79172918D01*
X107468252Y-78993987D01*
X107695987Y-78766252D01*
X107874918Y-78498463D01*
X107998168Y-78200912D01*
X108061000Y-77885033D01*
X108061000Y-77562967D01*
X107998168Y-77247088D01*
X107874918Y-76949537D01*
X107695987Y-76681748D01*
X107468252Y-76454013D01*
X107200463Y-76275082D01*
X106902912Y-76151832D01*
X106587033Y-76089000D01*
X106264967Y-76089000D01*
X105949088Y-76151832D01*
X105936625Y-76156994D01*
X105610283Y-75830653D01*
X105586421Y-75801577D01*
X105470391Y-75706354D01*
X105338014Y-75635597D01*
X105194377Y-75592025D01*
X105082425Y-75580999D01*
X105082422Y-75580999D01*
X105044999Y-75577313D01*
X105007576Y-75580999D01*
X101228541Y-75580999D01*
X101191118Y-75577313D01*
X101153695Y-75580999D01*
X101153693Y-75580999D01*
X101041741Y-75592025D01*
X100898104Y-75635597D01*
X100765727Y-75706354D01*
X100649697Y-75801577D01*
X100625839Y-75830648D01*
X99960652Y-76495836D01*
X99931577Y-76519697D01*
X99880796Y-76581575D01*
X99836354Y-76635727D01*
X99811756Y-76681748D01*
X99765597Y-76768105D01*
X99722025Y-76911742D01*
X99712970Y-77003685D01*
X99707313Y-77061119D01*
X99710999Y-77098542D01*
X99711000Y-81116364D01*
X99577488Y-81109783D01*
X99314000Y-81148823D01*
X99314000Y-73082080D01*
X99326463Y-73076918D01*
X99594252Y-72897987D01*
X99821987Y-72670252D01*
X100000918Y-72402463D01*
X100124168Y-72104912D01*
X100187000Y-71789033D01*
X100187000Y-71466967D01*
X100124168Y-71151088D01*
X100065313Y-71008999D01*
X100157369Y-71008999D01*
X100286994Y-71138625D01*
X100281832Y-71151088D01*
X100219000Y-71466967D01*
X100219000Y-71789033D01*
X100281832Y-72104912D01*
X100405082Y-72402463D01*
X100584013Y-72670252D01*
X100811748Y-72897987D01*
X101079537Y-73076918D01*
X101377088Y-73200168D01*
X101692967Y-73263000D01*
X102015033Y-73263000D01*
X102330912Y-73200168D01*
X102628463Y-73076918D01*
X102896252Y-72897987D01*
X103123987Y-72670252D01*
X103302918Y-72402463D01*
X103426168Y-72104912D01*
X103489000Y-71789033D01*
X103489000Y-71466967D01*
X103426168Y-71151088D01*
X103302918Y-70853537D01*
X103300926Y-70850556D01*
X103588995Y-71138625D01*
X103583832Y-71151088D01*
X103521000Y-71466967D01*
X103521000Y-71789033D01*
X103583832Y-72104912D01*
X103707082Y-72402463D01*
X103886013Y-72670252D01*
X104113748Y-72897987D01*
X104381537Y-73076918D01*
X104679088Y-73200168D01*
X104994967Y-73263000D01*
X105317033Y-73263000D01*
X105632912Y-73200168D01*
X105930463Y-73076918D01*
X106198252Y-72897987D01*
X106425987Y-72670252D01*
X106604918Y-72402463D01*
X106728168Y-72104912D01*
X106791000Y-71789033D01*
X106791000Y-71466967D01*
X106728168Y-71151088D01*
X106604918Y-70853537D01*
X106602927Y-70850558D01*
X106890994Y-71138625D01*
X106885832Y-71151088D01*
X106823000Y-71466967D01*
X106823000Y-71789033D01*
X106885832Y-72104912D01*
X107009082Y-72402463D01*
X107188013Y-72670252D01*
X107415748Y-72897987D01*
X107683537Y-73076918D01*
X107981088Y-73200168D01*
X108296967Y-73263000D01*
X108619033Y-73263000D01*
X108934912Y-73200168D01*
X109232463Y-73076918D01*
X109500252Y-72897987D01*
X109727987Y-72670252D01*
X109906918Y-72402463D01*
X110030168Y-72104912D01*
X110093000Y-71789033D01*
X110093000Y-71466967D01*
X110030168Y-71151088D01*
X109906918Y-70853537D01*
X109727987Y-70585748D01*
X109500252Y-70358013D01*
X109232463Y-70179082D01*
X108934912Y-70055832D01*
X108619033Y-69993000D01*
X108296967Y-69993000D01*
X107981088Y-70055832D01*
X107968625Y-70060994D01*
X106626264Y-68718634D01*
X106602402Y-68689558D01*
X106486372Y-68594335D01*
X106353995Y-68523578D01*
X106210358Y-68480006D01*
X106098406Y-68468980D01*
X106098403Y-68468980D01*
X106060980Y-68465294D01*
X106023557Y-68468980D01*
X97146325Y-68468980D01*
X97108902Y-68465294D01*
X97071479Y-68468980D01*
X97071476Y-68468980D01*
X96959524Y-68480006D01*
X96815887Y-68523578D01*
X96812475Y-68525402D01*
X96683509Y-68594335D01*
X96600806Y-68662208D01*
X96567480Y-68689558D01*
X96544553Y-68717494D01*
X96521680Y-68662273D01*
X96382162Y-68453468D01*
X97679952Y-67155679D01*
X97897740Y-67199000D01*
X98190260Y-67199000D01*
X98477158Y-67141932D01*
X98747411Y-67029990D01*
X98990632Y-66867475D01*
X99197475Y-66660632D01*
X99320842Y-66476000D01*
X103267158Y-66476000D01*
X103390525Y-66660632D01*
G37*
X103390525Y-66660632D02*
X103597368Y-66867475D01*
X103840589Y-67029990D01*
X104110842Y-67141932D01*
X104397740Y-67199000D01*
X104690260Y-67199000D01*
X104977158Y-67141932D01*
X105247411Y-67029990D01*
X105490632Y-66867475D01*
X105697475Y-66660632D01*
X105739000Y-66598485D01*
X105780525Y-66660632D01*
X105987368Y-66867475D01*
X106230589Y-67029990D01*
X106500842Y-67141932D01*
X106787740Y-67199000D01*
X107080260Y-67199000D01*
X107367158Y-67141932D01*
X107637411Y-67029990D01*
X107880632Y-66867475D01*
X108087475Y-66660632D01*
X108210842Y-66476000D01*
X112157158Y-66476000D01*
X112280525Y-66660632D01*
X112487368Y-66867475D01*
X112730589Y-67029990D01*
X113000842Y-67141932D01*
X113287740Y-67199000D01*
X113333370Y-67199000D01*
X113168648Y-67363722D01*
X113139578Y-67387579D01*
X113115721Y-67416649D01*
X113115720Y-67416650D01*
X113044354Y-67503609D01*
X112973598Y-67635986D01*
X112930026Y-67779623D01*
X112915313Y-67929001D01*
X112919000Y-67966434D01*
X112918999Y-70474760D01*
X112802252Y-70358013D01*
X112534463Y-70179082D01*
X112236912Y-70055832D01*
X111921033Y-69993000D01*
X111598967Y-69993000D01*
X111283088Y-70055832D01*
X110985537Y-70179082D01*
X110717748Y-70358013D01*
X110490013Y-70585748D01*
X110311082Y-70853537D01*
X110187832Y-71151088D01*
X110125000Y-71466967D01*
X110125000Y-71789033D01*
X110187832Y-72104912D01*
X110311082Y-72402463D01*
X110490013Y-72670252D01*
X110717748Y-72897987D01*
X110985537Y-73076918D01*
X111191868Y-73162383D01*
X110120648Y-74233604D01*
X110091578Y-74257461D01*
X110067721Y-74286531D01*
X110067720Y-74286532D01*
X109996354Y-74373491D01*
X109925598Y-74505868D01*
X109882026Y-74649505D01*
X109867313Y-74798883D01*
X109871000Y-74836316D01*
X109870999Y-83361370D01*
X107099412Y-86132957D01*
X107104217Y-86035488D01*
X107062787Y-85755870D01*
X106967603Y-85489708D01*
X106900671Y-85364486D01*
X106656702Y-85292903D01*
X105843605Y-86106000D01*
X105857748Y-86120143D01*
X105678143Y-86299748D01*
X105664000Y-86285605D01*
X104850903Y-87098702D01*
X104922486Y-87342671D01*
X104986992Y-87373194D01*
X104984273Y-87374320D01*
X104749241Y-87531363D01*
X104549363Y-87731241D01*
X104392320Y-87966273D01*
X104284147Y-88227426D01*
X104229000Y-88504665D01*
X104229000Y-88787335D01*
X104284147Y-89064574D01*
X104392320Y-89325727D01*
X104549363Y-89560759D01*
X104749241Y-89760637D01*
X104981759Y-89916000D01*
X104749241Y-90071363D01*
X104549363Y-90271241D01*
X104392320Y-90506273D01*
X104284147Y-90767426D01*
X104229000Y-91044665D01*
X104229000Y-91327335D01*
X104284147Y-91604574D01*
X104392320Y-91865727D01*
X104549363Y-92100759D01*
X104749241Y-92300637D01*
X104981759Y-92456000D01*
X104749241Y-92611363D01*
X104549363Y-92811241D01*
X104392320Y-93046273D01*
X104284147Y-93307426D01*
X104229000Y-93584665D01*
X104229000Y-93867335D01*
X104284147Y-94144574D01*
X104392320Y-94405727D01*
X104549363Y-94640759D01*
X104749241Y-94840637D01*
X104981759Y-94996000D01*
X104749241Y-95151363D01*
X104549363Y-95351241D01*
X104392320Y-95586273D01*
X104284147Y-95847426D01*
X104229000Y-96124665D01*
X104229000Y-96407335D01*
X104284147Y-96684574D01*
X104392320Y-96945727D01*
X104549363Y-97180759D01*
X104749241Y-97380637D01*
X104981759Y-97536000D01*
X104749241Y-97691363D01*
X104549363Y-97891241D01*
X104392320Y-98126273D01*
X104284147Y-98387426D01*
X104229000Y-98664665D01*
X104229000Y-98947335D01*
X104284147Y-99224574D01*
X104392320Y-99485727D01*
X104549363Y-99720759D01*
X104749241Y-99920637D01*
X104981759Y-100076000D01*
X104749241Y-100231363D01*
X104549363Y-100431241D01*
X104392320Y-100666273D01*
X104284147Y-100927426D01*
X104229000Y-101204665D01*
X104229000Y-101487335D01*
X104284147Y-101764574D01*
X104392320Y-102025727D01*
X104549363Y-102260759D01*
X104747961Y-102459357D01*
X104739518Y-102460188D01*
X104619820Y-102496498D01*
X104509506Y-102555463D01*
X104412815Y-102634815D01*
X104333463Y-102731506D01*
X104274498Y-102841820D01*
X104238188Y-102961518D01*
X104225928Y-103086000D01*
X104225928Y-104686000D01*
X104238188Y-104810482D01*
X104274498Y-104930180D01*
X104333463Y-105040494D01*
X104412815Y-105137185D01*
X104509506Y-105216537D01*
X104619820Y-105275502D01*
X104739518Y-105311812D01*
X104864000Y-105324072D01*
X106464000Y-105324072D01*
X106588482Y-105311812D01*
X106708180Y-105275502D01*
X106818494Y-105216537D01*
X106915185Y-105137185D01*
X106994537Y-105040494D01*
X107053502Y-104930180D01*
X107089812Y-104810482D01*
X107102072Y-104686000D01*
X107102072Y-104648000D01*
X114262577Y-104648000D01*
X114300000Y-104651686D01*
X114337423Y-104648000D01*
X114337426Y-104648000D01*
X114449378Y-104636974D01*
X114593015Y-104593402D01*
X114725392Y-104522645D01*
X114841422Y-104427422D01*
X114865284Y-104398346D01*
X117130504Y-102133127D01*
X117092320Y-102190273D01*
X116984147Y-102451426D01*
X116929000Y-102728665D01*
X116929000Y-103011335D01*
X116984147Y-103288574D01*
X117092320Y-103549727D01*
X117249363Y-103784759D01*
X117449241Y-103984637D01*
X117602001Y-104086707D01*
X117602000Y-104701293D01*
X117449241Y-104803363D01*
X117249363Y-105003241D01*
X117092320Y-105238273D01*
X117021188Y-105410000D01*
X103185630Y-105410000D01*
X99443157Y-101667527D01*
X99479000Y-101487335D01*
X99479000Y-101204665D01*
X99423853Y-100927426D01*
X99315680Y-100666273D01*
X99158637Y-100431241D01*
X98958759Y-100231363D01*
X98726241Y-100076000D01*
X98958759Y-99920637D01*
X99158637Y-99720759D01*
X99315680Y-99485727D01*
X99423853Y-99224574D01*
X99479000Y-98947335D01*
X99479000Y-98664665D01*
X99423853Y-98387426D01*
X99315680Y-98126273D01*
X99158637Y-97891241D01*
X98958759Y-97691363D01*
X98724872Y-97535085D01*
X98785514Y-97502671D01*
X98857097Y-97258702D01*
X98044000Y-96445605D01*
X97230903Y-97258702D01*
X97302486Y-97502671D01*
X97366992Y-97533194D01*
X97364273Y-97534320D01*
X97129241Y-97691363D01*
X96929363Y-97891241D01*
X96827293Y-98044000D01*
X96466707Y-98044000D01*
X96521680Y-97961727D01*
X96629853Y-97700574D01*
X96685000Y-97423335D01*
X96685000Y-97140665D01*
X96629853Y-96863426D01*
X96521680Y-96602273D01*
X96364637Y-96367241D01*
X96333908Y-96336512D01*
X96603783Y-96336512D01*
X96645213Y-96616130D01*
X96740397Y-96882292D01*
X96807329Y-97007514D01*
X97051298Y-97079097D01*
X97864395Y-96266000D01*
X98223605Y-96266000D01*
X99036702Y-97079097D01*
X99280671Y-97007514D01*
X99401571Y-96752004D01*
X99470300Y-96477816D01*
X99484217Y-96195488D01*
X99442787Y-95915870D01*
X99347603Y-95649708D01*
X99280671Y-95524486D01*
X99036702Y-95452903D01*
X98223605Y-96266000D01*
X97864395Y-96266000D01*
X97051298Y-95452903D01*
X96807329Y-95524486D01*
X96686429Y-95779996D01*
X96617700Y-96054184D01*
X96603783Y-96336512D01*
X96333908Y-96336512D01*
X96164759Y-96167363D01*
X95932241Y-96012000D01*
X96164759Y-95856637D01*
X96364637Y-95656759D01*
X96521680Y-95421727D01*
X96629853Y-95160574D01*
X96685000Y-94883335D01*
X96685000Y-94600665D01*
X96661111Y-94480568D01*
X96736574Y-94488000D01*
X96736576Y-94488000D01*
X96773999Y-94491686D01*
X96811422Y-94488000D01*
X96827293Y-94488000D01*
X96929363Y-94640759D01*
X97129241Y-94840637D01*
X97363128Y-94996915D01*
X97302486Y-95029329D01*
X97230903Y-95273298D01*
X98044000Y-96086395D01*
X98857097Y-95273298D01*
X98785514Y-95029329D01*
X98721008Y-94998806D01*
X98723727Y-94997680D01*
X98958759Y-94840637D01*
X99158637Y-94640759D01*
X99315680Y-94405727D01*
X99423853Y-94144574D01*
X99479000Y-93867335D01*
X99479000Y-93584665D01*
X99443157Y-93404473D01*
X102366346Y-90481284D01*
X102395422Y-90457422D01*
X102467659Y-90369401D01*
X102490645Y-90341393D01*
X102548615Y-90232937D01*
X102561402Y-90209015D01*
X102604974Y-90065378D01*
X102616000Y-89953426D01*
X102616000Y-89953423D01*
X102619686Y-89916000D01*
X102616000Y-89878577D01*
X102616000Y-86176512D01*
X104223783Y-86176512D01*
X104265213Y-86456130D01*
X104360397Y-86722292D01*
X104427329Y-86847514D01*
X104671298Y-86919097D01*
X105484395Y-86106000D01*
X104671298Y-85292903D01*
X104427329Y-85364486D01*
X104306429Y-85619996D01*
X104237700Y-85894184D01*
X104223783Y-86176512D01*
X102616000Y-86176512D01*
X102616000Y-85113298D01*
X104850903Y-85113298D01*
X105664000Y-85926395D01*
X106477097Y-85113298D01*
X106405514Y-84869329D01*
X106150004Y-84748429D01*
X105875816Y-84679700D01*
X105593488Y-84665783D01*
X105313870Y-84707213D01*
X105047708Y-84802397D01*
X104922486Y-84869329D01*
X104850903Y-85113298D01*
X102616000Y-85113298D01*
X102616000Y-82408665D01*
X103213000Y-82408665D01*
X103213000Y-82691335D01*
X103268147Y-82968574D01*
X103376320Y-83229727D01*
X103533363Y-83464759D01*
X103733241Y-83664637D01*
X103968273Y-83821680D01*
X104229426Y-83929853D01*
X104506665Y-83985000D01*
X104789335Y-83985000D01*
X105066574Y-83929853D01*
X105327727Y-83821680D01*
X105562759Y-83664637D01*
X105762637Y-83464759D01*
X105919680Y-83229727D01*
X106027853Y-82968574D01*
X106083000Y-82691335D01*
X106083000Y-82408665D01*
X106027853Y-82131426D01*
X105919680Y-81870273D01*
X105762637Y-81635241D01*
X105562759Y-81435363D01*
X105327727Y-81278320D01*
X105066574Y-81170147D01*
X104789335Y-81115000D01*
X104506665Y-81115000D01*
X104229426Y-81170147D01*
X103968273Y-81278320D01*
X103733241Y-81435363D01*
X103533363Y-81635241D01*
X103376320Y-81870273D01*
X103268147Y-82131426D01*
X103213000Y-82408665D01*
X102616000Y-82408665D01*
X102616000Y-79178080D01*
X102628463Y-79172918D01*
X102896252Y-78993987D01*
X103123987Y-78766252D01*
X103302918Y-78498463D01*
X103426168Y-78200912D01*
X103489000Y-77885033D01*
X103489000Y-77562967D01*
X103426168Y-77247088D01*
X103367313Y-77104999D01*
X104729369Y-77104999D01*
X104858994Y-77234625D01*
X104853832Y-77247088D01*
X104791000Y-77562967D01*
X104791000Y-77885033D01*
X104853832Y-78200912D01*
X104977082Y-78498463D01*
X105156013Y-78766252D01*
X105383748Y-78993987D01*
X105651537Y-79172918D01*
X105949088Y-79296168D01*
X106264967Y-79359000D01*
X106587033Y-79359000D01*
X106902912Y-79296168D01*
X107200463Y-79172918D01*
X107468252Y-78993987D01*
X107695987Y-78766252D01*
X107874918Y-78498463D01*
X107998168Y-78200912D01*
X108061000Y-77885033D01*
X108061000Y-77562967D01*
X107998168Y-77247088D01*
X107874918Y-76949537D01*
X107695987Y-76681748D01*
X107468252Y-76454013D01*
X107200463Y-76275082D01*
X106902912Y-76151832D01*
X106587033Y-76089000D01*
X106264967Y-76089000D01*
X105949088Y-76151832D01*
X105936625Y-76156994D01*
X105610283Y-75830653D01*
X105586421Y-75801577D01*
X105470391Y-75706354D01*
X105338014Y-75635597D01*
X105194377Y-75592025D01*
X105082425Y-75580999D01*
X105082422Y-75580999D01*
X105044999Y-75577313D01*
X105007576Y-75580999D01*
X101228541Y-75580999D01*
X101191118Y-75577313D01*
X101153695Y-75580999D01*
X101153693Y-75580999D01*
X101041741Y-75592025D01*
X100898104Y-75635597D01*
X100765727Y-75706354D01*
X100649697Y-75801577D01*
X100625839Y-75830648D01*
X99960652Y-76495836D01*
X99931577Y-76519697D01*
X99880796Y-76581575D01*
X99836354Y-76635727D01*
X99811756Y-76681748D01*
X99765597Y-76768105D01*
X99722025Y-76911742D01*
X99712970Y-77003685D01*
X99707313Y-77061119D01*
X99710999Y-77098542D01*
X99711000Y-81116364D01*
X99577488Y-81109783D01*
X99314000Y-81148823D01*
X99314000Y-73082080D01*
X99326463Y-73076918D01*
X99594252Y-72897987D01*
X99821987Y-72670252D01*
X100000918Y-72402463D01*
X100124168Y-72104912D01*
X100187000Y-71789033D01*
X100187000Y-71466967D01*
X100124168Y-71151088D01*
X100065313Y-71008999D01*
X100157369Y-71008999D01*
X100286994Y-71138625D01*
X100281832Y-71151088D01*
X100219000Y-71466967D01*
X100219000Y-71789033D01*
X100281832Y-72104912D01*
X100405082Y-72402463D01*
X100584013Y-72670252D01*
X100811748Y-72897987D01*
X101079537Y-73076918D01*
X101377088Y-73200168D01*
X101692967Y-73263000D01*
X102015033Y-73263000D01*
X102330912Y-73200168D01*
X102628463Y-73076918D01*
X102896252Y-72897987D01*
X103123987Y-72670252D01*
X103302918Y-72402463D01*
X103426168Y-72104912D01*
X103489000Y-71789033D01*
X103489000Y-71466967D01*
X103426168Y-71151088D01*
X103302918Y-70853537D01*
X103300926Y-70850556D01*
X103588995Y-71138625D01*
X103583832Y-71151088D01*
X103521000Y-71466967D01*
X103521000Y-71789033D01*
X103583832Y-72104912D01*
X103707082Y-72402463D01*
X103886013Y-72670252D01*
X104113748Y-72897987D01*
X104381537Y-73076918D01*
X104679088Y-73200168D01*
X104994967Y-73263000D01*
X105317033Y-73263000D01*
X105632912Y-73200168D01*
X105930463Y-73076918D01*
X106198252Y-72897987D01*
X106425987Y-72670252D01*
X106604918Y-72402463D01*
X106728168Y-72104912D01*
X106791000Y-71789033D01*
X106791000Y-71466967D01*
X106728168Y-71151088D01*
X106604918Y-70853537D01*
X106602927Y-70850558D01*
X106890994Y-71138625D01*
X106885832Y-71151088D01*
X106823000Y-71466967D01*
X106823000Y-71789033D01*
X106885832Y-72104912D01*
X107009082Y-72402463D01*
X107188013Y-72670252D01*
X107415748Y-72897987D01*
X107683537Y-73076918D01*
X107981088Y-73200168D01*
X108296967Y-73263000D01*
X108619033Y-73263000D01*
X108934912Y-73200168D01*
X109232463Y-73076918D01*
X109500252Y-72897987D01*
X109727987Y-72670252D01*
X109906918Y-72402463D01*
X110030168Y-72104912D01*
X110093000Y-71789033D01*
X110093000Y-71466967D01*
X110030168Y-71151088D01*
X109906918Y-70853537D01*
X109727987Y-70585748D01*
X109500252Y-70358013D01*
X109232463Y-70179082D01*
X108934912Y-70055832D01*
X108619033Y-69993000D01*
X108296967Y-69993000D01*
X107981088Y-70055832D01*
X107968625Y-70060994D01*
X106626264Y-68718634D01*
X106602402Y-68689558D01*
X106486372Y-68594335D01*
X106353995Y-68523578D01*
X106210358Y-68480006D01*
X106098406Y-68468980D01*
X106098403Y-68468980D01*
X106060980Y-68465294D01*
X106023557Y-68468980D01*
X97146325Y-68468980D01*
X97108902Y-68465294D01*
X97071479Y-68468980D01*
X97071476Y-68468980D01*
X96959524Y-68480006D01*
X96815887Y-68523578D01*
X96812475Y-68525402D01*
X96683509Y-68594335D01*
X96600806Y-68662208D01*
X96567480Y-68689558D01*
X96544553Y-68717494D01*
X96521680Y-68662273D01*
X96382162Y-68453468D01*
X97679952Y-67155679D01*
X97897740Y-67199000D01*
X98190260Y-67199000D01*
X98477158Y-67141932D01*
X98747411Y-67029990D01*
X98990632Y-66867475D01*
X99197475Y-66660632D01*
X99320842Y-66476000D01*
X103267158Y-66476000D01*
X103390525Y-66660632D01*
G36*
X70421422Y-63696894D02*
G01*
X70389750Y-63697000D01*
X70231000Y-63855750D01*
X70231000Y-65405000D01*
X71780250Y-65405000D01*
X71939000Y-65246250D01*
X71939490Y-65100529D01*
X72046664Y-65133040D01*
X72166078Y-65144801D01*
X72166080Y-65144801D01*
X72206000Y-65148733D01*
X72245921Y-65144801D01*
X73310069Y-65144801D01*
X73269000Y-65351268D01*
X73269000Y-65712732D01*
X73339518Y-66067250D01*
X73477844Y-66401199D01*
X73678662Y-66701744D01*
X73934256Y-66957338D01*
X74234801Y-67158156D01*
X74568750Y-67296482D01*
X74923268Y-67367000D01*
X75284732Y-67367000D01*
X75639250Y-67296482D01*
X75695649Y-67273121D01*
X77295033Y-68872506D01*
X77320483Y-68903517D01*
X77405519Y-68973304D01*
X77419200Y-68984532D01*
X77419200Y-78796605D01*
X77348687Y-78780000D01*
X77105562Y-78771505D01*
X76865451Y-78810605D01*
X76637582Y-78895798D01*
X76561148Y-78936652D01*
X76513842Y-79160234D01*
X76396736Y-79043128D01*
X76338858Y-79101006D01*
X76314537Y-79055506D01*
X76235185Y-78958815D01*
X76138494Y-78879463D01*
X76028180Y-78820498D01*
X75908482Y-78784188D01*
X75784000Y-78771928D01*
X74584000Y-78771928D01*
X74459518Y-78784188D01*
X74339820Y-78820498D01*
X74229506Y-78879463D01*
X74132815Y-78958815D01*
X74053463Y-79055506D01*
X73994498Y-79165820D01*
X73958188Y-79285518D01*
X73945928Y-79410000D01*
X73945928Y-80610000D01*
X73958188Y-80734482D01*
X73994498Y-80854180D01*
X74053463Y-80964494D01*
X74132815Y-81061185D01*
X74229506Y-81140537D01*
X74339820Y-81199502D01*
X74371201Y-81209021D01*
X74371200Y-83636979D01*
X74339820Y-83646498D01*
X74229506Y-83705463D01*
X74132815Y-83784815D01*
X74053463Y-83881506D01*
X73994498Y-83991820D01*
X73984979Y-84023200D01*
X68788323Y-84023200D01*
X68748400Y-84019268D01*
X68708477Y-84023200D01*
X68589063Y-84034961D01*
X68435850Y-84081438D01*
X68294648Y-84156912D01*
X68170883Y-84258483D01*
X68145433Y-84289494D01*
X66598800Y-85836128D01*
X66598800Y-81702108D01*
X66612815Y-81719185D01*
X66709506Y-81798537D01*
X66819820Y-81857502D01*
X66939518Y-81893812D01*
X67064000Y-81906072D01*
X68064000Y-81906072D01*
X68188482Y-81893812D01*
X68308180Y-81857502D01*
X68386379Y-81815703D01*
X68397553Y-81821676D01*
X68611501Y-81886577D01*
X68834000Y-81908491D01*
X69056498Y-81886577D01*
X69270446Y-81821676D01*
X69465538Y-81717398D01*
X69514249Y-81753473D01*
X69717837Y-81849592D01*
X69802126Y-81862119D01*
X69977000Y-81735954D01*
X69977000Y-80645000D01*
X70231000Y-80645000D01*
X70231000Y-81735954D01*
X70405874Y-81862119D01*
X70490163Y-81849592D01*
X70693751Y-81753473D01*
X70874675Y-81619483D01*
X71025983Y-81452771D01*
X71141859Y-81259743D01*
X71217851Y-81047818D01*
X71251038Y-80825140D01*
X71087105Y-80645000D01*
X70231000Y-80645000D01*
X69977000Y-80645000D01*
X69969000Y-80645000D01*
X69969000Y-80391000D01*
X69977000Y-80391000D01*
X69977000Y-79300046D01*
X70231000Y-79300046D01*
X70231000Y-80391000D01*
X71087105Y-80391000D01*
X71251038Y-80210860D01*
X71217851Y-79988182D01*
X71141859Y-79776257D01*
X71025983Y-79583229D01*
X70874675Y-79416517D01*
X70693751Y-79282527D01*
X70490163Y-79186408D01*
X70405874Y-79173881D01*
X70231000Y-79300046D01*
X69977000Y-79300046D01*
X69802126Y-79173881D01*
X69717837Y-79186408D01*
X69514249Y-79282527D01*
X69465538Y-79318602D01*
X69270447Y-79214324D01*
X69056499Y-79149423D01*
X68834000Y-79127509D01*
X68611502Y-79149423D01*
X68397554Y-79214324D01*
X68386379Y-79220297D01*
X68308180Y-79178498D01*
X68188482Y-79142188D01*
X68064000Y-79129928D01*
X67064000Y-79129928D01*
X66939518Y-79142188D01*
X66819820Y-79178498D01*
X66709506Y-79237463D01*
X66612815Y-79316815D01*
X66598800Y-79333892D01*
X66598800Y-76384273D01*
X66961033Y-76746506D01*
X66986483Y-76777517D01*
X67017493Y-76802966D01*
X67110248Y-76879088D01*
X67251450Y-76954562D01*
X67404663Y-77001039D01*
X67564000Y-77016732D01*
X67603923Y-77012800D01*
X73366080Y-77012800D01*
X73406000Y-77016732D01*
X73445920Y-77012800D01*
X73445923Y-77012800D01*
X73565337Y-77001039D01*
X73718550Y-76954562D01*
X73859752Y-76879088D01*
X73983517Y-76777517D01*
X74008972Y-76746500D01*
X74498309Y-76257163D01*
X74768967Y-76311000D01*
X75091033Y-76311000D01*
X75406912Y-76248168D01*
X75704463Y-76124918D01*
X75972252Y-75945987D01*
X76199987Y-75718252D01*
X76378918Y-75450463D01*
X76502168Y-75152912D01*
X76565000Y-74837033D01*
X76565000Y-74514967D01*
X76502168Y-74199088D01*
X76378918Y-73901537D01*
X76199987Y-73633748D01*
X75972252Y-73406013D01*
X75704463Y-73227082D01*
X75406912Y-73103832D01*
X75091033Y-73041000D01*
X74768967Y-73041000D01*
X74453088Y-73103832D01*
X74155537Y-73227082D01*
X73887748Y-73406013D01*
X73660013Y-73633748D01*
X73587280Y-73742600D01*
X73525413Y-73720192D01*
X72569605Y-74676000D01*
X72583748Y-74690143D01*
X72404143Y-74869748D01*
X72390000Y-74855605D01*
X72375858Y-74869748D01*
X72196253Y-74690143D01*
X72210395Y-74676000D01*
X72196253Y-74661858D01*
X72375858Y-74482253D01*
X72390000Y-74496395D01*
X73345808Y-73540587D01*
X73250044Y-73276186D01*
X72960429Y-73135296D01*
X72648892Y-73053616D01*
X72327405Y-73034282D01*
X72008325Y-73078039D01*
X71703912Y-73183205D01*
X71529956Y-73276186D01*
X71455037Y-73483033D01*
X71439502Y-73431820D01*
X71380537Y-73321506D01*
X71301185Y-73224815D01*
X71204494Y-73145463D01*
X71094180Y-73086498D01*
X70974482Y-73050188D01*
X70850000Y-73037928D01*
X69361401Y-73037928D01*
X68376800Y-72053328D01*
X68376800Y-67090560D01*
X68452815Y-67183185D01*
X68549506Y-67262537D01*
X68659820Y-67321502D01*
X68779518Y-67357812D01*
X68904000Y-67370072D01*
X69818250Y-67367000D01*
X69977000Y-67208250D01*
X69977000Y-65659000D01*
X70231000Y-65659000D01*
X70231000Y-67208250D01*
X70389750Y-67367000D01*
X71304000Y-67370072D01*
X71428482Y-67357812D01*
X71548180Y-67321502D01*
X71658494Y-67262537D01*
X71755185Y-67183185D01*
X71834537Y-67086494D01*
X71893502Y-66976180D01*
X71929812Y-66856482D01*
X71942072Y-66732000D01*
X71939000Y-65817750D01*
X71780250Y-65659000D01*
X70231000Y-65659000D01*
X69977000Y-65659000D01*
X69957000Y-65659000D01*
X69957000Y-65405000D01*
X69977000Y-65405000D01*
X69977000Y-63855750D01*
X69818250Y-63697000D01*
X68904000Y-63693928D01*
X68779518Y-63706188D01*
X68659820Y-63742498D01*
X68549506Y-63801463D01*
X68452815Y-63880815D01*
X68376800Y-63973440D01*
X68376800Y-63042800D01*
X69767328Y-63042800D01*
X70421422Y-63696894D01*
G37*
X70421422Y-63696894D02*
X70389750Y-63697000D01*
X70231000Y-63855750D01*
X70231000Y-65405000D01*
X71780250Y-65405000D01*
X71939000Y-65246250D01*
X71939490Y-65100529D01*
X72046664Y-65133040D01*
X72166078Y-65144801D01*
X72166080Y-65144801D01*
X72206000Y-65148733D01*
X72245921Y-65144801D01*
X73310069Y-65144801D01*
X73269000Y-65351268D01*
X73269000Y-65712732D01*
X73339518Y-66067250D01*
X73477844Y-66401199D01*
X73678662Y-66701744D01*
X73934256Y-66957338D01*
X74234801Y-67158156D01*
X74568750Y-67296482D01*
X74923268Y-67367000D01*
X75284732Y-67367000D01*
X75639250Y-67296482D01*
X75695649Y-67273121D01*
X77295033Y-68872506D01*
X77320483Y-68903517D01*
X77405519Y-68973304D01*
X77419200Y-68984532D01*
X77419200Y-78796605D01*
X77348687Y-78780000D01*
X77105562Y-78771505D01*
X76865451Y-78810605D01*
X76637582Y-78895798D01*
X76561148Y-78936652D01*
X76513842Y-79160234D01*
X76396736Y-79043128D01*
X76338858Y-79101006D01*
X76314537Y-79055506D01*
X76235185Y-78958815D01*
X76138494Y-78879463D01*
X76028180Y-78820498D01*
X75908482Y-78784188D01*
X75784000Y-78771928D01*
X74584000Y-78771928D01*
X74459518Y-78784188D01*
X74339820Y-78820498D01*
X74229506Y-78879463D01*
X74132815Y-78958815D01*
X74053463Y-79055506D01*
X73994498Y-79165820D01*
X73958188Y-79285518D01*
X73945928Y-79410000D01*
X73945928Y-80610000D01*
X73958188Y-80734482D01*
X73994498Y-80854180D01*
X74053463Y-80964494D01*
X74132815Y-81061185D01*
X74229506Y-81140537D01*
X74339820Y-81199502D01*
X74371201Y-81209021D01*
X74371200Y-83636979D01*
X74339820Y-83646498D01*
X74229506Y-83705463D01*
X74132815Y-83784815D01*
X74053463Y-83881506D01*
X73994498Y-83991820D01*
X73984979Y-84023200D01*
X68788323Y-84023200D01*
X68748400Y-84019268D01*
X68708477Y-84023200D01*
X68589063Y-84034961D01*
X68435850Y-84081438D01*
X68294648Y-84156912D01*
X68170883Y-84258483D01*
X68145433Y-84289494D01*
X66598800Y-85836128D01*
X66598800Y-81702108D01*
X66612815Y-81719185D01*
X66709506Y-81798537D01*
X66819820Y-81857502D01*
X66939518Y-81893812D01*
X67064000Y-81906072D01*
X68064000Y-81906072D01*
X68188482Y-81893812D01*
X68308180Y-81857502D01*
X68386379Y-81815703D01*
X68397553Y-81821676D01*
X68611501Y-81886577D01*
X68834000Y-81908491D01*
X69056498Y-81886577D01*
X69270446Y-81821676D01*
X69465538Y-81717398D01*
X69514249Y-81753473D01*
X69717837Y-81849592D01*
X69802126Y-81862119D01*
X69977000Y-81735954D01*
X69977000Y-80645000D01*
X70231000Y-80645000D01*
X70231000Y-81735954D01*
X70405874Y-81862119D01*
X70490163Y-81849592D01*
X70693751Y-81753473D01*
X70874675Y-81619483D01*
X71025983Y-81452771D01*
X71141859Y-81259743D01*
X71217851Y-81047818D01*
X71251038Y-80825140D01*
X71087105Y-80645000D01*
X70231000Y-80645000D01*
X69977000Y-80645000D01*
X69969000Y-80645000D01*
X69969000Y-80391000D01*
X69977000Y-80391000D01*
X69977000Y-79300046D01*
X70231000Y-79300046D01*
X70231000Y-80391000D01*
X71087105Y-80391000D01*
X71251038Y-80210860D01*
X71217851Y-79988182D01*
X71141859Y-79776257D01*
X71025983Y-79583229D01*
X70874675Y-79416517D01*
X70693751Y-79282527D01*
X70490163Y-79186408D01*
X70405874Y-79173881D01*
X70231000Y-79300046D01*
X69977000Y-79300046D01*
X69802126Y-79173881D01*
X69717837Y-79186408D01*
X69514249Y-79282527D01*
X69465538Y-79318602D01*
X69270447Y-79214324D01*
X69056499Y-79149423D01*
X68834000Y-79127509D01*
X68611502Y-79149423D01*
X68397554Y-79214324D01*
X68386379Y-79220297D01*
X68308180Y-79178498D01*
X68188482Y-79142188D01*
X68064000Y-79129928D01*
X67064000Y-79129928D01*
X66939518Y-79142188D01*
X66819820Y-79178498D01*
X66709506Y-79237463D01*
X66612815Y-79316815D01*
X66598800Y-79333892D01*
X66598800Y-76384273D01*
X66961033Y-76746506D01*
X66986483Y-76777517D01*
X67017493Y-76802966D01*
X67110248Y-76879088D01*
X67251450Y-76954562D01*
X67404663Y-77001039D01*
X67564000Y-77016732D01*
X67603923Y-77012800D01*
X73366080Y-77012800D01*
X73406000Y-77016732D01*
X73445920Y-77012800D01*
X73445923Y-77012800D01*
X73565337Y-77001039D01*
X73718550Y-76954562D01*
X73859752Y-76879088D01*
X73983517Y-76777517D01*
X74008972Y-76746500D01*
X74498309Y-76257163D01*
X74768967Y-76311000D01*
X75091033Y-76311000D01*
X75406912Y-76248168D01*
X75704463Y-76124918D01*
X75972252Y-75945987D01*
X76199987Y-75718252D01*
X76378918Y-75450463D01*
X76502168Y-75152912D01*
X76565000Y-74837033D01*
X76565000Y-74514967D01*
X76502168Y-74199088D01*
X76378918Y-73901537D01*
X76199987Y-73633748D01*
X75972252Y-73406013D01*
X75704463Y-73227082D01*
X75406912Y-73103832D01*
X75091033Y-73041000D01*
X74768967Y-73041000D01*
X74453088Y-73103832D01*
X74155537Y-73227082D01*
X73887748Y-73406013D01*
X73660013Y-73633748D01*
X73587280Y-73742600D01*
X73525413Y-73720192D01*
X72569605Y-74676000D01*
X72583748Y-74690143D01*
X72404143Y-74869748D01*
X72390000Y-74855605D01*
X72375858Y-74869748D01*
X72196253Y-74690143D01*
X72210395Y-74676000D01*
X72196253Y-74661858D01*
X72375858Y-74482253D01*
X72390000Y-74496395D01*
X73345808Y-73540587D01*
X73250044Y-73276186D01*
X72960429Y-73135296D01*
X72648892Y-73053616D01*
X72327405Y-73034282D01*
X72008325Y-73078039D01*
X71703912Y-73183205D01*
X71529956Y-73276186D01*
X71455037Y-73483033D01*
X71439502Y-73431820D01*
X71380537Y-73321506D01*
X71301185Y-73224815D01*
X71204494Y-73145463D01*
X71094180Y-73086498D01*
X70974482Y-73050188D01*
X70850000Y-73037928D01*
X69361401Y-73037928D01*
X68376800Y-72053328D01*
X68376800Y-67090560D01*
X68452815Y-67183185D01*
X68549506Y-67262537D01*
X68659820Y-67321502D01*
X68779518Y-67357812D01*
X68904000Y-67370072D01*
X69818250Y-67367000D01*
X69977000Y-67208250D01*
X69977000Y-65659000D01*
X70231000Y-65659000D01*
X70231000Y-67208250D01*
X70389750Y-67367000D01*
X71304000Y-67370072D01*
X71428482Y-67357812D01*
X71548180Y-67321502D01*
X71658494Y-67262537D01*
X71755185Y-67183185D01*
X71834537Y-67086494D01*
X71893502Y-66976180D01*
X71929812Y-66856482D01*
X71942072Y-66732000D01*
X71939000Y-65817750D01*
X71780250Y-65659000D01*
X70231000Y-65659000D01*
X69977000Y-65659000D01*
X69957000Y-65659000D01*
X69957000Y-65405000D01*
X69977000Y-65405000D01*
X69977000Y-63855750D01*
X69818250Y-63697000D01*
X68904000Y-63693928D01*
X68779518Y-63706188D01*
X68659820Y-63742498D01*
X68549506Y-63801463D01*
X68452815Y-63880815D01*
X68376800Y-63973440D01*
X68376800Y-63042800D01*
X69767328Y-63042800D01*
X70421422Y-63696894D01*
G36*
X77377748Y-84821858D02*
G01*
X77363605Y-84836000D01*
X77377748Y-84850143D01*
X77198143Y-85029748D01*
X77184000Y-85015605D01*
X77169858Y-85029748D01*
X76990253Y-84850143D01*
X77004395Y-84836000D01*
X76990253Y-84821858D01*
X77169858Y-84642253D01*
X77184000Y-84656395D01*
X77198143Y-84642253D01*
X77377748Y-84821858D01*
G37*
X77377748Y-84821858D02*
X77363605Y-84836000D01*
X77377748Y-84850143D01*
X77198143Y-85029748D01*
X77184000Y-85015605D01*
X77169858Y-85029748D01*
X76990253Y-84850143D01*
X77004395Y-84836000D01*
X76990253Y-84821858D01*
X77169858Y-84642253D01*
X77184000Y-84656395D01*
X77198143Y-84642253D01*
X77377748Y-84821858D01*
G36*
X99841748Y-82535858D02*
G01*
X99827605Y-82550000D01*
X99841748Y-82564143D01*
X99662143Y-82743748D01*
X99648000Y-82729605D01*
X99633858Y-82743748D01*
X99454253Y-82564143D01*
X99468395Y-82550000D01*
X99454253Y-82535858D01*
X99633858Y-82356253D01*
X99648000Y-82370395D01*
X99662143Y-82356253D01*
X99841748Y-82535858D01*
G37*
X99841748Y-82535858D02*
X99827605Y-82550000D01*
X99841748Y-82564143D01*
X99662143Y-82743748D01*
X99648000Y-82729605D01*
X99633858Y-82743748D01*
X99454253Y-82564143D01*
X99468395Y-82550000D01*
X99454253Y-82535858D01*
X99633858Y-82356253D01*
X99648000Y-82370395D01*
X99662143Y-82356253D01*
X99841748Y-82535858D01*
G36*
X77377748Y-79995858D02*
G01*
X77363605Y-80010000D01*
X77377748Y-80024143D01*
X77198143Y-80203748D01*
X77184000Y-80189605D01*
X77169858Y-80203748D01*
X76990253Y-80024143D01*
X77004395Y-80010000D01*
X76990253Y-79995858D01*
X77169858Y-79816253D01*
X77184000Y-79830395D01*
X77198143Y-79816253D01*
X77377748Y-79995858D01*
G37*
X77377748Y-79995858D02*
X77363605Y-80010000D01*
X77377748Y-80024143D01*
X77198143Y-80203748D01*
X77184000Y-80189605D01*
X77169858Y-80203748D01*
X76990253Y-80024143D01*
X77004395Y-80010000D01*
X76990253Y-79995858D01*
X77169858Y-79816253D01*
X77184000Y-79830395D01*
X77198143Y-79816253D01*
X77377748Y-79995858D01*
M02*
