G04 #@! TF.GenerationSoftware,KiCad,Pcbnew,(5.1.5)-3*
G04 #@! TF.CreationDate,2020-06-28T21:32:05-07:00*
G04 #@! TF.ProjectId,LED_MATRIX,4c45445f-4d41-4545-9249-582e6b696361,V01*
G04 #@! TF.SameCoordinates,Original*
G04 #@! TF.FileFunction,Legend,Top*
G04 #@! TF.FilePolarity,Positive*
%FSLAX46Y46*%
G04 Gerber Fmt 4.6, Leading zero omitted, Abs format (unit mm)*
G04 Created by KiCad (PCBNEW (5.1.5)-3) date 2020-06-28 21:32:05*
%MOMM*%
%LPD*%
G04 APERTURE LIST*
%ADD10C,0.300000*%
%ADD11C,0.254000*%
%ADD12C,0.120000*%
%ADD13C,0.100000*%
%ADD14C,0.150000*%
G04 APERTURE END LIST*
D10*
X74612571Y-63099142D02*
X75755428Y-63099142D01*
X75184000Y-63670571D02*
X75184000Y-62527714D01*
X59619428Y-101286571D02*
X59619428Y-102358000D01*
X59548000Y-102572285D01*
X59405142Y-102715142D01*
X59190857Y-102786571D01*
X59048000Y-102786571D01*
X61048000Y-102786571D02*
X60333714Y-102786571D01*
X60333714Y-101286571D01*
X62405142Y-102643714D02*
X62333714Y-102715142D01*
X62119428Y-102786571D01*
X61976571Y-102786571D01*
X61762285Y-102715142D01*
X61619428Y-102572285D01*
X61548000Y-102429428D01*
X61476571Y-102143714D01*
X61476571Y-101929428D01*
X61548000Y-101643714D01*
X61619428Y-101500857D01*
X61762285Y-101358000D01*
X61976571Y-101286571D01*
X62119428Y-101286571D01*
X62333714Y-101358000D01*
X62405142Y-101429428D01*
X63476571Y-101286571D02*
X63476571Y-102358000D01*
X63405142Y-102572285D01*
X63262285Y-102715142D01*
X63048000Y-102786571D01*
X62905142Y-102786571D01*
X64905142Y-102786571D02*
X64190857Y-102786571D01*
X64190857Y-101286571D01*
X66262285Y-102643714D02*
X66190857Y-102715142D01*
X65976571Y-102786571D01*
X65833714Y-102786571D01*
X65619428Y-102715142D01*
X65476571Y-102572285D01*
X65405142Y-102429428D01*
X65333714Y-102143714D01*
X65333714Y-101929428D01*
X65405142Y-101643714D01*
X65476571Y-101500857D01*
X65619428Y-101358000D01*
X65833714Y-101286571D01*
X65976571Y-101286571D01*
X66190857Y-101358000D01*
X66262285Y-101429428D01*
X67333714Y-101286571D02*
X67333714Y-102358000D01*
X67262285Y-102572285D01*
X67119428Y-102715142D01*
X66905142Y-102786571D01*
X66762285Y-102786571D01*
X68762285Y-102786571D02*
X68048000Y-102786571D01*
X68048000Y-101286571D01*
X70119428Y-102643714D02*
X70048000Y-102715142D01*
X69833714Y-102786571D01*
X69690857Y-102786571D01*
X69476571Y-102715142D01*
X69333714Y-102572285D01*
X69262285Y-102429428D01*
X69190857Y-102143714D01*
X69190857Y-101929428D01*
X69262285Y-101643714D01*
X69333714Y-101500857D01*
X69476571Y-101358000D01*
X69690857Y-101286571D01*
X69833714Y-101286571D01*
X70048000Y-101358000D01*
X70119428Y-101429428D01*
X71190857Y-101286571D02*
X71190857Y-102358000D01*
X71119428Y-102572285D01*
X70976571Y-102715142D01*
X70762285Y-102786571D01*
X70619428Y-102786571D01*
X72619428Y-102786571D02*
X71905142Y-102786571D01*
X71905142Y-101286571D01*
X73976571Y-102643714D02*
X73905142Y-102715142D01*
X73690857Y-102786571D01*
X73548000Y-102786571D01*
X73333714Y-102715142D01*
X73190857Y-102572285D01*
X73119428Y-102429428D01*
X73048000Y-102143714D01*
X73048000Y-101929428D01*
X73119428Y-101643714D01*
X73190857Y-101500857D01*
X73333714Y-101358000D01*
X73548000Y-101286571D01*
X73690857Y-101286571D01*
X73905142Y-101358000D01*
X73976571Y-101429428D01*
D11*
X58153904Y-97614619D02*
X57670095Y-97614619D01*
X57670095Y-96598619D01*
X58492571Y-97082428D02*
X58831238Y-97082428D01*
X58976380Y-97614619D02*
X58492571Y-97614619D01*
X58492571Y-96598619D01*
X58976380Y-96598619D01*
X59411809Y-97614619D02*
X59411809Y-96598619D01*
X59653714Y-96598619D01*
X59798857Y-96647000D01*
X59895619Y-96743761D01*
X59944000Y-96840523D01*
X59992380Y-97034047D01*
X59992380Y-97179190D01*
X59944000Y-97372714D01*
X59895619Y-97469476D01*
X59798857Y-97566238D01*
X59653714Y-97614619D01*
X59411809Y-97614619D01*
X61782476Y-97517857D02*
X61734095Y-97566238D01*
X61588952Y-97614619D01*
X61492190Y-97614619D01*
X61347047Y-97566238D01*
X61250285Y-97469476D01*
X61201904Y-97372714D01*
X61153523Y-97179190D01*
X61153523Y-97034047D01*
X61201904Y-96840523D01*
X61250285Y-96743761D01*
X61347047Y-96647000D01*
X61492190Y-96598619D01*
X61588952Y-96598619D01*
X61734095Y-96647000D01*
X61782476Y-96695380D01*
X62653333Y-96937285D02*
X62653333Y-97614619D01*
X62217904Y-96937285D02*
X62217904Y-97469476D01*
X62266285Y-97566238D01*
X62363047Y-97614619D01*
X62508190Y-97614619D01*
X62604952Y-97566238D01*
X62653333Y-97517857D01*
X63137142Y-97614619D02*
X63137142Y-96598619D01*
X63137142Y-96985666D02*
X63233904Y-96937285D01*
X63427428Y-96937285D01*
X63524190Y-96985666D01*
X63572571Y-97034047D01*
X63620952Y-97130809D01*
X63620952Y-97421095D01*
X63572571Y-97517857D01*
X63524190Y-97566238D01*
X63427428Y-97614619D01*
X63233904Y-97614619D01*
X63137142Y-97566238D01*
X64443428Y-97566238D02*
X64346666Y-97614619D01*
X64153142Y-97614619D01*
X64056380Y-97566238D01*
X64008000Y-97469476D01*
X64008000Y-97082428D01*
X64056380Y-96985666D01*
X64153142Y-96937285D01*
X64346666Y-96937285D01*
X64443428Y-96985666D01*
X64491809Y-97082428D01*
X64491809Y-97179190D01*
X64008000Y-97275952D01*
X66040000Y-97082428D02*
X66185142Y-97130809D01*
X66233523Y-97179190D01*
X66281904Y-97275952D01*
X66281904Y-97421095D01*
X66233523Y-97517857D01*
X66185142Y-97566238D01*
X66088380Y-97614619D01*
X65701333Y-97614619D01*
X65701333Y-96598619D01*
X66040000Y-96598619D01*
X66136761Y-96647000D01*
X66185142Y-96695380D01*
X66233523Y-96792142D01*
X66233523Y-96888904D01*
X66185142Y-96985666D01*
X66136761Y-97034047D01*
X66040000Y-97082428D01*
X65701333Y-97082428D01*
X66862476Y-97614619D02*
X66765714Y-97566238D01*
X66717333Y-97517857D01*
X66668952Y-97421095D01*
X66668952Y-97130809D01*
X66717333Y-97034047D01*
X66765714Y-96985666D01*
X66862476Y-96937285D01*
X67007619Y-96937285D01*
X67104380Y-96985666D01*
X67152761Y-97034047D01*
X67201142Y-97130809D01*
X67201142Y-97421095D01*
X67152761Y-97517857D01*
X67104380Y-97566238D01*
X67007619Y-97614619D01*
X66862476Y-97614619D01*
X68072000Y-97614619D02*
X68072000Y-97082428D01*
X68023619Y-96985666D01*
X67926857Y-96937285D01*
X67733333Y-96937285D01*
X67636571Y-96985666D01*
X68072000Y-97566238D02*
X67975238Y-97614619D01*
X67733333Y-97614619D01*
X67636571Y-97566238D01*
X67588190Y-97469476D01*
X67588190Y-97372714D01*
X67636571Y-97275952D01*
X67733333Y-97227571D01*
X67975238Y-97227571D01*
X68072000Y-97179190D01*
X68555809Y-97614619D02*
X68555809Y-96937285D01*
X68555809Y-97130809D02*
X68604190Y-97034047D01*
X68652571Y-96985666D01*
X68749333Y-96937285D01*
X68846095Y-96937285D01*
X69620190Y-97614619D02*
X69620190Y-96598619D01*
X69620190Y-97566238D02*
X69523428Y-97614619D01*
X69329904Y-97614619D01*
X69233142Y-97566238D01*
X69184761Y-97517857D01*
X69136380Y-97421095D01*
X69136380Y-97130809D01*
X69184761Y-97034047D01*
X69233142Y-96985666D01*
X69329904Y-96937285D01*
X69523428Y-96937285D01*
X69620190Y-96985666D01*
X71410285Y-97614619D02*
X70829714Y-97614619D01*
X71120000Y-97614619D02*
X71120000Y-96598619D01*
X71023238Y-96743761D01*
X70926476Y-96840523D01*
X70829714Y-96888904D01*
X54936571Y-99392619D02*
X54936571Y-98376619D01*
X55178476Y-98376619D01*
X55323619Y-98425000D01*
X55420380Y-98521761D01*
X55468761Y-98618523D01*
X55517142Y-98812047D01*
X55517142Y-98957190D01*
X55468761Y-99150714D01*
X55420380Y-99247476D01*
X55323619Y-99344238D01*
X55178476Y-99392619D01*
X54936571Y-99392619D01*
X56339619Y-99344238D02*
X56242857Y-99392619D01*
X56049333Y-99392619D01*
X55952571Y-99344238D01*
X55904190Y-99247476D01*
X55904190Y-98860428D01*
X55952571Y-98763666D01*
X56049333Y-98715285D01*
X56242857Y-98715285D01*
X56339619Y-98763666D01*
X56388000Y-98860428D01*
X56388000Y-98957190D01*
X55904190Y-99053952D01*
X56775047Y-99344238D02*
X56871809Y-99392619D01*
X57065333Y-99392619D01*
X57162095Y-99344238D01*
X57210476Y-99247476D01*
X57210476Y-99199095D01*
X57162095Y-99102333D01*
X57065333Y-99053952D01*
X56920190Y-99053952D01*
X56823428Y-99005571D01*
X56775047Y-98908809D01*
X56775047Y-98860428D01*
X56823428Y-98763666D01*
X56920190Y-98715285D01*
X57065333Y-98715285D01*
X57162095Y-98763666D01*
X57645904Y-99392619D02*
X57645904Y-98715285D01*
X57645904Y-98376619D02*
X57597523Y-98425000D01*
X57645904Y-98473380D01*
X57694285Y-98425000D01*
X57645904Y-98376619D01*
X57645904Y-98473380D01*
X58565142Y-98715285D02*
X58565142Y-99537761D01*
X58516761Y-99634523D01*
X58468380Y-99682904D01*
X58371619Y-99731285D01*
X58226476Y-99731285D01*
X58129714Y-99682904D01*
X58565142Y-99344238D02*
X58468380Y-99392619D01*
X58274857Y-99392619D01*
X58178095Y-99344238D01*
X58129714Y-99295857D01*
X58081333Y-99199095D01*
X58081333Y-98908809D01*
X58129714Y-98812047D01*
X58178095Y-98763666D01*
X58274857Y-98715285D01*
X58468380Y-98715285D01*
X58565142Y-98763666D01*
X59048952Y-98715285D02*
X59048952Y-99392619D01*
X59048952Y-98812047D02*
X59097333Y-98763666D01*
X59194095Y-98715285D01*
X59339238Y-98715285D01*
X59436000Y-98763666D01*
X59484380Y-98860428D01*
X59484380Y-99392619D01*
X60355238Y-99344238D02*
X60258476Y-99392619D01*
X60064952Y-99392619D01*
X59968190Y-99344238D01*
X59919809Y-99247476D01*
X59919809Y-98860428D01*
X59968190Y-98763666D01*
X60064952Y-98715285D01*
X60258476Y-98715285D01*
X60355238Y-98763666D01*
X60403619Y-98860428D01*
X60403619Y-98957190D01*
X59919809Y-99053952D01*
X61274476Y-99392619D02*
X61274476Y-98376619D01*
X61274476Y-99344238D02*
X61177714Y-99392619D01*
X60984190Y-99392619D01*
X60887428Y-99344238D01*
X60839047Y-99295857D01*
X60790666Y-99199095D01*
X60790666Y-98908809D01*
X60839047Y-98812047D01*
X60887428Y-98763666D01*
X60984190Y-98715285D01*
X61177714Y-98715285D01*
X61274476Y-98763666D01*
X62871047Y-98860428D02*
X63016190Y-98908809D01*
X63064571Y-98957190D01*
X63112952Y-99053952D01*
X63112952Y-99199095D01*
X63064571Y-99295857D01*
X63016190Y-99344238D01*
X62919428Y-99392619D01*
X62532380Y-99392619D01*
X62532380Y-98376619D01*
X62871047Y-98376619D01*
X62967809Y-98425000D01*
X63016190Y-98473380D01*
X63064571Y-98570142D01*
X63064571Y-98666904D01*
X63016190Y-98763666D01*
X62967809Y-98812047D01*
X62871047Y-98860428D01*
X62532380Y-98860428D01*
X63451619Y-98715285D02*
X63693523Y-99392619D01*
X63935428Y-98715285D02*
X63693523Y-99392619D01*
X63596761Y-99634523D01*
X63548380Y-99682904D01*
X63451619Y-99731285D01*
X64322476Y-99295857D02*
X64370857Y-99344238D01*
X64322476Y-99392619D01*
X64274095Y-99344238D01*
X64322476Y-99295857D01*
X64322476Y-99392619D01*
X64322476Y-98763666D02*
X64370857Y-98812047D01*
X64322476Y-98860428D01*
X64274095Y-98812047D01*
X64322476Y-98763666D01*
X64322476Y-98860428D01*
X65580380Y-98860428D02*
X65919047Y-98860428D01*
X66064190Y-99392619D02*
X65580380Y-99392619D01*
X65580380Y-98376619D01*
X66064190Y-98376619D01*
X66499619Y-99392619D02*
X66499619Y-98715285D01*
X66499619Y-98812047D02*
X66548000Y-98763666D01*
X66644761Y-98715285D01*
X66789904Y-98715285D01*
X66886666Y-98763666D01*
X66935047Y-98860428D01*
X66935047Y-99392619D01*
X66935047Y-98860428D02*
X66983428Y-98763666D01*
X67080190Y-98715285D01*
X67225333Y-98715285D01*
X67322095Y-98763666D01*
X67370476Y-98860428D01*
X67370476Y-99392619D01*
X68241333Y-99344238D02*
X68144571Y-99392619D01*
X67951047Y-99392619D01*
X67854285Y-99344238D01*
X67805904Y-99247476D01*
X67805904Y-98860428D01*
X67854285Y-98763666D01*
X67951047Y-98715285D01*
X68144571Y-98715285D01*
X68241333Y-98763666D01*
X68289714Y-98860428D01*
X68289714Y-98957190D01*
X67805904Y-99053952D01*
X68725142Y-99392619D02*
X68725142Y-98715285D01*
X68725142Y-98908809D02*
X68773523Y-98812047D01*
X68821904Y-98763666D01*
X68918666Y-98715285D01*
X69015428Y-98715285D01*
X69257333Y-98715285D02*
X69499238Y-99392619D01*
X69741142Y-98715285D02*
X69499238Y-99392619D01*
X69402476Y-99634523D01*
X69354095Y-99682904D01*
X69257333Y-99731285D01*
X70902285Y-99392619D02*
X70902285Y-98376619D01*
X71482857Y-99392619D01*
X71482857Y-98376619D01*
X72402095Y-99392619D02*
X72402095Y-98860428D01*
X72353714Y-98763666D01*
X72256952Y-98715285D01*
X72063428Y-98715285D01*
X71966666Y-98763666D01*
X72402095Y-99344238D02*
X72305333Y-99392619D01*
X72063428Y-99392619D01*
X71966666Y-99344238D01*
X71918285Y-99247476D01*
X71918285Y-99150714D01*
X71966666Y-99053952D01*
X72063428Y-99005571D01*
X72305333Y-99005571D01*
X72402095Y-98957190D01*
X73321333Y-98715285D02*
X73321333Y-99537761D01*
X73272952Y-99634523D01*
X73224571Y-99682904D01*
X73127809Y-99731285D01*
X72982666Y-99731285D01*
X72885904Y-99682904D01*
X73321333Y-99344238D02*
X73224571Y-99392619D01*
X73031047Y-99392619D01*
X72934285Y-99344238D01*
X72885904Y-99295857D01*
X72837523Y-99199095D01*
X72837523Y-98908809D01*
X72885904Y-98812047D01*
X72934285Y-98763666D01*
X73031047Y-98715285D01*
X73224571Y-98715285D01*
X73321333Y-98763666D01*
X73708380Y-98715285D02*
X73950285Y-99392619D01*
X74192190Y-98715285D02*
X73950285Y-99392619D01*
X73853523Y-99634523D01*
X73805142Y-99682904D01*
X73708380Y-99731285D01*
D12*
X118904000Y-86590000D02*
X118904000Y-86260000D01*
X118904000Y-86260000D02*
X125444000Y-86260000D01*
X125444000Y-86260000D02*
X125444000Y-86590000D01*
X118904000Y-88670000D02*
X118904000Y-89000000D01*
X118904000Y-89000000D02*
X125444000Y-89000000D01*
X125444000Y-89000000D02*
X125444000Y-88670000D01*
X62705000Y-79502000D02*
G75*
G03X62705000Y-79502000I-1251000J0D01*
G01*
X62719000Y-85852000D02*
G75*
G03X62719000Y-85852000I-1251000J0D01*
G01*
D13*
X66484000Y-82118000D02*
X66334000Y-81818000D01*
X66784000Y-82118000D02*
X66484000Y-82118000D01*
X71184000Y-82118000D02*
X70884000Y-82118000D01*
X71184000Y-82118000D02*
X71334000Y-81818000D01*
D14*
X70784000Y-78968000D02*
G75*
G03X66934000Y-78918000I-1950000J-1900000D01*
G01*
D12*
X107677000Y-77724000D02*
G75*
G03X107677000Y-77724000I-1251000J0D01*
G01*
X103105000Y-77724000D02*
G75*
G03X103105000Y-77724000I-1251000J0D01*
G01*
X113304000Y-62124000D02*
X113304000Y-64804000D01*
X107064000Y-64804000D02*
X107064000Y-62124000D01*
X107214000Y-60344000D02*
X113154000Y-60344000D01*
X107214000Y-66584000D02*
X113154000Y-66584000D01*
X111598214Y-63464000D02*
G75*
G03X111598214Y-63464000I-1414214J0D01*
G01*
X104414000Y-62124000D02*
X104414000Y-64804000D01*
X98174000Y-64804000D02*
X98174000Y-62124000D01*
X98324000Y-60344000D02*
X104264000Y-60344000D01*
X98324000Y-66584000D02*
X104264000Y-66584000D01*
X102708214Y-63464000D02*
G75*
G03X102708214Y-63464000I-1414214J0D01*
G01*
X93980000Y-101092000D02*
X93980000Y-103632000D01*
X93980000Y-103632000D02*
X96650000Y-103632000D01*
X96650000Y-101092000D02*
X96650000Y-62862000D01*
X96650000Y-106302000D02*
X96650000Y-103632000D01*
X81280000Y-103632000D02*
X78610000Y-103632000D01*
X81280000Y-103632000D02*
X81280000Y-65532000D01*
X81280000Y-65532000D02*
X78610000Y-65532000D01*
X93980000Y-101092000D02*
X96650000Y-101092000D01*
X93980000Y-101092000D02*
X93980000Y-65532000D01*
X93980000Y-65532000D02*
X96650000Y-65532000D01*
X96650000Y-62862000D02*
X78610000Y-62862000D01*
X78610000Y-62862000D02*
X78610000Y-106302000D01*
X78610000Y-106302000D02*
X96650000Y-106302000D01*
X98528000Y-84420000D02*
X98528000Y-80680000D01*
X105768000Y-84420000D02*
X105768000Y-80680000D01*
X105768000Y-80680000D02*
X98528000Y-80680000D01*
X105768000Y-84420000D02*
X98528000Y-84420000D01*
X66826000Y-60360000D02*
X66826000Y-64100000D01*
X59586000Y-60360000D02*
X59586000Y-64100000D01*
X59586000Y-64100000D02*
X66826000Y-64100000D01*
X59586000Y-60360000D02*
X66826000Y-60360000D01*
X59586000Y-64424000D02*
X66826000Y-64424000D01*
X59586000Y-68164000D02*
X66826000Y-68164000D01*
X59586000Y-64424000D02*
X59586000Y-68164000D01*
X66826000Y-64424000D02*
X66826000Y-68164000D01*
X59586000Y-68488000D02*
X66826000Y-68488000D01*
X59586000Y-72228000D02*
X66826000Y-72228000D01*
X59586000Y-68488000D02*
X59586000Y-72228000D01*
X66826000Y-68488000D02*
X66826000Y-72228000D01*
X66906000Y-76292000D02*
X59666000Y-76292000D01*
X66906000Y-72552000D02*
X59666000Y-72552000D01*
X66906000Y-76292000D02*
X66906000Y-72552000D01*
X59666000Y-76292000D02*
X59666000Y-72552000D01*
X73914000Y-88646000D02*
G75*
G03X73914000Y-88646000I-5120000J0D01*
G01*
X68794000Y-83566000D02*
X68794000Y-93726000D01*
X68834000Y-83566000D02*
X68834000Y-93726000D01*
X68874000Y-83566000D02*
X68874000Y-93726000D01*
X68914000Y-83567000D02*
X68914000Y-93725000D01*
X68954000Y-83568000D02*
X68954000Y-93724000D01*
X68994000Y-83569000D02*
X68994000Y-93723000D01*
X69034000Y-83571000D02*
X69034000Y-93721000D01*
X69074000Y-83573000D02*
X69074000Y-93719000D01*
X69114000Y-83576000D02*
X69114000Y-93716000D01*
X69154000Y-83578000D02*
X69154000Y-93714000D01*
X69194000Y-83581000D02*
X69194000Y-93711000D01*
X69234000Y-83584000D02*
X69234000Y-93708000D01*
X69274000Y-83588000D02*
X69274000Y-93704000D01*
X69314000Y-83592000D02*
X69314000Y-93700000D01*
X69354000Y-83596000D02*
X69354000Y-93696000D01*
X69394000Y-83601000D02*
X69394000Y-93691000D01*
X69434000Y-83606000D02*
X69434000Y-93686000D01*
X69474000Y-83611000D02*
X69474000Y-93681000D01*
X69515000Y-83616000D02*
X69515000Y-93676000D01*
X69555000Y-83622000D02*
X69555000Y-93670000D01*
X69595000Y-83628000D02*
X69595000Y-93664000D01*
X69635000Y-83635000D02*
X69635000Y-93657000D01*
X69675000Y-83642000D02*
X69675000Y-93650000D01*
X69715000Y-83649000D02*
X69715000Y-93643000D01*
X69755000Y-83656000D02*
X69755000Y-93636000D01*
X69795000Y-83664000D02*
X69795000Y-93628000D01*
X69835000Y-83672000D02*
X69835000Y-93620000D01*
X69875000Y-83681000D02*
X69875000Y-93611000D01*
X69915000Y-83690000D02*
X69915000Y-93602000D01*
X69955000Y-83699000D02*
X69955000Y-93593000D01*
X69995000Y-83708000D02*
X69995000Y-93584000D01*
X70035000Y-83718000D02*
X70035000Y-93574000D01*
X70075000Y-83728000D02*
X70075000Y-87405000D01*
X70075000Y-89887000D02*
X70075000Y-93564000D01*
X70115000Y-83739000D02*
X70115000Y-87405000D01*
X70115000Y-89887000D02*
X70115000Y-93553000D01*
X70155000Y-83749000D02*
X70155000Y-87405000D01*
X70155000Y-89887000D02*
X70155000Y-93543000D01*
X70195000Y-83761000D02*
X70195000Y-87405000D01*
X70195000Y-89887000D02*
X70195000Y-93531000D01*
X70235000Y-83772000D02*
X70235000Y-87405000D01*
X70235000Y-89887000D02*
X70235000Y-93520000D01*
X70275000Y-83784000D02*
X70275000Y-87405000D01*
X70275000Y-89887000D02*
X70275000Y-93508000D01*
X70315000Y-83796000D02*
X70315000Y-87405000D01*
X70315000Y-89887000D02*
X70315000Y-93496000D01*
X70355000Y-83809000D02*
X70355000Y-87405000D01*
X70355000Y-89887000D02*
X70355000Y-93483000D01*
X70395000Y-83822000D02*
X70395000Y-87405000D01*
X70395000Y-89887000D02*
X70395000Y-93470000D01*
X70435000Y-83835000D02*
X70435000Y-87405000D01*
X70435000Y-89887000D02*
X70435000Y-93457000D01*
X70475000Y-83849000D02*
X70475000Y-87405000D01*
X70475000Y-89887000D02*
X70475000Y-93443000D01*
X70515000Y-83863000D02*
X70515000Y-87405000D01*
X70515000Y-89887000D02*
X70515000Y-93429000D01*
X70555000Y-83878000D02*
X70555000Y-87405000D01*
X70555000Y-89887000D02*
X70555000Y-93414000D01*
X70595000Y-83892000D02*
X70595000Y-87405000D01*
X70595000Y-89887000D02*
X70595000Y-93400000D01*
X70635000Y-83908000D02*
X70635000Y-87405000D01*
X70635000Y-89887000D02*
X70635000Y-93384000D01*
X70675000Y-83923000D02*
X70675000Y-87405000D01*
X70675000Y-89887000D02*
X70675000Y-93369000D01*
X70715000Y-83939000D02*
X70715000Y-87405000D01*
X70715000Y-89887000D02*
X70715000Y-93353000D01*
X70755000Y-83956000D02*
X70755000Y-87405000D01*
X70755000Y-89887000D02*
X70755000Y-93336000D01*
X70795000Y-83972000D02*
X70795000Y-87405000D01*
X70795000Y-89887000D02*
X70795000Y-93320000D01*
X70835000Y-83989000D02*
X70835000Y-87405000D01*
X70835000Y-89887000D02*
X70835000Y-93303000D01*
X70875000Y-84007000D02*
X70875000Y-87405000D01*
X70875000Y-89887000D02*
X70875000Y-93285000D01*
X70915000Y-84025000D02*
X70915000Y-87405000D01*
X70915000Y-89887000D02*
X70915000Y-93267000D01*
X70955000Y-84043000D02*
X70955000Y-87405000D01*
X70955000Y-89887000D02*
X70955000Y-93249000D01*
X70995000Y-84062000D02*
X70995000Y-87405000D01*
X70995000Y-89887000D02*
X70995000Y-93230000D01*
X71035000Y-84082000D02*
X71035000Y-87405000D01*
X71035000Y-89887000D02*
X71035000Y-93210000D01*
X71075000Y-84101000D02*
X71075000Y-87405000D01*
X71075000Y-89887000D02*
X71075000Y-93191000D01*
X71115000Y-84121000D02*
X71115000Y-87405000D01*
X71115000Y-89887000D02*
X71115000Y-93171000D01*
X71155000Y-84142000D02*
X71155000Y-87405000D01*
X71155000Y-89887000D02*
X71155000Y-93150000D01*
X71195000Y-84163000D02*
X71195000Y-87405000D01*
X71195000Y-89887000D02*
X71195000Y-93129000D01*
X71235000Y-84184000D02*
X71235000Y-87405000D01*
X71235000Y-89887000D02*
X71235000Y-93108000D01*
X71275000Y-84206000D02*
X71275000Y-87405000D01*
X71275000Y-89887000D02*
X71275000Y-93086000D01*
X71315000Y-84229000D02*
X71315000Y-87405000D01*
X71315000Y-89887000D02*
X71315000Y-93063000D01*
X71355000Y-84251000D02*
X71355000Y-87405000D01*
X71355000Y-89887000D02*
X71355000Y-93041000D01*
X71395000Y-84275000D02*
X71395000Y-87405000D01*
X71395000Y-89887000D02*
X71395000Y-93017000D01*
X71435000Y-84299000D02*
X71435000Y-87405000D01*
X71435000Y-89887000D02*
X71435000Y-92993000D01*
X71475000Y-84323000D02*
X71475000Y-87405000D01*
X71475000Y-89887000D02*
X71475000Y-92969000D01*
X71515000Y-84348000D02*
X71515000Y-87405000D01*
X71515000Y-89887000D02*
X71515000Y-92944000D01*
X71555000Y-84373000D02*
X71555000Y-87405000D01*
X71555000Y-89887000D02*
X71555000Y-92919000D01*
X71595000Y-84399000D02*
X71595000Y-87405000D01*
X71595000Y-89887000D02*
X71595000Y-92893000D01*
X71635000Y-84425000D02*
X71635000Y-87405000D01*
X71635000Y-89887000D02*
X71635000Y-92867000D01*
X71675000Y-84452000D02*
X71675000Y-87405000D01*
X71675000Y-89887000D02*
X71675000Y-92840000D01*
X71715000Y-84480000D02*
X71715000Y-87405000D01*
X71715000Y-89887000D02*
X71715000Y-92812000D01*
X71755000Y-84508000D02*
X71755000Y-87405000D01*
X71755000Y-89887000D02*
X71755000Y-92784000D01*
X71795000Y-84536000D02*
X71795000Y-87405000D01*
X71795000Y-89887000D02*
X71795000Y-92756000D01*
X71835000Y-84566000D02*
X71835000Y-87405000D01*
X71835000Y-89887000D02*
X71835000Y-92726000D01*
X71875000Y-84596000D02*
X71875000Y-87405000D01*
X71875000Y-89887000D02*
X71875000Y-92696000D01*
X71915000Y-84626000D02*
X71915000Y-87405000D01*
X71915000Y-89887000D02*
X71915000Y-92666000D01*
X71955000Y-84657000D02*
X71955000Y-87405000D01*
X71955000Y-89887000D02*
X71955000Y-92635000D01*
X71995000Y-84689000D02*
X71995000Y-87405000D01*
X71995000Y-89887000D02*
X71995000Y-92603000D01*
X72035000Y-84721000D02*
X72035000Y-87405000D01*
X72035000Y-89887000D02*
X72035000Y-92571000D01*
X72075000Y-84754000D02*
X72075000Y-87405000D01*
X72075000Y-89887000D02*
X72075000Y-92538000D01*
X72115000Y-84788000D02*
X72115000Y-87405000D01*
X72115000Y-89887000D02*
X72115000Y-92504000D01*
X72155000Y-84822000D02*
X72155000Y-87405000D01*
X72155000Y-89887000D02*
X72155000Y-92470000D01*
X72195000Y-84857000D02*
X72195000Y-87405000D01*
X72195000Y-89887000D02*
X72195000Y-92435000D01*
X72235000Y-84893000D02*
X72235000Y-87405000D01*
X72235000Y-89887000D02*
X72235000Y-92399000D01*
X72275000Y-84930000D02*
X72275000Y-87405000D01*
X72275000Y-89887000D02*
X72275000Y-92362000D01*
X72315000Y-84967000D02*
X72315000Y-87405000D01*
X72315000Y-89887000D02*
X72315000Y-92325000D01*
X72355000Y-85006000D02*
X72355000Y-87405000D01*
X72355000Y-89887000D02*
X72355000Y-92286000D01*
X72395000Y-85045000D02*
X72395000Y-87405000D01*
X72395000Y-89887000D02*
X72395000Y-92247000D01*
X72435000Y-85085000D02*
X72435000Y-87405000D01*
X72435000Y-89887000D02*
X72435000Y-92207000D01*
X72475000Y-85126000D02*
X72475000Y-87405000D01*
X72475000Y-89887000D02*
X72475000Y-92166000D01*
X72515000Y-85168000D02*
X72515000Y-87405000D01*
X72515000Y-89887000D02*
X72515000Y-92124000D01*
X72555000Y-85210000D02*
X72555000Y-92082000D01*
X72595000Y-85254000D02*
X72595000Y-92038000D01*
X72635000Y-85299000D02*
X72635000Y-91993000D01*
X72675000Y-85345000D02*
X72675000Y-91947000D01*
X72715000Y-85392000D02*
X72715000Y-91900000D01*
X72755000Y-85440000D02*
X72755000Y-91852000D01*
X72795000Y-85490000D02*
X72795000Y-91802000D01*
X72835000Y-85540000D02*
X72835000Y-91752000D01*
X72875000Y-85592000D02*
X72875000Y-91700000D01*
X72915000Y-85646000D02*
X72915000Y-91646000D01*
X72955000Y-85701000D02*
X72955000Y-91591000D01*
X72995000Y-85757000D02*
X72995000Y-91535000D01*
X73035000Y-85816000D02*
X73035000Y-91476000D01*
X73075000Y-85876000D02*
X73075000Y-91416000D01*
X73115000Y-85937000D02*
X73115000Y-91355000D01*
X73155000Y-86001000D02*
X73155000Y-91291000D01*
X73195000Y-86067000D02*
X73195000Y-91225000D01*
X73235000Y-86136000D02*
X73235000Y-91156000D01*
X73275000Y-86207000D02*
X73275000Y-91085000D01*
X73315000Y-86281000D02*
X73315000Y-91011000D01*
X73355000Y-86357000D02*
X73355000Y-90935000D01*
X73395000Y-86437000D02*
X73395000Y-90855000D01*
X73435000Y-86521000D02*
X73435000Y-90771000D01*
X73475000Y-86609000D02*
X73475000Y-90683000D01*
X73515000Y-86702000D02*
X73515000Y-90590000D01*
X73555000Y-86800000D02*
X73555000Y-90492000D01*
X73595000Y-86904000D02*
X73595000Y-90388000D01*
X73635000Y-87016000D02*
X73635000Y-90276000D01*
X73675000Y-87136000D02*
X73675000Y-90156000D01*
X73715000Y-87268000D02*
X73715000Y-90024000D01*
X73755000Y-87416000D02*
X73755000Y-89876000D01*
X73795000Y-87584000D02*
X73795000Y-89708000D01*
X73835000Y-87784000D02*
X73835000Y-89508000D01*
X73875000Y-88047000D02*
X73875000Y-89245000D01*
X63314354Y-85771000D02*
X64314354Y-85771000D01*
X63814354Y-85271000D02*
X63814354Y-86271000D01*
X78304000Y-84836000D02*
G75*
G03X78304000Y-84836000I-2120000J0D01*
G01*
X76184000Y-82756000D02*
X76184000Y-86916000D01*
X76224000Y-82756000D02*
X76224000Y-86916000D01*
X76264000Y-82757000D02*
X76264000Y-86915000D01*
X76304000Y-82759000D02*
X76304000Y-86913000D01*
X76344000Y-82762000D02*
X76344000Y-86910000D01*
X76384000Y-82765000D02*
X76384000Y-83996000D01*
X76384000Y-85676000D02*
X76384000Y-86907000D01*
X76424000Y-82769000D02*
X76424000Y-83996000D01*
X76424000Y-85676000D02*
X76424000Y-86903000D01*
X76464000Y-82774000D02*
X76464000Y-83996000D01*
X76464000Y-85676000D02*
X76464000Y-86898000D01*
X76504000Y-82780000D02*
X76504000Y-83996000D01*
X76504000Y-85676000D02*
X76504000Y-86892000D01*
X76544000Y-82786000D02*
X76544000Y-83996000D01*
X76544000Y-85676000D02*
X76544000Y-86886000D01*
X76584000Y-82794000D02*
X76584000Y-83996000D01*
X76584000Y-85676000D02*
X76584000Y-86878000D01*
X76624000Y-82802000D02*
X76624000Y-83996000D01*
X76624000Y-85676000D02*
X76624000Y-86870000D01*
X76664000Y-82811000D02*
X76664000Y-83996000D01*
X76664000Y-85676000D02*
X76664000Y-86861000D01*
X76704000Y-82820000D02*
X76704000Y-83996000D01*
X76704000Y-85676000D02*
X76704000Y-86852000D01*
X76744000Y-82831000D02*
X76744000Y-83996000D01*
X76744000Y-85676000D02*
X76744000Y-86841000D01*
X76784000Y-82842000D02*
X76784000Y-83996000D01*
X76784000Y-85676000D02*
X76784000Y-86830000D01*
X76824000Y-82854000D02*
X76824000Y-83996000D01*
X76824000Y-85676000D02*
X76824000Y-86818000D01*
X76864000Y-82868000D02*
X76864000Y-83996000D01*
X76864000Y-85676000D02*
X76864000Y-86804000D01*
X76905000Y-82882000D02*
X76905000Y-83996000D01*
X76905000Y-85676000D02*
X76905000Y-86790000D01*
X76945000Y-82896000D02*
X76945000Y-83996000D01*
X76945000Y-85676000D02*
X76945000Y-86776000D01*
X76985000Y-82912000D02*
X76985000Y-83996000D01*
X76985000Y-85676000D02*
X76985000Y-86760000D01*
X77025000Y-82929000D02*
X77025000Y-83996000D01*
X77025000Y-85676000D02*
X77025000Y-86743000D01*
X77065000Y-82947000D02*
X77065000Y-83996000D01*
X77065000Y-85676000D02*
X77065000Y-86725000D01*
X77105000Y-82966000D02*
X77105000Y-83996000D01*
X77105000Y-85676000D02*
X77105000Y-86706000D01*
X77145000Y-82985000D02*
X77145000Y-83996000D01*
X77145000Y-85676000D02*
X77145000Y-86687000D01*
X77185000Y-83006000D02*
X77185000Y-83996000D01*
X77185000Y-85676000D02*
X77185000Y-86666000D01*
X77225000Y-83028000D02*
X77225000Y-83996000D01*
X77225000Y-85676000D02*
X77225000Y-86644000D01*
X77265000Y-83051000D02*
X77265000Y-83996000D01*
X77265000Y-85676000D02*
X77265000Y-86621000D01*
X77305000Y-83076000D02*
X77305000Y-83996000D01*
X77305000Y-85676000D02*
X77305000Y-86596000D01*
X77345000Y-83101000D02*
X77345000Y-83996000D01*
X77345000Y-85676000D02*
X77345000Y-86571000D01*
X77385000Y-83128000D02*
X77385000Y-83996000D01*
X77385000Y-85676000D02*
X77385000Y-86544000D01*
X77425000Y-83156000D02*
X77425000Y-83996000D01*
X77425000Y-85676000D02*
X77425000Y-86516000D01*
X77465000Y-83186000D02*
X77465000Y-83996000D01*
X77465000Y-85676000D02*
X77465000Y-86486000D01*
X77505000Y-83217000D02*
X77505000Y-83996000D01*
X77505000Y-85676000D02*
X77505000Y-86455000D01*
X77545000Y-83249000D02*
X77545000Y-83996000D01*
X77545000Y-85676000D02*
X77545000Y-86423000D01*
X77585000Y-83284000D02*
X77585000Y-83996000D01*
X77585000Y-85676000D02*
X77585000Y-86388000D01*
X77625000Y-83320000D02*
X77625000Y-83996000D01*
X77625000Y-85676000D02*
X77625000Y-86352000D01*
X77665000Y-83358000D02*
X77665000Y-83996000D01*
X77665000Y-85676000D02*
X77665000Y-86314000D01*
X77705000Y-83398000D02*
X77705000Y-83996000D01*
X77705000Y-85676000D02*
X77705000Y-86274000D01*
X77745000Y-83440000D02*
X77745000Y-83996000D01*
X77745000Y-85676000D02*
X77745000Y-86232000D01*
X77785000Y-83485000D02*
X77785000Y-83996000D01*
X77785000Y-85676000D02*
X77785000Y-86187000D01*
X77825000Y-83532000D02*
X77825000Y-83996000D01*
X77825000Y-85676000D02*
X77825000Y-86140000D01*
X77865000Y-83582000D02*
X77865000Y-83996000D01*
X77865000Y-85676000D02*
X77865000Y-86090000D01*
X77905000Y-83636000D02*
X77905000Y-83996000D01*
X77905000Y-85676000D02*
X77905000Y-86036000D01*
X77945000Y-83694000D02*
X77945000Y-83996000D01*
X77945000Y-85676000D02*
X77945000Y-85978000D01*
X77985000Y-83756000D02*
X77985000Y-83996000D01*
X77985000Y-85676000D02*
X77985000Y-85916000D01*
X78025000Y-83823000D02*
X78025000Y-85849000D01*
X78065000Y-83896000D02*
X78065000Y-85776000D01*
X78105000Y-83977000D02*
X78105000Y-85695000D01*
X78145000Y-84068000D02*
X78145000Y-85604000D01*
X78185000Y-84172000D02*
X78185000Y-85500000D01*
X78225000Y-84299000D02*
X78225000Y-85373000D01*
X78265000Y-84466000D02*
X78265000Y-85206000D01*
X73914199Y-83641000D02*
X74314199Y-83641000D01*
X74114199Y-83441000D02*
X74114199Y-83841000D01*
X74114199Y-78615000D02*
X74114199Y-79015000D01*
X73914199Y-78815000D02*
X74314199Y-78815000D01*
X78265000Y-79640000D02*
X78265000Y-80380000D01*
X78225000Y-79473000D02*
X78225000Y-80547000D01*
X78185000Y-79346000D02*
X78185000Y-80674000D01*
X78145000Y-79242000D02*
X78145000Y-80778000D01*
X78105000Y-79151000D02*
X78105000Y-80869000D01*
X78065000Y-79070000D02*
X78065000Y-80950000D01*
X78025000Y-78997000D02*
X78025000Y-81023000D01*
X77985000Y-80850000D02*
X77985000Y-81090000D01*
X77985000Y-78930000D02*
X77985000Y-79170000D01*
X77945000Y-80850000D02*
X77945000Y-81152000D01*
X77945000Y-78868000D02*
X77945000Y-79170000D01*
X77905000Y-80850000D02*
X77905000Y-81210000D01*
X77905000Y-78810000D02*
X77905000Y-79170000D01*
X77865000Y-80850000D02*
X77865000Y-81264000D01*
X77865000Y-78756000D02*
X77865000Y-79170000D01*
X77825000Y-80850000D02*
X77825000Y-81314000D01*
X77825000Y-78706000D02*
X77825000Y-79170000D01*
X77785000Y-80850000D02*
X77785000Y-81361000D01*
X77785000Y-78659000D02*
X77785000Y-79170000D01*
X77745000Y-80850000D02*
X77745000Y-81406000D01*
X77745000Y-78614000D02*
X77745000Y-79170000D01*
X77705000Y-80850000D02*
X77705000Y-81448000D01*
X77705000Y-78572000D02*
X77705000Y-79170000D01*
X77665000Y-80850000D02*
X77665000Y-81488000D01*
X77665000Y-78532000D02*
X77665000Y-79170000D01*
X77625000Y-80850000D02*
X77625000Y-81526000D01*
X77625000Y-78494000D02*
X77625000Y-79170000D01*
X77585000Y-80850000D02*
X77585000Y-81562000D01*
X77585000Y-78458000D02*
X77585000Y-79170000D01*
X77545000Y-80850000D02*
X77545000Y-81597000D01*
X77545000Y-78423000D02*
X77545000Y-79170000D01*
X77505000Y-80850000D02*
X77505000Y-81629000D01*
X77505000Y-78391000D02*
X77505000Y-79170000D01*
X77465000Y-80850000D02*
X77465000Y-81660000D01*
X77465000Y-78360000D02*
X77465000Y-79170000D01*
X77425000Y-80850000D02*
X77425000Y-81690000D01*
X77425000Y-78330000D02*
X77425000Y-79170000D01*
X77385000Y-80850000D02*
X77385000Y-81718000D01*
X77385000Y-78302000D02*
X77385000Y-79170000D01*
X77345000Y-80850000D02*
X77345000Y-81745000D01*
X77345000Y-78275000D02*
X77345000Y-79170000D01*
X77305000Y-80850000D02*
X77305000Y-81770000D01*
X77305000Y-78250000D02*
X77305000Y-79170000D01*
X77265000Y-80850000D02*
X77265000Y-81795000D01*
X77265000Y-78225000D02*
X77265000Y-79170000D01*
X77225000Y-80850000D02*
X77225000Y-81818000D01*
X77225000Y-78202000D02*
X77225000Y-79170000D01*
X77185000Y-80850000D02*
X77185000Y-81840000D01*
X77185000Y-78180000D02*
X77185000Y-79170000D01*
X77145000Y-80850000D02*
X77145000Y-81861000D01*
X77145000Y-78159000D02*
X77145000Y-79170000D01*
X77105000Y-80850000D02*
X77105000Y-81880000D01*
X77105000Y-78140000D02*
X77105000Y-79170000D01*
X77065000Y-80850000D02*
X77065000Y-81899000D01*
X77065000Y-78121000D02*
X77065000Y-79170000D01*
X77025000Y-80850000D02*
X77025000Y-81917000D01*
X77025000Y-78103000D02*
X77025000Y-79170000D01*
X76985000Y-80850000D02*
X76985000Y-81934000D01*
X76985000Y-78086000D02*
X76985000Y-79170000D01*
X76945000Y-80850000D02*
X76945000Y-81950000D01*
X76945000Y-78070000D02*
X76945000Y-79170000D01*
X76905000Y-80850000D02*
X76905000Y-81964000D01*
X76905000Y-78056000D02*
X76905000Y-79170000D01*
X76864000Y-80850000D02*
X76864000Y-81978000D01*
X76864000Y-78042000D02*
X76864000Y-79170000D01*
X76824000Y-80850000D02*
X76824000Y-81992000D01*
X76824000Y-78028000D02*
X76824000Y-79170000D01*
X76784000Y-80850000D02*
X76784000Y-82004000D01*
X76784000Y-78016000D02*
X76784000Y-79170000D01*
X76744000Y-80850000D02*
X76744000Y-82015000D01*
X76744000Y-78005000D02*
X76744000Y-79170000D01*
X76704000Y-80850000D02*
X76704000Y-82026000D01*
X76704000Y-77994000D02*
X76704000Y-79170000D01*
X76664000Y-80850000D02*
X76664000Y-82035000D01*
X76664000Y-77985000D02*
X76664000Y-79170000D01*
X76624000Y-80850000D02*
X76624000Y-82044000D01*
X76624000Y-77976000D02*
X76624000Y-79170000D01*
X76584000Y-80850000D02*
X76584000Y-82052000D01*
X76584000Y-77968000D02*
X76584000Y-79170000D01*
X76544000Y-80850000D02*
X76544000Y-82060000D01*
X76544000Y-77960000D02*
X76544000Y-79170000D01*
X76504000Y-80850000D02*
X76504000Y-82066000D01*
X76504000Y-77954000D02*
X76504000Y-79170000D01*
X76464000Y-80850000D02*
X76464000Y-82072000D01*
X76464000Y-77948000D02*
X76464000Y-79170000D01*
X76424000Y-80850000D02*
X76424000Y-82077000D01*
X76424000Y-77943000D02*
X76424000Y-79170000D01*
X76384000Y-80850000D02*
X76384000Y-82081000D01*
X76384000Y-77939000D02*
X76384000Y-79170000D01*
X76344000Y-77936000D02*
X76344000Y-82084000D01*
X76304000Y-77933000D02*
X76304000Y-82087000D01*
X76264000Y-77931000D02*
X76264000Y-82089000D01*
X76224000Y-77930000D02*
X76224000Y-82090000D01*
X76184000Y-77930000D02*
X76184000Y-82090000D01*
X78304000Y-80010000D02*
G75*
G03X78304000Y-80010000I-2120000J0D01*
G01*
X130029000Y-63246000D02*
G75*
G03X130029000Y-63246000I-1251000J0D01*
G01*
X130029000Y-67818000D02*
G75*
G03X130029000Y-67818000I-1251000J0D01*
G01*
X130029000Y-73660000D02*
G75*
G03X130029000Y-73660000I-1251000J0D01*
G01*
X130029000Y-79756000D02*
G75*
G03X130029000Y-79756000I-1251000J0D01*
G01*
X130029000Y-86106000D02*
G75*
G03X130029000Y-86106000I-1251000J0D01*
G01*
X130029000Y-92202000D02*
G75*
G03X130029000Y-92202000I-1251000J0D01*
G01*
X130029000Y-98044000D02*
G75*
G03X130029000Y-98044000I-1251000J0D01*
G01*
X130029000Y-104394000D02*
G75*
G03X130029000Y-104394000I-1251000J0D01*
G01*
X99803000Y-71628000D02*
G75*
G03X99803000Y-71628000I-1251000J0D01*
G01*
X103105000Y-71628000D02*
G75*
G03X103105000Y-71628000I-1251000J0D01*
G01*
X106407000Y-71628000D02*
G75*
G03X106407000Y-71628000I-1251000J0D01*
G01*
X109709000Y-71628000D02*
G75*
G03X109709000Y-71628000I-1251000J0D01*
G01*
X113011000Y-71628000D02*
G75*
G03X113011000Y-71628000I-1251000J0D01*
G01*
X116313000Y-71628000D02*
G75*
G03X116313000Y-71628000I-1251000J0D01*
G01*
X116567000Y-77216000D02*
G75*
G03X116567000Y-77216000I-1251000J0D01*
G01*
X113265000Y-77216000D02*
G75*
G03X113265000Y-77216000I-1251000J0D01*
G01*
X70711587Y-66963385D02*
G75*
G02X70104000Y-67087000I-607587J1431385D01*
G01*
X71536109Y-64924258D02*
G75*
G02X71536000Y-66140000I-1432109J-607742D01*
G01*
X69496258Y-64099891D02*
G75*
G02X70712000Y-64100000I607742J-1432109D01*
G01*
X68671891Y-66139742D02*
G75*
G02X68672000Y-64924000I1432109J607742D01*
G01*
X70131011Y-67087492D02*
G75*
G02X69496000Y-66964000I-27011J1555492D01*
G01*
X76659000Y-65532000D02*
G75*
G03X76659000Y-65532000I-1555000J0D01*
G01*
X67544000Y-70432000D02*
X77664000Y-70432000D01*
X67544000Y-69332000D02*
X77664000Y-69332000D01*
X67544000Y-60672000D02*
X77664000Y-60672000D01*
X67544000Y-70992000D02*
X77664000Y-70992000D01*
X67544000Y-60672000D02*
X67544000Y-70992000D01*
X77664000Y-60672000D02*
X77664000Y-70992000D01*
X67304000Y-70492000D02*
X67304000Y-71232000D01*
X67304000Y-71232000D02*
X67804000Y-71232000D01*
X118904000Y-59158000D02*
X118904000Y-58828000D01*
X118904000Y-58828000D02*
X125444000Y-58828000D01*
X125444000Y-58828000D02*
X125444000Y-59158000D01*
X118904000Y-61238000D02*
X118904000Y-61568000D01*
X118904000Y-61568000D02*
X125444000Y-61568000D01*
X125444000Y-61568000D02*
X125444000Y-61238000D01*
X125444000Y-64616000D02*
X125444000Y-64286000D01*
X118904000Y-64616000D02*
X125444000Y-64616000D01*
X118904000Y-64286000D02*
X118904000Y-64616000D01*
X125444000Y-61876000D02*
X125444000Y-62206000D01*
X118904000Y-61876000D02*
X125444000Y-61876000D01*
X118904000Y-62206000D02*
X118904000Y-61876000D01*
X118904000Y-65254000D02*
X118904000Y-64924000D01*
X118904000Y-64924000D02*
X125444000Y-64924000D01*
X125444000Y-64924000D02*
X125444000Y-65254000D01*
X118904000Y-67334000D02*
X118904000Y-67664000D01*
X118904000Y-67664000D02*
X125444000Y-67664000D01*
X125444000Y-67664000D02*
X125444000Y-67334000D01*
X118904000Y-68302000D02*
X118904000Y-67972000D01*
X118904000Y-67972000D02*
X125444000Y-67972000D01*
X125444000Y-67972000D02*
X125444000Y-68302000D01*
X118904000Y-70382000D02*
X118904000Y-70712000D01*
X118904000Y-70712000D02*
X125444000Y-70712000D01*
X125444000Y-70712000D02*
X125444000Y-70382000D01*
X125444000Y-73760000D02*
X125444000Y-73430000D01*
X118904000Y-73760000D02*
X125444000Y-73760000D01*
X118904000Y-73430000D02*
X118904000Y-73760000D01*
X125444000Y-71020000D02*
X125444000Y-71350000D01*
X118904000Y-71020000D02*
X125444000Y-71020000D01*
X118904000Y-71350000D02*
X118904000Y-71020000D01*
X118904000Y-74398000D02*
X118904000Y-74068000D01*
X118904000Y-74068000D02*
X125444000Y-74068000D01*
X125444000Y-74068000D02*
X125444000Y-74398000D01*
X118904000Y-76478000D02*
X118904000Y-76808000D01*
X118904000Y-76808000D02*
X125444000Y-76808000D01*
X125444000Y-76808000D02*
X125444000Y-76478000D01*
X125444000Y-79856000D02*
X125444000Y-79526000D01*
X118904000Y-79856000D02*
X125444000Y-79856000D01*
X118904000Y-79526000D02*
X118904000Y-79856000D01*
X125444000Y-77116000D02*
X125444000Y-77446000D01*
X118904000Y-77116000D02*
X125444000Y-77116000D01*
X118904000Y-77446000D02*
X118904000Y-77116000D01*
X118904000Y-80494000D02*
X118904000Y-80164000D01*
X118904000Y-80164000D02*
X125444000Y-80164000D01*
X125444000Y-80164000D02*
X125444000Y-80494000D01*
X118904000Y-82574000D02*
X118904000Y-82904000D01*
X118904000Y-82904000D02*
X125444000Y-82904000D01*
X125444000Y-82904000D02*
X125444000Y-82574000D01*
X125444000Y-85952000D02*
X125444000Y-85622000D01*
X118904000Y-85952000D02*
X125444000Y-85952000D01*
X118904000Y-85622000D02*
X118904000Y-85952000D01*
X125444000Y-83212000D02*
X125444000Y-83542000D01*
X118904000Y-83212000D02*
X125444000Y-83212000D01*
X118904000Y-83542000D02*
X118904000Y-83212000D01*
X118904000Y-89638000D02*
X118904000Y-89308000D01*
X118904000Y-89308000D02*
X125444000Y-89308000D01*
X125444000Y-89308000D02*
X125444000Y-89638000D01*
X118904000Y-91718000D02*
X118904000Y-92048000D01*
X118904000Y-92048000D02*
X125444000Y-92048000D01*
X125444000Y-92048000D02*
X125444000Y-91718000D01*
X125444000Y-95096000D02*
X125444000Y-94766000D01*
X118904000Y-95096000D02*
X125444000Y-95096000D01*
X118904000Y-94766000D02*
X118904000Y-95096000D01*
X125444000Y-92356000D02*
X125444000Y-92686000D01*
X118904000Y-92356000D02*
X125444000Y-92356000D01*
X118904000Y-92686000D02*
X118904000Y-92356000D01*
X125444000Y-98144000D02*
X125444000Y-97814000D01*
X118904000Y-98144000D02*
X125444000Y-98144000D01*
X118904000Y-97814000D02*
X118904000Y-98144000D01*
X125444000Y-95404000D02*
X125444000Y-95734000D01*
X118904000Y-95404000D02*
X125444000Y-95404000D01*
X118904000Y-95734000D02*
X118904000Y-95404000D01*
X125444000Y-101192000D02*
X125444000Y-100862000D01*
X118904000Y-101192000D02*
X125444000Y-101192000D01*
X118904000Y-100862000D02*
X118904000Y-101192000D01*
X125444000Y-98452000D02*
X125444000Y-98782000D01*
X118904000Y-98452000D02*
X125444000Y-98452000D01*
X118904000Y-98782000D02*
X118904000Y-98452000D01*
X118904000Y-101830000D02*
X118904000Y-101500000D01*
X118904000Y-101500000D02*
X125444000Y-101500000D01*
X125444000Y-101500000D02*
X125444000Y-101830000D01*
X118904000Y-103910000D02*
X118904000Y-104240000D01*
X118904000Y-104240000D02*
X125444000Y-104240000D01*
X125444000Y-104240000D02*
X125444000Y-103910000D01*
X118904000Y-104878000D02*
X118904000Y-104548000D01*
X118904000Y-104548000D02*
X125444000Y-104548000D01*
X125444000Y-104548000D02*
X125444000Y-104878000D01*
X118904000Y-106958000D02*
X118904000Y-107288000D01*
X118904000Y-107288000D02*
X125444000Y-107288000D01*
X125444000Y-107288000D02*
X125444000Y-106958000D01*
D13*
X105364000Y-85186000D02*
X105364000Y-84986000D01*
X105364000Y-84986000D02*
X105064000Y-84986000D01*
X98764000Y-84986000D02*
X98464000Y-84986000D01*
X98464000Y-84986000D02*
X98464000Y-85186000D01*
X105744000Y-105086000D02*
X105994000Y-105086000D01*
X105364000Y-105086000D02*
X105734000Y-105086000D01*
X104064000Y-106086000D02*
X104364000Y-106086000D01*
X104364000Y-106086000D02*
X105364000Y-105086000D01*
X98384000Y-105496000D02*
X98384000Y-105896000D01*
X98384000Y-105896000D02*
X98784000Y-105896000D01*
X67290000Y-73386000D02*
X77390000Y-73386000D01*
X77490000Y-77076000D02*
X77490000Y-76676000D01*
X77490000Y-77076000D02*
X77090000Y-77076000D01*
X67290000Y-77076000D02*
X67290000Y-72676000D01*
X67290000Y-77076000D02*
X67690000Y-77076000D01*
X67290000Y-72276000D02*
X67290000Y-72676000D01*
X67290000Y-72276000D02*
X67690000Y-72276000D01*
X77090000Y-72276000D02*
X77490000Y-72276000D01*
X77490000Y-72276000D02*
X77490000Y-72676000D01*
D14*
X121531142Y-88082380D02*
X121197809Y-87606190D01*
X120959714Y-88082380D02*
X120959714Y-87082380D01*
X121340666Y-87082380D01*
X121435904Y-87130000D01*
X121483523Y-87177619D01*
X121531142Y-87272857D01*
X121531142Y-87415714D01*
X121483523Y-87510952D01*
X121435904Y-87558571D01*
X121340666Y-87606190D01*
X120959714Y-87606190D01*
X122483523Y-88082380D02*
X121912095Y-88082380D01*
X122197809Y-88082380D02*
X122197809Y-87082380D01*
X122102571Y-87225238D01*
X122007333Y-87320476D01*
X121912095Y-87368095D01*
X123102571Y-87082380D02*
X123197809Y-87082380D01*
X123293047Y-87130000D01*
X123340666Y-87177619D01*
X123388285Y-87272857D01*
X123435904Y-87463333D01*
X123435904Y-87701428D01*
X123388285Y-87891904D01*
X123340666Y-87987142D01*
X123293047Y-88034761D01*
X123197809Y-88082380D01*
X123102571Y-88082380D01*
X123007333Y-88034761D01*
X122959714Y-87987142D01*
X122912095Y-87891904D01*
X122864476Y-87701428D01*
X122864476Y-87463333D01*
X122912095Y-87272857D01*
X122959714Y-87177619D01*
X123007333Y-87130000D01*
X123102571Y-87082380D01*
X60644476Y-81204380D02*
X60644476Y-81918666D01*
X60596857Y-82061523D01*
X60501619Y-82156761D01*
X60358761Y-82204380D01*
X60263523Y-82204380D01*
X61073047Y-81299619D02*
X61120666Y-81252000D01*
X61215904Y-81204380D01*
X61454000Y-81204380D01*
X61549238Y-81252000D01*
X61596857Y-81299619D01*
X61644476Y-81394857D01*
X61644476Y-81490095D01*
X61596857Y-81632952D01*
X61025428Y-82204380D01*
X61644476Y-82204380D01*
X62596857Y-82204380D02*
X62025428Y-82204380D01*
X62311142Y-82204380D02*
X62311142Y-81204380D01*
X62215904Y-81347238D01*
X62120666Y-81442476D01*
X62025428Y-81490095D01*
X60658476Y-87554380D02*
X60658476Y-88268666D01*
X60610857Y-88411523D01*
X60515619Y-88506761D01*
X60372761Y-88554380D01*
X60277523Y-88554380D01*
X61087047Y-87649619D02*
X61134666Y-87602000D01*
X61229904Y-87554380D01*
X61468000Y-87554380D01*
X61563238Y-87602000D01*
X61610857Y-87649619D01*
X61658476Y-87744857D01*
X61658476Y-87840095D01*
X61610857Y-87982952D01*
X61039428Y-88554380D01*
X61658476Y-88554380D01*
X62277523Y-87554380D02*
X62372761Y-87554380D01*
X62468000Y-87602000D01*
X62515619Y-87649619D01*
X62563238Y-87744857D01*
X62610857Y-87935333D01*
X62610857Y-88173428D01*
X62563238Y-88363904D01*
X62515619Y-88459142D01*
X62468000Y-88506761D01*
X62372761Y-88554380D01*
X62277523Y-88554380D01*
X62182285Y-88506761D01*
X62134666Y-88459142D01*
X62087047Y-88363904D01*
X62039428Y-88173428D01*
X62039428Y-87935333D01*
X62087047Y-87744857D01*
X62134666Y-87649619D01*
X62182285Y-87602000D01*
X62277523Y-87554380D01*
X67595904Y-76620380D02*
X67595904Y-77429904D01*
X67643523Y-77525142D01*
X67691142Y-77572761D01*
X67786380Y-77620380D01*
X67976857Y-77620380D01*
X68072095Y-77572761D01*
X68119714Y-77525142D01*
X68167333Y-77429904D01*
X68167333Y-76620380D01*
X69167333Y-77620380D02*
X68595904Y-77620380D01*
X68881619Y-77620380D02*
X68881619Y-76620380D01*
X68786380Y-76763238D01*
X68691142Y-76858476D01*
X68595904Y-76906095D01*
X69786380Y-76620380D02*
X69881619Y-76620380D01*
X69976857Y-76668000D01*
X70024476Y-76715619D01*
X70072095Y-76810857D01*
X70119714Y-77001333D01*
X70119714Y-77239428D01*
X70072095Y-77429904D01*
X70024476Y-77525142D01*
X69976857Y-77572761D01*
X69881619Y-77620380D01*
X69786380Y-77620380D01*
X69691142Y-77572761D01*
X69643523Y-77525142D01*
X69595904Y-77429904D01*
X69548285Y-77239428D01*
X69548285Y-77001333D01*
X69595904Y-76810857D01*
X69643523Y-76715619D01*
X69691142Y-76668000D01*
X69786380Y-76620380D01*
X106362666Y-63904761D02*
X106505523Y-63952380D01*
X106743619Y-63952380D01*
X106838857Y-63904761D01*
X106886476Y-63857142D01*
X106934095Y-63761904D01*
X106934095Y-63666666D01*
X106886476Y-63571428D01*
X106838857Y-63523809D01*
X106743619Y-63476190D01*
X106553142Y-63428571D01*
X106457904Y-63380952D01*
X106410285Y-63333333D01*
X106362666Y-63238095D01*
X106362666Y-63142857D01*
X106410285Y-63047619D01*
X106457904Y-63000000D01*
X106553142Y-62952380D01*
X106791238Y-62952380D01*
X106934095Y-63000000D01*
X107267428Y-62952380D02*
X107505523Y-63952380D01*
X107696000Y-63238095D01*
X107886476Y-63952380D01*
X108124571Y-62952380D01*
X108457904Y-63047619D02*
X108505523Y-63000000D01*
X108600761Y-62952380D01*
X108838857Y-62952380D01*
X108934095Y-63000000D01*
X108981714Y-63047619D01*
X109029333Y-63142857D01*
X109029333Y-63238095D01*
X108981714Y-63380952D01*
X108410285Y-63952380D01*
X109029333Y-63952380D01*
X98488666Y-63904761D02*
X98631523Y-63952380D01*
X98869619Y-63952380D01*
X98964857Y-63904761D01*
X99012476Y-63857142D01*
X99060095Y-63761904D01*
X99060095Y-63666666D01*
X99012476Y-63571428D01*
X98964857Y-63523809D01*
X98869619Y-63476190D01*
X98679142Y-63428571D01*
X98583904Y-63380952D01*
X98536285Y-63333333D01*
X98488666Y-63238095D01*
X98488666Y-63142857D01*
X98536285Y-63047619D01*
X98583904Y-63000000D01*
X98679142Y-62952380D01*
X98917238Y-62952380D01*
X99060095Y-63000000D01*
X99393428Y-62952380D02*
X99631523Y-63952380D01*
X99822000Y-63238095D01*
X100012476Y-63952380D01*
X100250571Y-62952380D01*
X101155333Y-63952380D02*
X100583904Y-63952380D01*
X100869619Y-63952380D02*
X100869619Y-62952380D01*
X100774380Y-63095238D01*
X100679142Y-63190476D01*
X100583904Y-63238095D01*
X89066666Y-86566285D02*
X89066666Y-86090095D01*
X89352380Y-86661523D02*
X88352380Y-86328190D01*
X89352380Y-85994857D01*
X89352380Y-85137714D02*
X89352380Y-85709142D01*
X89352380Y-85423428D02*
X88352380Y-85423428D01*
X88495238Y-85518666D01*
X88590476Y-85613904D01*
X88638095Y-85709142D01*
X101981333Y-82907142D02*
X101933714Y-82954761D01*
X101790857Y-83002380D01*
X101695619Y-83002380D01*
X101552761Y-82954761D01*
X101457523Y-82859523D01*
X101409904Y-82764285D01*
X101362285Y-82573809D01*
X101362285Y-82430952D01*
X101409904Y-82240476D01*
X101457523Y-82145238D01*
X101552761Y-82050000D01*
X101695619Y-82002380D01*
X101790857Y-82002380D01*
X101933714Y-82050000D01*
X101981333Y-82097619D01*
X102933714Y-83002380D02*
X102362285Y-83002380D01*
X102648000Y-83002380D02*
X102648000Y-82002380D01*
X102552761Y-82145238D01*
X102457523Y-82240476D01*
X102362285Y-82288095D01*
X62563142Y-62587142D02*
X62515523Y-62634761D01*
X62372666Y-62682380D01*
X62277428Y-62682380D01*
X62134571Y-62634761D01*
X62039333Y-62539523D01*
X61991714Y-62444285D01*
X61944095Y-62253809D01*
X61944095Y-62110952D01*
X61991714Y-61920476D01*
X62039333Y-61825238D01*
X62134571Y-61730000D01*
X62277428Y-61682380D01*
X62372666Y-61682380D01*
X62515523Y-61730000D01*
X62563142Y-61777619D01*
X63515523Y-62682380D02*
X62944095Y-62682380D01*
X63229809Y-62682380D02*
X63229809Y-61682380D01*
X63134571Y-61825238D01*
X63039333Y-61920476D01*
X62944095Y-61968095D01*
X64134571Y-61682380D02*
X64229809Y-61682380D01*
X64325047Y-61730000D01*
X64372666Y-61777619D01*
X64420285Y-61872857D01*
X64467904Y-62063333D01*
X64467904Y-62301428D01*
X64420285Y-62491904D01*
X64372666Y-62587142D01*
X64325047Y-62634761D01*
X64229809Y-62682380D01*
X64134571Y-62682380D01*
X64039333Y-62634761D01*
X63991714Y-62587142D01*
X63944095Y-62491904D01*
X63896476Y-62301428D01*
X63896476Y-62063333D01*
X63944095Y-61872857D01*
X63991714Y-61777619D01*
X64039333Y-61730000D01*
X64134571Y-61682380D01*
X62603142Y-66651142D02*
X62555523Y-66698761D01*
X62412666Y-66746380D01*
X62317428Y-66746380D01*
X62174571Y-66698761D01*
X62079333Y-66603523D01*
X62031714Y-66508285D01*
X61984095Y-66317809D01*
X61984095Y-66174952D01*
X62031714Y-65984476D01*
X62079333Y-65889238D01*
X62174571Y-65794000D01*
X62317428Y-65746380D01*
X62412666Y-65746380D01*
X62555523Y-65794000D01*
X62603142Y-65841619D01*
X63555523Y-66746380D02*
X62984095Y-66746380D01*
X63269809Y-66746380D02*
X63269809Y-65746380D01*
X63174571Y-65889238D01*
X63079333Y-65984476D01*
X62984095Y-66032095D01*
X64507904Y-66746380D02*
X63936476Y-66746380D01*
X64222190Y-66746380D02*
X64222190Y-65746380D01*
X64126952Y-65889238D01*
X64031714Y-65984476D01*
X63936476Y-66032095D01*
X62563142Y-70715142D02*
X62515523Y-70762761D01*
X62372666Y-70810380D01*
X62277428Y-70810380D01*
X62134571Y-70762761D01*
X62039333Y-70667523D01*
X61991714Y-70572285D01*
X61944095Y-70381809D01*
X61944095Y-70238952D01*
X61991714Y-70048476D01*
X62039333Y-69953238D01*
X62134571Y-69858000D01*
X62277428Y-69810380D01*
X62372666Y-69810380D01*
X62515523Y-69858000D01*
X62563142Y-69905619D01*
X63515523Y-70810380D02*
X62944095Y-70810380D01*
X63229809Y-70810380D02*
X63229809Y-69810380D01*
X63134571Y-69953238D01*
X63039333Y-70048476D01*
X62944095Y-70096095D01*
X63896476Y-69905619D02*
X63944095Y-69858000D01*
X64039333Y-69810380D01*
X64277428Y-69810380D01*
X64372666Y-69858000D01*
X64420285Y-69905619D01*
X64467904Y-70000857D01*
X64467904Y-70096095D01*
X64420285Y-70238952D01*
X63848857Y-70810380D01*
X64467904Y-70810380D01*
X62603142Y-74779142D02*
X62555523Y-74826761D01*
X62412666Y-74874380D01*
X62317428Y-74874380D01*
X62174571Y-74826761D01*
X62079333Y-74731523D01*
X62031714Y-74636285D01*
X61984095Y-74445809D01*
X61984095Y-74302952D01*
X62031714Y-74112476D01*
X62079333Y-74017238D01*
X62174571Y-73922000D01*
X62317428Y-73874380D01*
X62412666Y-73874380D01*
X62555523Y-73922000D01*
X62603142Y-73969619D01*
X63555523Y-74874380D02*
X62984095Y-74874380D01*
X63269809Y-74874380D02*
X63269809Y-73874380D01*
X63174571Y-74017238D01*
X63079333Y-74112476D01*
X62984095Y-74160095D01*
X63888857Y-73874380D02*
X64507904Y-73874380D01*
X64174571Y-74255333D01*
X64317428Y-74255333D01*
X64412666Y-74302952D01*
X64460285Y-74350571D01*
X64507904Y-74445809D01*
X64507904Y-74683904D01*
X64460285Y-74779142D01*
X64412666Y-74826761D01*
X64317428Y-74874380D01*
X64031714Y-74874380D01*
X63936476Y-74826761D01*
X63888857Y-74779142D01*
X75557142Y-89003142D02*
X75509523Y-89050761D01*
X75366666Y-89098380D01*
X75271428Y-89098380D01*
X75128571Y-89050761D01*
X75033333Y-88955523D01*
X74985714Y-88860285D01*
X74938095Y-88669809D01*
X74938095Y-88526952D01*
X74985714Y-88336476D01*
X75033333Y-88241238D01*
X75128571Y-88146000D01*
X75271428Y-88098380D01*
X75366666Y-88098380D01*
X75509523Y-88146000D01*
X75557142Y-88193619D01*
X76509523Y-89098380D02*
X75938095Y-89098380D01*
X76223809Y-89098380D02*
X76223809Y-88098380D01*
X76128571Y-88241238D01*
X76033333Y-88336476D01*
X75938095Y-88384095D01*
X77414285Y-88098380D02*
X76938095Y-88098380D01*
X76890476Y-88574571D01*
X76938095Y-88526952D01*
X77033333Y-88479333D01*
X77271428Y-88479333D01*
X77366666Y-88526952D01*
X77414285Y-88574571D01*
X77461904Y-88669809D01*
X77461904Y-88907904D01*
X77414285Y-89003142D01*
X77366666Y-89050761D01*
X77271428Y-89098380D01*
X77033333Y-89098380D01*
X76938095Y-89050761D01*
X76890476Y-89003142D01*
X74033142Y-78843142D02*
X73985523Y-78890761D01*
X73842666Y-78938380D01*
X73747428Y-78938380D01*
X73604571Y-78890761D01*
X73509333Y-78795523D01*
X73461714Y-78700285D01*
X73414095Y-78509809D01*
X73414095Y-78366952D01*
X73461714Y-78176476D01*
X73509333Y-78081238D01*
X73604571Y-77986000D01*
X73747428Y-77938380D01*
X73842666Y-77938380D01*
X73985523Y-77986000D01*
X74033142Y-78033619D01*
X74985523Y-78938380D02*
X74414095Y-78938380D01*
X74699809Y-78938380D02*
X74699809Y-77938380D01*
X74604571Y-78081238D01*
X74509333Y-78176476D01*
X74414095Y-78224095D01*
X75842666Y-77938380D02*
X75652190Y-77938380D01*
X75556952Y-77986000D01*
X75509333Y-78033619D01*
X75414095Y-78176476D01*
X75366476Y-78366952D01*
X75366476Y-78747904D01*
X75414095Y-78843142D01*
X75461714Y-78890761D01*
X75556952Y-78938380D01*
X75747428Y-78938380D01*
X75842666Y-78890761D01*
X75890285Y-78843142D01*
X75937904Y-78747904D01*
X75937904Y-78509809D01*
X75890285Y-78414571D01*
X75842666Y-78366952D01*
X75747428Y-78319333D01*
X75556952Y-78319333D01*
X75461714Y-78366952D01*
X75414095Y-78414571D01*
X75366476Y-78509809D01*
X130730666Y-62698380D02*
X130730666Y-63412666D01*
X130683047Y-63555523D01*
X130587809Y-63650761D01*
X130444952Y-63698380D01*
X130349714Y-63698380D01*
X131730666Y-63698380D02*
X131159238Y-63698380D01*
X131444952Y-63698380D02*
X131444952Y-62698380D01*
X131349714Y-62841238D01*
X131254476Y-62936476D01*
X131159238Y-62984095D01*
X130730666Y-67270380D02*
X130730666Y-67984666D01*
X130683047Y-68127523D01*
X130587809Y-68222761D01*
X130444952Y-68270380D01*
X130349714Y-68270380D01*
X131159238Y-67365619D02*
X131206857Y-67318000D01*
X131302095Y-67270380D01*
X131540190Y-67270380D01*
X131635428Y-67318000D01*
X131683047Y-67365619D01*
X131730666Y-67460857D01*
X131730666Y-67556095D01*
X131683047Y-67698952D01*
X131111619Y-68270380D01*
X131730666Y-68270380D01*
X130476666Y-73112380D02*
X130476666Y-73826666D01*
X130429047Y-73969523D01*
X130333809Y-74064761D01*
X130190952Y-74112380D01*
X130095714Y-74112380D01*
X130857619Y-73112380D02*
X131476666Y-73112380D01*
X131143333Y-73493333D01*
X131286190Y-73493333D01*
X131381428Y-73540952D01*
X131429047Y-73588571D01*
X131476666Y-73683809D01*
X131476666Y-73921904D01*
X131429047Y-74017142D01*
X131381428Y-74064761D01*
X131286190Y-74112380D01*
X131000476Y-74112380D01*
X130905238Y-74064761D01*
X130857619Y-74017142D01*
X130730666Y-79208380D02*
X130730666Y-79922666D01*
X130683047Y-80065523D01*
X130587809Y-80160761D01*
X130444952Y-80208380D01*
X130349714Y-80208380D01*
X131635428Y-79541714D02*
X131635428Y-80208380D01*
X131397333Y-79160761D02*
X131159238Y-79875047D01*
X131778285Y-79875047D01*
X130476666Y-85558380D02*
X130476666Y-86272666D01*
X130429047Y-86415523D01*
X130333809Y-86510761D01*
X130190952Y-86558380D01*
X130095714Y-86558380D01*
X131429047Y-85558380D02*
X130952857Y-85558380D01*
X130905238Y-86034571D01*
X130952857Y-85986952D01*
X131048095Y-85939333D01*
X131286190Y-85939333D01*
X131381428Y-85986952D01*
X131429047Y-86034571D01*
X131476666Y-86129809D01*
X131476666Y-86367904D01*
X131429047Y-86463142D01*
X131381428Y-86510761D01*
X131286190Y-86558380D01*
X131048095Y-86558380D01*
X130952857Y-86510761D01*
X130905238Y-86463142D01*
X130476666Y-91654380D02*
X130476666Y-92368666D01*
X130429047Y-92511523D01*
X130333809Y-92606761D01*
X130190952Y-92654380D01*
X130095714Y-92654380D01*
X131381428Y-91654380D02*
X131190952Y-91654380D01*
X131095714Y-91702000D01*
X131048095Y-91749619D01*
X130952857Y-91892476D01*
X130905238Y-92082952D01*
X130905238Y-92463904D01*
X130952857Y-92559142D01*
X131000476Y-92606761D01*
X131095714Y-92654380D01*
X131286190Y-92654380D01*
X131381428Y-92606761D01*
X131429047Y-92559142D01*
X131476666Y-92463904D01*
X131476666Y-92225809D01*
X131429047Y-92130571D01*
X131381428Y-92082952D01*
X131286190Y-92035333D01*
X131095714Y-92035333D01*
X131000476Y-92082952D01*
X130952857Y-92130571D01*
X130905238Y-92225809D01*
X130476666Y-97496380D02*
X130476666Y-98210666D01*
X130429047Y-98353523D01*
X130333809Y-98448761D01*
X130190952Y-98496380D01*
X130095714Y-98496380D01*
X130857619Y-97496380D02*
X131524285Y-97496380D01*
X131095714Y-98496380D01*
X130730666Y-103846380D02*
X130730666Y-104560666D01*
X130683047Y-104703523D01*
X130587809Y-104798761D01*
X130444952Y-104846380D01*
X130349714Y-104846380D01*
X131349714Y-104274952D02*
X131254476Y-104227333D01*
X131206857Y-104179714D01*
X131159238Y-104084476D01*
X131159238Y-104036857D01*
X131206857Y-103941619D01*
X131254476Y-103894000D01*
X131349714Y-103846380D01*
X131540190Y-103846380D01*
X131635428Y-103894000D01*
X131683047Y-103941619D01*
X131730666Y-104036857D01*
X131730666Y-104084476D01*
X131683047Y-104179714D01*
X131635428Y-104227333D01*
X131540190Y-104274952D01*
X131349714Y-104274952D01*
X131254476Y-104322571D01*
X131206857Y-104370190D01*
X131159238Y-104465428D01*
X131159238Y-104655904D01*
X131206857Y-104751142D01*
X131254476Y-104798761D01*
X131349714Y-104846380D01*
X131540190Y-104846380D01*
X131635428Y-104798761D01*
X131683047Y-104751142D01*
X131730666Y-104655904D01*
X131730666Y-104465428D01*
X131683047Y-104370190D01*
X131635428Y-104322571D01*
X131540190Y-104274952D01*
X98218666Y-73330380D02*
X98218666Y-74044666D01*
X98171047Y-74187523D01*
X98075809Y-74282761D01*
X97932952Y-74330380D01*
X97837714Y-74330380D01*
X98742476Y-74330380D02*
X98932952Y-74330380D01*
X99028190Y-74282761D01*
X99075809Y-74235142D01*
X99171047Y-74092285D01*
X99218666Y-73901809D01*
X99218666Y-73520857D01*
X99171047Y-73425619D01*
X99123428Y-73378000D01*
X99028190Y-73330380D01*
X98837714Y-73330380D01*
X98742476Y-73378000D01*
X98694857Y-73425619D01*
X98647238Y-73520857D01*
X98647238Y-73758952D01*
X98694857Y-73854190D01*
X98742476Y-73901809D01*
X98837714Y-73949428D01*
X99028190Y-73949428D01*
X99123428Y-73901809D01*
X99171047Y-73854190D01*
X99218666Y-73758952D01*
X101044476Y-73330380D02*
X101044476Y-74044666D01*
X100996857Y-74187523D01*
X100901619Y-74282761D01*
X100758761Y-74330380D01*
X100663523Y-74330380D01*
X102044476Y-74330380D02*
X101473047Y-74330380D01*
X101758761Y-74330380D02*
X101758761Y-73330380D01*
X101663523Y-73473238D01*
X101568285Y-73568476D01*
X101473047Y-73616095D01*
X102663523Y-73330380D02*
X102758761Y-73330380D01*
X102854000Y-73378000D01*
X102901619Y-73425619D01*
X102949238Y-73520857D01*
X102996857Y-73711333D01*
X102996857Y-73949428D01*
X102949238Y-74139904D01*
X102901619Y-74235142D01*
X102854000Y-74282761D01*
X102758761Y-74330380D01*
X102663523Y-74330380D01*
X102568285Y-74282761D01*
X102520666Y-74235142D01*
X102473047Y-74139904D01*
X102425428Y-73949428D01*
X102425428Y-73711333D01*
X102473047Y-73520857D01*
X102520666Y-73425619D01*
X102568285Y-73378000D01*
X102663523Y-73330380D01*
X104346476Y-73330380D02*
X104346476Y-74044666D01*
X104298857Y-74187523D01*
X104203619Y-74282761D01*
X104060761Y-74330380D01*
X103965523Y-74330380D01*
X105346476Y-74330380D02*
X104775047Y-74330380D01*
X105060761Y-74330380D02*
X105060761Y-73330380D01*
X104965523Y-73473238D01*
X104870285Y-73568476D01*
X104775047Y-73616095D01*
X106298857Y-74330380D02*
X105727428Y-74330380D01*
X106013142Y-74330380D02*
X106013142Y-73330380D01*
X105917904Y-73473238D01*
X105822666Y-73568476D01*
X105727428Y-73616095D01*
X107648476Y-73330380D02*
X107648476Y-74044666D01*
X107600857Y-74187523D01*
X107505619Y-74282761D01*
X107362761Y-74330380D01*
X107267523Y-74330380D01*
X108648476Y-74330380D02*
X108077047Y-74330380D01*
X108362761Y-74330380D02*
X108362761Y-73330380D01*
X108267523Y-73473238D01*
X108172285Y-73568476D01*
X108077047Y-73616095D01*
X109029428Y-73425619D02*
X109077047Y-73378000D01*
X109172285Y-73330380D01*
X109410380Y-73330380D01*
X109505619Y-73378000D01*
X109553238Y-73425619D01*
X109600857Y-73520857D01*
X109600857Y-73616095D01*
X109553238Y-73758952D01*
X108981809Y-74330380D01*
X109600857Y-74330380D01*
X110950476Y-73330380D02*
X110950476Y-74044666D01*
X110902857Y-74187523D01*
X110807619Y-74282761D01*
X110664761Y-74330380D01*
X110569523Y-74330380D01*
X111950476Y-74330380D02*
X111379047Y-74330380D01*
X111664761Y-74330380D02*
X111664761Y-73330380D01*
X111569523Y-73473238D01*
X111474285Y-73568476D01*
X111379047Y-73616095D01*
X112283809Y-73330380D02*
X112902857Y-73330380D01*
X112569523Y-73711333D01*
X112712380Y-73711333D01*
X112807619Y-73758952D01*
X112855238Y-73806571D01*
X112902857Y-73901809D01*
X112902857Y-74139904D01*
X112855238Y-74235142D01*
X112807619Y-74282761D01*
X112712380Y-74330380D01*
X112426666Y-74330380D01*
X112331428Y-74282761D01*
X112283809Y-74235142D01*
X114252476Y-73330380D02*
X114252476Y-74044666D01*
X114204857Y-74187523D01*
X114109619Y-74282761D01*
X113966761Y-74330380D01*
X113871523Y-74330380D01*
X115252476Y-74330380D02*
X114681047Y-74330380D01*
X114966761Y-74330380D02*
X114966761Y-73330380D01*
X114871523Y-73473238D01*
X114776285Y-73568476D01*
X114681047Y-73616095D01*
X116109619Y-73663714D02*
X116109619Y-74330380D01*
X115871523Y-73282761D02*
X115633428Y-73997047D01*
X116252476Y-73997047D01*
X114506476Y-78918380D02*
X114506476Y-79632666D01*
X114458857Y-79775523D01*
X114363619Y-79870761D01*
X114220761Y-79918380D01*
X114125523Y-79918380D01*
X115506476Y-79918380D02*
X114935047Y-79918380D01*
X115220761Y-79918380D02*
X115220761Y-78918380D01*
X115125523Y-79061238D01*
X115030285Y-79156476D01*
X114935047Y-79204095D01*
X116411238Y-78918380D02*
X115935047Y-78918380D01*
X115887428Y-79394571D01*
X115935047Y-79346952D01*
X116030285Y-79299333D01*
X116268380Y-79299333D01*
X116363619Y-79346952D01*
X116411238Y-79394571D01*
X116458857Y-79489809D01*
X116458857Y-79727904D01*
X116411238Y-79823142D01*
X116363619Y-79870761D01*
X116268380Y-79918380D01*
X116030285Y-79918380D01*
X115935047Y-79870761D01*
X115887428Y-79823142D01*
X111204476Y-78918380D02*
X111204476Y-79632666D01*
X111156857Y-79775523D01*
X111061619Y-79870761D01*
X110918761Y-79918380D01*
X110823523Y-79918380D01*
X112204476Y-79918380D02*
X111633047Y-79918380D01*
X111918761Y-79918380D02*
X111918761Y-78918380D01*
X111823523Y-79061238D01*
X111728285Y-79156476D01*
X111633047Y-79204095D01*
X113061619Y-78918380D02*
X112871142Y-78918380D01*
X112775904Y-78966000D01*
X112728285Y-79013619D01*
X112633047Y-79156476D01*
X112585428Y-79346952D01*
X112585428Y-79727904D01*
X112633047Y-79823142D01*
X112680666Y-79870761D01*
X112775904Y-79918380D01*
X112966380Y-79918380D01*
X113061619Y-79870761D01*
X113109238Y-79823142D01*
X113156857Y-79727904D01*
X113156857Y-79489809D01*
X113109238Y-79394571D01*
X113061619Y-79346952D01*
X112966380Y-79299333D01*
X112775904Y-79299333D01*
X112680666Y-79346952D01*
X112633047Y-79394571D01*
X112585428Y-79489809D01*
X122007333Y-59634380D02*
X121674000Y-59158190D01*
X121435904Y-59634380D02*
X121435904Y-58634380D01*
X121816857Y-58634380D01*
X121912095Y-58682000D01*
X121959714Y-58729619D01*
X122007333Y-58824857D01*
X122007333Y-58967714D01*
X121959714Y-59062952D01*
X121912095Y-59110571D01*
X121816857Y-59158190D01*
X121435904Y-59158190D01*
X122959714Y-59634380D02*
X122388285Y-59634380D01*
X122674000Y-59634380D02*
X122674000Y-58634380D01*
X122578761Y-58777238D01*
X122483523Y-58872476D01*
X122388285Y-58920095D01*
X122007333Y-63698380D02*
X121674000Y-63222190D01*
X121435904Y-63698380D02*
X121435904Y-62698380D01*
X121816857Y-62698380D01*
X121912095Y-62746000D01*
X121959714Y-62793619D01*
X122007333Y-62888857D01*
X122007333Y-63031714D01*
X121959714Y-63126952D01*
X121912095Y-63174571D01*
X121816857Y-63222190D01*
X121435904Y-63222190D01*
X122388285Y-62793619D02*
X122435904Y-62746000D01*
X122531142Y-62698380D01*
X122769238Y-62698380D01*
X122864476Y-62746000D01*
X122912095Y-62793619D01*
X122959714Y-62888857D01*
X122959714Y-62984095D01*
X122912095Y-63126952D01*
X122340666Y-63698380D01*
X122959714Y-63698380D01*
X122007333Y-66746380D02*
X121674000Y-66270190D01*
X121435904Y-66746380D02*
X121435904Y-65746380D01*
X121816857Y-65746380D01*
X121912095Y-65794000D01*
X121959714Y-65841619D01*
X122007333Y-65936857D01*
X122007333Y-66079714D01*
X121959714Y-66174952D01*
X121912095Y-66222571D01*
X121816857Y-66270190D01*
X121435904Y-66270190D01*
X122340666Y-65746380D02*
X122959714Y-65746380D01*
X122626380Y-66127333D01*
X122769238Y-66127333D01*
X122864476Y-66174952D01*
X122912095Y-66222571D01*
X122959714Y-66317809D01*
X122959714Y-66555904D01*
X122912095Y-66651142D01*
X122864476Y-66698761D01*
X122769238Y-66746380D01*
X122483523Y-66746380D01*
X122388285Y-66698761D01*
X122340666Y-66651142D01*
X122007333Y-69794380D02*
X121674000Y-69318190D01*
X121435904Y-69794380D02*
X121435904Y-68794380D01*
X121816857Y-68794380D01*
X121912095Y-68842000D01*
X121959714Y-68889619D01*
X122007333Y-68984857D01*
X122007333Y-69127714D01*
X121959714Y-69222952D01*
X121912095Y-69270571D01*
X121816857Y-69318190D01*
X121435904Y-69318190D01*
X122864476Y-69127714D02*
X122864476Y-69794380D01*
X122626380Y-68746761D02*
X122388285Y-69461047D01*
X123007333Y-69461047D01*
X122007333Y-72842380D02*
X121674000Y-72366190D01*
X121435904Y-72842380D02*
X121435904Y-71842380D01*
X121816857Y-71842380D01*
X121912095Y-71890000D01*
X121959714Y-71937619D01*
X122007333Y-72032857D01*
X122007333Y-72175714D01*
X121959714Y-72270952D01*
X121912095Y-72318571D01*
X121816857Y-72366190D01*
X121435904Y-72366190D01*
X122912095Y-71842380D02*
X122435904Y-71842380D01*
X122388285Y-72318571D01*
X122435904Y-72270952D01*
X122531142Y-72223333D01*
X122769238Y-72223333D01*
X122864476Y-72270952D01*
X122912095Y-72318571D01*
X122959714Y-72413809D01*
X122959714Y-72651904D01*
X122912095Y-72747142D01*
X122864476Y-72794761D01*
X122769238Y-72842380D01*
X122531142Y-72842380D01*
X122435904Y-72794761D01*
X122388285Y-72747142D01*
X122007333Y-75890380D02*
X121674000Y-75414190D01*
X121435904Y-75890380D02*
X121435904Y-74890380D01*
X121816857Y-74890380D01*
X121912095Y-74938000D01*
X121959714Y-74985619D01*
X122007333Y-75080857D01*
X122007333Y-75223714D01*
X121959714Y-75318952D01*
X121912095Y-75366571D01*
X121816857Y-75414190D01*
X121435904Y-75414190D01*
X122864476Y-74890380D02*
X122674000Y-74890380D01*
X122578761Y-74938000D01*
X122531142Y-74985619D01*
X122435904Y-75128476D01*
X122388285Y-75318952D01*
X122388285Y-75699904D01*
X122435904Y-75795142D01*
X122483523Y-75842761D01*
X122578761Y-75890380D01*
X122769238Y-75890380D01*
X122864476Y-75842761D01*
X122912095Y-75795142D01*
X122959714Y-75699904D01*
X122959714Y-75461809D01*
X122912095Y-75366571D01*
X122864476Y-75318952D01*
X122769238Y-75271333D01*
X122578761Y-75271333D01*
X122483523Y-75318952D01*
X122435904Y-75366571D01*
X122388285Y-75461809D01*
X122007333Y-78938380D02*
X121674000Y-78462190D01*
X121435904Y-78938380D02*
X121435904Y-77938380D01*
X121816857Y-77938380D01*
X121912095Y-77986000D01*
X121959714Y-78033619D01*
X122007333Y-78128857D01*
X122007333Y-78271714D01*
X121959714Y-78366952D01*
X121912095Y-78414571D01*
X121816857Y-78462190D01*
X121435904Y-78462190D01*
X122340666Y-77938380D02*
X123007333Y-77938380D01*
X122578761Y-78938380D01*
X122007333Y-81986380D02*
X121674000Y-81510190D01*
X121435904Y-81986380D02*
X121435904Y-80986380D01*
X121816857Y-80986380D01*
X121912095Y-81034000D01*
X121959714Y-81081619D01*
X122007333Y-81176857D01*
X122007333Y-81319714D01*
X121959714Y-81414952D01*
X121912095Y-81462571D01*
X121816857Y-81510190D01*
X121435904Y-81510190D01*
X122578761Y-81414952D02*
X122483523Y-81367333D01*
X122435904Y-81319714D01*
X122388285Y-81224476D01*
X122388285Y-81176857D01*
X122435904Y-81081619D01*
X122483523Y-81034000D01*
X122578761Y-80986380D01*
X122769238Y-80986380D01*
X122864476Y-81034000D01*
X122912095Y-81081619D01*
X122959714Y-81176857D01*
X122959714Y-81224476D01*
X122912095Y-81319714D01*
X122864476Y-81367333D01*
X122769238Y-81414952D01*
X122578761Y-81414952D01*
X122483523Y-81462571D01*
X122435904Y-81510190D01*
X122388285Y-81605428D01*
X122388285Y-81795904D01*
X122435904Y-81891142D01*
X122483523Y-81938761D01*
X122578761Y-81986380D01*
X122769238Y-81986380D01*
X122864476Y-81938761D01*
X122912095Y-81891142D01*
X122959714Y-81795904D01*
X122959714Y-81605428D01*
X122912095Y-81510190D01*
X122864476Y-81462571D01*
X122769238Y-81414952D01*
X122007333Y-85034380D02*
X121674000Y-84558190D01*
X121435904Y-85034380D02*
X121435904Y-84034380D01*
X121816857Y-84034380D01*
X121912095Y-84082000D01*
X121959714Y-84129619D01*
X122007333Y-84224857D01*
X122007333Y-84367714D01*
X121959714Y-84462952D01*
X121912095Y-84510571D01*
X121816857Y-84558190D01*
X121435904Y-84558190D01*
X122483523Y-85034380D02*
X122674000Y-85034380D01*
X122769238Y-84986761D01*
X122816857Y-84939142D01*
X122912095Y-84796285D01*
X122959714Y-84605809D01*
X122959714Y-84224857D01*
X122912095Y-84129619D01*
X122864476Y-84082000D01*
X122769238Y-84034380D01*
X122578761Y-84034380D01*
X122483523Y-84082000D01*
X122435904Y-84129619D01*
X122388285Y-84224857D01*
X122388285Y-84462952D01*
X122435904Y-84558190D01*
X122483523Y-84605809D01*
X122578761Y-84653428D01*
X122769238Y-84653428D01*
X122864476Y-84605809D01*
X122912095Y-84558190D01*
X122959714Y-84462952D01*
X121531142Y-91130380D02*
X121197809Y-90654190D01*
X120959714Y-91130380D02*
X120959714Y-90130380D01*
X121340666Y-90130380D01*
X121435904Y-90178000D01*
X121483523Y-90225619D01*
X121531142Y-90320857D01*
X121531142Y-90463714D01*
X121483523Y-90558952D01*
X121435904Y-90606571D01*
X121340666Y-90654190D01*
X120959714Y-90654190D01*
X122483523Y-91130380D02*
X121912095Y-91130380D01*
X122197809Y-91130380D02*
X122197809Y-90130380D01*
X122102571Y-90273238D01*
X122007333Y-90368476D01*
X121912095Y-90416095D01*
X123435904Y-91130380D02*
X122864476Y-91130380D01*
X123150190Y-91130380D02*
X123150190Y-90130380D01*
X123054952Y-90273238D01*
X122959714Y-90368476D01*
X122864476Y-90416095D01*
X121531142Y-94178380D02*
X121197809Y-93702190D01*
X120959714Y-94178380D02*
X120959714Y-93178380D01*
X121340666Y-93178380D01*
X121435904Y-93226000D01*
X121483523Y-93273619D01*
X121531142Y-93368857D01*
X121531142Y-93511714D01*
X121483523Y-93606952D01*
X121435904Y-93654571D01*
X121340666Y-93702190D01*
X120959714Y-93702190D01*
X122483523Y-94178380D02*
X121912095Y-94178380D01*
X122197809Y-94178380D02*
X122197809Y-93178380D01*
X122102571Y-93321238D01*
X122007333Y-93416476D01*
X121912095Y-93464095D01*
X122864476Y-93273619D02*
X122912095Y-93226000D01*
X123007333Y-93178380D01*
X123245428Y-93178380D01*
X123340666Y-93226000D01*
X123388285Y-93273619D01*
X123435904Y-93368857D01*
X123435904Y-93464095D01*
X123388285Y-93606952D01*
X122816857Y-94178380D01*
X123435904Y-94178380D01*
X121531142Y-97226380D02*
X121197809Y-96750190D01*
X120959714Y-97226380D02*
X120959714Y-96226380D01*
X121340666Y-96226380D01*
X121435904Y-96274000D01*
X121483523Y-96321619D01*
X121531142Y-96416857D01*
X121531142Y-96559714D01*
X121483523Y-96654952D01*
X121435904Y-96702571D01*
X121340666Y-96750190D01*
X120959714Y-96750190D01*
X122483523Y-97226380D02*
X121912095Y-97226380D01*
X122197809Y-97226380D02*
X122197809Y-96226380D01*
X122102571Y-96369238D01*
X122007333Y-96464476D01*
X121912095Y-96512095D01*
X122816857Y-96226380D02*
X123435904Y-96226380D01*
X123102571Y-96607333D01*
X123245428Y-96607333D01*
X123340666Y-96654952D01*
X123388285Y-96702571D01*
X123435904Y-96797809D01*
X123435904Y-97035904D01*
X123388285Y-97131142D01*
X123340666Y-97178761D01*
X123245428Y-97226380D01*
X122959714Y-97226380D01*
X122864476Y-97178761D01*
X122816857Y-97131142D01*
X121531142Y-100274380D02*
X121197809Y-99798190D01*
X120959714Y-100274380D02*
X120959714Y-99274380D01*
X121340666Y-99274380D01*
X121435904Y-99322000D01*
X121483523Y-99369619D01*
X121531142Y-99464857D01*
X121531142Y-99607714D01*
X121483523Y-99702952D01*
X121435904Y-99750571D01*
X121340666Y-99798190D01*
X120959714Y-99798190D01*
X122483523Y-100274380D02*
X121912095Y-100274380D01*
X122197809Y-100274380D02*
X122197809Y-99274380D01*
X122102571Y-99417238D01*
X122007333Y-99512476D01*
X121912095Y-99560095D01*
X123340666Y-99607714D02*
X123340666Y-100274380D01*
X123102571Y-99226761D02*
X122864476Y-99941047D01*
X123483523Y-99941047D01*
X121531142Y-103322380D02*
X121197809Y-102846190D01*
X120959714Y-103322380D02*
X120959714Y-102322380D01*
X121340666Y-102322380D01*
X121435904Y-102370000D01*
X121483523Y-102417619D01*
X121531142Y-102512857D01*
X121531142Y-102655714D01*
X121483523Y-102750952D01*
X121435904Y-102798571D01*
X121340666Y-102846190D01*
X120959714Y-102846190D01*
X122483523Y-103322380D02*
X121912095Y-103322380D01*
X122197809Y-103322380D02*
X122197809Y-102322380D01*
X122102571Y-102465238D01*
X122007333Y-102560476D01*
X121912095Y-102608095D01*
X123388285Y-102322380D02*
X122912095Y-102322380D01*
X122864476Y-102798571D01*
X122912095Y-102750952D01*
X123007333Y-102703333D01*
X123245428Y-102703333D01*
X123340666Y-102750952D01*
X123388285Y-102798571D01*
X123435904Y-102893809D01*
X123435904Y-103131904D01*
X123388285Y-103227142D01*
X123340666Y-103274761D01*
X123245428Y-103322380D01*
X123007333Y-103322380D01*
X122912095Y-103274761D01*
X122864476Y-103227142D01*
X121531142Y-106370380D02*
X121197809Y-105894190D01*
X120959714Y-106370380D02*
X120959714Y-105370380D01*
X121340666Y-105370380D01*
X121435904Y-105418000D01*
X121483523Y-105465619D01*
X121531142Y-105560857D01*
X121531142Y-105703714D01*
X121483523Y-105798952D01*
X121435904Y-105846571D01*
X121340666Y-105894190D01*
X120959714Y-105894190D01*
X122483523Y-106370380D02*
X121912095Y-106370380D01*
X122197809Y-106370380D02*
X122197809Y-105370380D01*
X122102571Y-105513238D01*
X122007333Y-105608476D01*
X121912095Y-105656095D01*
X123340666Y-105370380D02*
X123150190Y-105370380D01*
X123054952Y-105418000D01*
X123007333Y-105465619D01*
X122912095Y-105608476D01*
X122864476Y-105798952D01*
X122864476Y-106179904D01*
X122912095Y-106275142D01*
X122959714Y-106322761D01*
X123054952Y-106370380D01*
X123245428Y-106370380D01*
X123340666Y-106322761D01*
X123388285Y-106275142D01*
X123435904Y-106179904D01*
X123435904Y-105941809D01*
X123388285Y-105846571D01*
X123340666Y-105798952D01*
X123245428Y-105751333D01*
X123054952Y-105751333D01*
X122959714Y-105798952D01*
X122912095Y-105846571D01*
X122864476Y-105941809D01*
X99782380Y-96265904D02*
X100591904Y-96265904D01*
X100687142Y-96218285D01*
X100734761Y-96170666D01*
X100782380Y-96075428D01*
X100782380Y-95884952D01*
X100734761Y-95789714D01*
X100687142Y-95742095D01*
X100591904Y-95694476D01*
X99782380Y-95694476D01*
X100782380Y-94694476D02*
X100782380Y-95265904D01*
X100782380Y-94980190D02*
X99782380Y-94980190D01*
X99925238Y-95075428D01*
X100020476Y-95170666D01*
X100068095Y-95265904D01*
X71151904Y-72350380D02*
X71151904Y-73159904D01*
X71199523Y-73255142D01*
X71247142Y-73302761D01*
X71342380Y-73350380D01*
X71532857Y-73350380D01*
X71628095Y-73302761D01*
X71675714Y-73255142D01*
X71723333Y-73159904D01*
X71723333Y-72350380D01*
X72723333Y-73350380D02*
X72151904Y-73350380D01*
X72437619Y-73350380D02*
X72437619Y-72350380D01*
X72342380Y-72493238D01*
X72247142Y-72588476D01*
X72151904Y-72636095D01*
X73675714Y-73350380D02*
X73104285Y-73350380D01*
X73390000Y-73350380D02*
X73390000Y-72350380D01*
X73294761Y-72493238D01*
X73199523Y-72588476D01*
X73104285Y-72636095D01*
M02*
