M48
; DRILL file {KiCad (5.1.5)-3} date 6/28/2020 9:32:35 PM
; FORMAT={-:-/ absolute / inch / decimal}
; #@! TF.CreationDate,2020-06-28T21:32:35-07:00
; #@! TF.GenerationSoftware,Kicad,Pcbnew,(5.1.5)-3
FMAT,2
INCH
T1C0.0130
T2C0.0217
T3C0.0236
T4C0.0315
T5C0.0394
T6C0.0472
T7C0.0866
T8C0.0701
%
G90
G05
T1
X3.9546Y-3.6446
T2
X2.66Y-3.17
X2.71Y-3.17
X2.76Y-3.17
T3
X2.96Y-3.15
X3.0387Y-3.15
X2.96Y-3.34
X3.0387Y-3.34
T4
X3.9231Y-3.25
X4.12Y-3.25
X4.66Y-2.97
X4.96Y-2.97
X4.66Y-4.17
X4.96Y-4.17
X2.39Y-2.61
X2.5869Y-2.61
X4.66Y-3.45
X4.96Y-3.45
X4.66Y-3.69
X4.96Y-3.69
X4.66Y-2.85
X4.96Y-2.85
X4.66Y-3.81
X4.96Y-3.81
X2.39Y-2.77
X2.5869Y-2.77
X4.66Y-2.73
X4.96Y-2.73
X4.66Y-2.61
X4.96Y-2.61
X4.66Y-3.93
X4.96Y-3.93
X4.66Y-3.57
X4.96Y-3.57
X2.39Y-2.45
X2.5869Y-2.45
X4.66Y-3.33
X4.96Y-3.33
X4.66Y-2.37
X4.96Y-2.37
X2.3931Y-2.93
X2.59Y-2.93
X3.15Y-2.63
X3.15Y-2.73
X3.15Y-2.83
X3.15Y-2.93
X3.15Y-3.03
X3.15Y-3.13
X3.15Y-3.23
X3.15Y-3.33
X3.15Y-3.43
X3.15Y-3.53
X3.15Y-3.63
X3.15Y-3.73
X3.15Y-3.83
X3.15Y-3.93
X3.15Y-4.03
X3.75Y-2.63
X3.75Y-2.73
X3.75Y-2.83
X3.75Y-2.93
X3.75Y-3.03
X3.75Y-3.13
X3.75Y-3.23
X3.75Y-3.33
X3.75Y-3.43
X3.75Y-3.53
X3.75Y-3.63
X3.75Y-3.73
X3.75Y-3.83
X3.75Y-3.93
X3.75Y-4.03
X4.66Y-3.09
X4.96Y-3.09
X4.66Y-2.49
X4.96Y-2.49
X4.66Y-3.21
X4.96Y-3.21
X4.66Y-4.05
X4.96Y-4.05
T5
X3.88Y-2.82
X4.21Y-2.41
X4.21Y-2.5872
X4.4659Y-2.41
X4.4659Y-2.5872
X4.27Y-2.82
X5.07Y-3.63
X5.07Y-4.11
X4.01Y-3.06
X5.07Y-2.9
X5.07Y-3.39
X5.07Y-3.86
X2.4194Y-3.13
X4.54Y-3.04
X4.14Y-2.82
X2.75Y-2.94
X2.85Y-2.94
X2.95Y-2.94
X5.07Y-3.14
X3.86Y-2.41
X3.86Y-2.5872
X4.1159Y-2.41
X4.1159Y-2.5872
X4.53Y-2.82
X5.07Y-2.49
X3.86Y-3.39
X3.86Y-3.49
X3.86Y-3.59
X3.86Y-3.69
X3.86Y-3.79
X3.86Y-3.89
X3.86Y-3.99
X3.86Y-4.09
X4.16Y-3.39
X4.16Y-3.49
X4.16Y-3.59
X4.16Y-3.69
X4.16Y-3.79
X4.16Y-3.89
X4.16Y-3.99
X4.16Y-4.09
X2.61Y-3.49
X2.8069Y-3.49
X4.19Y-3.06
X4.4Y-2.82
X4.41Y-3.04
X4.01Y-2.82
X5.07Y-2.67
X2.42Y-3.38
T6
X2.76Y-2.58
X2.9569Y-2.58
T7
X2.22Y-2.38
X2.22Y-4.08
X2.22Y-3.63
T8
X3.15Y-2.53
X3.15Y-4.13
X3.75Y-2.53
X3.75Y-4.13
T0
M30
