M48
; DRILL file {KiCad (5.1.5)-3} date 6/28/2020 9:35:22 PM
; FORMAT={-:-/ absolute / inch / decimal}
; #@! TF.CreationDate,2020-06-28T21:35:22-07:00
; #@! TF.GenerationSoftware,Kicad,Pcbnew,(5.1.5)-3
FMAT,2
INCH
T1C0.0130
T2C0.0157
T3C0.0315
T4C0.0394
T5C0.0551
T6C0.0866
%
G90
G05
T1
X2.255Y-3.615
X2.425Y-1.555
X2.4906Y-3.1103
X4.65Y-1.128
X4.748Y-1.434
X4.793Y-2.684
X4.793Y-3.625
X4.848Y-1.528
X4.85Y-2.512
X5.042Y-1.04
T2
X2.02Y-1.38
X2.36Y-1.56
X2.62Y-1.22
X2.94Y-1.53
X2.99Y-4.05
X3.08Y-3.84
X3.19Y-3.76
X3.29Y-2.07
X3.39Y-2.43
X4.34Y-3.03
X4.49Y-1.4
X4.58Y-1.31
X4.79Y-2.74
X4.85Y-2.7
T3
X4.775Y-3.205
X4.9719Y-3.205
X2.265Y-1.265
X2.4619Y-1.265
X4.775Y-1.23
X4.9719Y-1.23
X1.9381Y-3.02
X2.135Y-3.02
X4.4031Y-4.065
X4.6Y-4.065
X4.4331Y-2.15
X4.63Y-2.15
X2.335Y-3.175
X2.5319Y-3.175
X1.9181Y-4.055
X2.115Y-4.055
T4
X3.3359Y-1.05
X4.495Y-1.05
X2.1768Y-1.05
X5.9Y-3.76
X5.9Y-3.86
X5.9Y-3.96
X5.9Y-4.06
X5.9Y-4.16
X5.9Y-4.26
X5.9Y-4.36
X5.9Y-4.46
X4.0314Y-1.05
X2.62Y-1.055
X3.45Y-1.32
X3.45Y-1.42
X3.45Y-1.52
X3.45Y-1.62
X3.45Y-1.72
X3.45Y-1.82
X3.45Y-1.92
X3.45Y-2.02
X1.945Y-1.05
X2.235Y-2.275
X2.235Y-2.375
X2.235Y-2.475
X2.235Y-2.575
X2.235Y-2.675
X2.235Y-2.775
X2.235Y-2.875
X2.235Y-2.975
X2.535Y-2.275
X2.535Y-2.375
X2.535Y-2.475
X2.535Y-2.575
X2.535Y-2.675
X2.535Y-2.775
X2.535Y-2.875
X2.535Y-2.975
X5.9Y-1.76
X5.9Y-1.86
X5.9Y-1.96
X5.9Y-2.06
X5.9Y-2.16
X5.9Y-2.26
X5.9Y-2.36
X5.9Y-2.46
X2.15Y-4.21
X2.15Y-4.31
X2.15Y-4.41
X2.15Y-4.51
X2.15Y-4.61
X2.15Y-4.71
X2.15Y-4.81
X2.15Y-4.91
X2.45Y-4.21
X2.45Y-4.31
X2.45Y-4.41
X2.45Y-4.51
X2.45Y-4.61
X2.45Y-4.71
X2.45Y-4.81
X2.45Y-4.91
X3.1041Y-1.05
X4.2632Y-1.05
X4.645Y-4.265
X4.645Y-4.365
X4.645Y-4.465
X4.645Y-4.565
X4.645Y-4.665
X4.645Y-4.765
X4.645Y-4.865
X4.645Y-4.965
X4.945Y-4.265
X4.945Y-4.365
X4.945Y-4.465
X4.945Y-4.565
X4.945Y-4.665
X4.945Y-4.765
X4.945Y-4.865
X4.945Y-4.965
X1.87Y-1.275
X1.87Y-1.375
X1.87Y-1.475
X1.87Y-1.575
X1.87Y-1.675
X1.87Y-1.775
X1.87Y-1.875
X1.87Y-1.975
X2.17Y-1.275
X2.17Y-1.375
X2.17Y-1.475
X2.17Y-1.575
X2.17Y-1.675
X2.17Y-1.775
X2.17Y-1.875
X2.17Y-1.975
X3.43Y-3.22
X3.43Y-3.32
X3.43Y-3.42
X3.43Y-3.52
X3.43Y-3.62
X3.43Y-3.72
X3.43Y-3.82
X3.43Y-3.92
X4.37Y-1.3
X4.37Y-1.4
X4.37Y-1.5
X4.37Y-1.6
X4.37Y-1.7
X4.37Y-1.8
X4.37Y-1.9
X4.37Y-2.0
X4.67Y-1.3
X4.67Y-1.4
X4.67Y-1.5
X4.67Y-1.6
X4.67Y-1.7
X4.67Y-1.8
X4.67Y-1.9
X4.67Y-2.0
X3.7995Y-1.05
X3.43Y-4.23
X3.43Y-4.33
X3.43Y-4.43
X3.43Y-4.53
X3.43Y-4.63
X3.43Y-4.73
X3.43Y-4.83
X3.43Y-4.93
X3.45Y-2.18
X3.45Y-2.28
X3.45Y-2.38
X3.45Y-2.48
X3.45Y-2.58
X3.45Y-2.68
X3.45Y-2.78
X3.45Y-2.88
X2.8723Y-1.05
X2.38Y-1.045
X0.99Y-1.38
X0.99Y-1.48
X0.99Y-1.58
X0.99Y-1.68
X0.99Y-1.78
X0.99Y-1.88
X0.99Y-1.98
X0.99Y-2.08
X4.655Y-2.305
X4.655Y-2.405
X4.655Y-2.505
X4.655Y-2.605
X4.655Y-2.705
X4.655Y-2.805
X4.655Y-2.905
X4.655Y-3.005
X4.955Y-2.305
X4.955Y-2.405
X4.955Y-2.505
X4.955Y-2.605
X4.955Y-2.705
X4.955Y-2.805
X4.955Y-2.905
X4.955Y-3.005
X4.37Y-3.225
X4.37Y-3.325
X4.37Y-3.425
X4.37Y-3.525
X4.37Y-3.625
X4.37Y-3.725
X4.37Y-3.825
X4.37Y-3.925
X4.67Y-3.225
X4.67Y-3.325
X4.67Y-3.425
X4.67Y-3.525
X4.67Y-3.625
X4.67Y-3.725
X4.67Y-3.825
X4.67Y-3.925
X3.5677Y-1.05
X1.87Y-3.2
X1.87Y-3.3
X1.87Y-3.4
X1.87Y-3.5
X1.87Y-3.6
X1.87Y-3.7
X1.87Y-3.8
X1.87Y-3.9
X2.17Y-3.2
X2.17Y-3.3
X2.17Y-3.4
X2.17Y-3.5
X2.17Y-3.6
X2.17Y-3.7
X2.17Y-3.8
X2.17Y-3.9
X0.99Y-2.88
X0.99Y-2.98
X0.99Y-3.08
X0.99Y-3.18
X0.99Y-3.28
X0.99Y-3.38
X0.99Y-3.48
X0.99Y-3.58
T5
X5.15Y-2.975
X5.75Y-2.975
X3.605Y-1.32
X4.205Y-1.32
X5.15Y-1.725
X5.75Y-1.725
X2.695Y-4.625
X3.295Y-4.625
X2.695Y-2.2
X3.295Y-2.2
X1.135Y-3.855
X1.735Y-3.855
X2.7Y-1.45
X3.3Y-1.45
X5.155Y-4.425
X5.755Y-4.425
X4.845Y-3.375
X4.845Y-3.975
X1.135Y-2.33
X1.735Y-2.33
X2.695Y-1.7
X3.295Y-1.7
X5.15Y-2.725
X5.75Y-2.725
X1.135Y-3.105
X1.735Y-3.105
X2.695Y-1.95
X3.295Y-1.95
X4.85Y-1.415
X4.85Y-2.015
X3.605Y-2.32
X4.205Y-2.32
X2.695Y-3.375
X3.295Y-3.375
X5.155Y-3.925
X5.755Y-3.925
X3.57Y-4.25
X4.17Y-4.25
X2.695Y-3.625
X3.295Y-3.625
X5.155Y-4.175
X5.755Y-4.175
X1.135Y-1.33
X1.735Y-1.33
X1.135Y-2.58
X1.735Y-2.58
X5.15Y-1.475
X5.75Y-1.475
X3.57Y-4.75
X4.17Y-4.75
X5.15Y-2.475
X5.75Y-2.475
X2.695Y-4.125
X3.295Y-4.125
X3.605Y-2.82
X4.205Y-2.82
X2.695Y-4.375
X3.295Y-4.375
X5.155Y-3.425
X5.755Y-3.425
X3.57Y-3.5
X4.17Y-3.5
X5.15Y-2.225
X5.75Y-2.225
X2.695Y-4.875
X3.295Y-4.875
X2.03Y-2.24
X2.03Y-2.84
X2.695Y-3.875
X3.295Y-3.875
X4.475Y-2.44
X4.475Y-3.04
X1.135Y-3.605
X1.735Y-3.605
X3.57Y-4.0
X4.17Y-4.0
X1.135Y-4.355
X1.735Y-4.355
X5.155Y-4.675
X5.755Y-4.675
X1.135Y-1.58
X1.735Y-1.58
X2.695Y-2.45
X3.295Y-2.45
X1.135Y-2.855
X1.735Y-2.855
X3.605Y-2.57
X4.205Y-2.57
X2.36Y-3.35
X2.36Y-3.95
X2.695Y-2.7
X3.295Y-2.7
X3.57Y-3.75
X4.17Y-3.75
X3.57Y-3.25
X4.17Y-3.25
X5.155Y-3.675
X5.755Y-3.675
X1.135Y-1.83
X1.735Y-1.83
X2.695Y-2.95
X3.295Y-2.95
X3.57Y-4.5
X4.17Y-4.5
X3.605Y-1.82
X4.205Y-1.82
X1.135Y-3.355
X1.735Y-3.355
X2.415Y-1.43
X2.415Y-2.03
X1.135Y-2.08
X1.735Y-2.08
X3.605Y-2.07
X4.205Y-2.07
X5.15Y-1.975
X5.75Y-1.975
X1.965Y-4.335
X1.965Y-4.935
X3.605Y-1.57
X4.205Y-1.57
X1.135Y-4.105
X1.735Y-4.105
X5.155Y-4.925
X5.755Y-4.925
X4.45Y-4.345
X4.45Y-4.945
X1.135Y-1.08
X1.735Y-1.08
T6
X2.82Y-3.16
X4.7225Y-0.945
X1.0325Y-4.955
X5.82Y-0.95
T0
M30
