G04 #@! TF.GenerationSoftware,KiCad,Pcbnew,(5.1.5)-3*
G04 #@! TF.CreationDate,2020-06-28T21:35:15-07:00*
G04 #@! TF.ProjectId,LED_MATRIX_SHEET_2,4c45445f-4d41-4545-9249-585f53484545,rev?*
G04 #@! TF.SameCoordinates,Original*
G04 #@! TF.FileFunction,Legend,Top*
G04 #@! TF.FilePolarity,Positive*
%FSLAX46Y46*%
G04 Gerber Fmt 4.6, Leading zero omitted, Abs format (unit mm)*
G04 Created by KiCad (PCBNEW (5.1.5)-3) date 2020-06-28 21:35:15*
%MOMM*%
%LPD*%
G04 APERTURE LIST*
%ADD10C,0.300000*%
%ADD11C,0.254000*%
%ADD12C,0.120000*%
%ADD13C,0.100000*%
%ADD14C,0.150000*%
G04 APERTURE END LIST*
D10*
X25837428Y-115764571D02*
X25837428Y-116836000D01*
X25766000Y-117050285D01*
X25623142Y-117193142D01*
X25408857Y-117264571D01*
X25266000Y-117264571D01*
X27266000Y-117264571D02*
X26551714Y-117264571D01*
X26551714Y-115764571D01*
X28623142Y-117121714D02*
X28551714Y-117193142D01*
X28337428Y-117264571D01*
X28194571Y-117264571D01*
X27980285Y-117193142D01*
X27837428Y-117050285D01*
X27766000Y-116907428D01*
X27694571Y-116621714D01*
X27694571Y-116407428D01*
X27766000Y-116121714D01*
X27837428Y-115978857D01*
X27980285Y-115836000D01*
X28194571Y-115764571D01*
X28337428Y-115764571D01*
X28551714Y-115836000D01*
X28623142Y-115907428D01*
X29694571Y-115764571D02*
X29694571Y-116836000D01*
X29623142Y-117050285D01*
X29480285Y-117193142D01*
X29266000Y-117264571D01*
X29123142Y-117264571D01*
X31123142Y-117264571D02*
X30408857Y-117264571D01*
X30408857Y-115764571D01*
X32480285Y-117121714D02*
X32408857Y-117193142D01*
X32194571Y-117264571D01*
X32051714Y-117264571D01*
X31837428Y-117193142D01*
X31694571Y-117050285D01*
X31623142Y-116907428D01*
X31551714Y-116621714D01*
X31551714Y-116407428D01*
X31623142Y-116121714D01*
X31694571Y-115978857D01*
X31837428Y-115836000D01*
X32051714Y-115764571D01*
X32194571Y-115764571D01*
X32408857Y-115836000D01*
X32480285Y-115907428D01*
X33551714Y-115764571D02*
X33551714Y-116836000D01*
X33480285Y-117050285D01*
X33337428Y-117193142D01*
X33123142Y-117264571D01*
X32980285Y-117264571D01*
X34980285Y-117264571D02*
X34266000Y-117264571D01*
X34266000Y-115764571D01*
X36337428Y-117121714D02*
X36266000Y-117193142D01*
X36051714Y-117264571D01*
X35908857Y-117264571D01*
X35694571Y-117193142D01*
X35551714Y-117050285D01*
X35480285Y-116907428D01*
X35408857Y-116621714D01*
X35408857Y-116407428D01*
X35480285Y-116121714D01*
X35551714Y-115978857D01*
X35694571Y-115836000D01*
X35908857Y-115764571D01*
X36051714Y-115764571D01*
X36266000Y-115836000D01*
X36337428Y-115907428D01*
X37408857Y-115764571D02*
X37408857Y-116836000D01*
X37337428Y-117050285D01*
X37194571Y-117193142D01*
X36980285Y-117264571D01*
X36837428Y-117264571D01*
X38837428Y-117264571D02*
X38123142Y-117264571D01*
X38123142Y-115764571D01*
X40194571Y-117121714D02*
X40123142Y-117193142D01*
X39908857Y-117264571D01*
X39766000Y-117264571D01*
X39551714Y-117193142D01*
X39408857Y-117050285D01*
X39337428Y-116907428D01*
X39266000Y-116621714D01*
X39266000Y-116407428D01*
X39337428Y-116121714D01*
X39408857Y-115978857D01*
X39551714Y-115836000D01*
X39766000Y-115764571D01*
X39908857Y-115764571D01*
X40123142Y-115836000D01*
X40194571Y-115907428D01*
D11*
X129431142Y-31320619D02*
X128947333Y-31320619D01*
X128947333Y-30304619D01*
X129769809Y-30788428D02*
X130108476Y-30788428D01*
X130253619Y-31320619D02*
X129769809Y-31320619D01*
X129769809Y-30304619D01*
X130253619Y-30304619D01*
X130689047Y-31320619D02*
X130689047Y-30304619D01*
X130930952Y-30304619D01*
X131076095Y-30353000D01*
X131172857Y-30449761D01*
X131221238Y-30546523D01*
X131269619Y-30740047D01*
X131269619Y-30885190D01*
X131221238Y-31078714D01*
X131172857Y-31175476D01*
X131076095Y-31272238D01*
X130930952Y-31320619D01*
X130689047Y-31320619D01*
X133059714Y-31223857D02*
X133011333Y-31272238D01*
X132866190Y-31320619D01*
X132769428Y-31320619D01*
X132624285Y-31272238D01*
X132527523Y-31175476D01*
X132479142Y-31078714D01*
X132430761Y-30885190D01*
X132430761Y-30740047D01*
X132479142Y-30546523D01*
X132527523Y-30449761D01*
X132624285Y-30353000D01*
X132769428Y-30304619D01*
X132866190Y-30304619D01*
X133011333Y-30353000D01*
X133059714Y-30401380D01*
X133930571Y-30643285D02*
X133930571Y-31320619D01*
X133495142Y-30643285D02*
X133495142Y-31175476D01*
X133543523Y-31272238D01*
X133640285Y-31320619D01*
X133785428Y-31320619D01*
X133882190Y-31272238D01*
X133930571Y-31223857D01*
X134414380Y-31320619D02*
X134414380Y-30304619D01*
X134414380Y-30691666D02*
X134511142Y-30643285D01*
X134704666Y-30643285D01*
X134801428Y-30691666D01*
X134849809Y-30740047D01*
X134898190Y-30836809D01*
X134898190Y-31127095D01*
X134849809Y-31223857D01*
X134801428Y-31272238D01*
X134704666Y-31320619D01*
X134511142Y-31320619D01*
X134414380Y-31272238D01*
X135720666Y-31272238D02*
X135623904Y-31320619D01*
X135430380Y-31320619D01*
X135333619Y-31272238D01*
X135285238Y-31175476D01*
X135285238Y-30788428D01*
X135333619Y-30691666D01*
X135430380Y-30643285D01*
X135623904Y-30643285D01*
X135720666Y-30691666D01*
X135769047Y-30788428D01*
X135769047Y-30885190D01*
X135285238Y-30981952D01*
X137559142Y-31223857D02*
X137510761Y-31272238D01*
X137365619Y-31320619D01*
X137268857Y-31320619D01*
X137123714Y-31272238D01*
X137026952Y-31175476D01*
X136978571Y-31078714D01*
X136930190Y-30885190D01*
X136930190Y-30740047D01*
X136978571Y-30546523D01*
X137026952Y-30449761D01*
X137123714Y-30353000D01*
X137268857Y-30304619D01*
X137365619Y-30304619D01*
X137510761Y-30353000D01*
X137559142Y-30401380D01*
X138139714Y-31320619D02*
X138042952Y-31272238D01*
X137994571Y-31223857D01*
X137946190Y-31127095D01*
X137946190Y-30836809D01*
X137994571Y-30740047D01*
X138042952Y-30691666D01*
X138139714Y-30643285D01*
X138284857Y-30643285D01*
X138381619Y-30691666D01*
X138430000Y-30740047D01*
X138478380Y-30836809D01*
X138478380Y-31127095D01*
X138430000Y-31223857D01*
X138381619Y-31272238D01*
X138284857Y-31320619D01*
X138139714Y-31320619D01*
X138913809Y-30643285D02*
X138913809Y-31320619D01*
X138913809Y-30740047D02*
X138962190Y-30691666D01*
X139058952Y-30643285D01*
X139204095Y-30643285D01*
X139300857Y-30691666D01*
X139349238Y-30788428D01*
X139349238Y-31320619D01*
X139687904Y-30643285D02*
X140074952Y-30643285D01*
X139833047Y-30304619D02*
X139833047Y-31175476D01*
X139881428Y-31272238D01*
X139978190Y-31320619D01*
X140074952Y-31320619D01*
X140413619Y-31320619D02*
X140413619Y-30643285D01*
X140413619Y-30836809D02*
X140462000Y-30740047D01*
X140510380Y-30691666D01*
X140607142Y-30643285D01*
X140703904Y-30643285D01*
X141187714Y-31320619D02*
X141090952Y-31272238D01*
X141042571Y-31223857D01*
X140994190Y-31127095D01*
X140994190Y-30836809D01*
X141042571Y-30740047D01*
X141090952Y-30691666D01*
X141187714Y-30643285D01*
X141332857Y-30643285D01*
X141429619Y-30691666D01*
X141478000Y-30740047D01*
X141526380Y-30836809D01*
X141526380Y-31127095D01*
X141478000Y-31223857D01*
X141429619Y-31272238D01*
X141332857Y-31320619D01*
X141187714Y-31320619D01*
X142106952Y-31320619D02*
X142010190Y-31272238D01*
X141961809Y-31175476D01*
X141961809Y-30304619D01*
X143606761Y-30788428D02*
X143751904Y-30836809D01*
X143800285Y-30885190D01*
X143848666Y-30981952D01*
X143848666Y-31127095D01*
X143800285Y-31223857D01*
X143751904Y-31272238D01*
X143655142Y-31320619D01*
X143268095Y-31320619D01*
X143268095Y-30304619D01*
X143606761Y-30304619D01*
X143703523Y-30353000D01*
X143751904Y-30401380D01*
X143800285Y-30498142D01*
X143800285Y-30594904D01*
X143751904Y-30691666D01*
X143703523Y-30740047D01*
X143606761Y-30788428D01*
X143268095Y-30788428D01*
X144429238Y-31320619D02*
X144332476Y-31272238D01*
X144284095Y-31223857D01*
X144235714Y-31127095D01*
X144235714Y-30836809D01*
X144284095Y-30740047D01*
X144332476Y-30691666D01*
X144429238Y-30643285D01*
X144574380Y-30643285D01*
X144671142Y-30691666D01*
X144719523Y-30740047D01*
X144767904Y-30836809D01*
X144767904Y-31127095D01*
X144719523Y-31223857D01*
X144671142Y-31272238D01*
X144574380Y-31320619D01*
X144429238Y-31320619D01*
X145638761Y-31320619D02*
X145638761Y-30788428D01*
X145590380Y-30691666D01*
X145493619Y-30643285D01*
X145300095Y-30643285D01*
X145203333Y-30691666D01*
X145638761Y-31272238D02*
X145542000Y-31320619D01*
X145300095Y-31320619D01*
X145203333Y-31272238D01*
X145154952Y-31175476D01*
X145154952Y-31078714D01*
X145203333Y-30981952D01*
X145300095Y-30933571D01*
X145542000Y-30933571D01*
X145638761Y-30885190D01*
X146122571Y-31320619D02*
X146122571Y-30643285D01*
X146122571Y-30836809D02*
X146170952Y-30740047D01*
X146219333Y-30691666D01*
X146316095Y-30643285D01*
X146412857Y-30643285D01*
X147186952Y-31320619D02*
X147186952Y-30304619D01*
X147186952Y-31272238D02*
X147090190Y-31320619D01*
X146896666Y-31320619D01*
X146799904Y-31272238D01*
X146751523Y-31223857D01*
X146703142Y-31127095D01*
X146703142Y-30836809D01*
X146751523Y-30740047D01*
X146799904Y-30691666D01*
X146896666Y-30643285D01*
X147090190Y-30643285D01*
X147186952Y-30691666D01*
X148396476Y-30401380D02*
X148444857Y-30353000D01*
X148541619Y-30304619D01*
X148783523Y-30304619D01*
X148880285Y-30353000D01*
X148928666Y-30401380D01*
X148977047Y-30498142D01*
X148977047Y-30594904D01*
X148928666Y-30740047D01*
X148348095Y-31320619D01*
X148977047Y-31320619D01*
X129358571Y-33098619D02*
X129358571Y-32082619D01*
X129600476Y-32082619D01*
X129745619Y-32131000D01*
X129842380Y-32227761D01*
X129890761Y-32324523D01*
X129939142Y-32518047D01*
X129939142Y-32663190D01*
X129890761Y-32856714D01*
X129842380Y-32953476D01*
X129745619Y-33050238D01*
X129600476Y-33098619D01*
X129358571Y-33098619D01*
X130761619Y-33050238D02*
X130664857Y-33098619D01*
X130471333Y-33098619D01*
X130374571Y-33050238D01*
X130326190Y-32953476D01*
X130326190Y-32566428D01*
X130374571Y-32469666D01*
X130471333Y-32421285D01*
X130664857Y-32421285D01*
X130761619Y-32469666D01*
X130810000Y-32566428D01*
X130810000Y-32663190D01*
X130326190Y-32759952D01*
X131197047Y-33050238D02*
X131293809Y-33098619D01*
X131487333Y-33098619D01*
X131584095Y-33050238D01*
X131632476Y-32953476D01*
X131632476Y-32905095D01*
X131584095Y-32808333D01*
X131487333Y-32759952D01*
X131342190Y-32759952D01*
X131245428Y-32711571D01*
X131197047Y-32614809D01*
X131197047Y-32566428D01*
X131245428Y-32469666D01*
X131342190Y-32421285D01*
X131487333Y-32421285D01*
X131584095Y-32469666D01*
X132067904Y-33098619D02*
X132067904Y-32421285D01*
X132067904Y-32082619D02*
X132019523Y-32131000D01*
X132067904Y-32179380D01*
X132116285Y-32131000D01*
X132067904Y-32082619D01*
X132067904Y-32179380D01*
X132987142Y-32421285D02*
X132987142Y-33243761D01*
X132938761Y-33340523D01*
X132890380Y-33388904D01*
X132793619Y-33437285D01*
X132648476Y-33437285D01*
X132551714Y-33388904D01*
X132987142Y-33050238D02*
X132890380Y-33098619D01*
X132696857Y-33098619D01*
X132600095Y-33050238D01*
X132551714Y-33001857D01*
X132503333Y-32905095D01*
X132503333Y-32614809D01*
X132551714Y-32518047D01*
X132600095Y-32469666D01*
X132696857Y-32421285D01*
X132890380Y-32421285D01*
X132987142Y-32469666D01*
X133470952Y-32421285D02*
X133470952Y-33098619D01*
X133470952Y-32518047D02*
X133519333Y-32469666D01*
X133616095Y-32421285D01*
X133761238Y-32421285D01*
X133858000Y-32469666D01*
X133906380Y-32566428D01*
X133906380Y-33098619D01*
X134777238Y-33050238D02*
X134680476Y-33098619D01*
X134486952Y-33098619D01*
X134390190Y-33050238D01*
X134341809Y-32953476D01*
X134341809Y-32566428D01*
X134390190Y-32469666D01*
X134486952Y-32421285D01*
X134680476Y-32421285D01*
X134777238Y-32469666D01*
X134825619Y-32566428D01*
X134825619Y-32663190D01*
X134341809Y-32759952D01*
X135696476Y-33098619D02*
X135696476Y-32082619D01*
X135696476Y-33050238D02*
X135599714Y-33098619D01*
X135406190Y-33098619D01*
X135309428Y-33050238D01*
X135261047Y-33001857D01*
X135212666Y-32905095D01*
X135212666Y-32614809D01*
X135261047Y-32518047D01*
X135309428Y-32469666D01*
X135406190Y-32421285D01*
X135599714Y-32421285D01*
X135696476Y-32469666D01*
X137293047Y-32566428D02*
X137438190Y-32614809D01*
X137486571Y-32663190D01*
X137534952Y-32759952D01*
X137534952Y-32905095D01*
X137486571Y-33001857D01*
X137438190Y-33050238D01*
X137341428Y-33098619D01*
X136954380Y-33098619D01*
X136954380Y-32082619D01*
X137293047Y-32082619D01*
X137389809Y-32131000D01*
X137438190Y-32179380D01*
X137486571Y-32276142D01*
X137486571Y-32372904D01*
X137438190Y-32469666D01*
X137389809Y-32518047D01*
X137293047Y-32566428D01*
X136954380Y-32566428D01*
X137873619Y-32421285D02*
X138115523Y-33098619D01*
X138357428Y-32421285D02*
X138115523Y-33098619D01*
X138018761Y-33340523D01*
X137970380Y-33388904D01*
X137873619Y-33437285D01*
X138744476Y-33001857D02*
X138792857Y-33050238D01*
X138744476Y-33098619D01*
X138696095Y-33050238D01*
X138744476Y-33001857D01*
X138744476Y-33098619D01*
X138744476Y-32469666D02*
X138792857Y-32518047D01*
X138744476Y-32566428D01*
X138696095Y-32518047D01*
X138744476Y-32469666D01*
X138744476Y-32566428D01*
X140002380Y-32566428D02*
X140341047Y-32566428D01*
X140486190Y-33098619D02*
X140002380Y-33098619D01*
X140002380Y-32082619D01*
X140486190Y-32082619D01*
X140921619Y-33098619D02*
X140921619Y-32421285D01*
X140921619Y-32518047D02*
X140970000Y-32469666D01*
X141066761Y-32421285D01*
X141211904Y-32421285D01*
X141308666Y-32469666D01*
X141357047Y-32566428D01*
X141357047Y-33098619D01*
X141357047Y-32566428D02*
X141405428Y-32469666D01*
X141502190Y-32421285D01*
X141647333Y-32421285D01*
X141744095Y-32469666D01*
X141792476Y-32566428D01*
X141792476Y-33098619D01*
X142663333Y-33050238D02*
X142566571Y-33098619D01*
X142373047Y-33098619D01*
X142276285Y-33050238D01*
X142227904Y-32953476D01*
X142227904Y-32566428D01*
X142276285Y-32469666D01*
X142373047Y-32421285D01*
X142566571Y-32421285D01*
X142663333Y-32469666D01*
X142711714Y-32566428D01*
X142711714Y-32663190D01*
X142227904Y-32759952D01*
X143147142Y-33098619D02*
X143147142Y-32421285D01*
X143147142Y-32614809D02*
X143195523Y-32518047D01*
X143243904Y-32469666D01*
X143340666Y-32421285D01*
X143437428Y-32421285D01*
X143679333Y-32421285D02*
X143921238Y-33098619D01*
X144163142Y-32421285D02*
X143921238Y-33098619D01*
X143824476Y-33340523D01*
X143776095Y-33388904D01*
X143679333Y-33437285D01*
X145324285Y-33098619D02*
X145324285Y-32082619D01*
X145904857Y-33098619D01*
X145904857Y-32082619D01*
X146824095Y-33098619D02*
X146824095Y-32566428D01*
X146775714Y-32469666D01*
X146678952Y-32421285D01*
X146485428Y-32421285D01*
X146388666Y-32469666D01*
X146824095Y-33050238D02*
X146727333Y-33098619D01*
X146485428Y-33098619D01*
X146388666Y-33050238D01*
X146340285Y-32953476D01*
X146340285Y-32856714D01*
X146388666Y-32759952D01*
X146485428Y-32711571D01*
X146727333Y-32711571D01*
X146824095Y-32663190D01*
X147743333Y-32421285D02*
X147743333Y-33243761D01*
X147694952Y-33340523D01*
X147646571Y-33388904D01*
X147549809Y-33437285D01*
X147404666Y-33437285D01*
X147307904Y-33388904D01*
X147743333Y-33050238D02*
X147646571Y-33098619D01*
X147453047Y-33098619D01*
X147356285Y-33050238D01*
X147307904Y-33001857D01*
X147259523Y-32905095D01*
X147259523Y-32614809D01*
X147307904Y-32518047D01*
X147356285Y-32469666D01*
X147453047Y-32421285D01*
X147646571Y-32421285D01*
X147743333Y-32469666D01*
X148130380Y-32421285D02*
X148372285Y-33098619D01*
X148614190Y-32421285D02*
X148372285Y-33098619D01*
X148275523Y-33340523D01*
X148227142Y-33388904D01*
X148130380Y-33437285D01*
D12*
X29179000Y-107647000D02*
X29179000Y-108977000D01*
X43719000Y-107647000D02*
X29179000Y-107647000D01*
X43719000Y-108977000D02*
X43719000Y-107647000D01*
X29179000Y-113587000D02*
X29179000Y-112257000D01*
X43719000Y-113587000D02*
X29179000Y-113587000D01*
X43719000Y-112257000D02*
X43719000Y-113587000D01*
X83343000Y-95045000D02*
X83343000Y-93715000D01*
X68803000Y-95045000D02*
X83343000Y-95045000D01*
X68803000Y-93715000D02*
X68803000Y-95045000D01*
X83343000Y-89105000D02*
X83343000Y-90435000D01*
X68803000Y-89105000D02*
X83343000Y-89105000D01*
X68803000Y-90435000D02*
X68803000Y-89105000D01*
X83470000Y-39800000D02*
X83470000Y-38470000D01*
X68930000Y-39800000D02*
X83470000Y-39800000D01*
X68930000Y-38470000D02*
X68930000Y-39800000D01*
X83470000Y-33860000D02*
X83470000Y-35190000D01*
X68930000Y-33860000D02*
X83470000Y-33860000D01*
X68930000Y-35190000D02*
X68930000Y-33860000D01*
X149860000Y-114614000D02*
X148530000Y-114614000D01*
X148530000Y-114614000D02*
X148530000Y-113284000D01*
X148530000Y-112014000D02*
X148530000Y-94174000D01*
X151190000Y-94174000D02*
X148530000Y-94174000D01*
X151190000Y-112014000D02*
X151190000Y-94174000D01*
X151190000Y-112014000D02*
X148530000Y-112014000D01*
X87122000Y-106112000D02*
X88452000Y-106112000D01*
X88452000Y-106112000D02*
X88452000Y-107442000D01*
X88452000Y-108712000D02*
X88452000Y-126552000D01*
X85792000Y-126552000D02*
X88452000Y-126552000D01*
X85792000Y-108712000D02*
X85792000Y-126552000D01*
X85792000Y-108712000D02*
X88452000Y-108712000D01*
X87122000Y-100898000D02*
X85792000Y-100898000D01*
X85792000Y-100898000D02*
X85792000Y-99568000D01*
X85792000Y-98298000D02*
X85792000Y-80458000D01*
X88452000Y-80458000D02*
X85792000Y-80458000D01*
X88452000Y-98298000D02*
X88452000Y-80458000D01*
X88452000Y-98298000D02*
X85792000Y-98298000D01*
X25146000Y-71822000D02*
X26476000Y-71822000D01*
X26476000Y-71822000D02*
X26476000Y-73152000D01*
X26476000Y-74422000D02*
X26476000Y-92262000D01*
X23816000Y-92262000D02*
X26476000Y-92262000D01*
X23816000Y-74422000D02*
X23816000Y-92262000D01*
X23816000Y-74422000D02*
X26476000Y-74422000D01*
X87630000Y-54042000D02*
X88960000Y-54042000D01*
X88960000Y-54042000D02*
X88960000Y-55372000D01*
X88960000Y-56642000D02*
X88960000Y-74482000D01*
X86300000Y-74482000D02*
X88960000Y-74482000D01*
X86300000Y-56642000D02*
X86300000Y-74482000D01*
X86300000Y-56642000D02*
X88960000Y-56642000D01*
X149860000Y-63814000D02*
X148530000Y-63814000D01*
X148530000Y-63814000D02*
X148530000Y-62484000D01*
X148530000Y-61214000D02*
X148530000Y-43374000D01*
X151190000Y-43374000D02*
X148530000Y-43374000D01*
X151190000Y-61214000D02*
X151190000Y-43374000D01*
X151190000Y-61214000D02*
X148530000Y-61214000D01*
X87630000Y-52638000D02*
X86300000Y-52638000D01*
X86300000Y-52638000D02*
X86300000Y-51308000D01*
X86300000Y-50038000D02*
X86300000Y-32198000D01*
X88960000Y-32198000D02*
X86300000Y-32198000D01*
X88960000Y-50038000D02*
X88960000Y-32198000D01*
X88960000Y-50038000D02*
X86300000Y-50038000D01*
X25146000Y-33722000D02*
X26476000Y-33722000D01*
X26476000Y-33722000D02*
X26476000Y-35052000D01*
X26476000Y-36322000D02*
X26476000Y-54162000D01*
X23816000Y-54162000D02*
X26476000Y-54162000D01*
X23816000Y-36322000D02*
X23816000Y-54162000D01*
X23816000Y-36322000D02*
X26476000Y-36322000D01*
D13*
X64089000Y-56865000D02*
X64089000Y-56665000D01*
X64089000Y-56665000D02*
X63789000Y-56665000D01*
X57489000Y-56665000D02*
X57189000Y-56665000D01*
X57189000Y-56665000D02*
X57189000Y-56865000D01*
X64469000Y-76765000D02*
X64719000Y-76765000D01*
X64089000Y-76765000D02*
X64459000Y-76765000D01*
X62789000Y-77765000D02*
X63089000Y-77765000D01*
X63089000Y-77765000D02*
X64089000Y-76765000D01*
X57109000Y-77175000D02*
X57109000Y-77575000D01*
X57109000Y-77575000D02*
X57509000Y-77575000D01*
X54778000Y-79270000D02*
X54378000Y-79270000D01*
X54778000Y-79670000D02*
X54778000Y-79270000D01*
X48798000Y-79080000D02*
X47798000Y-80080000D01*
X49098000Y-79080000D02*
X48798000Y-79080000D01*
X47798000Y-80080000D02*
X47428000Y-80080000D01*
X47418000Y-80080000D02*
X47168000Y-80080000D01*
X54698000Y-100180000D02*
X54698000Y-99980000D01*
X54398000Y-100180000D02*
X54698000Y-100180000D01*
X47798000Y-100180000D02*
X48098000Y-100180000D01*
X47798000Y-99980000D02*
X47798000Y-100180000D01*
D12*
X106457000Y-54218000D02*
X106457000Y-55548000D01*
X106457000Y-55548000D02*
X91917000Y-55548000D01*
X91917000Y-55548000D02*
X91917000Y-54218000D01*
X106457000Y-50938000D02*
X106457000Y-49608000D01*
X106457000Y-49608000D02*
X91917000Y-49608000D01*
X91917000Y-49608000D02*
X91917000Y-50938000D01*
X83343000Y-71550000D02*
X83343000Y-70220000D01*
X68803000Y-71550000D02*
X83343000Y-71550000D01*
X68803000Y-70220000D02*
X68803000Y-71550000D01*
X83343000Y-65610000D02*
X83343000Y-66940000D01*
X68803000Y-65610000D02*
X83343000Y-65610000D01*
X68803000Y-66940000D02*
X68803000Y-65610000D01*
X65429000Y-78775000D02*
X65429000Y-82515000D01*
X58189000Y-78775000D02*
X58189000Y-82515000D01*
X58189000Y-82515000D02*
X65429000Y-82515000D01*
X58189000Y-78775000D02*
X65429000Y-78775000D01*
D13*
X47798000Y-51085000D02*
X47798000Y-51285000D01*
X47798000Y-51285000D02*
X48098000Y-51285000D01*
X54398000Y-51285000D02*
X54698000Y-51285000D01*
X54698000Y-51285000D02*
X54698000Y-51085000D01*
X47418000Y-31185000D02*
X47168000Y-31185000D01*
X47798000Y-31185000D02*
X47428000Y-31185000D01*
X49098000Y-30185000D02*
X48798000Y-30185000D01*
X48798000Y-30185000D02*
X47798000Y-31185000D01*
X54778000Y-30775000D02*
X54778000Y-30375000D01*
X54778000Y-30375000D02*
X54378000Y-30375000D01*
D12*
X63651000Y-30261000D02*
X63651000Y-34001000D01*
X56411000Y-30261000D02*
X56411000Y-34001000D01*
X56411000Y-34001000D02*
X63651000Y-34001000D01*
X56411000Y-30261000D02*
X63651000Y-30261000D01*
X55349000Y-78578000D02*
X48109000Y-78578000D01*
X55349000Y-74838000D02*
X48109000Y-74838000D01*
X55349000Y-78578000D02*
X55349000Y-74838000D01*
X48109000Y-78578000D02*
X48109000Y-74838000D01*
X118722000Y-56480000D02*
X111482000Y-56480000D01*
X118722000Y-52740000D02*
X111482000Y-52740000D01*
X118722000Y-56480000D02*
X118722000Y-52740000D01*
X111482000Y-56480000D02*
X111482000Y-52740000D01*
X120165000Y-29372000D02*
X127405000Y-29372000D01*
X120165000Y-33112000D02*
X127405000Y-33112000D01*
X120165000Y-29372000D02*
X120165000Y-33112000D01*
X127405000Y-29372000D02*
X127405000Y-33112000D01*
X54841000Y-104867000D02*
X47601000Y-104867000D01*
X54841000Y-101127000D02*
X47601000Y-101127000D01*
X54841000Y-104867000D02*
X54841000Y-101127000D01*
X47601000Y-104867000D02*
X47601000Y-101127000D01*
X127405000Y-79537000D02*
X127405000Y-83277000D01*
X120165000Y-79537000D02*
X120165000Y-83277000D01*
X120165000Y-83277000D02*
X127405000Y-83277000D01*
X120165000Y-79537000D02*
X127405000Y-79537000D01*
X110720000Y-105121000D02*
X110720000Y-101381000D01*
X117960000Y-105121000D02*
X117960000Y-101381000D01*
X117960000Y-101381000D02*
X110720000Y-101381000D01*
X117960000Y-105121000D02*
X110720000Y-105121000D01*
X50654000Y-26670000D02*
G75*
G03X50654000Y-26670000I-1251000J0D01*
G01*
X56542181Y-26670000D02*
G75*
G03X56542181Y-26670000I-1251000J0D01*
G01*
X67799000Y-26797000D02*
G75*
G03X67799000Y-26797000I-1251000J0D01*
G01*
X61703000Y-26543000D02*
G75*
G03X61703000Y-26543000I-1251000J0D01*
G01*
X74206724Y-26670000D02*
G75*
G03X74206724Y-26670000I-1251000J0D01*
G01*
X80094905Y-26670000D02*
G75*
G03X80094905Y-26670000I-1251000J0D01*
G01*
X85983086Y-26670000D02*
G75*
G03X85983086Y-26670000I-1251000J0D01*
G01*
X91871267Y-26670000D02*
G75*
G03X91871267Y-26670000I-1251000J0D01*
G01*
X97759448Y-26670000D02*
G75*
G03X97759448Y-26670000I-1251000J0D01*
G01*
X103647629Y-26670000D02*
G75*
G03X103647629Y-26670000I-1251000J0D01*
G01*
X109535810Y-26670000D02*
G75*
G03X109535810Y-26670000I-1251000J0D01*
G01*
X115424000Y-26670000D02*
G75*
G03X115424000Y-26670000I-1251000J0D01*
G01*
X43719000Y-67172000D02*
X43719000Y-68502000D01*
X43719000Y-68502000D02*
X29179000Y-68502000D01*
X29179000Y-68502000D02*
X29179000Y-67172000D01*
X43719000Y-63892000D02*
X43719000Y-62562000D01*
X43719000Y-62562000D02*
X29179000Y-62562000D01*
X29179000Y-62562000D02*
X29179000Y-63892000D01*
X29179000Y-56212000D02*
X29179000Y-57542000D01*
X43719000Y-56212000D02*
X29179000Y-56212000D01*
X43719000Y-57542000D02*
X43719000Y-56212000D01*
X29179000Y-62152000D02*
X29179000Y-60822000D01*
X43719000Y-62152000D02*
X29179000Y-62152000D01*
X43719000Y-60822000D02*
X43719000Y-62152000D01*
X29179000Y-49862000D02*
X29179000Y-51192000D01*
X43719000Y-49862000D02*
X29179000Y-49862000D01*
X43719000Y-51192000D02*
X43719000Y-49862000D01*
X29179000Y-55802000D02*
X29179000Y-54472000D01*
X43719000Y-55802000D02*
X29179000Y-55802000D01*
X43719000Y-54472000D02*
X43719000Y-55802000D01*
X43719000Y-48122000D02*
X43719000Y-49452000D01*
X43719000Y-49452000D02*
X29179000Y-49452000D01*
X29179000Y-49452000D02*
X29179000Y-48122000D01*
X43719000Y-44842000D02*
X43719000Y-43512000D01*
X43719000Y-43512000D02*
X29179000Y-43512000D01*
X29179000Y-43512000D02*
X29179000Y-44842000D01*
X29179000Y-37162000D02*
X29179000Y-38492000D01*
X43719000Y-37162000D02*
X29179000Y-37162000D01*
X43719000Y-38492000D02*
X43719000Y-37162000D01*
X29179000Y-43102000D02*
X29179000Y-41772000D01*
X43719000Y-43102000D02*
X29179000Y-43102000D01*
X43719000Y-41772000D02*
X43719000Y-43102000D01*
X43719000Y-35422000D02*
X43719000Y-36752000D01*
X43719000Y-36752000D02*
X29179000Y-36752000D01*
X29179000Y-36752000D02*
X29179000Y-35422000D01*
X43719000Y-32142000D02*
X43719000Y-30812000D01*
X43719000Y-30812000D02*
X29179000Y-30812000D01*
X29179000Y-30812000D02*
X29179000Y-32142000D01*
X29179000Y-24462000D02*
X29179000Y-25792000D01*
X43719000Y-24462000D02*
X29179000Y-24462000D01*
X43719000Y-25792000D02*
X43719000Y-24462000D01*
X29179000Y-30402000D02*
X29179000Y-29072000D01*
X43719000Y-30402000D02*
X29179000Y-30402000D01*
X43719000Y-29072000D02*
X43719000Y-30402000D01*
X62981000Y-36672000D02*
X64311000Y-36672000D01*
X64311000Y-36672000D02*
X64311000Y-51212000D01*
X64311000Y-51212000D02*
X62981000Y-51212000D01*
X59701000Y-36672000D02*
X58371000Y-36672000D01*
X58371000Y-36672000D02*
X58371000Y-51212000D01*
X58371000Y-51212000D02*
X59701000Y-51212000D01*
X83343000Y-46150000D02*
X83343000Y-44820000D01*
X68803000Y-46150000D02*
X83343000Y-46150000D01*
X68803000Y-44820000D02*
X68803000Y-46150000D01*
X83343000Y-40210000D02*
X83343000Y-41540000D01*
X68803000Y-40210000D02*
X83343000Y-40210000D01*
X68803000Y-41540000D02*
X68803000Y-40210000D01*
X68803000Y-47890000D02*
X68803000Y-46560000D01*
X68803000Y-46560000D02*
X83343000Y-46560000D01*
X83343000Y-46560000D02*
X83343000Y-47890000D01*
X68803000Y-51170000D02*
X68803000Y-52500000D01*
X68803000Y-52500000D02*
X83343000Y-52500000D01*
X83343000Y-52500000D02*
X83343000Y-51170000D01*
X83343000Y-58850000D02*
X83343000Y-57520000D01*
X68803000Y-58850000D02*
X83343000Y-58850000D01*
X68803000Y-57520000D02*
X68803000Y-58850000D01*
X83343000Y-52910000D02*
X83343000Y-54240000D01*
X68803000Y-52910000D02*
X83343000Y-52910000D01*
X68803000Y-54240000D02*
X68803000Y-52910000D01*
X68803000Y-60590000D02*
X68803000Y-59260000D01*
X68803000Y-59260000D02*
X83343000Y-59260000D01*
X83343000Y-59260000D02*
X83343000Y-60590000D01*
X68803000Y-63870000D02*
X68803000Y-65200000D01*
X68803000Y-65200000D02*
X83343000Y-65200000D01*
X83343000Y-65200000D02*
X83343000Y-63870000D01*
X68803000Y-73290000D02*
X68803000Y-71960000D01*
X68803000Y-71960000D02*
X83343000Y-71960000D01*
X83343000Y-71960000D02*
X83343000Y-73290000D01*
X68803000Y-76570000D02*
X68803000Y-77900000D01*
X68803000Y-77900000D02*
X83343000Y-77900000D01*
X83343000Y-77900000D02*
X83343000Y-76570000D01*
X54532000Y-57246000D02*
X53202000Y-57246000D01*
X54532000Y-71786000D02*
X54532000Y-57246000D01*
X53202000Y-71786000D02*
X54532000Y-71786000D01*
X48592000Y-57246000D02*
X49922000Y-57246000D01*
X48592000Y-71786000D02*
X48592000Y-57246000D01*
X49922000Y-71786000D02*
X48592000Y-71786000D01*
X131160000Y-35825000D02*
X131160000Y-34495000D01*
X131160000Y-34495000D02*
X145700000Y-34495000D01*
X145700000Y-34495000D02*
X145700000Y-35825000D01*
X131160000Y-39105000D02*
X131160000Y-40435000D01*
X131160000Y-40435000D02*
X145700000Y-40435000D01*
X145700000Y-40435000D02*
X145700000Y-39105000D01*
X145700000Y-46785000D02*
X145700000Y-45455000D01*
X131160000Y-46785000D02*
X145700000Y-46785000D01*
X131160000Y-45455000D02*
X131160000Y-46785000D01*
X145700000Y-40845000D02*
X145700000Y-42175000D01*
X131160000Y-40845000D02*
X145700000Y-40845000D01*
X131160000Y-42175000D02*
X131160000Y-40845000D01*
X145700000Y-53135000D02*
X145700000Y-51805000D01*
X131160000Y-53135000D02*
X145700000Y-53135000D01*
X131160000Y-51805000D02*
X131160000Y-53135000D01*
X145700000Y-47195000D02*
X145700000Y-48525000D01*
X131160000Y-47195000D02*
X145700000Y-47195000D01*
X131160000Y-48525000D02*
X131160000Y-47195000D01*
X131160000Y-54875000D02*
X131160000Y-53545000D01*
X131160000Y-53545000D02*
X145700000Y-53545000D01*
X145700000Y-53545000D02*
X145700000Y-54875000D01*
X131160000Y-58155000D02*
X131160000Y-59485000D01*
X131160000Y-59485000D02*
X145700000Y-59485000D01*
X145700000Y-59485000D02*
X145700000Y-58155000D01*
X145700000Y-65835000D02*
X145700000Y-64505000D01*
X131160000Y-65835000D02*
X145700000Y-65835000D01*
X131160000Y-64505000D02*
X131160000Y-65835000D01*
X145700000Y-59895000D02*
X145700000Y-61225000D01*
X131160000Y-59895000D02*
X145700000Y-59895000D01*
X131160000Y-61225000D02*
X131160000Y-59895000D01*
X131160000Y-67575000D02*
X131160000Y-66245000D01*
X131160000Y-66245000D02*
X145700000Y-66245000D01*
X145700000Y-66245000D02*
X145700000Y-67575000D01*
X131160000Y-70855000D02*
X131160000Y-72185000D01*
X131160000Y-72185000D02*
X145700000Y-72185000D01*
X145700000Y-72185000D02*
X145700000Y-70855000D01*
X145700000Y-78535000D02*
X145700000Y-77205000D01*
X131160000Y-78535000D02*
X145700000Y-78535000D01*
X131160000Y-77205000D02*
X131160000Y-78535000D01*
X145700000Y-72595000D02*
X145700000Y-73925000D01*
X131160000Y-72595000D02*
X145700000Y-72595000D01*
X131160000Y-73925000D02*
X131160000Y-72595000D01*
X112025000Y-76866000D02*
X110695000Y-76866000D01*
X110695000Y-76866000D02*
X110695000Y-62326000D01*
X110695000Y-62326000D02*
X112025000Y-62326000D01*
X115305000Y-76866000D02*
X116635000Y-76866000D01*
X116635000Y-76866000D02*
X116635000Y-62326000D01*
X116635000Y-62326000D02*
X115305000Y-62326000D01*
X91917000Y-68658000D02*
X91917000Y-69988000D01*
X106457000Y-68658000D02*
X91917000Y-68658000D01*
X106457000Y-69988000D02*
X106457000Y-68658000D01*
X91917000Y-74598000D02*
X91917000Y-73268000D01*
X106457000Y-74598000D02*
X91917000Y-74598000D01*
X106457000Y-73268000D02*
X106457000Y-74598000D01*
X106457000Y-66918000D02*
X106457000Y-68248000D01*
X106457000Y-68248000D02*
X91917000Y-68248000D01*
X91917000Y-68248000D02*
X91917000Y-66918000D01*
X106457000Y-63638000D02*
X106457000Y-62308000D01*
X106457000Y-62308000D02*
X91917000Y-62308000D01*
X91917000Y-62308000D02*
X91917000Y-63638000D01*
X91917000Y-55958000D02*
X91917000Y-57288000D01*
X106457000Y-55958000D02*
X91917000Y-55958000D01*
X106457000Y-57288000D02*
X106457000Y-55958000D01*
X91917000Y-61898000D02*
X91917000Y-60568000D01*
X106457000Y-61898000D02*
X91917000Y-61898000D01*
X106457000Y-60568000D02*
X106457000Y-61898000D01*
X91917000Y-43258000D02*
X91917000Y-44588000D01*
X106457000Y-43258000D02*
X91917000Y-43258000D01*
X106457000Y-44588000D02*
X106457000Y-43258000D01*
X91917000Y-49198000D02*
X91917000Y-47868000D01*
X106457000Y-49198000D02*
X91917000Y-49198000D01*
X106457000Y-47868000D02*
X106457000Y-49198000D01*
X106457000Y-41518000D02*
X106457000Y-42848000D01*
X106457000Y-42848000D02*
X91917000Y-42848000D01*
X91917000Y-42848000D02*
X91917000Y-41518000D01*
X106457000Y-38238000D02*
X106457000Y-36908000D01*
X106457000Y-36908000D02*
X91917000Y-36908000D01*
X91917000Y-36908000D02*
X91917000Y-38238000D01*
X91917000Y-30558000D02*
X91917000Y-31888000D01*
X106457000Y-30558000D02*
X91917000Y-30558000D01*
X106457000Y-31888000D02*
X106457000Y-30558000D01*
X91917000Y-36498000D02*
X91917000Y-35168000D01*
X106457000Y-36498000D02*
X91917000Y-36498000D01*
X106457000Y-35168000D02*
X106457000Y-36498000D01*
X124830000Y-36291000D02*
X126160000Y-36291000D01*
X126160000Y-36291000D02*
X126160000Y-50831000D01*
X126160000Y-50831000D02*
X124830000Y-50831000D01*
X121550000Y-36291000D02*
X120220000Y-36291000D01*
X120220000Y-36291000D02*
X120220000Y-50831000D01*
X120220000Y-50831000D02*
X121550000Y-50831000D01*
X43719000Y-105907000D02*
X43719000Y-107237000D01*
X43719000Y-107237000D02*
X29179000Y-107237000D01*
X29179000Y-107237000D02*
X29179000Y-105907000D01*
X43719000Y-102627000D02*
X43719000Y-101297000D01*
X43719000Y-101297000D02*
X29179000Y-101297000D01*
X29179000Y-101297000D02*
X29179000Y-102627000D01*
X43719000Y-99557000D02*
X43719000Y-100887000D01*
X43719000Y-100887000D02*
X29179000Y-100887000D01*
X29179000Y-100887000D02*
X29179000Y-99557000D01*
X43719000Y-96277000D02*
X43719000Y-94947000D01*
X43719000Y-94947000D02*
X29179000Y-94947000D01*
X29179000Y-94947000D02*
X29179000Y-96277000D01*
X29179000Y-88597000D02*
X29179000Y-89927000D01*
X43719000Y-88597000D02*
X29179000Y-88597000D01*
X43719000Y-89927000D02*
X43719000Y-88597000D01*
X29179000Y-94537000D02*
X29179000Y-93207000D01*
X43719000Y-94537000D02*
X29179000Y-94537000D01*
X43719000Y-93207000D02*
X43719000Y-94537000D01*
X43719000Y-86857000D02*
X43719000Y-88187000D01*
X43719000Y-88187000D02*
X29179000Y-88187000D01*
X29179000Y-88187000D02*
X29179000Y-86857000D01*
X43719000Y-83577000D02*
X43719000Y-82247000D01*
X43719000Y-82247000D02*
X29179000Y-82247000D01*
X29179000Y-82247000D02*
X29179000Y-83577000D01*
X29179000Y-75897000D02*
X29179000Y-77227000D01*
X43719000Y-75897000D02*
X29179000Y-75897000D01*
X43719000Y-77227000D02*
X43719000Y-75897000D01*
X29179000Y-81837000D02*
X29179000Y-80507000D01*
X43719000Y-81837000D02*
X29179000Y-81837000D01*
X43719000Y-80507000D02*
X43719000Y-81837000D01*
X43719000Y-74157000D02*
X43719000Y-75487000D01*
X43719000Y-75487000D02*
X29179000Y-75487000D01*
X29179000Y-75487000D02*
X29179000Y-74157000D01*
X43719000Y-70877000D02*
X43719000Y-69547000D01*
X43719000Y-69547000D02*
X29179000Y-69547000D01*
X29179000Y-69547000D02*
X29179000Y-70877000D01*
X56974000Y-99980000D02*
X58304000Y-99980000D01*
X56974000Y-85440000D02*
X56974000Y-99980000D01*
X58304000Y-85440000D02*
X56974000Y-85440000D01*
X62914000Y-99980000D02*
X61584000Y-99980000D01*
X62914000Y-85440000D02*
X62914000Y-99980000D01*
X61584000Y-85440000D02*
X62914000Y-85440000D01*
X68803000Y-84085000D02*
X68803000Y-82755000D01*
X68803000Y-82755000D02*
X83343000Y-82755000D01*
X83343000Y-82755000D02*
X83343000Y-84085000D01*
X68803000Y-87365000D02*
X68803000Y-88695000D01*
X68803000Y-88695000D02*
X83343000Y-88695000D01*
X83343000Y-88695000D02*
X83343000Y-87365000D01*
X68803000Y-96785000D02*
X68803000Y-95455000D01*
X68803000Y-95455000D02*
X83343000Y-95455000D01*
X83343000Y-95455000D02*
X83343000Y-96785000D01*
X68803000Y-100065000D02*
X68803000Y-101395000D01*
X68803000Y-101395000D02*
X83343000Y-101395000D01*
X83343000Y-101395000D02*
X83343000Y-100065000D01*
X83343000Y-107745000D02*
X83343000Y-106415000D01*
X68803000Y-107745000D02*
X83343000Y-107745000D01*
X68803000Y-106415000D02*
X68803000Y-107745000D01*
X83343000Y-101805000D02*
X83343000Y-103135000D01*
X68803000Y-101805000D02*
X83343000Y-101805000D01*
X68803000Y-103135000D02*
X68803000Y-101805000D01*
X68803000Y-109485000D02*
X68803000Y-108155000D01*
X68803000Y-108155000D02*
X83343000Y-108155000D01*
X83343000Y-108155000D02*
X83343000Y-109485000D01*
X68803000Y-112765000D02*
X68803000Y-114095000D01*
X68803000Y-114095000D02*
X83343000Y-114095000D01*
X83343000Y-114095000D02*
X83343000Y-112765000D01*
X83343000Y-120445000D02*
X83343000Y-119115000D01*
X68803000Y-120445000D02*
X83343000Y-120445000D01*
X68803000Y-119115000D02*
X68803000Y-120445000D01*
X83343000Y-114505000D02*
X83343000Y-115835000D01*
X68803000Y-114505000D02*
X83343000Y-114505000D01*
X68803000Y-115835000D02*
X68803000Y-114505000D01*
X68803000Y-122185000D02*
X68803000Y-120855000D01*
X68803000Y-120855000D02*
X83343000Y-120855000D01*
X83343000Y-120855000D02*
X83343000Y-122185000D01*
X68803000Y-125465000D02*
X68803000Y-126795000D01*
X68803000Y-126795000D02*
X83343000Y-126795000D01*
X83343000Y-126795000D02*
X83343000Y-125465000D01*
X52881000Y-110459000D02*
X51551000Y-110459000D01*
X52881000Y-124999000D02*
X52881000Y-110459000D01*
X51551000Y-124999000D02*
X52881000Y-124999000D01*
X46941000Y-110459000D02*
X48271000Y-110459000D01*
X46941000Y-124999000D02*
X46941000Y-110459000D01*
X48271000Y-124999000D02*
X46941000Y-124999000D01*
X91028000Y-117680000D02*
X91028000Y-119010000D01*
X105568000Y-117680000D02*
X91028000Y-117680000D01*
X105568000Y-119010000D02*
X105568000Y-117680000D01*
X91028000Y-123620000D02*
X91028000Y-122290000D01*
X105568000Y-123620000D02*
X91028000Y-123620000D01*
X105568000Y-122290000D02*
X105568000Y-123620000D01*
X105568000Y-115940000D02*
X105568000Y-117270000D01*
X105568000Y-117270000D02*
X91028000Y-117270000D01*
X91028000Y-117270000D02*
X91028000Y-115940000D01*
X105568000Y-112660000D02*
X105568000Y-111330000D01*
X105568000Y-111330000D02*
X91028000Y-111330000D01*
X91028000Y-111330000D02*
X91028000Y-112660000D01*
X105568000Y-109590000D02*
X105568000Y-110920000D01*
X105568000Y-110920000D02*
X91028000Y-110920000D01*
X91028000Y-110920000D02*
X91028000Y-109590000D01*
X105568000Y-106310000D02*
X105568000Y-104980000D01*
X105568000Y-104980000D02*
X91028000Y-104980000D01*
X91028000Y-104980000D02*
X91028000Y-106310000D01*
X105568000Y-103240000D02*
X105568000Y-104570000D01*
X105568000Y-104570000D02*
X91028000Y-104570000D01*
X91028000Y-104570000D02*
X91028000Y-103240000D01*
X105568000Y-99960000D02*
X105568000Y-98630000D01*
X105568000Y-98630000D02*
X91028000Y-98630000D01*
X91028000Y-98630000D02*
X91028000Y-99960000D01*
X91028000Y-92280000D02*
X91028000Y-93610000D01*
X105568000Y-92280000D02*
X91028000Y-92280000D01*
X105568000Y-93610000D02*
X105568000Y-92280000D01*
X91028000Y-98220000D02*
X91028000Y-96890000D01*
X105568000Y-98220000D02*
X91028000Y-98220000D01*
X105568000Y-96890000D02*
X105568000Y-98220000D01*
X105568000Y-90540000D02*
X105568000Y-91870000D01*
X105568000Y-91870000D02*
X91028000Y-91870000D01*
X91028000Y-91870000D02*
X91028000Y-90540000D01*
X105568000Y-87260000D02*
X105568000Y-85930000D01*
X105568000Y-85930000D02*
X91028000Y-85930000D01*
X91028000Y-85930000D02*
X91028000Y-87260000D01*
X91028000Y-79580000D02*
X91028000Y-80910000D01*
X105568000Y-79580000D02*
X91028000Y-79580000D01*
X105568000Y-80910000D02*
X105568000Y-79580000D01*
X91028000Y-85520000D02*
X91028000Y-84190000D01*
X105568000Y-85520000D02*
X91028000Y-85520000D01*
X105568000Y-84190000D02*
X105568000Y-85520000D01*
X124703000Y-86075000D02*
X126033000Y-86075000D01*
X126033000Y-86075000D02*
X126033000Y-100615000D01*
X126033000Y-100615000D02*
X124703000Y-100615000D01*
X121423000Y-86075000D02*
X120093000Y-86075000D01*
X120093000Y-86075000D02*
X120093000Y-100615000D01*
X120093000Y-100615000D02*
X121423000Y-100615000D01*
X131287000Y-85355000D02*
X131287000Y-84025000D01*
X131287000Y-84025000D02*
X145827000Y-84025000D01*
X145827000Y-84025000D02*
X145827000Y-85355000D01*
X131287000Y-88635000D02*
X131287000Y-89965000D01*
X131287000Y-89965000D02*
X145827000Y-89965000D01*
X145827000Y-89965000D02*
X145827000Y-88635000D01*
X145827000Y-96315000D02*
X145827000Y-94985000D01*
X131287000Y-96315000D02*
X145827000Y-96315000D01*
X131287000Y-94985000D02*
X131287000Y-96315000D01*
X145827000Y-90375000D02*
X145827000Y-91705000D01*
X131287000Y-90375000D02*
X145827000Y-90375000D01*
X131287000Y-91705000D02*
X131287000Y-90375000D01*
X145827000Y-102665000D02*
X145827000Y-101335000D01*
X131287000Y-102665000D02*
X145827000Y-102665000D01*
X131287000Y-101335000D02*
X131287000Y-102665000D01*
X145827000Y-96725000D02*
X145827000Y-98055000D01*
X131287000Y-96725000D02*
X145827000Y-96725000D01*
X131287000Y-98055000D02*
X131287000Y-96725000D01*
X131287000Y-104405000D02*
X131287000Y-103075000D01*
X131287000Y-103075000D02*
X145827000Y-103075000D01*
X145827000Y-103075000D02*
X145827000Y-104405000D01*
X131287000Y-107685000D02*
X131287000Y-109015000D01*
X131287000Y-109015000D02*
X145827000Y-109015000D01*
X145827000Y-109015000D02*
X145827000Y-107685000D01*
X145827000Y-115365000D02*
X145827000Y-114035000D01*
X131287000Y-115365000D02*
X145827000Y-115365000D01*
X131287000Y-114035000D02*
X131287000Y-115365000D01*
X145827000Y-109425000D02*
X145827000Y-110755000D01*
X131287000Y-109425000D02*
X145827000Y-109425000D01*
X131287000Y-110755000D02*
X131287000Y-109425000D01*
X131287000Y-117105000D02*
X131287000Y-115775000D01*
X131287000Y-115775000D02*
X145827000Y-115775000D01*
X145827000Y-115775000D02*
X145827000Y-117105000D01*
X131287000Y-120385000D02*
X131287000Y-121715000D01*
X131287000Y-121715000D02*
X145827000Y-121715000D01*
X145827000Y-121715000D02*
X145827000Y-120385000D01*
X145827000Y-128065000D02*
X145827000Y-126735000D01*
X131287000Y-128065000D02*
X145827000Y-128065000D01*
X131287000Y-126735000D02*
X131287000Y-128065000D01*
X145827000Y-122125000D02*
X145827000Y-123455000D01*
X131287000Y-122125000D02*
X145827000Y-122125000D01*
X131287000Y-123455000D02*
X131287000Y-122125000D01*
X116000000Y-110713000D02*
X114670000Y-110713000D01*
X116000000Y-125253000D02*
X116000000Y-110713000D01*
X114670000Y-125253000D02*
X116000000Y-125253000D01*
X110060000Y-110713000D02*
X111390000Y-110713000D01*
X110060000Y-125253000D02*
X110060000Y-110713000D01*
X111390000Y-125253000D02*
X110060000Y-125253000D01*
D13*
X118577000Y-78337000D02*
X118977000Y-78337000D01*
X118577000Y-77937000D02*
X118577000Y-78337000D01*
X124557000Y-78527000D02*
X125557000Y-77527000D01*
X124257000Y-78527000D02*
X124557000Y-78527000D01*
X125557000Y-77527000D02*
X125927000Y-77527000D01*
X125937000Y-77527000D02*
X126187000Y-77527000D01*
X118657000Y-57427000D02*
X118657000Y-57627000D01*
X118957000Y-57427000D02*
X118657000Y-57427000D01*
X125557000Y-57427000D02*
X125257000Y-57427000D01*
X125557000Y-57627000D02*
X125557000Y-57427000D01*
X118278000Y-31010000D02*
X117878000Y-31010000D01*
X118278000Y-31410000D02*
X118278000Y-31010000D01*
X112298000Y-30820000D02*
X111298000Y-31820000D01*
X112598000Y-30820000D02*
X112298000Y-30820000D01*
X111298000Y-31820000D02*
X110928000Y-31820000D01*
X110918000Y-31820000D02*
X110668000Y-31820000D01*
X118198000Y-51920000D02*
X118198000Y-51720000D01*
X117898000Y-51920000D02*
X118198000Y-51920000D01*
X111298000Y-51920000D02*
X111598000Y-51920000D01*
X111298000Y-51720000D02*
X111298000Y-51920000D01*
X54950000Y-126724000D02*
X55350000Y-126724000D01*
X54950000Y-126324000D02*
X54950000Y-126724000D01*
X60930000Y-126914000D02*
X61930000Y-125914000D01*
X60630000Y-126914000D02*
X60930000Y-126914000D01*
X61930000Y-125914000D02*
X62300000Y-125914000D01*
X62310000Y-125914000D02*
X62560000Y-125914000D01*
X55030000Y-105814000D02*
X55030000Y-106014000D01*
X55330000Y-105814000D02*
X55030000Y-105814000D01*
X61930000Y-105814000D02*
X61630000Y-105814000D01*
X61930000Y-106014000D02*
X61930000Y-105814000D01*
X111298000Y-100615000D02*
X111298000Y-100815000D01*
X111298000Y-100815000D02*
X111598000Y-100815000D01*
X117898000Y-100815000D02*
X118198000Y-100815000D01*
X118198000Y-100815000D02*
X118198000Y-100615000D01*
X110918000Y-80715000D02*
X110668000Y-80715000D01*
X111298000Y-80715000D02*
X110928000Y-80715000D01*
X112598000Y-79715000D02*
X112298000Y-79715000D01*
X112298000Y-79715000D02*
X111298000Y-80715000D01*
X118278000Y-80305000D02*
X118278000Y-79905000D01*
X118278000Y-79905000D02*
X117878000Y-79905000D01*
X125303000Y-107411000D02*
X125303000Y-107211000D01*
X125303000Y-107211000D02*
X125003000Y-107211000D01*
X118703000Y-107211000D02*
X118403000Y-107211000D01*
X118403000Y-107211000D02*
X118403000Y-107411000D01*
X125683000Y-127311000D02*
X125933000Y-127311000D01*
X125303000Y-127311000D02*
X125673000Y-127311000D01*
X124003000Y-128311000D02*
X124303000Y-128311000D01*
X124303000Y-128311000D02*
X125303000Y-127311000D01*
X118323000Y-127721000D02*
X118323000Y-128121000D01*
X118323000Y-128121000D02*
X118723000Y-128121000D01*
D14*
X35806142Y-111069380D02*
X35472809Y-110593190D01*
X35234714Y-111069380D02*
X35234714Y-110069380D01*
X35615666Y-110069380D01*
X35710904Y-110117000D01*
X35758523Y-110164619D01*
X35806142Y-110259857D01*
X35806142Y-110402714D01*
X35758523Y-110497952D01*
X35710904Y-110545571D01*
X35615666Y-110593190D01*
X35234714Y-110593190D01*
X36710904Y-110069380D02*
X36234714Y-110069380D01*
X36187095Y-110545571D01*
X36234714Y-110497952D01*
X36329952Y-110450333D01*
X36568047Y-110450333D01*
X36663285Y-110497952D01*
X36710904Y-110545571D01*
X36758523Y-110640809D01*
X36758523Y-110878904D01*
X36710904Y-110974142D01*
X36663285Y-111021761D01*
X36568047Y-111069380D01*
X36329952Y-111069380D01*
X36234714Y-111021761D01*
X36187095Y-110974142D01*
X37091857Y-110069380D02*
X37758523Y-110069380D01*
X37329952Y-111069380D01*
X75430142Y-92527380D02*
X75096809Y-92051190D01*
X74858714Y-92527380D02*
X74858714Y-91527380D01*
X75239666Y-91527380D01*
X75334904Y-91575000D01*
X75382523Y-91622619D01*
X75430142Y-91717857D01*
X75430142Y-91860714D01*
X75382523Y-91955952D01*
X75334904Y-92003571D01*
X75239666Y-92051190D01*
X74858714Y-92051190D01*
X76287285Y-91527380D02*
X76096809Y-91527380D01*
X76001571Y-91575000D01*
X75953952Y-91622619D01*
X75858714Y-91765476D01*
X75811095Y-91955952D01*
X75811095Y-92336904D01*
X75858714Y-92432142D01*
X75906333Y-92479761D01*
X76001571Y-92527380D01*
X76192047Y-92527380D01*
X76287285Y-92479761D01*
X76334904Y-92432142D01*
X76382523Y-92336904D01*
X76382523Y-92098809D01*
X76334904Y-92003571D01*
X76287285Y-91955952D01*
X76192047Y-91908333D01*
X76001571Y-91908333D01*
X75906333Y-91955952D01*
X75858714Y-92003571D01*
X75811095Y-92098809D01*
X77239666Y-91527380D02*
X77049190Y-91527380D01*
X76953952Y-91575000D01*
X76906333Y-91622619D01*
X76811095Y-91765476D01*
X76763476Y-91955952D01*
X76763476Y-92336904D01*
X76811095Y-92432142D01*
X76858714Y-92479761D01*
X76953952Y-92527380D01*
X77144428Y-92527380D01*
X77239666Y-92479761D01*
X77287285Y-92432142D01*
X77334904Y-92336904D01*
X77334904Y-92098809D01*
X77287285Y-92003571D01*
X77239666Y-91955952D01*
X77144428Y-91908333D01*
X76953952Y-91908333D01*
X76858714Y-91955952D01*
X76811095Y-92003571D01*
X76763476Y-92098809D01*
X75557142Y-37282380D02*
X75223809Y-36806190D01*
X74985714Y-37282380D02*
X74985714Y-36282380D01*
X75366666Y-36282380D01*
X75461904Y-36330000D01*
X75509523Y-36377619D01*
X75557142Y-36472857D01*
X75557142Y-36615714D01*
X75509523Y-36710952D01*
X75461904Y-36758571D01*
X75366666Y-36806190D01*
X74985714Y-36806190D01*
X75890476Y-36282380D02*
X76509523Y-36282380D01*
X76176190Y-36663333D01*
X76319047Y-36663333D01*
X76414285Y-36710952D01*
X76461904Y-36758571D01*
X76509523Y-36853809D01*
X76509523Y-37091904D01*
X76461904Y-37187142D01*
X76414285Y-37234761D01*
X76319047Y-37282380D01*
X76033333Y-37282380D01*
X75938095Y-37234761D01*
X75890476Y-37187142D01*
X76842857Y-36282380D02*
X77461904Y-36282380D01*
X77128571Y-36663333D01*
X77271428Y-36663333D01*
X77366666Y-36710952D01*
X77414285Y-36758571D01*
X77461904Y-36853809D01*
X77461904Y-37091904D01*
X77414285Y-37187142D01*
X77366666Y-37234761D01*
X77271428Y-37282380D01*
X76985714Y-37282380D01*
X76890476Y-37234761D01*
X76842857Y-37187142D01*
X59690095Y-74001380D02*
X59690095Y-74810904D01*
X59737714Y-74906142D01*
X59785333Y-74953761D01*
X59880571Y-75001380D01*
X60071047Y-75001380D01*
X60166285Y-74953761D01*
X60213904Y-74906142D01*
X60261523Y-74810904D01*
X60261523Y-74001380D01*
X60642476Y-74001380D02*
X61261523Y-74001380D01*
X60928190Y-74382333D01*
X61071047Y-74382333D01*
X61166285Y-74429952D01*
X61213904Y-74477571D01*
X61261523Y-74572809D01*
X61261523Y-74810904D01*
X61213904Y-74906142D01*
X61166285Y-74953761D01*
X61071047Y-75001380D01*
X60785333Y-75001380D01*
X60690095Y-74953761D01*
X60642476Y-74906142D01*
X50673095Y-81875380D02*
X50673095Y-82684904D01*
X50720714Y-82780142D01*
X50768333Y-82827761D01*
X50863571Y-82875380D01*
X51054047Y-82875380D01*
X51149285Y-82827761D01*
X51196904Y-82780142D01*
X51244523Y-82684904D01*
X51244523Y-81875380D01*
X52149285Y-81875380D02*
X51958809Y-81875380D01*
X51863571Y-81923000D01*
X51815952Y-81970619D01*
X51720714Y-82113476D01*
X51673095Y-82303952D01*
X51673095Y-82684904D01*
X51720714Y-82780142D01*
X51768333Y-82827761D01*
X51863571Y-82875380D01*
X52054047Y-82875380D01*
X52149285Y-82827761D01*
X52196904Y-82780142D01*
X52244523Y-82684904D01*
X52244523Y-82446809D01*
X52196904Y-82351571D01*
X52149285Y-82303952D01*
X52054047Y-82256333D01*
X51863571Y-82256333D01*
X51768333Y-82303952D01*
X51720714Y-82351571D01*
X51673095Y-82446809D01*
X98544142Y-53030380D02*
X98210809Y-52554190D01*
X97972714Y-53030380D02*
X97972714Y-52030380D01*
X98353666Y-52030380D01*
X98448904Y-52078000D01*
X98496523Y-52125619D01*
X98544142Y-52220857D01*
X98544142Y-52363714D01*
X98496523Y-52458952D01*
X98448904Y-52506571D01*
X98353666Y-52554190D01*
X97972714Y-52554190D01*
X99448904Y-52030380D02*
X98972714Y-52030380D01*
X98925095Y-52506571D01*
X98972714Y-52458952D01*
X99067952Y-52411333D01*
X99306047Y-52411333D01*
X99401285Y-52458952D01*
X99448904Y-52506571D01*
X99496523Y-52601809D01*
X99496523Y-52839904D01*
X99448904Y-52935142D01*
X99401285Y-52982761D01*
X99306047Y-53030380D01*
X99067952Y-53030380D01*
X98972714Y-52982761D01*
X98925095Y-52935142D01*
X99877476Y-52125619D02*
X99925095Y-52078000D01*
X100020333Y-52030380D01*
X100258428Y-52030380D01*
X100353666Y-52078000D01*
X100401285Y-52125619D01*
X100448904Y-52220857D01*
X100448904Y-52316095D01*
X100401285Y-52458952D01*
X99829857Y-53030380D01*
X100448904Y-53030380D01*
X75430142Y-69032380D02*
X75096809Y-68556190D01*
X74858714Y-69032380D02*
X74858714Y-68032380D01*
X75239666Y-68032380D01*
X75334904Y-68080000D01*
X75382523Y-68127619D01*
X75430142Y-68222857D01*
X75430142Y-68365714D01*
X75382523Y-68460952D01*
X75334904Y-68508571D01*
X75239666Y-68556190D01*
X74858714Y-68556190D01*
X75763476Y-68032380D02*
X76382523Y-68032380D01*
X76049190Y-68413333D01*
X76192047Y-68413333D01*
X76287285Y-68460952D01*
X76334904Y-68508571D01*
X76382523Y-68603809D01*
X76382523Y-68841904D01*
X76334904Y-68937142D01*
X76287285Y-68984761D01*
X76192047Y-69032380D01*
X75906333Y-69032380D01*
X75811095Y-68984761D01*
X75763476Y-68937142D01*
X76953952Y-68460952D02*
X76858714Y-68413333D01*
X76811095Y-68365714D01*
X76763476Y-68270476D01*
X76763476Y-68222857D01*
X76811095Y-68127619D01*
X76858714Y-68080000D01*
X76953952Y-68032380D01*
X77144428Y-68032380D01*
X77239666Y-68080000D01*
X77287285Y-68127619D01*
X77334904Y-68222857D01*
X77334904Y-68270476D01*
X77287285Y-68365714D01*
X77239666Y-68413333D01*
X77144428Y-68460952D01*
X76953952Y-68460952D01*
X76858714Y-68508571D01*
X76811095Y-68556190D01*
X76763476Y-68651428D01*
X76763476Y-68841904D01*
X76811095Y-68937142D01*
X76858714Y-68984761D01*
X76953952Y-69032380D01*
X77144428Y-69032380D01*
X77239666Y-68984761D01*
X77287285Y-68937142D01*
X77334904Y-68841904D01*
X77334904Y-68651428D01*
X77287285Y-68556190D01*
X77239666Y-68508571D01*
X77144428Y-68460952D01*
X61642333Y-81002142D02*
X61594714Y-81049761D01*
X61451857Y-81097380D01*
X61356619Y-81097380D01*
X61213761Y-81049761D01*
X61118523Y-80954523D01*
X61070904Y-80859285D01*
X61023285Y-80668809D01*
X61023285Y-80525952D01*
X61070904Y-80335476D01*
X61118523Y-80240238D01*
X61213761Y-80145000D01*
X61356619Y-80097380D01*
X61451857Y-80097380D01*
X61594714Y-80145000D01*
X61642333Y-80192619D01*
X62499476Y-80097380D02*
X62309000Y-80097380D01*
X62213761Y-80145000D01*
X62166142Y-80192619D01*
X62070904Y-80335476D01*
X62023285Y-80525952D01*
X62023285Y-80906904D01*
X62070904Y-81002142D01*
X62118523Y-81049761D01*
X62213761Y-81097380D01*
X62404238Y-81097380D01*
X62499476Y-81049761D01*
X62547095Y-81002142D01*
X62594714Y-80906904D01*
X62594714Y-80668809D01*
X62547095Y-80573571D01*
X62499476Y-80525952D01*
X62404238Y-80478333D01*
X62213761Y-80478333D01*
X62118523Y-80525952D01*
X62070904Y-80573571D01*
X62023285Y-80668809D01*
X50676095Y-33488380D02*
X50676095Y-34297904D01*
X50723714Y-34393142D01*
X50771333Y-34440761D01*
X50866571Y-34488380D01*
X51057047Y-34488380D01*
X51152285Y-34440761D01*
X51199904Y-34393142D01*
X51247523Y-34297904D01*
X51247523Y-33488380D01*
X51676095Y-33583619D02*
X51723714Y-33536000D01*
X51818952Y-33488380D01*
X52057047Y-33488380D01*
X52152285Y-33536000D01*
X52199904Y-33583619D01*
X52247523Y-33678857D01*
X52247523Y-33774095D01*
X52199904Y-33916952D01*
X51628476Y-34488380D01*
X52247523Y-34488380D01*
X59777333Y-32361142D02*
X59729714Y-32408761D01*
X59586857Y-32456380D01*
X59491619Y-32456380D01*
X59348761Y-32408761D01*
X59253523Y-32313523D01*
X59205904Y-32218285D01*
X59158285Y-32027809D01*
X59158285Y-31884952D01*
X59205904Y-31694476D01*
X59253523Y-31599238D01*
X59348761Y-31504000D01*
X59491619Y-31456380D01*
X59586857Y-31456380D01*
X59729714Y-31504000D01*
X59777333Y-31551619D01*
X60158285Y-31551619D02*
X60205904Y-31504000D01*
X60301142Y-31456380D01*
X60539238Y-31456380D01*
X60634476Y-31504000D01*
X60682095Y-31551619D01*
X60729714Y-31646857D01*
X60729714Y-31742095D01*
X60682095Y-31884952D01*
X60110666Y-32456380D01*
X60729714Y-32456380D01*
X51395333Y-77065142D02*
X51347714Y-77112761D01*
X51204857Y-77160380D01*
X51109619Y-77160380D01*
X50966761Y-77112761D01*
X50871523Y-77017523D01*
X50823904Y-76922285D01*
X50776285Y-76731809D01*
X50776285Y-76588952D01*
X50823904Y-76398476D01*
X50871523Y-76303238D01*
X50966761Y-76208000D01*
X51109619Y-76160380D01*
X51204857Y-76160380D01*
X51347714Y-76208000D01*
X51395333Y-76255619D01*
X51728666Y-76160380D02*
X52347714Y-76160380D01*
X52014380Y-76541333D01*
X52157238Y-76541333D01*
X52252476Y-76588952D01*
X52300095Y-76636571D01*
X52347714Y-76731809D01*
X52347714Y-76969904D01*
X52300095Y-77065142D01*
X52252476Y-77112761D01*
X52157238Y-77160380D01*
X51871523Y-77160380D01*
X51776285Y-77112761D01*
X51728666Y-77065142D01*
X114958833Y-54967142D02*
X114911214Y-55014761D01*
X114768357Y-55062380D01*
X114673119Y-55062380D01*
X114530261Y-55014761D01*
X114435023Y-54919523D01*
X114387404Y-54824285D01*
X114339785Y-54633809D01*
X114339785Y-54490952D01*
X114387404Y-54300476D01*
X114435023Y-54205238D01*
X114530261Y-54110000D01*
X114673119Y-54062380D01*
X114768357Y-54062380D01*
X114911214Y-54110000D01*
X114958833Y-54157619D01*
X115815976Y-54395714D02*
X115815976Y-55062380D01*
X115577880Y-54014761D02*
X115339785Y-54729047D01*
X115958833Y-54729047D01*
X123658333Y-31599142D02*
X123610714Y-31646761D01*
X123467857Y-31694380D01*
X123372619Y-31694380D01*
X123229761Y-31646761D01*
X123134523Y-31551523D01*
X123086904Y-31456285D01*
X123039285Y-31265809D01*
X123039285Y-31122952D01*
X123086904Y-30932476D01*
X123134523Y-30837238D01*
X123229761Y-30742000D01*
X123372619Y-30694380D01*
X123467857Y-30694380D01*
X123610714Y-30742000D01*
X123658333Y-30789619D01*
X124563095Y-30694380D02*
X124086904Y-30694380D01*
X124039285Y-31170571D01*
X124086904Y-31122952D01*
X124182142Y-31075333D01*
X124420238Y-31075333D01*
X124515476Y-31122952D01*
X124563095Y-31170571D01*
X124610714Y-31265809D01*
X124610714Y-31503904D01*
X124563095Y-31599142D01*
X124515476Y-31646761D01*
X124420238Y-31694380D01*
X124182142Y-31694380D01*
X124086904Y-31646761D01*
X124039285Y-31599142D01*
X51014333Y-103354142D02*
X50966714Y-103401761D01*
X50823857Y-103449380D01*
X50728619Y-103449380D01*
X50585761Y-103401761D01*
X50490523Y-103306523D01*
X50442904Y-103211285D01*
X50395285Y-103020809D01*
X50395285Y-102877952D01*
X50442904Y-102687476D01*
X50490523Y-102592238D01*
X50585761Y-102497000D01*
X50728619Y-102449380D01*
X50823857Y-102449380D01*
X50966714Y-102497000D01*
X51014333Y-102544619D01*
X51347666Y-102449380D02*
X52014333Y-102449380D01*
X51585761Y-103449380D01*
X123618333Y-81764142D02*
X123570714Y-81811761D01*
X123427857Y-81859380D01*
X123332619Y-81859380D01*
X123189761Y-81811761D01*
X123094523Y-81716523D01*
X123046904Y-81621285D01*
X122999285Y-81430809D01*
X122999285Y-81287952D01*
X123046904Y-81097476D01*
X123094523Y-81002238D01*
X123189761Y-80907000D01*
X123332619Y-80859380D01*
X123427857Y-80859380D01*
X123570714Y-80907000D01*
X123618333Y-80954619D01*
X124189761Y-81287952D02*
X124094523Y-81240333D01*
X124046904Y-81192714D01*
X123999285Y-81097476D01*
X123999285Y-81049857D01*
X124046904Y-80954619D01*
X124094523Y-80907000D01*
X124189761Y-80859380D01*
X124380238Y-80859380D01*
X124475476Y-80907000D01*
X124523095Y-80954619D01*
X124570714Y-81049857D01*
X124570714Y-81097476D01*
X124523095Y-81192714D01*
X124475476Y-81240333D01*
X124380238Y-81287952D01*
X124189761Y-81287952D01*
X124094523Y-81335571D01*
X124046904Y-81383190D01*
X123999285Y-81478428D01*
X123999285Y-81668904D01*
X124046904Y-81764142D01*
X124094523Y-81811761D01*
X124189761Y-81859380D01*
X124380238Y-81859380D01*
X124475476Y-81811761D01*
X124523095Y-81764142D01*
X124570714Y-81668904D01*
X124570714Y-81478428D01*
X124523095Y-81383190D01*
X124475476Y-81335571D01*
X124380238Y-81287952D01*
X114196833Y-103608142D02*
X114149214Y-103655761D01*
X114006357Y-103703380D01*
X113911119Y-103703380D01*
X113768261Y-103655761D01*
X113673023Y-103560523D01*
X113625404Y-103465285D01*
X113577785Y-103274809D01*
X113577785Y-103131952D01*
X113625404Y-102941476D01*
X113673023Y-102846238D01*
X113768261Y-102751000D01*
X113911119Y-102703380D01*
X114006357Y-102703380D01*
X114149214Y-102751000D01*
X114196833Y-102798619D01*
X114673023Y-103703380D02*
X114863500Y-103703380D01*
X114958738Y-103655761D01*
X115006357Y-103608142D01*
X115101595Y-103465285D01*
X115149214Y-103274809D01*
X115149214Y-102893857D01*
X115101595Y-102798619D01*
X115053976Y-102751000D01*
X114958738Y-102703380D01*
X114768261Y-102703380D01*
X114673023Y-102751000D01*
X114625404Y-102798619D01*
X114577785Y-102893857D01*
X114577785Y-103131952D01*
X114625404Y-103227190D01*
X114673023Y-103274809D01*
X114768261Y-103322428D01*
X114958738Y-103322428D01*
X115053976Y-103274809D01*
X115101595Y-103227190D01*
X115149214Y-103131952D01*
X49196666Y-24090380D02*
X49196666Y-24804666D01*
X49149047Y-24947523D01*
X49053809Y-25042761D01*
X48910952Y-25090380D01*
X48815714Y-25090380D01*
X50196666Y-25090380D02*
X49625238Y-25090380D01*
X49910952Y-25090380D02*
X49910952Y-24090380D01*
X49815714Y-24233238D01*
X49720476Y-24328476D01*
X49625238Y-24376095D01*
X55038666Y-24090380D02*
X55038666Y-24804666D01*
X54991047Y-24947523D01*
X54895809Y-25042761D01*
X54752952Y-25090380D01*
X54657714Y-25090380D01*
X55467238Y-24185619D02*
X55514857Y-24138000D01*
X55610095Y-24090380D01*
X55848190Y-24090380D01*
X55943428Y-24138000D01*
X55991047Y-24185619D01*
X56038666Y-24280857D01*
X56038666Y-24376095D01*
X55991047Y-24518952D01*
X55419619Y-25090380D01*
X56038666Y-25090380D01*
X66214666Y-24090380D02*
X66214666Y-24804666D01*
X66167047Y-24947523D01*
X66071809Y-25042761D01*
X65928952Y-25090380D01*
X65833714Y-25090380D01*
X66595619Y-24090380D02*
X67214666Y-24090380D01*
X66881333Y-24471333D01*
X67024190Y-24471333D01*
X67119428Y-24518952D01*
X67167047Y-24566571D01*
X67214666Y-24661809D01*
X67214666Y-24899904D01*
X67167047Y-24995142D01*
X67119428Y-25042761D01*
X67024190Y-25090380D01*
X66738476Y-25090380D01*
X66643238Y-25042761D01*
X66595619Y-24995142D01*
X60118666Y-24090380D02*
X60118666Y-24804666D01*
X60071047Y-24947523D01*
X59975809Y-25042761D01*
X59832952Y-25090380D01*
X59737714Y-25090380D01*
X61023428Y-24423714D02*
X61023428Y-25090380D01*
X60785333Y-24042761D02*
X60547238Y-24757047D01*
X61166285Y-24757047D01*
X72564666Y-24090380D02*
X72564666Y-24804666D01*
X72517047Y-24947523D01*
X72421809Y-25042761D01*
X72278952Y-25090380D01*
X72183714Y-25090380D01*
X73517047Y-24090380D02*
X73040857Y-24090380D01*
X72993238Y-24566571D01*
X73040857Y-24518952D01*
X73136095Y-24471333D01*
X73374190Y-24471333D01*
X73469428Y-24518952D01*
X73517047Y-24566571D01*
X73564666Y-24661809D01*
X73564666Y-24899904D01*
X73517047Y-24995142D01*
X73469428Y-25042761D01*
X73374190Y-25090380D01*
X73136095Y-25090380D01*
X73040857Y-25042761D01*
X72993238Y-24995142D01*
X78660666Y-24090380D02*
X78660666Y-24804666D01*
X78613047Y-24947523D01*
X78517809Y-25042761D01*
X78374952Y-25090380D01*
X78279714Y-25090380D01*
X79565428Y-24090380D02*
X79374952Y-24090380D01*
X79279714Y-24138000D01*
X79232095Y-24185619D01*
X79136857Y-24328476D01*
X79089238Y-24518952D01*
X79089238Y-24899904D01*
X79136857Y-24995142D01*
X79184476Y-25042761D01*
X79279714Y-25090380D01*
X79470190Y-25090380D01*
X79565428Y-25042761D01*
X79613047Y-24995142D01*
X79660666Y-24899904D01*
X79660666Y-24661809D01*
X79613047Y-24566571D01*
X79565428Y-24518952D01*
X79470190Y-24471333D01*
X79279714Y-24471333D01*
X79184476Y-24518952D01*
X79136857Y-24566571D01*
X79089238Y-24661809D01*
X84375666Y-24217380D02*
X84375666Y-24931666D01*
X84328047Y-25074523D01*
X84232809Y-25169761D01*
X84089952Y-25217380D01*
X83994714Y-25217380D01*
X84756619Y-24217380D02*
X85423285Y-24217380D01*
X84994714Y-25217380D01*
X90471666Y-24090380D02*
X90471666Y-24804666D01*
X90424047Y-24947523D01*
X90328809Y-25042761D01*
X90185952Y-25090380D01*
X90090714Y-25090380D01*
X91090714Y-24518952D02*
X90995476Y-24471333D01*
X90947857Y-24423714D01*
X90900238Y-24328476D01*
X90900238Y-24280857D01*
X90947857Y-24185619D01*
X90995476Y-24138000D01*
X91090714Y-24090380D01*
X91281190Y-24090380D01*
X91376428Y-24138000D01*
X91424047Y-24185619D01*
X91471666Y-24280857D01*
X91471666Y-24328476D01*
X91424047Y-24423714D01*
X91376428Y-24471333D01*
X91281190Y-24518952D01*
X91090714Y-24518952D01*
X90995476Y-24566571D01*
X90947857Y-24614190D01*
X90900238Y-24709428D01*
X90900238Y-24899904D01*
X90947857Y-24995142D01*
X90995476Y-25042761D01*
X91090714Y-25090380D01*
X91281190Y-25090380D01*
X91376428Y-25042761D01*
X91424047Y-24995142D01*
X91471666Y-24899904D01*
X91471666Y-24709428D01*
X91424047Y-24614190D01*
X91376428Y-24566571D01*
X91281190Y-24518952D01*
X95710476Y-24090380D02*
X95710476Y-24804666D01*
X95662857Y-24947523D01*
X95567619Y-25042761D01*
X95424761Y-25090380D01*
X95329523Y-25090380D01*
X96091428Y-24090380D02*
X96758095Y-24090380D01*
X96329523Y-25090380D01*
X97043809Y-24090380D02*
X97662857Y-24090380D01*
X97329523Y-24471333D01*
X97472380Y-24471333D01*
X97567619Y-24518952D01*
X97615238Y-24566571D01*
X97662857Y-24661809D01*
X97662857Y-24899904D01*
X97615238Y-24995142D01*
X97567619Y-25042761D01*
X97472380Y-25090380D01*
X97186666Y-25090380D01*
X97091428Y-25042761D01*
X97043809Y-24995142D01*
X101679476Y-24090380D02*
X101679476Y-24804666D01*
X101631857Y-24947523D01*
X101536619Y-25042761D01*
X101393761Y-25090380D01*
X101298523Y-25090380D01*
X102060428Y-24090380D02*
X102727095Y-24090380D01*
X102298523Y-25090380D01*
X103536619Y-24423714D02*
X103536619Y-25090380D01*
X103298523Y-24042761D02*
X103060428Y-24757047D01*
X103679476Y-24757047D01*
X107521476Y-24090380D02*
X107521476Y-24804666D01*
X107473857Y-24947523D01*
X107378619Y-25042761D01*
X107235761Y-25090380D01*
X107140523Y-25090380D01*
X107902428Y-24090380D02*
X108569095Y-24090380D01*
X108140523Y-25090380D01*
X109426238Y-24090380D02*
X108950047Y-24090380D01*
X108902428Y-24566571D01*
X108950047Y-24518952D01*
X109045285Y-24471333D01*
X109283380Y-24471333D01*
X109378619Y-24518952D01*
X109426238Y-24566571D01*
X109473857Y-24661809D01*
X109473857Y-24899904D01*
X109426238Y-24995142D01*
X109378619Y-25042761D01*
X109283380Y-25090380D01*
X109045285Y-25090380D01*
X108950047Y-25042761D01*
X108902428Y-24995142D01*
X113490476Y-24090380D02*
X113490476Y-24804666D01*
X113442857Y-24947523D01*
X113347619Y-25042761D01*
X113204761Y-25090380D01*
X113109523Y-25090380D01*
X113871428Y-24090380D02*
X114538095Y-24090380D01*
X114109523Y-25090380D01*
X115347619Y-24090380D02*
X115157142Y-24090380D01*
X115061904Y-24138000D01*
X115014285Y-24185619D01*
X114919047Y-24328476D01*
X114871428Y-24518952D01*
X114871428Y-24899904D01*
X114919047Y-24995142D01*
X114966666Y-25042761D01*
X115061904Y-25090380D01*
X115252380Y-25090380D01*
X115347619Y-25042761D01*
X115395238Y-24995142D01*
X115442857Y-24899904D01*
X115442857Y-24661809D01*
X115395238Y-24566571D01*
X115347619Y-24518952D01*
X115252380Y-24471333D01*
X115061904Y-24471333D01*
X114966666Y-24518952D01*
X114919047Y-24566571D01*
X114871428Y-24661809D01*
X35806142Y-65984380D02*
X35472809Y-65508190D01*
X35234714Y-65984380D02*
X35234714Y-64984380D01*
X35615666Y-64984380D01*
X35710904Y-65032000D01*
X35758523Y-65079619D01*
X35806142Y-65174857D01*
X35806142Y-65317714D01*
X35758523Y-65412952D01*
X35710904Y-65460571D01*
X35615666Y-65508190D01*
X35234714Y-65508190D01*
X36187095Y-65079619D02*
X36234714Y-65032000D01*
X36329952Y-64984380D01*
X36568047Y-64984380D01*
X36663285Y-65032000D01*
X36710904Y-65079619D01*
X36758523Y-65174857D01*
X36758523Y-65270095D01*
X36710904Y-65412952D01*
X36139476Y-65984380D01*
X36758523Y-65984380D01*
X37663285Y-64984380D02*
X37187095Y-64984380D01*
X37139476Y-65460571D01*
X37187095Y-65412952D01*
X37282333Y-65365333D01*
X37520428Y-65365333D01*
X37615666Y-65412952D01*
X37663285Y-65460571D01*
X37710904Y-65555809D01*
X37710904Y-65793904D01*
X37663285Y-65889142D01*
X37615666Y-65936761D01*
X37520428Y-65984380D01*
X37282333Y-65984380D01*
X37187095Y-65936761D01*
X37139476Y-65889142D01*
X35806142Y-59634380D02*
X35472809Y-59158190D01*
X35234714Y-59634380D02*
X35234714Y-58634380D01*
X35615666Y-58634380D01*
X35710904Y-58682000D01*
X35758523Y-58729619D01*
X35806142Y-58824857D01*
X35806142Y-58967714D01*
X35758523Y-59062952D01*
X35710904Y-59110571D01*
X35615666Y-59158190D01*
X35234714Y-59158190D01*
X36187095Y-58729619D02*
X36234714Y-58682000D01*
X36329952Y-58634380D01*
X36568047Y-58634380D01*
X36663285Y-58682000D01*
X36710904Y-58729619D01*
X36758523Y-58824857D01*
X36758523Y-58920095D01*
X36710904Y-59062952D01*
X36139476Y-59634380D01*
X36758523Y-59634380D01*
X37615666Y-58634380D02*
X37425190Y-58634380D01*
X37329952Y-58682000D01*
X37282333Y-58729619D01*
X37187095Y-58872476D01*
X37139476Y-59062952D01*
X37139476Y-59443904D01*
X37187095Y-59539142D01*
X37234714Y-59586761D01*
X37329952Y-59634380D01*
X37520428Y-59634380D01*
X37615666Y-59586761D01*
X37663285Y-59539142D01*
X37710904Y-59443904D01*
X37710904Y-59205809D01*
X37663285Y-59110571D01*
X37615666Y-59062952D01*
X37520428Y-59015333D01*
X37329952Y-59015333D01*
X37234714Y-59062952D01*
X37187095Y-59110571D01*
X37139476Y-59205809D01*
X35806142Y-53284380D02*
X35472809Y-52808190D01*
X35234714Y-53284380D02*
X35234714Y-52284380D01*
X35615666Y-52284380D01*
X35710904Y-52332000D01*
X35758523Y-52379619D01*
X35806142Y-52474857D01*
X35806142Y-52617714D01*
X35758523Y-52712952D01*
X35710904Y-52760571D01*
X35615666Y-52808190D01*
X35234714Y-52808190D01*
X36187095Y-52379619D02*
X36234714Y-52332000D01*
X36329952Y-52284380D01*
X36568047Y-52284380D01*
X36663285Y-52332000D01*
X36710904Y-52379619D01*
X36758523Y-52474857D01*
X36758523Y-52570095D01*
X36710904Y-52712952D01*
X36139476Y-53284380D01*
X36758523Y-53284380D01*
X37091857Y-52284380D02*
X37758523Y-52284380D01*
X37329952Y-53284380D01*
X35806142Y-46934380D02*
X35472809Y-46458190D01*
X35234714Y-46934380D02*
X35234714Y-45934380D01*
X35615666Y-45934380D01*
X35710904Y-45982000D01*
X35758523Y-46029619D01*
X35806142Y-46124857D01*
X35806142Y-46267714D01*
X35758523Y-46362952D01*
X35710904Y-46410571D01*
X35615666Y-46458190D01*
X35234714Y-46458190D01*
X36187095Y-46029619D02*
X36234714Y-45982000D01*
X36329952Y-45934380D01*
X36568047Y-45934380D01*
X36663285Y-45982000D01*
X36710904Y-46029619D01*
X36758523Y-46124857D01*
X36758523Y-46220095D01*
X36710904Y-46362952D01*
X36139476Y-46934380D01*
X36758523Y-46934380D01*
X37329952Y-46362952D02*
X37234714Y-46315333D01*
X37187095Y-46267714D01*
X37139476Y-46172476D01*
X37139476Y-46124857D01*
X37187095Y-46029619D01*
X37234714Y-45982000D01*
X37329952Y-45934380D01*
X37520428Y-45934380D01*
X37615666Y-45982000D01*
X37663285Y-46029619D01*
X37710904Y-46124857D01*
X37710904Y-46172476D01*
X37663285Y-46267714D01*
X37615666Y-46315333D01*
X37520428Y-46362952D01*
X37329952Y-46362952D01*
X37234714Y-46410571D01*
X37187095Y-46458190D01*
X37139476Y-46553428D01*
X37139476Y-46743904D01*
X37187095Y-46839142D01*
X37234714Y-46886761D01*
X37329952Y-46934380D01*
X37520428Y-46934380D01*
X37615666Y-46886761D01*
X37663285Y-46839142D01*
X37710904Y-46743904D01*
X37710904Y-46553428D01*
X37663285Y-46458190D01*
X37615666Y-46410571D01*
X37520428Y-46362952D01*
X35806142Y-40584380D02*
X35472809Y-40108190D01*
X35234714Y-40584380D02*
X35234714Y-39584380D01*
X35615666Y-39584380D01*
X35710904Y-39632000D01*
X35758523Y-39679619D01*
X35806142Y-39774857D01*
X35806142Y-39917714D01*
X35758523Y-40012952D01*
X35710904Y-40060571D01*
X35615666Y-40108190D01*
X35234714Y-40108190D01*
X36187095Y-39679619D02*
X36234714Y-39632000D01*
X36329952Y-39584380D01*
X36568047Y-39584380D01*
X36663285Y-39632000D01*
X36710904Y-39679619D01*
X36758523Y-39774857D01*
X36758523Y-39870095D01*
X36710904Y-40012952D01*
X36139476Y-40584380D01*
X36758523Y-40584380D01*
X37234714Y-40584380D02*
X37425190Y-40584380D01*
X37520428Y-40536761D01*
X37568047Y-40489142D01*
X37663285Y-40346285D01*
X37710904Y-40155809D01*
X37710904Y-39774857D01*
X37663285Y-39679619D01*
X37615666Y-39632000D01*
X37520428Y-39584380D01*
X37329952Y-39584380D01*
X37234714Y-39632000D01*
X37187095Y-39679619D01*
X37139476Y-39774857D01*
X37139476Y-40012952D01*
X37187095Y-40108190D01*
X37234714Y-40155809D01*
X37329952Y-40203428D01*
X37520428Y-40203428D01*
X37615666Y-40155809D01*
X37663285Y-40108190D01*
X37710904Y-40012952D01*
X35806142Y-34234380D02*
X35472809Y-33758190D01*
X35234714Y-34234380D02*
X35234714Y-33234380D01*
X35615666Y-33234380D01*
X35710904Y-33282000D01*
X35758523Y-33329619D01*
X35806142Y-33424857D01*
X35806142Y-33567714D01*
X35758523Y-33662952D01*
X35710904Y-33710571D01*
X35615666Y-33758190D01*
X35234714Y-33758190D01*
X36139476Y-33234380D02*
X36758523Y-33234380D01*
X36425190Y-33615333D01*
X36568047Y-33615333D01*
X36663285Y-33662952D01*
X36710904Y-33710571D01*
X36758523Y-33805809D01*
X36758523Y-34043904D01*
X36710904Y-34139142D01*
X36663285Y-34186761D01*
X36568047Y-34234380D01*
X36282333Y-34234380D01*
X36187095Y-34186761D01*
X36139476Y-34139142D01*
X37377571Y-33234380D02*
X37472809Y-33234380D01*
X37568047Y-33282000D01*
X37615666Y-33329619D01*
X37663285Y-33424857D01*
X37710904Y-33615333D01*
X37710904Y-33853428D01*
X37663285Y-34043904D01*
X37615666Y-34139142D01*
X37568047Y-34186761D01*
X37472809Y-34234380D01*
X37377571Y-34234380D01*
X37282333Y-34186761D01*
X37234714Y-34139142D01*
X37187095Y-34043904D01*
X37139476Y-33853428D01*
X37139476Y-33615333D01*
X37187095Y-33424857D01*
X37234714Y-33329619D01*
X37282333Y-33282000D01*
X37377571Y-33234380D01*
X35806142Y-27884380D02*
X35472809Y-27408190D01*
X35234714Y-27884380D02*
X35234714Y-26884380D01*
X35615666Y-26884380D01*
X35710904Y-26932000D01*
X35758523Y-26979619D01*
X35806142Y-27074857D01*
X35806142Y-27217714D01*
X35758523Y-27312952D01*
X35710904Y-27360571D01*
X35615666Y-27408190D01*
X35234714Y-27408190D01*
X36139476Y-26884380D02*
X36758523Y-26884380D01*
X36425190Y-27265333D01*
X36568047Y-27265333D01*
X36663285Y-27312952D01*
X36710904Y-27360571D01*
X36758523Y-27455809D01*
X36758523Y-27693904D01*
X36710904Y-27789142D01*
X36663285Y-27836761D01*
X36568047Y-27884380D01*
X36282333Y-27884380D01*
X36187095Y-27836761D01*
X36139476Y-27789142D01*
X37710904Y-27884380D02*
X37139476Y-27884380D01*
X37425190Y-27884380D02*
X37425190Y-26884380D01*
X37329952Y-27027238D01*
X37234714Y-27122476D01*
X37139476Y-27170095D01*
X61793380Y-44584857D02*
X61317190Y-44918190D01*
X61793380Y-45156285D02*
X60793380Y-45156285D01*
X60793380Y-44775333D01*
X60841000Y-44680095D01*
X60888619Y-44632476D01*
X60983857Y-44584857D01*
X61126714Y-44584857D01*
X61221952Y-44632476D01*
X61269571Y-44680095D01*
X61317190Y-44775333D01*
X61317190Y-45156285D01*
X60793380Y-44251523D02*
X60793380Y-43632476D01*
X61174333Y-43965809D01*
X61174333Y-43822952D01*
X61221952Y-43727714D01*
X61269571Y-43680095D01*
X61364809Y-43632476D01*
X61602904Y-43632476D01*
X61698142Y-43680095D01*
X61745761Y-43727714D01*
X61793380Y-43822952D01*
X61793380Y-44108666D01*
X61745761Y-44203904D01*
X61698142Y-44251523D01*
X60888619Y-43251523D02*
X60841000Y-43203904D01*
X60793380Y-43108666D01*
X60793380Y-42870571D01*
X60841000Y-42775333D01*
X60888619Y-42727714D01*
X60983857Y-42680095D01*
X61079095Y-42680095D01*
X61221952Y-42727714D01*
X61793380Y-43299142D01*
X61793380Y-42680095D01*
X75430142Y-43632380D02*
X75096809Y-43156190D01*
X74858714Y-43632380D02*
X74858714Y-42632380D01*
X75239666Y-42632380D01*
X75334904Y-42680000D01*
X75382523Y-42727619D01*
X75430142Y-42822857D01*
X75430142Y-42965714D01*
X75382523Y-43060952D01*
X75334904Y-43108571D01*
X75239666Y-43156190D01*
X74858714Y-43156190D01*
X75763476Y-42632380D02*
X76382523Y-42632380D01*
X76049190Y-43013333D01*
X76192047Y-43013333D01*
X76287285Y-43060952D01*
X76334904Y-43108571D01*
X76382523Y-43203809D01*
X76382523Y-43441904D01*
X76334904Y-43537142D01*
X76287285Y-43584761D01*
X76192047Y-43632380D01*
X75906333Y-43632380D01*
X75811095Y-43584761D01*
X75763476Y-43537142D01*
X77239666Y-42965714D02*
X77239666Y-43632380D01*
X77001571Y-42584761D02*
X76763476Y-43299047D01*
X77382523Y-43299047D01*
X75430142Y-49982380D02*
X75096809Y-49506190D01*
X74858714Y-49982380D02*
X74858714Y-48982380D01*
X75239666Y-48982380D01*
X75334904Y-49030000D01*
X75382523Y-49077619D01*
X75430142Y-49172857D01*
X75430142Y-49315714D01*
X75382523Y-49410952D01*
X75334904Y-49458571D01*
X75239666Y-49506190D01*
X74858714Y-49506190D01*
X75763476Y-48982380D02*
X76382523Y-48982380D01*
X76049190Y-49363333D01*
X76192047Y-49363333D01*
X76287285Y-49410952D01*
X76334904Y-49458571D01*
X76382523Y-49553809D01*
X76382523Y-49791904D01*
X76334904Y-49887142D01*
X76287285Y-49934761D01*
X76192047Y-49982380D01*
X75906333Y-49982380D01*
X75811095Y-49934761D01*
X75763476Y-49887142D01*
X77287285Y-48982380D02*
X76811095Y-48982380D01*
X76763476Y-49458571D01*
X76811095Y-49410952D01*
X76906333Y-49363333D01*
X77144428Y-49363333D01*
X77239666Y-49410952D01*
X77287285Y-49458571D01*
X77334904Y-49553809D01*
X77334904Y-49791904D01*
X77287285Y-49887142D01*
X77239666Y-49934761D01*
X77144428Y-49982380D01*
X76906333Y-49982380D01*
X76811095Y-49934761D01*
X76763476Y-49887142D01*
X75430142Y-56332380D02*
X75096809Y-55856190D01*
X74858714Y-56332380D02*
X74858714Y-55332380D01*
X75239666Y-55332380D01*
X75334904Y-55380000D01*
X75382523Y-55427619D01*
X75430142Y-55522857D01*
X75430142Y-55665714D01*
X75382523Y-55760952D01*
X75334904Y-55808571D01*
X75239666Y-55856190D01*
X74858714Y-55856190D01*
X75763476Y-55332380D02*
X76382523Y-55332380D01*
X76049190Y-55713333D01*
X76192047Y-55713333D01*
X76287285Y-55760952D01*
X76334904Y-55808571D01*
X76382523Y-55903809D01*
X76382523Y-56141904D01*
X76334904Y-56237142D01*
X76287285Y-56284761D01*
X76192047Y-56332380D01*
X75906333Y-56332380D01*
X75811095Y-56284761D01*
X75763476Y-56237142D01*
X77239666Y-55332380D02*
X77049190Y-55332380D01*
X76953952Y-55380000D01*
X76906333Y-55427619D01*
X76811095Y-55570476D01*
X76763476Y-55760952D01*
X76763476Y-56141904D01*
X76811095Y-56237142D01*
X76858714Y-56284761D01*
X76953952Y-56332380D01*
X77144428Y-56332380D01*
X77239666Y-56284761D01*
X77287285Y-56237142D01*
X77334904Y-56141904D01*
X77334904Y-55903809D01*
X77287285Y-55808571D01*
X77239666Y-55760952D01*
X77144428Y-55713333D01*
X76953952Y-55713333D01*
X76858714Y-55760952D01*
X76811095Y-55808571D01*
X76763476Y-55903809D01*
X75430142Y-62682380D02*
X75096809Y-62206190D01*
X74858714Y-62682380D02*
X74858714Y-61682380D01*
X75239666Y-61682380D01*
X75334904Y-61730000D01*
X75382523Y-61777619D01*
X75430142Y-61872857D01*
X75430142Y-62015714D01*
X75382523Y-62110952D01*
X75334904Y-62158571D01*
X75239666Y-62206190D01*
X74858714Y-62206190D01*
X75763476Y-61682380D02*
X76382523Y-61682380D01*
X76049190Y-62063333D01*
X76192047Y-62063333D01*
X76287285Y-62110952D01*
X76334904Y-62158571D01*
X76382523Y-62253809D01*
X76382523Y-62491904D01*
X76334904Y-62587142D01*
X76287285Y-62634761D01*
X76192047Y-62682380D01*
X75906333Y-62682380D01*
X75811095Y-62634761D01*
X75763476Y-62587142D01*
X76715857Y-61682380D02*
X77382523Y-61682380D01*
X76953952Y-62682380D01*
X75430142Y-75382380D02*
X75096809Y-74906190D01*
X74858714Y-75382380D02*
X74858714Y-74382380D01*
X75239666Y-74382380D01*
X75334904Y-74430000D01*
X75382523Y-74477619D01*
X75430142Y-74572857D01*
X75430142Y-74715714D01*
X75382523Y-74810952D01*
X75334904Y-74858571D01*
X75239666Y-74906190D01*
X74858714Y-74906190D01*
X75763476Y-74382380D02*
X76382523Y-74382380D01*
X76049190Y-74763333D01*
X76192047Y-74763333D01*
X76287285Y-74810952D01*
X76334904Y-74858571D01*
X76382523Y-74953809D01*
X76382523Y-75191904D01*
X76334904Y-75287142D01*
X76287285Y-75334761D01*
X76192047Y-75382380D01*
X75906333Y-75382380D01*
X75811095Y-75334761D01*
X75763476Y-75287142D01*
X76858714Y-75382380D02*
X77049190Y-75382380D01*
X77144428Y-75334761D01*
X77192047Y-75287142D01*
X77287285Y-75144285D01*
X77334904Y-74953809D01*
X77334904Y-74572857D01*
X77287285Y-74477619D01*
X77239666Y-74430000D01*
X77144428Y-74382380D01*
X76953952Y-74382380D01*
X76858714Y-74430000D01*
X76811095Y-74477619D01*
X76763476Y-74572857D01*
X76763476Y-74810952D01*
X76811095Y-74906190D01*
X76858714Y-74953809D01*
X76953952Y-75001428D01*
X77144428Y-75001428D01*
X77239666Y-74953809D01*
X77287285Y-74906190D01*
X77334904Y-74810952D01*
X52014380Y-65158857D02*
X51538190Y-65492190D01*
X52014380Y-65730285D02*
X51014380Y-65730285D01*
X51014380Y-65349333D01*
X51062000Y-65254095D01*
X51109619Y-65206476D01*
X51204857Y-65158857D01*
X51347714Y-65158857D01*
X51442952Y-65206476D01*
X51490571Y-65254095D01*
X51538190Y-65349333D01*
X51538190Y-65730285D01*
X51347714Y-64301714D02*
X52014380Y-64301714D01*
X50966761Y-64539809D02*
X51681047Y-64777904D01*
X51681047Y-64158857D01*
X51014380Y-63587428D02*
X51014380Y-63492190D01*
X51062000Y-63396952D01*
X51109619Y-63349333D01*
X51204857Y-63301714D01*
X51395333Y-63254095D01*
X51633428Y-63254095D01*
X51823904Y-63301714D01*
X51919142Y-63349333D01*
X51966761Y-63396952D01*
X52014380Y-63492190D01*
X52014380Y-63587428D01*
X51966761Y-63682666D01*
X51919142Y-63730285D01*
X51823904Y-63777904D01*
X51633428Y-63825523D01*
X51395333Y-63825523D01*
X51204857Y-63777904D01*
X51109619Y-63730285D01*
X51062000Y-63682666D01*
X51014380Y-63587428D01*
X137787142Y-37917380D02*
X137453809Y-37441190D01*
X137215714Y-37917380D02*
X137215714Y-36917380D01*
X137596666Y-36917380D01*
X137691904Y-36965000D01*
X137739523Y-37012619D01*
X137787142Y-37107857D01*
X137787142Y-37250714D01*
X137739523Y-37345952D01*
X137691904Y-37393571D01*
X137596666Y-37441190D01*
X137215714Y-37441190D01*
X138644285Y-37250714D02*
X138644285Y-37917380D01*
X138406190Y-36869761D02*
X138168095Y-37584047D01*
X138787142Y-37584047D01*
X139691904Y-37917380D02*
X139120476Y-37917380D01*
X139406190Y-37917380D02*
X139406190Y-36917380D01*
X139310952Y-37060238D01*
X139215714Y-37155476D01*
X139120476Y-37203095D01*
X137787142Y-44267380D02*
X137453809Y-43791190D01*
X137215714Y-44267380D02*
X137215714Y-43267380D01*
X137596666Y-43267380D01*
X137691904Y-43315000D01*
X137739523Y-43362619D01*
X137787142Y-43457857D01*
X137787142Y-43600714D01*
X137739523Y-43695952D01*
X137691904Y-43743571D01*
X137596666Y-43791190D01*
X137215714Y-43791190D01*
X138644285Y-43600714D02*
X138644285Y-44267380D01*
X138406190Y-43219761D02*
X138168095Y-43934047D01*
X138787142Y-43934047D01*
X139120476Y-43362619D02*
X139168095Y-43315000D01*
X139263333Y-43267380D01*
X139501428Y-43267380D01*
X139596666Y-43315000D01*
X139644285Y-43362619D01*
X139691904Y-43457857D01*
X139691904Y-43553095D01*
X139644285Y-43695952D01*
X139072857Y-44267380D01*
X139691904Y-44267380D01*
X137787142Y-50617380D02*
X137453809Y-50141190D01*
X137215714Y-50617380D02*
X137215714Y-49617380D01*
X137596666Y-49617380D01*
X137691904Y-49665000D01*
X137739523Y-49712619D01*
X137787142Y-49807857D01*
X137787142Y-49950714D01*
X137739523Y-50045952D01*
X137691904Y-50093571D01*
X137596666Y-50141190D01*
X137215714Y-50141190D01*
X138644285Y-49950714D02*
X138644285Y-50617380D01*
X138406190Y-49569761D02*
X138168095Y-50284047D01*
X138787142Y-50284047D01*
X139072857Y-49617380D02*
X139691904Y-49617380D01*
X139358571Y-49998333D01*
X139501428Y-49998333D01*
X139596666Y-50045952D01*
X139644285Y-50093571D01*
X139691904Y-50188809D01*
X139691904Y-50426904D01*
X139644285Y-50522142D01*
X139596666Y-50569761D01*
X139501428Y-50617380D01*
X139215714Y-50617380D01*
X139120476Y-50569761D01*
X139072857Y-50522142D01*
X137787142Y-56967380D02*
X137453809Y-56491190D01*
X137215714Y-56967380D02*
X137215714Y-55967380D01*
X137596666Y-55967380D01*
X137691904Y-56015000D01*
X137739523Y-56062619D01*
X137787142Y-56157857D01*
X137787142Y-56300714D01*
X137739523Y-56395952D01*
X137691904Y-56443571D01*
X137596666Y-56491190D01*
X137215714Y-56491190D01*
X138644285Y-56300714D02*
X138644285Y-56967380D01*
X138406190Y-55919761D02*
X138168095Y-56634047D01*
X138787142Y-56634047D01*
X139596666Y-56300714D02*
X139596666Y-56967380D01*
X139358571Y-55919761D02*
X139120476Y-56634047D01*
X139739523Y-56634047D01*
X137787142Y-63317380D02*
X137453809Y-62841190D01*
X137215714Y-63317380D02*
X137215714Y-62317380D01*
X137596666Y-62317380D01*
X137691904Y-62365000D01*
X137739523Y-62412619D01*
X137787142Y-62507857D01*
X137787142Y-62650714D01*
X137739523Y-62745952D01*
X137691904Y-62793571D01*
X137596666Y-62841190D01*
X137215714Y-62841190D01*
X138644285Y-62650714D02*
X138644285Y-63317380D01*
X138406190Y-62269761D02*
X138168095Y-62984047D01*
X138787142Y-62984047D01*
X139644285Y-62317380D02*
X139168095Y-62317380D01*
X139120476Y-62793571D01*
X139168095Y-62745952D01*
X139263333Y-62698333D01*
X139501428Y-62698333D01*
X139596666Y-62745952D01*
X139644285Y-62793571D01*
X139691904Y-62888809D01*
X139691904Y-63126904D01*
X139644285Y-63222142D01*
X139596666Y-63269761D01*
X139501428Y-63317380D01*
X139263333Y-63317380D01*
X139168095Y-63269761D01*
X139120476Y-63222142D01*
X137787142Y-69667380D02*
X137453809Y-69191190D01*
X137215714Y-69667380D02*
X137215714Y-68667380D01*
X137596666Y-68667380D01*
X137691904Y-68715000D01*
X137739523Y-68762619D01*
X137787142Y-68857857D01*
X137787142Y-69000714D01*
X137739523Y-69095952D01*
X137691904Y-69143571D01*
X137596666Y-69191190D01*
X137215714Y-69191190D01*
X138644285Y-69000714D02*
X138644285Y-69667380D01*
X138406190Y-68619761D02*
X138168095Y-69334047D01*
X138787142Y-69334047D01*
X139596666Y-68667380D02*
X139406190Y-68667380D01*
X139310952Y-68715000D01*
X139263333Y-68762619D01*
X139168095Y-68905476D01*
X139120476Y-69095952D01*
X139120476Y-69476904D01*
X139168095Y-69572142D01*
X139215714Y-69619761D01*
X139310952Y-69667380D01*
X139501428Y-69667380D01*
X139596666Y-69619761D01*
X139644285Y-69572142D01*
X139691904Y-69476904D01*
X139691904Y-69238809D01*
X139644285Y-69143571D01*
X139596666Y-69095952D01*
X139501428Y-69048333D01*
X139310952Y-69048333D01*
X139215714Y-69095952D01*
X139168095Y-69143571D01*
X139120476Y-69238809D01*
X137787142Y-76017380D02*
X137453809Y-75541190D01*
X137215714Y-76017380D02*
X137215714Y-75017380D01*
X137596666Y-75017380D01*
X137691904Y-75065000D01*
X137739523Y-75112619D01*
X137787142Y-75207857D01*
X137787142Y-75350714D01*
X137739523Y-75445952D01*
X137691904Y-75493571D01*
X137596666Y-75541190D01*
X137215714Y-75541190D01*
X138644285Y-75350714D02*
X138644285Y-76017380D01*
X138406190Y-74969761D02*
X138168095Y-75684047D01*
X138787142Y-75684047D01*
X139072857Y-75017380D02*
X139739523Y-75017380D01*
X139310952Y-76017380D01*
X114117380Y-70238857D02*
X113641190Y-70572190D01*
X114117380Y-70810285D02*
X113117380Y-70810285D01*
X113117380Y-70429333D01*
X113165000Y-70334095D01*
X113212619Y-70286476D01*
X113307857Y-70238857D01*
X113450714Y-70238857D01*
X113545952Y-70286476D01*
X113593571Y-70334095D01*
X113641190Y-70429333D01*
X113641190Y-70810285D01*
X113450714Y-69381714D02*
X114117380Y-69381714D01*
X113069761Y-69619809D02*
X113784047Y-69857904D01*
X113784047Y-69238857D01*
X113545952Y-68715047D02*
X113498333Y-68810285D01*
X113450714Y-68857904D01*
X113355476Y-68905523D01*
X113307857Y-68905523D01*
X113212619Y-68857904D01*
X113165000Y-68810285D01*
X113117380Y-68715047D01*
X113117380Y-68524571D01*
X113165000Y-68429333D01*
X113212619Y-68381714D01*
X113307857Y-68334095D01*
X113355476Y-68334095D01*
X113450714Y-68381714D01*
X113498333Y-68429333D01*
X113545952Y-68524571D01*
X113545952Y-68715047D01*
X113593571Y-68810285D01*
X113641190Y-68857904D01*
X113736428Y-68905523D01*
X113926904Y-68905523D01*
X114022142Y-68857904D01*
X114069761Y-68810285D01*
X114117380Y-68715047D01*
X114117380Y-68524571D01*
X114069761Y-68429333D01*
X114022142Y-68381714D01*
X113926904Y-68334095D01*
X113736428Y-68334095D01*
X113641190Y-68381714D01*
X113593571Y-68429333D01*
X113545952Y-68524571D01*
X98544142Y-72080380D02*
X98210809Y-71604190D01*
X97972714Y-72080380D02*
X97972714Y-71080380D01*
X98353666Y-71080380D01*
X98448904Y-71128000D01*
X98496523Y-71175619D01*
X98544142Y-71270857D01*
X98544142Y-71413714D01*
X98496523Y-71508952D01*
X98448904Y-71556571D01*
X98353666Y-71604190D01*
X97972714Y-71604190D01*
X99401285Y-71413714D02*
X99401285Y-72080380D01*
X99163190Y-71032761D02*
X98925095Y-71747047D01*
X99544142Y-71747047D01*
X99972714Y-72080380D02*
X100163190Y-72080380D01*
X100258428Y-72032761D01*
X100306047Y-71985142D01*
X100401285Y-71842285D01*
X100448904Y-71651809D01*
X100448904Y-71270857D01*
X100401285Y-71175619D01*
X100353666Y-71128000D01*
X100258428Y-71080380D01*
X100067952Y-71080380D01*
X99972714Y-71128000D01*
X99925095Y-71175619D01*
X99877476Y-71270857D01*
X99877476Y-71508952D01*
X99925095Y-71604190D01*
X99972714Y-71651809D01*
X100067952Y-71699428D01*
X100258428Y-71699428D01*
X100353666Y-71651809D01*
X100401285Y-71604190D01*
X100448904Y-71508952D01*
X98544142Y-65730380D02*
X98210809Y-65254190D01*
X97972714Y-65730380D02*
X97972714Y-64730380D01*
X98353666Y-64730380D01*
X98448904Y-64778000D01*
X98496523Y-64825619D01*
X98544142Y-64920857D01*
X98544142Y-65063714D01*
X98496523Y-65158952D01*
X98448904Y-65206571D01*
X98353666Y-65254190D01*
X97972714Y-65254190D01*
X99448904Y-64730380D02*
X98972714Y-64730380D01*
X98925095Y-65206571D01*
X98972714Y-65158952D01*
X99067952Y-65111333D01*
X99306047Y-65111333D01*
X99401285Y-65158952D01*
X99448904Y-65206571D01*
X99496523Y-65301809D01*
X99496523Y-65539904D01*
X99448904Y-65635142D01*
X99401285Y-65682761D01*
X99306047Y-65730380D01*
X99067952Y-65730380D01*
X98972714Y-65682761D01*
X98925095Y-65635142D01*
X100115571Y-64730380D02*
X100210809Y-64730380D01*
X100306047Y-64778000D01*
X100353666Y-64825619D01*
X100401285Y-64920857D01*
X100448904Y-65111333D01*
X100448904Y-65349428D01*
X100401285Y-65539904D01*
X100353666Y-65635142D01*
X100306047Y-65682761D01*
X100210809Y-65730380D01*
X100115571Y-65730380D01*
X100020333Y-65682761D01*
X99972714Y-65635142D01*
X99925095Y-65539904D01*
X99877476Y-65349428D01*
X99877476Y-65111333D01*
X99925095Y-64920857D01*
X99972714Y-64825619D01*
X100020333Y-64778000D01*
X100115571Y-64730380D01*
X98544142Y-59380380D02*
X98210809Y-58904190D01*
X97972714Y-59380380D02*
X97972714Y-58380380D01*
X98353666Y-58380380D01*
X98448904Y-58428000D01*
X98496523Y-58475619D01*
X98544142Y-58570857D01*
X98544142Y-58713714D01*
X98496523Y-58808952D01*
X98448904Y-58856571D01*
X98353666Y-58904190D01*
X97972714Y-58904190D01*
X99448904Y-58380380D02*
X98972714Y-58380380D01*
X98925095Y-58856571D01*
X98972714Y-58808952D01*
X99067952Y-58761333D01*
X99306047Y-58761333D01*
X99401285Y-58808952D01*
X99448904Y-58856571D01*
X99496523Y-58951809D01*
X99496523Y-59189904D01*
X99448904Y-59285142D01*
X99401285Y-59332761D01*
X99306047Y-59380380D01*
X99067952Y-59380380D01*
X98972714Y-59332761D01*
X98925095Y-59285142D01*
X100448904Y-59380380D02*
X99877476Y-59380380D01*
X100163190Y-59380380D02*
X100163190Y-58380380D01*
X100067952Y-58523238D01*
X99972714Y-58618476D01*
X99877476Y-58666095D01*
X98544142Y-46680380D02*
X98210809Y-46204190D01*
X97972714Y-46680380D02*
X97972714Y-45680380D01*
X98353666Y-45680380D01*
X98448904Y-45728000D01*
X98496523Y-45775619D01*
X98544142Y-45870857D01*
X98544142Y-46013714D01*
X98496523Y-46108952D01*
X98448904Y-46156571D01*
X98353666Y-46204190D01*
X97972714Y-46204190D01*
X99448904Y-45680380D02*
X98972714Y-45680380D01*
X98925095Y-46156571D01*
X98972714Y-46108952D01*
X99067952Y-46061333D01*
X99306047Y-46061333D01*
X99401285Y-46108952D01*
X99448904Y-46156571D01*
X99496523Y-46251809D01*
X99496523Y-46489904D01*
X99448904Y-46585142D01*
X99401285Y-46632761D01*
X99306047Y-46680380D01*
X99067952Y-46680380D01*
X98972714Y-46632761D01*
X98925095Y-46585142D01*
X99829857Y-45680380D02*
X100448904Y-45680380D01*
X100115571Y-46061333D01*
X100258428Y-46061333D01*
X100353666Y-46108952D01*
X100401285Y-46156571D01*
X100448904Y-46251809D01*
X100448904Y-46489904D01*
X100401285Y-46585142D01*
X100353666Y-46632761D01*
X100258428Y-46680380D01*
X99972714Y-46680380D01*
X99877476Y-46632761D01*
X99829857Y-46585142D01*
X98544142Y-40330380D02*
X98210809Y-39854190D01*
X97972714Y-40330380D02*
X97972714Y-39330380D01*
X98353666Y-39330380D01*
X98448904Y-39378000D01*
X98496523Y-39425619D01*
X98544142Y-39520857D01*
X98544142Y-39663714D01*
X98496523Y-39758952D01*
X98448904Y-39806571D01*
X98353666Y-39854190D01*
X97972714Y-39854190D01*
X99448904Y-39330380D02*
X98972714Y-39330380D01*
X98925095Y-39806571D01*
X98972714Y-39758952D01*
X99067952Y-39711333D01*
X99306047Y-39711333D01*
X99401285Y-39758952D01*
X99448904Y-39806571D01*
X99496523Y-39901809D01*
X99496523Y-40139904D01*
X99448904Y-40235142D01*
X99401285Y-40282761D01*
X99306047Y-40330380D01*
X99067952Y-40330380D01*
X98972714Y-40282761D01*
X98925095Y-40235142D01*
X100353666Y-39663714D02*
X100353666Y-40330380D01*
X100115571Y-39282761D02*
X99877476Y-39997047D01*
X100496523Y-39997047D01*
X98544142Y-33980380D02*
X98210809Y-33504190D01*
X97972714Y-33980380D02*
X97972714Y-32980380D01*
X98353666Y-32980380D01*
X98448904Y-33028000D01*
X98496523Y-33075619D01*
X98544142Y-33170857D01*
X98544142Y-33313714D01*
X98496523Y-33408952D01*
X98448904Y-33456571D01*
X98353666Y-33504190D01*
X97972714Y-33504190D01*
X99448904Y-32980380D02*
X98972714Y-32980380D01*
X98925095Y-33456571D01*
X98972714Y-33408952D01*
X99067952Y-33361333D01*
X99306047Y-33361333D01*
X99401285Y-33408952D01*
X99448904Y-33456571D01*
X99496523Y-33551809D01*
X99496523Y-33789904D01*
X99448904Y-33885142D01*
X99401285Y-33932761D01*
X99306047Y-33980380D01*
X99067952Y-33980380D01*
X98972714Y-33932761D01*
X98925095Y-33885142D01*
X100401285Y-32980380D02*
X99925095Y-32980380D01*
X99877476Y-33456571D01*
X99925095Y-33408952D01*
X100020333Y-33361333D01*
X100258428Y-33361333D01*
X100353666Y-33408952D01*
X100401285Y-33456571D01*
X100448904Y-33551809D01*
X100448904Y-33789904D01*
X100401285Y-33885142D01*
X100353666Y-33932761D01*
X100258428Y-33980380D01*
X100020333Y-33980380D01*
X99925095Y-33932761D01*
X99877476Y-33885142D01*
X123642380Y-44203857D02*
X123166190Y-44537190D01*
X123642380Y-44775285D02*
X122642380Y-44775285D01*
X122642380Y-44394333D01*
X122690000Y-44299095D01*
X122737619Y-44251476D01*
X122832857Y-44203857D01*
X122975714Y-44203857D01*
X123070952Y-44251476D01*
X123118571Y-44299095D01*
X123166190Y-44394333D01*
X123166190Y-44775285D01*
X122642380Y-43299095D02*
X122642380Y-43775285D01*
X123118571Y-43822904D01*
X123070952Y-43775285D01*
X123023333Y-43680047D01*
X123023333Y-43441952D01*
X123070952Y-43346714D01*
X123118571Y-43299095D01*
X123213809Y-43251476D01*
X123451904Y-43251476D01*
X123547142Y-43299095D01*
X123594761Y-43346714D01*
X123642380Y-43441952D01*
X123642380Y-43680047D01*
X123594761Y-43775285D01*
X123547142Y-43822904D01*
X122642380Y-42394333D02*
X122642380Y-42584809D01*
X122690000Y-42680047D01*
X122737619Y-42727666D01*
X122880476Y-42822904D01*
X123070952Y-42870523D01*
X123451904Y-42870523D01*
X123547142Y-42822904D01*
X123594761Y-42775285D01*
X123642380Y-42680047D01*
X123642380Y-42489571D01*
X123594761Y-42394333D01*
X123547142Y-42346714D01*
X123451904Y-42299095D01*
X123213809Y-42299095D01*
X123118571Y-42346714D01*
X123070952Y-42394333D01*
X123023333Y-42489571D01*
X123023333Y-42680047D01*
X123070952Y-42775285D01*
X123118571Y-42822904D01*
X123213809Y-42870523D01*
X35806142Y-104592380D02*
X35472809Y-104116190D01*
X35234714Y-104592380D02*
X35234714Y-103592380D01*
X35615666Y-103592380D01*
X35710904Y-103640000D01*
X35758523Y-103687619D01*
X35806142Y-103782857D01*
X35806142Y-103925714D01*
X35758523Y-104020952D01*
X35710904Y-104068571D01*
X35615666Y-104116190D01*
X35234714Y-104116190D01*
X36710904Y-103592380D02*
X36234714Y-103592380D01*
X36187095Y-104068571D01*
X36234714Y-104020952D01*
X36329952Y-103973333D01*
X36568047Y-103973333D01*
X36663285Y-104020952D01*
X36710904Y-104068571D01*
X36758523Y-104163809D01*
X36758523Y-104401904D01*
X36710904Y-104497142D01*
X36663285Y-104544761D01*
X36568047Y-104592380D01*
X36329952Y-104592380D01*
X36234714Y-104544761D01*
X36187095Y-104497142D01*
X37329952Y-104020952D02*
X37234714Y-103973333D01*
X37187095Y-103925714D01*
X37139476Y-103830476D01*
X37139476Y-103782857D01*
X37187095Y-103687619D01*
X37234714Y-103640000D01*
X37329952Y-103592380D01*
X37520428Y-103592380D01*
X37615666Y-103640000D01*
X37663285Y-103687619D01*
X37710904Y-103782857D01*
X37710904Y-103830476D01*
X37663285Y-103925714D01*
X37615666Y-103973333D01*
X37520428Y-104020952D01*
X37329952Y-104020952D01*
X37234714Y-104068571D01*
X37187095Y-104116190D01*
X37139476Y-104211428D01*
X37139476Y-104401904D01*
X37187095Y-104497142D01*
X37234714Y-104544761D01*
X37329952Y-104592380D01*
X37520428Y-104592380D01*
X37615666Y-104544761D01*
X37663285Y-104497142D01*
X37710904Y-104401904D01*
X37710904Y-104211428D01*
X37663285Y-104116190D01*
X37615666Y-104068571D01*
X37520428Y-104020952D01*
X35806142Y-98369380D02*
X35472809Y-97893190D01*
X35234714Y-98369380D02*
X35234714Y-97369380D01*
X35615666Y-97369380D01*
X35710904Y-97417000D01*
X35758523Y-97464619D01*
X35806142Y-97559857D01*
X35806142Y-97702714D01*
X35758523Y-97797952D01*
X35710904Y-97845571D01*
X35615666Y-97893190D01*
X35234714Y-97893190D01*
X36710904Y-97369380D02*
X36234714Y-97369380D01*
X36187095Y-97845571D01*
X36234714Y-97797952D01*
X36329952Y-97750333D01*
X36568047Y-97750333D01*
X36663285Y-97797952D01*
X36710904Y-97845571D01*
X36758523Y-97940809D01*
X36758523Y-98178904D01*
X36710904Y-98274142D01*
X36663285Y-98321761D01*
X36568047Y-98369380D01*
X36329952Y-98369380D01*
X36234714Y-98321761D01*
X36187095Y-98274142D01*
X37234714Y-98369380D02*
X37425190Y-98369380D01*
X37520428Y-98321761D01*
X37568047Y-98274142D01*
X37663285Y-98131285D01*
X37710904Y-97940809D01*
X37710904Y-97559857D01*
X37663285Y-97464619D01*
X37615666Y-97417000D01*
X37520428Y-97369380D01*
X37329952Y-97369380D01*
X37234714Y-97417000D01*
X37187095Y-97464619D01*
X37139476Y-97559857D01*
X37139476Y-97797952D01*
X37187095Y-97893190D01*
X37234714Y-97940809D01*
X37329952Y-97988428D01*
X37520428Y-97988428D01*
X37615666Y-97940809D01*
X37663285Y-97893190D01*
X37710904Y-97797952D01*
X35806142Y-92019380D02*
X35472809Y-91543190D01*
X35234714Y-92019380D02*
X35234714Y-91019380D01*
X35615666Y-91019380D01*
X35710904Y-91067000D01*
X35758523Y-91114619D01*
X35806142Y-91209857D01*
X35806142Y-91352714D01*
X35758523Y-91447952D01*
X35710904Y-91495571D01*
X35615666Y-91543190D01*
X35234714Y-91543190D01*
X36663285Y-91019380D02*
X36472809Y-91019380D01*
X36377571Y-91067000D01*
X36329952Y-91114619D01*
X36234714Y-91257476D01*
X36187095Y-91447952D01*
X36187095Y-91828904D01*
X36234714Y-91924142D01*
X36282333Y-91971761D01*
X36377571Y-92019380D01*
X36568047Y-92019380D01*
X36663285Y-91971761D01*
X36710904Y-91924142D01*
X36758523Y-91828904D01*
X36758523Y-91590809D01*
X36710904Y-91495571D01*
X36663285Y-91447952D01*
X36568047Y-91400333D01*
X36377571Y-91400333D01*
X36282333Y-91447952D01*
X36234714Y-91495571D01*
X36187095Y-91590809D01*
X37377571Y-91019380D02*
X37472809Y-91019380D01*
X37568047Y-91067000D01*
X37615666Y-91114619D01*
X37663285Y-91209857D01*
X37710904Y-91400333D01*
X37710904Y-91638428D01*
X37663285Y-91828904D01*
X37615666Y-91924142D01*
X37568047Y-91971761D01*
X37472809Y-92019380D01*
X37377571Y-92019380D01*
X37282333Y-91971761D01*
X37234714Y-91924142D01*
X37187095Y-91828904D01*
X37139476Y-91638428D01*
X37139476Y-91400333D01*
X37187095Y-91209857D01*
X37234714Y-91114619D01*
X37282333Y-91067000D01*
X37377571Y-91019380D01*
X35806142Y-85669380D02*
X35472809Y-85193190D01*
X35234714Y-85669380D02*
X35234714Y-84669380D01*
X35615666Y-84669380D01*
X35710904Y-84717000D01*
X35758523Y-84764619D01*
X35806142Y-84859857D01*
X35806142Y-85002714D01*
X35758523Y-85097952D01*
X35710904Y-85145571D01*
X35615666Y-85193190D01*
X35234714Y-85193190D01*
X36663285Y-84669380D02*
X36472809Y-84669380D01*
X36377571Y-84717000D01*
X36329952Y-84764619D01*
X36234714Y-84907476D01*
X36187095Y-85097952D01*
X36187095Y-85478904D01*
X36234714Y-85574142D01*
X36282333Y-85621761D01*
X36377571Y-85669380D01*
X36568047Y-85669380D01*
X36663285Y-85621761D01*
X36710904Y-85574142D01*
X36758523Y-85478904D01*
X36758523Y-85240809D01*
X36710904Y-85145571D01*
X36663285Y-85097952D01*
X36568047Y-85050333D01*
X36377571Y-85050333D01*
X36282333Y-85097952D01*
X36234714Y-85145571D01*
X36187095Y-85240809D01*
X37710904Y-85669380D02*
X37139476Y-85669380D01*
X37425190Y-85669380D02*
X37425190Y-84669380D01*
X37329952Y-84812238D01*
X37234714Y-84907476D01*
X37139476Y-84955095D01*
X35806142Y-79319380D02*
X35472809Y-78843190D01*
X35234714Y-79319380D02*
X35234714Y-78319380D01*
X35615666Y-78319380D01*
X35710904Y-78367000D01*
X35758523Y-78414619D01*
X35806142Y-78509857D01*
X35806142Y-78652714D01*
X35758523Y-78747952D01*
X35710904Y-78795571D01*
X35615666Y-78843190D01*
X35234714Y-78843190D01*
X36663285Y-78319380D02*
X36472809Y-78319380D01*
X36377571Y-78367000D01*
X36329952Y-78414619D01*
X36234714Y-78557476D01*
X36187095Y-78747952D01*
X36187095Y-79128904D01*
X36234714Y-79224142D01*
X36282333Y-79271761D01*
X36377571Y-79319380D01*
X36568047Y-79319380D01*
X36663285Y-79271761D01*
X36710904Y-79224142D01*
X36758523Y-79128904D01*
X36758523Y-78890809D01*
X36710904Y-78795571D01*
X36663285Y-78747952D01*
X36568047Y-78700333D01*
X36377571Y-78700333D01*
X36282333Y-78747952D01*
X36234714Y-78795571D01*
X36187095Y-78890809D01*
X37139476Y-78414619D02*
X37187095Y-78367000D01*
X37282333Y-78319380D01*
X37520428Y-78319380D01*
X37615666Y-78367000D01*
X37663285Y-78414619D01*
X37710904Y-78509857D01*
X37710904Y-78605095D01*
X37663285Y-78747952D01*
X37091857Y-79319380D01*
X37710904Y-79319380D01*
X35806142Y-72969380D02*
X35472809Y-72493190D01*
X35234714Y-72969380D02*
X35234714Y-71969380D01*
X35615666Y-71969380D01*
X35710904Y-72017000D01*
X35758523Y-72064619D01*
X35806142Y-72159857D01*
X35806142Y-72302714D01*
X35758523Y-72397952D01*
X35710904Y-72445571D01*
X35615666Y-72493190D01*
X35234714Y-72493190D01*
X36663285Y-71969380D02*
X36472809Y-71969380D01*
X36377571Y-72017000D01*
X36329952Y-72064619D01*
X36234714Y-72207476D01*
X36187095Y-72397952D01*
X36187095Y-72778904D01*
X36234714Y-72874142D01*
X36282333Y-72921761D01*
X36377571Y-72969380D01*
X36568047Y-72969380D01*
X36663285Y-72921761D01*
X36710904Y-72874142D01*
X36758523Y-72778904D01*
X36758523Y-72540809D01*
X36710904Y-72445571D01*
X36663285Y-72397952D01*
X36568047Y-72350333D01*
X36377571Y-72350333D01*
X36282333Y-72397952D01*
X36234714Y-72445571D01*
X36187095Y-72540809D01*
X37091857Y-71969380D02*
X37710904Y-71969380D01*
X37377571Y-72350333D01*
X37520428Y-72350333D01*
X37615666Y-72397952D01*
X37663285Y-72445571D01*
X37710904Y-72540809D01*
X37710904Y-72778904D01*
X37663285Y-72874142D01*
X37615666Y-72921761D01*
X37520428Y-72969380D01*
X37234714Y-72969380D01*
X37139476Y-72921761D01*
X37091857Y-72874142D01*
X60396380Y-93352857D02*
X59920190Y-93686190D01*
X60396380Y-93924285D02*
X59396380Y-93924285D01*
X59396380Y-93543333D01*
X59444000Y-93448095D01*
X59491619Y-93400476D01*
X59586857Y-93352857D01*
X59729714Y-93352857D01*
X59824952Y-93400476D01*
X59872571Y-93448095D01*
X59920190Y-93543333D01*
X59920190Y-93924285D01*
X59396380Y-92495714D02*
X59396380Y-92686190D01*
X59444000Y-92781428D01*
X59491619Y-92829047D01*
X59634476Y-92924285D01*
X59824952Y-92971904D01*
X60205904Y-92971904D01*
X60301142Y-92924285D01*
X60348761Y-92876666D01*
X60396380Y-92781428D01*
X60396380Y-92590952D01*
X60348761Y-92495714D01*
X60301142Y-92448095D01*
X60205904Y-92400476D01*
X59967809Y-92400476D01*
X59872571Y-92448095D01*
X59824952Y-92495714D01*
X59777333Y-92590952D01*
X59777333Y-92781428D01*
X59824952Y-92876666D01*
X59872571Y-92924285D01*
X59967809Y-92971904D01*
X59729714Y-91543333D02*
X60396380Y-91543333D01*
X59348761Y-91781428D02*
X60063047Y-92019523D01*
X60063047Y-91400476D01*
X75430142Y-86177380D02*
X75096809Y-85701190D01*
X74858714Y-86177380D02*
X74858714Y-85177380D01*
X75239666Y-85177380D01*
X75334904Y-85225000D01*
X75382523Y-85272619D01*
X75430142Y-85367857D01*
X75430142Y-85510714D01*
X75382523Y-85605952D01*
X75334904Y-85653571D01*
X75239666Y-85701190D01*
X74858714Y-85701190D01*
X76287285Y-85177380D02*
X76096809Y-85177380D01*
X76001571Y-85225000D01*
X75953952Y-85272619D01*
X75858714Y-85415476D01*
X75811095Y-85605952D01*
X75811095Y-85986904D01*
X75858714Y-86082142D01*
X75906333Y-86129761D01*
X76001571Y-86177380D01*
X76192047Y-86177380D01*
X76287285Y-86129761D01*
X76334904Y-86082142D01*
X76382523Y-85986904D01*
X76382523Y-85748809D01*
X76334904Y-85653571D01*
X76287285Y-85605952D01*
X76192047Y-85558333D01*
X76001571Y-85558333D01*
X75906333Y-85605952D01*
X75858714Y-85653571D01*
X75811095Y-85748809D01*
X77287285Y-85177380D02*
X76811095Y-85177380D01*
X76763476Y-85653571D01*
X76811095Y-85605952D01*
X76906333Y-85558333D01*
X77144428Y-85558333D01*
X77239666Y-85605952D01*
X77287285Y-85653571D01*
X77334904Y-85748809D01*
X77334904Y-85986904D01*
X77287285Y-86082142D01*
X77239666Y-86129761D01*
X77144428Y-86177380D01*
X76906333Y-86177380D01*
X76811095Y-86129761D01*
X76763476Y-86082142D01*
X75430142Y-98877380D02*
X75096809Y-98401190D01*
X74858714Y-98877380D02*
X74858714Y-97877380D01*
X75239666Y-97877380D01*
X75334904Y-97925000D01*
X75382523Y-97972619D01*
X75430142Y-98067857D01*
X75430142Y-98210714D01*
X75382523Y-98305952D01*
X75334904Y-98353571D01*
X75239666Y-98401190D01*
X74858714Y-98401190D01*
X76287285Y-97877380D02*
X76096809Y-97877380D01*
X76001571Y-97925000D01*
X75953952Y-97972619D01*
X75858714Y-98115476D01*
X75811095Y-98305952D01*
X75811095Y-98686904D01*
X75858714Y-98782142D01*
X75906333Y-98829761D01*
X76001571Y-98877380D01*
X76192047Y-98877380D01*
X76287285Y-98829761D01*
X76334904Y-98782142D01*
X76382523Y-98686904D01*
X76382523Y-98448809D01*
X76334904Y-98353571D01*
X76287285Y-98305952D01*
X76192047Y-98258333D01*
X76001571Y-98258333D01*
X75906333Y-98305952D01*
X75858714Y-98353571D01*
X75811095Y-98448809D01*
X76715857Y-97877380D02*
X77382523Y-97877380D01*
X76953952Y-98877380D01*
X75430142Y-105227380D02*
X75096809Y-104751190D01*
X74858714Y-105227380D02*
X74858714Y-104227380D01*
X75239666Y-104227380D01*
X75334904Y-104275000D01*
X75382523Y-104322619D01*
X75430142Y-104417857D01*
X75430142Y-104560714D01*
X75382523Y-104655952D01*
X75334904Y-104703571D01*
X75239666Y-104751190D01*
X74858714Y-104751190D01*
X76287285Y-104227380D02*
X76096809Y-104227380D01*
X76001571Y-104275000D01*
X75953952Y-104322619D01*
X75858714Y-104465476D01*
X75811095Y-104655952D01*
X75811095Y-105036904D01*
X75858714Y-105132142D01*
X75906333Y-105179761D01*
X76001571Y-105227380D01*
X76192047Y-105227380D01*
X76287285Y-105179761D01*
X76334904Y-105132142D01*
X76382523Y-105036904D01*
X76382523Y-104798809D01*
X76334904Y-104703571D01*
X76287285Y-104655952D01*
X76192047Y-104608333D01*
X76001571Y-104608333D01*
X75906333Y-104655952D01*
X75858714Y-104703571D01*
X75811095Y-104798809D01*
X76953952Y-104655952D02*
X76858714Y-104608333D01*
X76811095Y-104560714D01*
X76763476Y-104465476D01*
X76763476Y-104417857D01*
X76811095Y-104322619D01*
X76858714Y-104275000D01*
X76953952Y-104227380D01*
X77144428Y-104227380D01*
X77239666Y-104275000D01*
X77287285Y-104322619D01*
X77334904Y-104417857D01*
X77334904Y-104465476D01*
X77287285Y-104560714D01*
X77239666Y-104608333D01*
X77144428Y-104655952D01*
X76953952Y-104655952D01*
X76858714Y-104703571D01*
X76811095Y-104751190D01*
X76763476Y-104846428D01*
X76763476Y-105036904D01*
X76811095Y-105132142D01*
X76858714Y-105179761D01*
X76953952Y-105227380D01*
X77144428Y-105227380D01*
X77239666Y-105179761D01*
X77287285Y-105132142D01*
X77334904Y-105036904D01*
X77334904Y-104846428D01*
X77287285Y-104751190D01*
X77239666Y-104703571D01*
X77144428Y-104655952D01*
X75430142Y-111577380D02*
X75096809Y-111101190D01*
X74858714Y-111577380D02*
X74858714Y-110577380D01*
X75239666Y-110577380D01*
X75334904Y-110625000D01*
X75382523Y-110672619D01*
X75430142Y-110767857D01*
X75430142Y-110910714D01*
X75382523Y-111005952D01*
X75334904Y-111053571D01*
X75239666Y-111101190D01*
X74858714Y-111101190D01*
X76287285Y-110577380D02*
X76096809Y-110577380D01*
X76001571Y-110625000D01*
X75953952Y-110672619D01*
X75858714Y-110815476D01*
X75811095Y-111005952D01*
X75811095Y-111386904D01*
X75858714Y-111482142D01*
X75906333Y-111529761D01*
X76001571Y-111577380D01*
X76192047Y-111577380D01*
X76287285Y-111529761D01*
X76334904Y-111482142D01*
X76382523Y-111386904D01*
X76382523Y-111148809D01*
X76334904Y-111053571D01*
X76287285Y-111005952D01*
X76192047Y-110958333D01*
X76001571Y-110958333D01*
X75906333Y-111005952D01*
X75858714Y-111053571D01*
X75811095Y-111148809D01*
X76858714Y-111577380D02*
X77049190Y-111577380D01*
X77144428Y-111529761D01*
X77192047Y-111482142D01*
X77287285Y-111339285D01*
X77334904Y-111148809D01*
X77334904Y-110767857D01*
X77287285Y-110672619D01*
X77239666Y-110625000D01*
X77144428Y-110577380D01*
X76953952Y-110577380D01*
X76858714Y-110625000D01*
X76811095Y-110672619D01*
X76763476Y-110767857D01*
X76763476Y-111005952D01*
X76811095Y-111101190D01*
X76858714Y-111148809D01*
X76953952Y-111196428D01*
X77144428Y-111196428D01*
X77239666Y-111148809D01*
X77287285Y-111101190D01*
X77334904Y-111005952D01*
X75430142Y-117927380D02*
X75096809Y-117451190D01*
X74858714Y-117927380D02*
X74858714Y-116927380D01*
X75239666Y-116927380D01*
X75334904Y-116975000D01*
X75382523Y-117022619D01*
X75430142Y-117117857D01*
X75430142Y-117260714D01*
X75382523Y-117355952D01*
X75334904Y-117403571D01*
X75239666Y-117451190D01*
X74858714Y-117451190D01*
X75763476Y-116927380D02*
X76430142Y-116927380D01*
X76001571Y-117927380D01*
X77001571Y-116927380D02*
X77096809Y-116927380D01*
X77192047Y-116975000D01*
X77239666Y-117022619D01*
X77287285Y-117117857D01*
X77334904Y-117308333D01*
X77334904Y-117546428D01*
X77287285Y-117736904D01*
X77239666Y-117832142D01*
X77192047Y-117879761D01*
X77096809Y-117927380D01*
X77001571Y-117927380D01*
X76906333Y-117879761D01*
X76858714Y-117832142D01*
X76811095Y-117736904D01*
X76763476Y-117546428D01*
X76763476Y-117308333D01*
X76811095Y-117117857D01*
X76858714Y-117022619D01*
X76906333Y-116975000D01*
X77001571Y-116927380D01*
X75430142Y-124277380D02*
X75096809Y-123801190D01*
X74858714Y-124277380D02*
X74858714Y-123277380D01*
X75239666Y-123277380D01*
X75334904Y-123325000D01*
X75382523Y-123372619D01*
X75430142Y-123467857D01*
X75430142Y-123610714D01*
X75382523Y-123705952D01*
X75334904Y-123753571D01*
X75239666Y-123801190D01*
X74858714Y-123801190D01*
X75763476Y-123277380D02*
X76430142Y-123277380D01*
X76001571Y-124277380D01*
X77334904Y-124277380D02*
X76763476Y-124277380D01*
X77049190Y-124277380D02*
X77049190Y-123277380D01*
X76953952Y-123420238D01*
X76858714Y-123515476D01*
X76763476Y-123563095D01*
X50363380Y-118371857D02*
X49887190Y-118705190D01*
X50363380Y-118943285D02*
X49363380Y-118943285D01*
X49363380Y-118562333D01*
X49411000Y-118467095D01*
X49458619Y-118419476D01*
X49553857Y-118371857D01*
X49696714Y-118371857D01*
X49791952Y-118419476D01*
X49839571Y-118467095D01*
X49887190Y-118562333D01*
X49887190Y-118943285D01*
X49363380Y-118038523D02*
X49363380Y-117371857D01*
X50363380Y-117800428D01*
X49458619Y-117038523D02*
X49411000Y-116990904D01*
X49363380Y-116895666D01*
X49363380Y-116657571D01*
X49411000Y-116562333D01*
X49458619Y-116514714D01*
X49553857Y-116467095D01*
X49649095Y-116467095D01*
X49791952Y-116514714D01*
X50363380Y-117086142D01*
X50363380Y-116467095D01*
X97655142Y-121102380D02*
X97321809Y-120626190D01*
X97083714Y-121102380D02*
X97083714Y-120102380D01*
X97464666Y-120102380D01*
X97559904Y-120150000D01*
X97607523Y-120197619D01*
X97655142Y-120292857D01*
X97655142Y-120435714D01*
X97607523Y-120530952D01*
X97559904Y-120578571D01*
X97464666Y-120626190D01*
X97083714Y-120626190D01*
X97988476Y-120102380D02*
X98655142Y-120102380D01*
X98226571Y-121102380D01*
X98940857Y-120102380D02*
X99559904Y-120102380D01*
X99226571Y-120483333D01*
X99369428Y-120483333D01*
X99464666Y-120530952D01*
X99512285Y-120578571D01*
X99559904Y-120673809D01*
X99559904Y-120911904D01*
X99512285Y-121007142D01*
X99464666Y-121054761D01*
X99369428Y-121102380D01*
X99083714Y-121102380D01*
X98988476Y-121054761D01*
X98940857Y-121007142D01*
X97655142Y-114752380D02*
X97321809Y-114276190D01*
X97083714Y-114752380D02*
X97083714Y-113752380D01*
X97464666Y-113752380D01*
X97559904Y-113800000D01*
X97607523Y-113847619D01*
X97655142Y-113942857D01*
X97655142Y-114085714D01*
X97607523Y-114180952D01*
X97559904Y-114228571D01*
X97464666Y-114276190D01*
X97083714Y-114276190D01*
X97988476Y-113752380D02*
X98655142Y-113752380D01*
X98226571Y-114752380D01*
X99464666Y-114085714D02*
X99464666Y-114752380D01*
X99226571Y-113704761D02*
X98988476Y-114419047D01*
X99607523Y-114419047D01*
X97655142Y-108402380D02*
X97321809Y-107926190D01*
X97083714Y-108402380D02*
X97083714Y-107402380D01*
X97464666Y-107402380D01*
X97559904Y-107450000D01*
X97607523Y-107497619D01*
X97655142Y-107592857D01*
X97655142Y-107735714D01*
X97607523Y-107830952D01*
X97559904Y-107878571D01*
X97464666Y-107926190D01*
X97083714Y-107926190D01*
X97988476Y-107402380D02*
X98655142Y-107402380D01*
X98226571Y-108402380D01*
X99512285Y-107402380D02*
X99036095Y-107402380D01*
X98988476Y-107878571D01*
X99036095Y-107830952D01*
X99131333Y-107783333D01*
X99369428Y-107783333D01*
X99464666Y-107830952D01*
X99512285Y-107878571D01*
X99559904Y-107973809D01*
X99559904Y-108211904D01*
X99512285Y-108307142D01*
X99464666Y-108354761D01*
X99369428Y-108402380D01*
X99131333Y-108402380D01*
X99036095Y-108354761D01*
X98988476Y-108307142D01*
X97655142Y-102052380D02*
X97321809Y-101576190D01*
X97083714Y-102052380D02*
X97083714Y-101052380D01*
X97464666Y-101052380D01*
X97559904Y-101100000D01*
X97607523Y-101147619D01*
X97655142Y-101242857D01*
X97655142Y-101385714D01*
X97607523Y-101480952D01*
X97559904Y-101528571D01*
X97464666Y-101576190D01*
X97083714Y-101576190D01*
X97988476Y-101052380D02*
X98655142Y-101052380D01*
X98226571Y-102052380D01*
X99464666Y-101052380D02*
X99274190Y-101052380D01*
X99178952Y-101100000D01*
X99131333Y-101147619D01*
X99036095Y-101290476D01*
X98988476Y-101480952D01*
X98988476Y-101861904D01*
X99036095Y-101957142D01*
X99083714Y-102004761D01*
X99178952Y-102052380D01*
X99369428Y-102052380D01*
X99464666Y-102004761D01*
X99512285Y-101957142D01*
X99559904Y-101861904D01*
X99559904Y-101623809D01*
X99512285Y-101528571D01*
X99464666Y-101480952D01*
X99369428Y-101433333D01*
X99178952Y-101433333D01*
X99083714Y-101480952D01*
X99036095Y-101528571D01*
X98988476Y-101623809D01*
X97655142Y-95702380D02*
X97321809Y-95226190D01*
X97083714Y-95702380D02*
X97083714Y-94702380D01*
X97464666Y-94702380D01*
X97559904Y-94750000D01*
X97607523Y-94797619D01*
X97655142Y-94892857D01*
X97655142Y-95035714D01*
X97607523Y-95130952D01*
X97559904Y-95178571D01*
X97464666Y-95226190D01*
X97083714Y-95226190D01*
X97988476Y-94702380D02*
X98655142Y-94702380D01*
X98226571Y-95702380D01*
X98940857Y-94702380D02*
X99607523Y-94702380D01*
X99178952Y-95702380D01*
X97655142Y-89352380D02*
X97321809Y-88876190D01*
X97083714Y-89352380D02*
X97083714Y-88352380D01*
X97464666Y-88352380D01*
X97559904Y-88400000D01*
X97607523Y-88447619D01*
X97655142Y-88542857D01*
X97655142Y-88685714D01*
X97607523Y-88780952D01*
X97559904Y-88828571D01*
X97464666Y-88876190D01*
X97083714Y-88876190D01*
X97988476Y-88352380D02*
X98655142Y-88352380D01*
X98226571Y-89352380D01*
X99178952Y-88780952D02*
X99083714Y-88733333D01*
X99036095Y-88685714D01*
X98988476Y-88590476D01*
X98988476Y-88542857D01*
X99036095Y-88447619D01*
X99083714Y-88400000D01*
X99178952Y-88352380D01*
X99369428Y-88352380D01*
X99464666Y-88400000D01*
X99512285Y-88447619D01*
X99559904Y-88542857D01*
X99559904Y-88590476D01*
X99512285Y-88685714D01*
X99464666Y-88733333D01*
X99369428Y-88780952D01*
X99178952Y-88780952D01*
X99083714Y-88828571D01*
X99036095Y-88876190D01*
X98988476Y-88971428D01*
X98988476Y-89161904D01*
X99036095Y-89257142D01*
X99083714Y-89304761D01*
X99178952Y-89352380D01*
X99369428Y-89352380D01*
X99464666Y-89304761D01*
X99512285Y-89257142D01*
X99559904Y-89161904D01*
X99559904Y-88971428D01*
X99512285Y-88876190D01*
X99464666Y-88828571D01*
X99369428Y-88780952D01*
X97655142Y-83002380D02*
X97321809Y-82526190D01*
X97083714Y-83002380D02*
X97083714Y-82002380D01*
X97464666Y-82002380D01*
X97559904Y-82050000D01*
X97607523Y-82097619D01*
X97655142Y-82192857D01*
X97655142Y-82335714D01*
X97607523Y-82430952D01*
X97559904Y-82478571D01*
X97464666Y-82526190D01*
X97083714Y-82526190D01*
X97988476Y-82002380D02*
X98655142Y-82002380D01*
X98226571Y-83002380D01*
X99083714Y-83002380D02*
X99274190Y-83002380D01*
X99369428Y-82954761D01*
X99417047Y-82907142D01*
X99512285Y-82764285D01*
X99559904Y-82573809D01*
X99559904Y-82192857D01*
X99512285Y-82097619D01*
X99464666Y-82050000D01*
X99369428Y-82002380D01*
X99178952Y-82002380D01*
X99083714Y-82050000D01*
X99036095Y-82097619D01*
X98988476Y-82192857D01*
X98988476Y-82430952D01*
X99036095Y-82526190D01*
X99083714Y-82573809D01*
X99178952Y-82621428D01*
X99369428Y-82621428D01*
X99464666Y-82573809D01*
X99512285Y-82526190D01*
X99559904Y-82430952D01*
X123515380Y-93987857D02*
X123039190Y-94321190D01*
X123515380Y-94559285D02*
X122515380Y-94559285D01*
X122515380Y-94178333D01*
X122563000Y-94083095D01*
X122610619Y-94035476D01*
X122705857Y-93987857D01*
X122848714Y-93987857D01*
X122943952Y-94035476D01*
X122991571Y-94083095D01*
X123039190Y-94178333D01*
X123039190Y-94559285D01*
X122943952Y-93416428D02*
X122896333Y-93511666D01*
X122848714Y-93559285D01*
X122753476Y-93606904D01*
X122705857Y-93606904D01*
X122610619Y-93559285D01*
X122563000Y-93511666D01*
X122515380Y-93416428D01*
X122515380Y-93225952D01*
X122563000Y-93130714D01*
X122610619Y-93083095D01*
X122705857Y-93035476D01*
X122753476Y-93035476D01*
X122848714Y-93083095D01*
X122896333Y-93130714D01*
X122943952Y-93225952D01*
X122943952Y-93416428D01*
X122991571Y-93511666D01*
X123039190Y-93559285D01*
X123134428Y-93606904D01*
X123324904Y-93606904D01*
X123420142Y-93559285D01*
X123467761Y-93511666D01*
X123515380Y-93416428D01*
X123515380Y-93225952D01*
X123467761Y-93130714D01*
X123420142Y-93083095D01*
X123324904Y-93035476D01*
X123134428Y-93035476D01*
X123039190Y-93083095D01*
X122991571Y-93130714D01*
X122943952Y-93225952D01*
X122515380Y-92416428D02*
X122515380Y-92321190D01*
X122563000Y-92225952D01*
X122610619Y-92178333D01*
X122705857Y-92130714D01*
X122896333Y-92083095D01*
X123134428Y-92083095D01*
X123324904Y-92130714D01*
X123420142Y-92178333D01*
X123467761Y-92225952D01*
X123515380Y-92321190D01*
X123515380Y-92416428D01*
X123467761Y-92511666D01*
X123420142Y-92559285D01*
X123324904Y-92606904D01*
X123134428Y-92654523D01*
X122896333Y-92654523D01*
X122705857Y-92606904D01*
X122610619Y-92559285D01*
X122563000Y-92511666D01*
X122515380Y-92416428D01*
X137914142Y-87447380D02*
X137580809Y-86971190D01*
X137342714Y-87447380D02*
X137342714Y-86447380D01*
X137723666Y-86447380D01*
X137818904Y-86495000D01*
X137866523Y-86542619D01*
X137914142Y-86637857D01*
X137914142Y-86780714D01*
X137866523Y-86875952D01*
X137818904Y-86923571D01*
X137723666Y-86971190D01*
X137342714Y-86971190D01*
X138485571Y-86875952D02*
X138390333Y-86828333D01*
X138342714Y-86780714D01*
X138295095Y-86685476D01*
X138295095Y-86637857D01*
X138342714Y-86542619D01*
X138390333Y-86495000D01*
X138485571Y-86447380D01*
X138676047Y-86447380D01*
X138771285Y-86495000D01*
X138818904Y-86542619D01*
X138866523Y-86637857D01*
X138866523Y-86685476D01*
X138818904Y-86780714D01*
X138771285Y-86828333D01*
X138676047Y-86875952D01*
X138485571Y-86875952D01*
X138390333Y-86923571D01*
X138342714Y-86971190D01*
X138295095Y-87066428D01*
X138295095Y-87256904D01*
X138342714Y-87352142D01*
X138390333Y-87399761D01*
X138485571Y-87447380D01*
X138676047Y-87447380D01*
X138771285Y-87399761D01*
X138818904Y-87352142D01*
X138866523Y-87256904D01*
X138866523Y-87066428D01*
X138818904Y-86971190D01*
X138771285Y-86923571D01*
X138676047Y-86875952D01*
X139818904Y-87447380D02*
X139247476Y-87447380D01*
X139533190Y-87447380D02*
X139533190Y-86447380D01*
X139437952Y-86590238D01*
X139342714Y-86685476D01*
X139247476Y-86733095D01*
X137914142Y-93797380D02*
X137580809Y-93321190D01*
X137342714Y-93797380D02*
X137342714Y-92797380D01*
X137723666Y-92797380D01*
X137818904Y-92845000D01*
X137866523Y-92892619D01*
X137914142Y-92987857D01*
X137914142Y-93130714D01*
X137866523Y-93225952D01*
X137818904Y-93273571D01*
X137723666Y-93321190D01*
X137342714Y-93321190D01*
X138485571Y-93225952D02*
X138390333Y-93178333D01*
X138342714Y-93130714D01*
X138295095Y-93035476D01*
X138295095Y-92987857D01*
X138342714Y-92892619D01*
X138390333Y-92845000D01*
X138485571Y-92797380D01*
X138676047Y-92797380D01*
X138771285Y-92845000D01*
X138818904Y-92892619D01*
X138866523Y-92987857D01*
X138866523Y-93035476D01*
X138818904Y-93130714D01*
X138771285Y-93178333D01*
X138676047Y-93225952D01*
X138485571Y-93225952D01*
X138390333Y-93273571D01*
X138342714Y-93321190D01*
X138295095Y-93416428D01*
X138295095Y-93606904D01*
X138342714Y-93702142D01*
X138390333Y-93749761D01*
X138485571Y-93797380D01*
X138676047Y-93797380D01*
X138771285Y-93749761D01*
X138818904Y-93702142D01*
X138866523Y-93606904D01*
X138866523Y-93416428D01*
X138818904Y-93321190D01*
X138771285Y-93273571D01*
X138676047Y-93225952D01*
X139247476Y-92892619D02*
X139295095Y-92845000D01*
X139390333Y-92797380D01*
X139628428Y-92797380D01*
X139723666Y-92845000D01*
X139771285Y-92892619D01*
X139818904Y-92987857D01*
X139818904Y-93083095D01*
X139771285Y-93225952D01*
X139199857Y-93797380D01*
X139818904Y-93797380D01*
X137914142Y-100147380D02*
X137580809Y-99671190D01*
X137342714Y-100147380D02*
X137342714Y-99147380D01*
X137723666Y-99147380D01*
X137818904Y-99195000D01*
X137866523Y-99242619D01*
X137914142Y-99337857D01*
X137914142Y-99480714D01*
X137866523Y-99575952D01*
X137818904Y-99623571D01*
X137723666Y-99671190D01*
X137342714Y-99671190D01*
X138485571Y-99575952D02*
X138390333Y-99528333D01*
X138342714Y-99480714D01*
X138295095Y-99385476D01*
X138295095Y-99337857D01*
X138342714Y-99242619D01*
X138390333Y-99195000D01*
X138485571Y-99147380D01*
X138676047Y-99147380D01*
X138771285Y-99195000D01*
X138818904Y-99242619D01*
X138866523Y-99337857D01*
X138866523Y-99385476D01*
X138818904Y-99480714D01*
X138771285Y-99528333D01*
X138676047Y-99575952D01*
X138485571Y-99575952D01*
X138390333Y-99623571D01*
X138342714Y-99671190D01*
X138295095Y-99766428D01*
X138295095Y-99956904D01*
X138342714Y-100052142D01*
X138390333Y-100099761D01*
X138485571Y-100147380D01*
X138676047Y-100147380D01*
X138771285Y-100099761D01*
X138818904Y-100052142D01*
X138866523Y-99956904D01*
X138866523Y-99766428D01*
X138818904Y-99671190D01*
X138771285Y-99623571D01*
X138676047Y-99575952D01*
X139199857Y-99147380D02*
X139818904Y-99147380D01*
X139485571Y-99528333D01*
X139628428Y-99528333D01*
X139723666Y-99575952D01*
X139771285Y-99623571D01*
X139818904Y-99718809D01*
X139818904Y-99956904D01*
X139771285Y-100052142D01*
X139723666Y-100099761D01*
X139628428Y-100147380D01*
X139342714Y-100147380D01*
X139247476Y-100099761D01*
X139199857Y-100052142D01*
X137914142Y-106497380D02*
X137580809Y-106021190D01*
X137342714Y-106497380D02*
X137342714Y-105497380D01*
X137723666Y-105497380D01*
X137818904Y-105545000D01*
X137866523Y-105592619D01*
X137914142Y-105687857D01*
X137914142Y-105830714D01*
X137866523Y-105925952D01*
X137818904Y-105973571D01*
X137723666Y-106021190D01*
X137342714Y-106021190D01*
X138485571Y-105925952D02*
X138390333Y-105878333D01*
X138342714Y-105830714D01*
X138295095Y-105735476D01*
X138295095Y-105687857D01*
X138342714Y-105592619D01*
X138390333Y-105545000D01*
X138485571Y-105497380D01*
X138676047Y-105497380D01*
X138771285Y-105545000D01*
X138818904Y-105592619D01*
X138866523Y-105687857D01*
X138866523Y-105735476D01*
X138818904Y-105830714D01*
X138771285Y-105878333D01*
X138676047Y-105925952D01*
X138485571Y-105925952D01*
X138390333Y-105973571D01*
X138342714Y-106021190D01*
X138295095Y-106116428D01*
X138295095Y-106306904D01*
X138342714Y-106402142D01*
X138390333Y-106449761D01*
X138485571Y-106497380D01*
X138676047Y-106497380D01*
X138771285Y-106449761D01*
X138818904Y-106402142D01*
X138866523Y-106306904D01*
X138866523Y-106116428D01*
X138818904Y-106021190D01*
X138771285Y-105973571D01*
X138676047Y-105925952D01*
X139723666Y-105830714D02*
X139723666Y-106497380D01*
X139485571Y-105449761D02*
X139247476Y-106164047D01*
X139866523Y-106164047D01*
X137914142Y-112847380D02*
X137580809Y-112371190D01*
X137342714Y-112847380D02*
X137342714Y-111847380D01*
X137723666Y-111847380D01*
X137818904Y-111895000D01*
X137866523Y-111942619D01*
X137914142Y-112037857D01*
X137914142Y-112180714D01*
X137866523Y-112275952D01*
X137818904Y-112323571D01*
X137723666Y-112371190D01*
X137342714Y-112371190D01*
X138485571Y-112275952D02*
X138390333Y-112228333D01*
X138342714Y-112180714D01*
X138295095Y-112085476D01*
X138295095Y-112037857D01*
X138342714Y-111942619D01*
X138390333Y-111895000D01*
X138485571Y-111847380D01*
X138676047Y-111847380D01*
X138771285Y-111895000D01*
X138818904Y-111942619D01*
X138866523Y-112037857D01*
X138866523Y-112085476D01*
X138818904Y-112180714D01*
X138771285Y-112228333D01*
X138676047Y-112275952D01*
X138485571Y-112275952D01*
X138390333Y-112323571D01*
X138342714Y-112371190D01*
X138295095Y-112466428D01*
X138295095Y-112656904D01*
X138342714Y-112752142D01*
X138390333Y-112799761D01*
X138485571Y-112847380D01*
X138676047Y-112847380D01*
X138771285Y-112799761D01*
X138818904Y-112752142D01*
X138866523Y-112656904D01*
X138866523Y-112466428D01*
X138818904Y-112371190D01*
X138771285Y-112323571D01*
X138676047Y-112275952D01*
X139771285Y-111847380D02*
X139295095Y-111847380D01*
X139247476Y-112323571D01*
X139295095Y-112275952D01*
X139390333Y-112228333D01*
X139628428Y-112228333D01*
X139723666Y-112275952D01*
X139771285Y-112323571D01*
X139818904Y-112418809D01*
X139818904Y-112656904D01*
X139771285Y-112752142D01*
X139723666Y-112799761D01*
X139628428Y-112847380D01*
X139390333Y-112847380D01*
X139295095Y-112799761D01*
X139247476Y-112752142D01*
X137914142Y-119197380D02*
X137580809Y-118721190D01*
X137342714Y-119197380D02*
X137342714Y-118197380D01*
X137723666Y-118197380D01*
X137818904Y-118245000D01*
X137866523Y-118292619D01*
X137914142Y-118387857D01*
X137914142Y-118530714D01*
X137866523Y-118625952D01*
X137818904Y-118673571D01*
X137723666Y-118721190D01*
X137342714Y-118721190D01*
X138485571Y-118625952D02*
X138390333Y-118578333D01*
X138342714Y-118530714D01*
X138295095Y-118435476D01*
X138295095Y-118387857D01*
X138342714Y-118292619D01*
X138390333Y-118245000D01*
X138485571Y-118197380D01*
X138676047Y-118197380D01*
X138771285Y-118245000D01*
X138818904Y-118292619D01*
X138866523Y-118387857D01*
X138866523Y-118435476D01*
X138818904Y-118530714D01*
X138771285Y-118578333D01*
X138676047Y-118625952D01*
X138485571Y-118625952D01*
X138390333Y-118673571D01*
X138342714Y-118721190D01*
X138295095Y-118816428D01*
X138295095Y-119006904D01*
X138342714Y-119102142D01*
X138390333Y-119149761D01*
X138485571Y-119197380D01*
X138676047Y-119197380D01*
X138771285Y-119149761D01*
X138818904Y-119102142D01*
X138866523Y-119006904D01*
X138866523Y-118816428D01*
X138818904Y-118721190D01*
X138771285Y-118673571D01*
X138676047Y-118625952D01*
X139723666Y-118197380D02*
X139533190Y-118197380D01*
X139437952Y-118245000D01*
X139390333Y-118292619D01*
X139295095Y-118435476D01*
X139247476Y-118625952D01*
X139247476Y-119006904D01*
X139295095Y-119102142D01*
X139342714Y-119149761D01*
X139437952Y-119197380D01*
X139628428Y-119197380D01*
X139723666Y-119149761D01*
X139771285Y-119102142D01*
X139818904Y-119006904D01*
X139818904Y-118768809D01*
X139771285Y-118673571D01*
X139723666Y-118625952D01*
X139628428Y-118578333D01*
X139437952Y-118578333D01*
X139342714Y-118625952D01*
X139295095Y-118673571D01*
X139247476Y-118768809D01*
X137914142Y-125547380D02*
X137580809Y-125071190D01*
X137342714Y-125547380D02*
X137342714Y-124547380D01*
X137723666Y-124547380D01*
X137818904Y-124595000D01*
X137866523Y-124642619D01*
X137914142Y-124737857D01*
X137914142Y-124880714D01*
X137866523Y-124975952D01*
X137818904Y-125023571D01*
X137723666Y-125071190D01*
X137342714Y-125071190D01*
X138485571Y-124975952D02*
X138390333Y-124928333D01*
X138342714Y-124880714D01*
X138295095Y-124785476D01*
X138295095Y-124737857D01*
X138342714Y-124642619D01*
X138390333Y-124595000D01*
X138485571Y-124547380D01*
X138676047Y-124547380D01*
X138771285Y-124595000D01*
X138818904Y-124642619D01*
X138866523Y-124737857D01*
X138866523Y-124785476D01*
X138818904Y-124880714D01*
X138771285Y-124928333D01*
X138676047Y-124975952D01*
X138485571Y-124975952D01*
X138390333Y-125023571D01*
X138342714Y-125071190D01*
X138295095Y-125166428D01*
X138295095Y-125356904D01*
X138342714Y-125452142D01*
X138390333Y-125499761D01*
X138485571Y-125547380D01*
X138676047Y-125547380D01*
X138771285Y-125499761D01*
X138818904Y-125452142D01*
X138866523Y-125356904D01*
X138866523Y-125166428D01*
X138818904Y-125071190D01*
X138771285Y-125023571D01*
X138676047Y-124975952D01*
X139199857Y-124547380D02*
X139866523Y-124547380D01*
X139437952Y-125547380D01*
X113482380Y-118625857D02*
X113006190Y-118959190D01*
X113482380Y-119197285D02*
X112482380Y-119197285D01*
X112482380Y-118816333D01*
X112530000Y-118721095D01*
X112577619Y-118673476D01*
X112672857Y-118625857D01*
X112815714Y-118625857D01*
X112910952Y-118673476D01*
X112958571Y-118721095D01*
X113006190Y-118816333D01*
X113006190Y-119197285D01*
X112910952Y-118054428D02*
X112863333Y-118149666D01*
X112815714Y-118197285D01*
X112720476Y-118244904D01*
X112672857Y-118244904D01*
X112577619Y-118197285D01*
X112530000Y-118149666D01*
X112482380Y-118054428D01*
X112482380Y-117863952D01*
X112530000Y-117768714D01*
X112577619Y-117721095D01*
X112672857Y-117673476D01*
X112720476Y-117673476D01*
X112815714Y-117721095D01*
X112863333Y-117768714D01*
X112910952Y-117863952D01*
X112910952Y-118054428D01*
X112958571Y-118149666D01*
X113006190Y-118197285D01*
X113101428Y-118244904D01*
X113291904Y-118244904D01*
X113387142Y-118197285D01*
X113434761Y-118149666D01*
X113482380Y-118054428D01*
X113482380Y-117863952D01*
X113434761Y-117768714D01*
X113387142Y-117721095D01*
X113291904Y-117673476D01*
X113101428Y-117673476D01*
X113006190Y-117721095D01*
X112958571Y-117768714D01*
X112910952Y-117863952D01*
X112910952Y-117102047D02*
X112863333Y-117197285D01*
X112815714Y-117244904D01*
X112720476Y-117292523D01*
X112672857Y-117292523D01*
X112577619Y-117244904D01*
X112530000Y-117197285D01*
X112482380Y-117102047D01*
X112482380Y-116911571D01*
X112530000Y-116816333D01*
X112577619Y-116768714D01*
X112672857Y-116721095D01*
X112720476Y-116721095D01*
X112815714Y-116768714D01*
X112863333Y-116816333D01*
X112910952Y-116911571D01*
X112910952Y-117102047D01*
X112958571Y-117197285D01*
X113006190Y-117244904D01*
X113101428Y-117292523D01*
X113291904Y-117292523D01*
X113387142Y-117244904D01*
X113434761Y-117197285D01*
X113482380Y-117102047D01*
X113482380Y-116911571D01*
X113434761Y-116816333D01*
X113387142Y-116768714D01*
X113291904Y-116721095D01*
X113101428Y-116721095D01*
X113006190Y-116768714D01*
X112958571Y-116816333D01*
X112910952Y-116911571D01*
X121094595Y-70635880D02*
X121094595Y-71445404D01*
X121142214Y-71540642D01*
X121189833Y-71588261D01*
X121285071Y-71635880D01*
X121475547Y-71635880D01*
X121570785Y-71588261D01*
X121618404Y-71540642D01*
X121666023Y-71445404D01*
X121666023Y-70635880D01*
X122570785Y-70969214D02*
X122570785Y-71635880D01*
X122332690Y-70588261D02*
X122094595Y-71302547D01*
X122713642Y-71302547D01*
X114046095Y-38250880D02*
X114046095Y-39060404D01*
X114093714Y-39155642D01*
X114141333Y-39203261D01*
X114236571Y-39250880D01*
X114427047Y-39250880D01*
X114522285Y-39203261D01*
X114569904Y-39155642D01*
X114617523Y-39060404D01*
X114617523Y-38250880D01*
X115569904Y-38250880D02*
X115093714Y-38250880D01*
X115046095Y-38727071D01*
X115093714Y-38679452D01*
X115188952Y-38631833D01*
X115427047Y-38631833D01*
X115522285Y-38679452D01*
X115569904Y-38727071D01*
X115617523Y-38822309D01*
X115617523Y-39060404D01*
X115569904Y-39155642D01*
X115522285Y-39203261D01*
X115427047Y-39250880D01*
X115188952Y-39250880D01*
X115093714Y-39203261D01*
X115046095Y-39155642D01*
X57658095Y-117689380D02*
X57658095Y-118498904D01*
X57705714Y-118594142D01*
X57753333Y-118641761D01*
X57848571Y-118689380D01*
X58039047Y-118689380D01*
X58134285Y-118641761D01*
X58181904Y-118594142D01*
X58229523Y-118498904D01*
X58229523Y-117689380D01*
X58610476Y-117689380D02*
X59277142Y-117689380D01*
X58848571Y-118689380D01*
X114173095Y-87336380D02*
X114173095Y-88145904D01*
X114220714Y-88241142D01*
X114268333Y-88288761D01*
X114363571Y-88336380D01*
X114554047Y-88336380D01*
X114649285Y-88288761D01*
X114696904Y-88241142D01*
X114744523Y-88145904D01*
X114744523Y-87336380D01*
X115363571Y-87764952D02*
X115268333Y-87717333D01*
X115220714Y-87669714D01*
X115173095Y-87574476D01*
X115173095Y-87526857D01*
X115220714Y-87431619D01*
X115268333Y-87384000D01*
X115363571Y-87336380D01*
X115554047Y-87336380D01*
X115649285Y-87384000D01*
X115696904Y-87431619D01*
X115744523Y-87526857D01*
X115744523Y-87574476D01*
X115696904Y-87669714D01*
X115649285Y-87717333D01*
X115554047Y-87764952D01*
X115363571Y-87764952D01*
X115268333Y-87812571D01*
X115220714Y-87860190D01*
X115173095Y-87955428D01*
X115173095Y-88145904D01*
X115220714Y-88241142D01*
X115268333Y-88288761D01*
X115363571Y-88336380D01*
X115554047Y-88336380D01*
X115649285Y-88288761D01*
X115696904Y-88241142D01*
X115744523Y-88145904D01*
X115744523Y-87955428D01*
X115696904Y-87860190D01*
X115649285Y-87812571D01*
X115554047Y-87764952D01*
X120967595Y-115466880D02*
X120967595Y-116276404D01*
X121015214Y-116371642D01*
X121062833Y-116419261D01*
X121158071Y-116466880D01*
X121348547Y-116466880D01*
X121443785Y-116419261D01*
X121491404Y-116371642D01*
X121539023Y-116276404D01*
X121539023Y-115466880D01*
X122062833Y-116466880D02*
X122253309Y-116466880D01*
X122348547Y-116419261D01*
X122396166Y-116371642D01*
X122491404Y-116228785D01*
X122539023Y-116038309D01*
X122539023Y-115657357D01*
X122491404Y-115562119D01*
X122443785Y-115514500D01*
X122348547Y-115466880D01*
X122158071Y-115466880D01*
X122062833Y-115514500D01*
X122015214Y-115562119D01*
X121967595Y-115657357D01*
X121967595Y-115895452D01*
X122015214Y-115990690D01*
X122062833Y-116038309D01*
X122158071Y-116085928D01*
X122348547Y-116085928D01*
X122443785Y-116038309D01*
X122491404Y-115990690D01*
X122539023Y-115895452D01*
M02*
